<svg id="hitode" data-name="レイヤー 1" xmlns="http://www.w3.org/2000/svg" viewBox="0 0 2791.82 2823.96"><defs><style>.cls-1{fill:#fff;}.cls-2{fill:red;}.cls-3{fill:#f99;}.cls-4{fill:none;}</style></defs><path d="M2461.14,2816.37c.5-5.85,1-11.7,1.48-17.47,17.82.88,17.82.88,26.44,10.79,5-1.21,10.14-2.13,15-3.76a24.72,24.72,0,0,0,8.68-4.81c7.55-6.89,15.77-13.41,21.76-21.52,5.08-6.88,9.79-13.56,16.9-18.51,2.27-1.58,3.46-4.78,5-7.34,2.7-4.54,5.64-9,7.8-13.78,2.84-6.3,7.16-12.94,7-19.35-.25-11.32,4.17-21.37,5.82-32.08,2-12.7,5.86-25.08,8.54-37.68,2.43-11.36,4.44-22.8,6.46-34.24.63-3.58.68-7.26,1-10.9.45-5.58-.37-10.5-7.77-11.78,1.81-2.53,3.15-4,4-5.69,1.89-3.73,4.64-7.47,5.07-11.42q2.71-24.76,4.15-49.66c.8-13.6.71-27.26,1.25-40.89.46-11.65-2.25-23.27-2-34.55.21-10.33-2.83-20-2.64-30.19.2-10.38-3.25-20.9-5.66-31.23-1.39-5.93-3.9-11.6-6.46-19,3.35-6,3.25-13.73-1-21.67-1.31-2.45-1.22-5.65-1.69-8.52-1.58-9.73-1.59-19.51-5.36-29.12-5.18-13.2-8.15-27.26-12.07-40.95a32.45,32.45,0,0,0-1.36-4.78c-8.95-19.44-12.77-40.51-19.43-60.66-4.86-14.73-8.08-29.91-14-44.4-4.73-11.56-6.29-24.41-9.48-36.62-.91-3.48-2-7.16-4.06-10.06-13.38-19.17-24.58-39.4-32.06-61.66-2-5.92-5.64-11.26-8.43-16.91q-11.88-24.15-23.68-48.33c-.44-.9-.79-1.83-1.2-2.74-4.72-10.61-9-21.44-14.3-31.76-4.36-8.51-9.87-16.44-14.9-24.61a24.68,24.68,0,0,1-1.81-2.36c-4.67-10.24-9.2-20.54-13.91-30.76-3.77-8.16-8.33-16-11.52-24.38-8.17-21.43-15.58-43.16-23.72-64.61-2.21-5.82-6.31-10.9-8.93-16.6a492.54,492.54,0,0,0-26.68-50c-8.61-14.22-17.81-28.13-25.64-42.76-8.6-16.09-15.91-32.86-23.82-49.32Q2277,1633.31,2270,1619c-7.58-15.49-15.72-30.73-22.6-46.52-4.22-9.69-6.46-20.22-9.69-30.34-2.23-7-3.75-14.34-7.16-20.68-5.94-11-9-22.77-11.9-34.8-3.87-16.12-8.55-32.05-13.18-48-1.94-6.68-4.52-13.2-7-19.7a117.38,117.38,0,0,1-7.9-37c-.8-16.29-2.05-32.57-2.18-48.86-.13-15.62.86-31.26,1.55-46.88.1-2.24,1.19-4.47,2-6.65,4.66-13.14,10.08-26,13.85-39.43,4.51-16,12-30.28,21.42-43.67q26.76-37.87,53.81-75.55c7-9.71,14-19.52,22.09-28.33,15.29-16.7,31.58-32.28,54.07-39.36,4.36-1.37,8.34-4.14,12.26-6.64a448.74,448.74,0,0,1,51.49-28.39c12-5.6,23.19-13.09,34.51-20.1,11.64-7.2,23.61-13.4,36.82-17.37,7.59-2.28,14.47-6.89,22-9.2,12.84-3.91,24.48-10.18,36.54-15.78,15.28-7.09,28.83-16.69,42.19-26.48,20.62-15.12,41.64-29.84,60.07-47.73,13.36-13,26.18-26.46,39.58-39.36,20.45-19.69,38.21-41.66,55.43-64.1,13.41-17.46,22.72-36.55,23.9-59.13.63-11.92,3.12-23.74,3.79-35.66.43-7.53.28-15.53-1.83-22.65a95.62,95.62,0,0,1-3.71-28.55c.16-13.67-4.63-26-11.43-36.7-4.84-7.59-10.14-15.1-15.11-22.76a19.77,19.77,0,0,0-7.44-6.49c-9-4.51-14.44-12.48-21-19.51-6.43-6.87-10.29-15.37-15.83-22.59-12.28-16-25.18-31.75-44.66-40.15-6.66-2.87-12.45-7.68-19-10.91-8-4-16.36-7.34-24.64-10.78-8.54-3.56-17.33-6.55-25.72-10.4-17.94-8.22-36.13-14.87-56.24-15.48-14.56-.44-29.09-2.11-43.63-3.21a6.68,6.68,0,0,0-3,.05c-17,7.24-34,.84-51-.33-8.12-.56-16.16-3.83-24.22-3.74-13.24.15-27,.2-39.59,3.6-20.1,5.41-40.22,3.46-60.38,4.21-5.51.2-10.94,2.09-16.45,3s-11.29,2.6-16.75,2.05c-21.26-2.15-40.79-8.08-54.16-26.78-5.17-7.23-11.39-13.75-17.42-20.34-5.22-5.7-7.48-12.78-8.62-19.91-2.88-18-6-36.08-3.14-54.53,1.63-10.52,1.88-21.25,3.59-31.75,1.33-8.17-2.06-15.06-4.55-22.12-2.18-6.21-5.62-12-8.78-17.82A58.12,58.12,0,0,0,2166.77,231c-5-4.06-8.66-9.66-11.78-15.81l4.19,1.25,1-1c-2.34-1.8-5-5.4-7-5.07-5.88,1-8.32-3.1-11.81-5.93-9-7.33-18.21-14.44-27.09-21.92-3.52-3-6.48-6.62-9.56-10.07-2.2-2.47-3.74-5.76-6.34-7.62-13.44-9.62-26.23-20.31-42.23-25.87-7.84-2.73-15.2-7-23.15-9.22-10.22-2.9-20.79-4.56-31.24-6.63a108.67,108.67,0,0,1-23.58-7.61c-13.72-6.14-28.61-10.13-43.71-7.62-10,1.66-19.42,6.37-29.1,9.72-5.77,14.23-22.42,10.95-31.68,19.66-3.78,3.56-8.34,6.29-12.28,9.71-5.21,4.53-9.26,10.25-16.3,12.8a18.83,18.83,0,0,0-8.9,7.59c-2.69,4.43-6.82,5.4-10.74,7.74-14.45,8.64-31.35,13.36-43.17,26.36-2.19,2.4-4.86,5.1-7.81,6-9,2.59-15.37,8.87-22.73,14s-16.33,8.58-24.73,12.44c-8.16,3.74-16.54,7-24.76,10.62-2.42,1.07-5.26,2.1-6.84,4-10.09,12.41-25.33,14.05-39,18.17-21.33,6.43-43.22,11-64.77,16.67-8.32,2.2-16.39,5.36-24.58,8.05-1.27.41-2.63,1.05-3.87.92-20.55-2.15-41,5.15-61.53.81-1.62-.34-4.09-.12-4.71-1.09-4.15-6.52-11-6.55-17.36-8.16-4.13-1-8-3.19-11.91-5-2.82-1.34-5-4.64-8.88-1.86-.68.49-2.94-.89-4.28-1.71-17-10.42-34.18-20.55-50.84-31.48-9.64-6.33-19.17-13.14-24.77-23.95-2.16-4.17-5-7.61-11-6.38-4.09.83-6.69-1.85-7.89-6a79.88,79.88,0,0,0-4.46-12.18c-5.06-10.57-11.16-20-21.72-26.55-8.65-5.38-15.37-13.78-25.43-17.3a4.84,4.84,0,0,1-2.24-1.92c-8.8-13.92-22.88-22.89-33.16-35.42a11.32,11.32,0,0,0-2.7-2.92c-12.29-6.88-20.71-17.43-28.44-28.85-1.57-2.32-5.37-4.6-8-4.46-15.52.87-24.07-9.55-32.3-19.79-3.23-4-4.88-8.28-10.51-10.69-3.94-1.69-6-8-8.66-12.39C1174.81,22.33,1167,11.12,1150,9.25c-23.4-2.58-46.4-3.3-69,4.18-13.2,4.36-26.92,3.72-40.41,5.29-5.9.69-11.71,2.75-17.58,2.86-12.81.24-25.67,4.75-38.36.71C979,20.47,974.5,20.21,970,24.34A10.56,10.56,0,0,1,964.67,27c-7.23,1-12.91,4.08-16.87,10.4-.61,1-2.76,1.26-4.25,1.42-4.56.49-9.46.35-8.86,7.2a2,2,0,0,1-1,1.54c-9.71,3.84-12.26,14.47-20,20.27,2.15,4.54,4.11,8.66,6.74,14.19-3.88,0-5.79.25-7.61,0-4.81-.78-7.79,1.5-9.26,5.69-6.84,19.43-15,38.56-19.82,58.48-3.87,15.93-3.71,32.84-5.28,49.33-.31,3.31-.48,6.65-.47,10,0,4.92-2.11,7.88-5.86,11.55-14.05,13.76-26.67,28.74-30.3,49.21-.69,3.9-3.17,7.75-5.63,11-6.36,8.47-12.48,17.3-24,19.9-2.58.59-4.59,3.5-7,5.21-12.91,9.34-25.63,19-38.86,27.85-10.73,7.21-22.14,13.41-33.12,20.26-4.18,2.6-7.71,6.37-12.06,8.57a219.81,219.81,0,0,1-21.78,9.24c-4,1.49-8.25,2.14-12.38,3.22-11.63,3-23.06,4.35-35.38,2.84a120.65,120.65,0,0,1-32.8-8.32c-8.43-3.52-14.08-9.54-20.67-14.57-16.28-12.41-33.53-21.17-54.52-21-18.58.12-37,.93-55.16,5.61a17.24,17.24,0,0,1-5.91.82c-20.32-2.15-39.32,4.45-57.83,10.67-12.52,4.21-26.32,6.41-37.11,15.66-3.58,3.07-9.19,3.72-13.76,5.72-6,2.64-12.62,4.48-15.85,11.31-.75,1.6-2.86,2.78-4.59,3.67-8.61,4.41-13.74,12.2-19.55,19.44-6.17,7.7-12.71,15.11-19.36,22.41a8.93,8.93,0,0,1-6,2.85c-7.7-.15-12.34,4.64-16.38,9.89-13.38,17.37-27,34.57-37.57,53.93-10.07,18.55-17.63,38.17-21,59-2.55,15.72-4.78,31.91-3.82,47.69,1.71,28.11,1.25,57,11.59,83.68,8.6,22.22,17,44.9,33.09,63.35,12.62,14.46,23.75,30.12,37.95,43.34,11.83,11,21.49,24.34,32.91,35.86,9.08,9.16,19.38,17.11,29.08,25.68,3.72,3.29,7.24,6.82,10.87,10.22,12.39,11.6,26.27,21.33,39.56,31.8,10.17,8,19.64,16.84,26.95,28.58,9.95,16,18.84,32.65,29.28,48.36a26.59,26.59,0,0,1,3.74,12c2.18,24.91-.95,49.7-2.57,74.5-.38,5.89-1.41,12.14-3.89,17.4-2.92,6.2-2.26,12.26-2.18,18.47.17,12.63,1.29,25.31.61,37.89-.61,11.3,1.19,22.53.5,33.62s-4.43,22-6.75,33.08c-2.25,10.68-4.41,21.38-6.58,32.08-.33,1.6-.23,3.36-.85,4.83-3.15,7.6-6.49,15.12-9.72,22.7a13.91,13.91,0,0,0-1.53,4.71c-.22,8-4.21,14.61-8,21.25-3.42,6-5.17,12.38-3.83,19.17,3.3,16.65-5,28.39-16.82,37.87a33.28,33.28,0,0,0-10.11,13,76.28,76.28,0,0,1-6.84,12c-3.2,4.67-7,9-7.15,15.06a6.79,6.79,0,0,1-1,2.82c-5.6,10.37-11.45,20.62-16.78,31.13a44.34,44.34,0,0,0-3.76,12.27c-1.88,10.48-2.68,21.19-5.16,31.51-2.15,9-6.67,17.34-8.93,26.29-2.57,10.17-5.57,19.86-10.51,29.31-10,19.14-17.26,39.82-28.19,58.36-12.52,21.26-22.48,43.7-34.14,65.3-15.55,28.85-26.26,59.67-38.6,89.84-8.32,20.33-17,40.5-25.35,60.84-3.77,9.24-6.72,18.81-10.47,28.07-4.36,10.77-9.14,21.37-13.83,32-11.38,25.81-22.92,51.55-34.19,77.4-10.09,23.17-20.1,46.37-29.78,69.71-5.08,12.26-8.95,25-14.13,37.23-4.39,10.32-10.11,20.07-14.8,30.27-3.16,6.9-5.27,14.29-8.34,21.24-7.24,16.43-15.26,32.54-22,49.16-4.48,11.05-7.29,22.77-10.91,34.18-3.21,10.14-6.11,20.41-9.84,30.36-6.63,17.66-14.58,34.86-20.47,52.75-5.17,15.72-8.33,32.11-12.27,48.23-2.76,11.3-5.57,22.59-7.94,34-1.41,6.8-3.13,13.84-2.76,20.66,1.06,19.54,3.35,39,4.73,58.55,1.5,21.14,2.43,42.32,3.75,63.47C24.7,2494,24.16,2514,28,2533c4.23,21.26,10.33,42.22,24,60.6,7.09,9.54,13.43,20.2,19.79,30.55,3.89,6.33,9.92,11.48,15.47,16.64,6.75,6.29,13.52,12.78,21.19,17.79,6,3.88,13.16,6.11,20.07,8.22,14.89,4.53,30,8.56,45,12.7,5.75,1.58,11.52,3.14,17.36,4.31,8.46,1.7,17,3.34,25.51,4.44a233.81,233.81,0,0,0,25.74,2.12c22.87.37,45.84,2.88,68.52-2.52a28.35,28.35,0,0,1,8.91-.88c17.7,1.64,32.11-4.53,45.45-16.16,14.34-12.51,30.74-21.76,49.88-26,7.5-1.65,14.07-7.15,21.39-10.1,18.49-7.46,32.83-21.24,49.32-31.72,7-4.43,14.28-8.34,21.39-12.57,9.12-5.43,18.06-11.18,27.32-16.37,26.51-14.85,47.1-36.67,68.55-57.53,13.8-13.41,27.46-27.13,45.46-35.15,2.13-1,4.29-1.8,6.44-2.69,5.82-2.42,12.16-4,17.33-7.44,11.19-7.37,23.52-11.85,35.76-16.93,10.94-4.54,21.83-10.33,31-17.72,10.66-8.56,23.16-11.48,35.3-15.68,11.9-4.11,24.18-7.12,36.28-10.67,1.59-.46,3.12-1.83,4.63-1.76,16.24.73,29.82-8.94,45.22-11.41a6.63,6.63,0,0,0,2.89-.71c7.55-5.82,16.86-5.4,25.52-7.32,19.46-4.31,38.54-10.29,58.7-11.37,7.57-.4,15.09-.29,21.49,3,19.24,9.77,38.24,20.08,56.81,31.07,6.68,4,11.79,10.52,17.75,15.74,12.17,10.67,24,21.72,34.53,34,1.3,1.5,3,2.72,4,4.37,8.37,13.5,17.08,26.8,24.79,40.66,9.84,17.68,18.22,36.2,28.44,53.64,6.14,10.49,14.57,19.64,22,29.35,3,3.92,6.2,7.68,9.19,11.6,1.41,1.85,2.17,4.37,3.88,5.77,14.6,12,25.59,27.72,41.33,38.58,7,4.85,12.59,11.82,19.08,17.54,4.7,4.15,9.82,7.82,14.78,11.68.78.6,1.84.88,2.55,1.54,21.68,20.12,48,23.56,76,21.53,8.57-.62,17.23.25,25.85.39,3.64.06,8.14,1.38,10.77-.25,9.83-6.08,21.41-4.42,31.59-8.2,12-4.48,24.06-9.21,35.68-14.69,12.54-5.91,24.61-12.83,36.89-19.31a2.16,2.16,0,0,0,.81-.57c10.17-14.3,29.48-17.63,39.12-32.56a2.91,2.91,0,0,1,.69-.71c14-10,27.85-20.28,42.08-30,18.16-12.37,35.77-25.07,48.89-43.28a340.84,340.84,0,0,1,27.48-32.9c14.69-15.76,30-31,45.29-46.15a51.71,51.71,0,0,1,12-8.65c11.13-5.93,22.75-11,33.75-17.13,15.67-8.76,31.09-18,46.36-27.46,5-3.12,9.23-3.63,14.88-1.45a59.54,59.54,0,0,0,18.44,3.64c10.73.5,19.5,3.61,25,13.48,3.23,5.73,6.72,11.34,10.4,16.79a25.05,25.05,0,0,0,6.13,6.36c5.22,3.67,8.51,8.39,9.42,14.67.74,5.09,2.22,9.61,6.67,12.87a8.92,8.92,0,0,1,3.1,5c2.68,13.07,12.32,21.81,19.51,32.09,7.59,10.86,15.21,21.71,22.32,32.88,6.22,9.77,12.38,19.34,19.87,28.41s15,18.36,23.08,27.12c5.11,5.57,10.09,11.26,14.8,17.15,6.37,8,12,16.55,18.74,24.19,7.39,8.38,15.76,15.88,23.5,23.95,6.41,6.69,13.27,13.13,18.62,20.61,8.69,12.14,19.9,21.35,31.4,30.44,5.47,4.31,10.67,9,16.07,13.38a36.81,36.81,0,0,0,5.81,3.81c4.91,2.61,9.86,5.16,14.9,7.53,1.76.83,3.82,1,5.73,1.53,8.29,2.32,16.72,4.21,24.82,7.07,19.7,7,39.21,14.47,58.84,21.64,10.28,3.76,20.77,7,30.93,11,8,3.18,15.72,5.38,24.17.86,1.72,2,3,4,4.67,5.42,2.67,2.27,5.38,4.78,8.53,6.11,5.18,2.19,10.72,3.5,16.11,5.2a25.65,25.65,0,0,0,4.75,1.51c9.45,1,18.91,2.12,28.4,2.61,3.57.18-86.53-.06-87.71-.46-9.68-3.33-19.55-6.12-29.33-9.16a19.63,19.63,0,0,1-4.1-1.92c-3.31-2-6.48-5.59-9.85-5.77-11-.6-19.75-7.42-30-9.87-1.93-.46-3.77-1.5-5.7-1.65-13.86-1-26-7.24-38.29-12.77-2.42-1.09-4.86-2.5-7.42-2.87-15.44-2.2-25.26-13.44-36.62-22.26-6.49-5-13.25-9.74-19.89-14.59-4-2.92-8.29-5.5-11.88-8.85a33,33,0,0,1-7.08-9.5,50.92,50.92,0,0,0-14.51-17.92c-12.43-10.09-25.49-20.19-32.11-35.77a7.36,7.36,0,0,0-2.26-3.23c-12.23-7.93-17.18-21.88-26.68-32.07q-15.24-16.33-29.85-33.24a55,55,0,0,1-8.36-13.24c-7.36-16.54-18.11-30.84-28.46-45.51-11.66-16.55-23-33.21-32.19-51.54-6.55-13.13-14.57-26.22-26.58-35.77-1.53-1.21-3.21-2.66-5-3-8.82-1.63-17.69-2.94-26.55-4.32s-16.62,1.56-23.42,6.67c-10.17,7.64-21.8,12.72-32.47,19.31-11.37,7-24.2,12.19-33,23.55-5.33,6.89-13.27,11.81-20.21,17.39-18.59,14.91-34,32.79-48.34,51.64-2.76,3.63-4.52,8.19-6,12.56-3,8.63-9.27,13.37-17.25,16.85a73.47,73.47,0,0,0-11.72,7c-6.57,4.48-12.81,9.47-19.51,13.74-13,8.3-23.33,19.66-34.56,30-1.46,1.35-2.8,3.28-4.54,3.8-11.51,3.39-18.51,12.72-26.79,20.25-5.52,5-11.62,8.44-18.39,11.55-8.92,4.11-17.71,8.75-26.29,13.78-9.45,5.54-17.52,13-27.28,17.8-4.36,2.12-9.54,2.58-14.36,3.75-4.51,1.09-9.48,1.24-13.49,3.3-18.36,9.44-37.61,10.76-57.42,7a33.52,33.52,0,0,0-17.62,1.33c-9.23,3.18-17.88,2.41-27.12-1.43-9.65-4-19.42-8.18-30.3-8.92-9.61-.64-17.33-6.63-24.88-12-6.69-4.79-13.19-9.74-18.09-16.89-4.05-5.91-10.14-10.48-15.63-15.31-17.43-15.31-35.28-30.09-49-49.19-5.59-7.79-12.33-14.73-16.3-23.64a10.16,10.16,0,0,0-2.89-4c-17.46-12.91-24.58-33-33.67-51.12-10-20-20.28-39.73-33-58-7.11-10.21-16.33-19.1-25.37-27.79-10.5-10.11-21.55-19.73-32.95-28.82-5.65-4.5-12.54-7.49-19-10.89-5.89-3.1-11.77-6.42-18-8.58-8.09-2.8-16.5-6.08-24.85-6.33-9.45-.28-19.17,1.9-28.47,4.2-19,4.7-37.87,10.18-56.77,15.42-2.84.79-5.52,2.13-8.32,3.06-5,1.66-10.09,4.51-15.15,4.56-16.5.17-31,7.09-46,12.16-2.19.73-4.4,1.41-6.61,2.07-4.06,1.2-8.12,2.35-12.17,3.57-3.17,1-6.26,2.46-9.5,2.9-7.25,1-13,4.83-18.75,8.8-17.86,12.3-36.88,22.3-57.6,28.91a31.42,31.42,0,0,0-5.52,2.31c-16.28,9-32.78,17.63-48.65,27.29-7,4.27-12.95,10.4-19,16.13-7.21,6.86-14,14.17-20.93,21.31-2.55,2.63-5.22,5.17-7.51,8-10.37,12.94-24,21.21-38,29.78-17,10.33-33.54,21.31-50.83,31.16-4.53,2.58-8.09,6.93-12.68,9.39-21.92,11.75-42.38,26.16-65.95,35a91.26,91.26,0,0,0-28.85,17.39c-5.59,5-12.89,8-19.36,12-3.36,2.07-6.89,4-9.84,6.56-7.37,6.41-15.39,10.4-25.49,9-2.26-.3-4.9-.47-6.9.4-10.51,4.54-21.48,3.57-32.48,3.66-9.23.08-18.46,1.41-27.68,2.29-15,1.44-29.75-.88-44.45-3.54q-17.62-3.2-35.25-6.36c-8.52-1.54-16.59-3.69-24.37-8.22-6.06-3.52-13.84-4.29-20.95-5.78-21.05-4.4-41.25-11-57.78-25.24-9.68-8.36-18.29-18-27.24-27.14-1.32-1.35-1.84-3.47-2.79-5.2-3.49-6.39-6.95-12.79-10.5-19.13-7.92-14.13-16-28.19-23.78-42.37a36.4,36.4,0,0,1-3.55-9.3c-4-17.15-7.23-34.37-7.67-52.12-.44-17.91-3.77-35.88-2.82-53.66.89-16.68-4.32-32.13-5.43-48.32-2.25-33.05-1.59-65.53,9.07-97.44,4.93-14.77,7.08-30.44,11.22-45.49,2.8-10.21,6.91-20.06,10.37-30.09C37.32,2217,43,2200.81,48.42,2184.5c7.18-21.74,14.84-43.25,24.3-64.14,9.06-20,17.09-40.44,25.72-60.62,7.19-16.82,14.86-33.45,21.85-50.36,7.1-17.17,13.31-34.71,20.5-51.84q15.06-35.88,31-71.38c9-20,19.12-39.51,27.52-59.74,9.17-22.09,16.73-44.86,25.4-67.17,4.58-11.77,10.26-23.11,15.05-34.8,7.55-18.45,14.53-37.13,22.25-55.5,3.59-8.55,8.51-16.53,12.53-24.91,4.89-10.18,9-20.74,14.28-30.73,9.87-18.85,20.4-37.35,30.46-56.1,6.14-11.44,12.92-22.69,17.63-34.73,7.74-19.78,15.86-39.54,20-60.56,1-5.21,2.28-10.39,3.53-16-1.18-1-2.34-2.09-3.59-3-5-3.77-5.3-5.59-2.57-10.7,1.82-3.42,3.1-7.12,4.74-10.64,1-2.09,1.73-4.55,3.33-6,10.84-9.84,14.5-23.6,20.21-36.24,1.09-2.41,1.79-5.12,3.34-7.19,13.3-17.83,21.59-38.11,29.37-58.71,2.81-7.45,7.25-14.28,10-21.73,7.9-21.19,16.68-42.19,22.55-64,5.42-20.14,8-41.09,10.93-61.82,2.22-15.79,4.85-31.89,4-47.66-1.73-30.56,4.43-60.33,6.14-90.51.37-6.51-.66-13.18-1.62-19.69-.91-6.23-2.7-12.34-3.85-18.54-2.42-13-8.77-24.25-15.69-35.22a303.31,303.31,0,0,0-29.68-39.67A140.78,140.78,0,0,0,391.41,891a9.65,9.65,0,0,1-2.28-1.93c-12.85-16.48-32.79-21.79-49.7-31.91-6.41-3.85-11.75-9.62-17.18-14.92a182.13,182.13,0,0,1-13.31-14.85c-6.3-7.69-12.68-15.2-16.07-25-1.89-5.45-6.21-10.09-9.61-15-2.67-3.82-6.21-7.14-8.32-11.22-5.35-10.28-13.59-18-21.93-25.54-7.35-6.63-8.52-16.31-13.42-24.07a1.23,1.23,0,0,1-.06-1c4.28-10.95-2.63-19.12-6.91-27.95a119.37,119.37,0,0,1-11.16-37.14c-1.71-13.52-2.77-27.12-4.42-40.65-2.15-17.69,1.37-35.13,2-52.7.48-12.68,2.73-25.07,8.54-36.68,2.19-4.38,3-9.45,4.45-14.19,5.9-19,18.87-34.2,28.15-51.38,5.6-10.36,14.29-19.14,22.07-28.21,12.75-14.87,25.14-30.17,39.11-43.83,10.53-10.29,20.27-22.09,34.86-27.66,3.6-1.38,6.4-4.74,9.82-6.78a105.05,105.05,0,0,1,13.16-6.91c4.51-1.91,9.84-2.27,13.9-4.78,14.63-9,31.37-12.78,46.83-19.66,3-1.36,5.93-3.11,9-4.2,2.4-.84,5.65-2.07,7.52-1.13,6,3,11.66.83,17.51.17,11.57-1.3,23.18-2.29,34.76-3.4a16.42,16.42,0,0,0,2-.11c13.75-3.29,27.52-4.35,41.35-.44,18.1-4,32.77,2.83,46.93,13.5,9.2,6.93,19.81,12,29.89,17.73,2,1.12,4.37,1.49,6.58,2.15,2.54.76,5.44.92,7.59,2.29,12.85,8.13,26,8.89,39.92,2.93,2.69-1.16,5.82-1.28,8.76-1.84,5.55-1.06,11.35-1.49,13.65-8.22.39-1.17,2.49-2.36,3.9-2.49,12.92-1.13,22.33-9.06,32.16-16.24,1.86-1.36,3.81-2.61,5.75-3.86,7.8-5,15.62-10,23.41-15,1.1-.72,2.53-1.54,2.94-2.64,4.44-11.91,15.91-15.91,25.45-21.25a79,79,0,0,0,24.52-21.28c9.13-11.77,15.86-23.85,11.62-39.38,3.44-15,2.8-30.79,8.52-45.51,6.24-16.06,12.14-32.28,17.16-48.75,3.12-10.22,9.27-18.31,15-26.83,4.61-6.85,9.25-13.67,14.05-20.39,1.89-2.65,3.85-5.55,6.46-7.34,6.15-4.2,9.81-10.07,11.83-16.84,3.11-10.38,8.9-17.57,19.78-20.41,3.43-.89,6.69-3,9.64-5,10.8-7.62,21.44-15.46,32.75-23.67,4,6.39,9.6,6.94,16,2.28.82-.59,2.66-.31,3.79.15,8.07,3.31,10.83,3.27,19.31.16,2.75-1,5.77-1.24,9.24-1.94l2.79,7.72c1.41-.26,3.52-.14,3.76-.76,2.67-6.85,9-7.71,14.7-8.23,7.3-.66,14.31-6.51,22-1.56.63.41,2,0,2.88-.37,9.77-4.1,20.45-2.46,30.34-4.64,15.94-3.5,31.77-2.32,47.68-2,6.93.11,13.85,1.2,18.68,1.65,7.38,5,13.07,9.39,19.32,12.79a74,74,0,0,1,16.51,12.22,79.75,79.75,0,0,0,21.4,14.35c8.78,4.13,15.83,9.54,21,17.67,7.43,11.82,15.76,22.94,26.16,32.35,4.43,4,9.34,7.52,13.53,11.77,9,9.18,17.7,18.76,26.68,28a89.87,89.87,0,0,0,9,7.57c13.27,10.51,26.66,20.88,39.8,31.56,2.22,1.8,3.61,4.75,5.08,7.33,7.81,13.73,20,23.85,29.65,36,6,7.51,11.36,15.67,20.08,20.49,6.34,3.5,12.85,6.72,19.06,10.43,3.35,2,6.21,4.82,9.38,7.15a11.33,11.33,0,0,0,3.57,1.76c15.85,4.63,30.16,13.44,46.38,17,2.53.55,5.27.12,7.9.23,5.55.23,12.09-3.25,15.69,4.54.46,1,3.65,1,5.57,1,24.3-.32,48.66,0,72.33-6.94a18.56,18.56,0,0,1,5.88-1c11.59.59,22.3-3,33.12-6.41a481.88,481.88,0,0,0,49.43-18.06c5.55-2.41,11-4.68,10.18-12.65a4,4,0,0,1,5.54-4.08c10.46,3.67,16.1-2.7,21.51-9.76,1.56-2,3-4.2,4.81-6.84l9.85,5.66c16.49-8.7,34-16.27,48.31-30,5.52-5.32,13.75-7.86,20.8-11.55,11.18-5.85,22.69-11.09,31.37-20.83a47.35,47.35,0,0,1,10.14-8.06c4-2.51,8.1-4.49,9-9.88.22-1.3,2-2.63,3.38-3.39,13.39-7.37,26.45-15.39,41-20.34,2.14-.73,4.82-1.49,6-3.13,9.44-12.94,23.58-14.92,37.74-15.73,7.49-.43,15.11,2.23,22.71,2.63,17.76,1,34.43,6.43,51.19,11.59,4.36,1.35,8.48,3.47,12.68,5.32,2.11.93,4.06,2.29,6.23,3,8.14,2.83,16.35,5.5,24.53,8.22,24,8,43.79,23.13,63.76,37.91,1.86,1.38,4,2.87,5,4.83,5.15,10.5,15.1,15.57,24.1,21.56,15.78,10.5,29.18,22.69,37,40.66,4.61,10.58,11.09,20.42,17.27,30.25,6,9.56,6,20.26,6.74,30.78s-1.58,21.18,2.68,31.56c1.28,3.1-.29,7.26,0,10.89.43,4.91.82,10,2.3,14.62,2.34,7.35,2.71,7.21-3.73,11.6a20.34,20.34,0,0,0-2.17,1.9c-3.44,19.14,8.94,29.82,21.83,39.39,14.48,10.74,31.21,17.6,48.06,23.79a16.1,16.1,0,0,0,10.7-.18c5.46-2.26,10.66-3.27,16.41-1.94a10,10,0,0,0,5,0c15.94-4.83,32.16-2,48.27-2a40.45,40.45,0,0,0,6.95-.62c12.12-2.09,23.86-7.54,36.7-3,2.68.95,7-.1,9.52-1.79,5.16-3.48,10-4,16-2.67a27.39,27.39,0,0,0,13.82-.2,18.32,18.32,0,0,1,16.22,2.23c9.35,5.94,19.79,5.09,29.94,5.54,12.58.57,25.2.2,37.8.41,2.28,0,4.52,1.08,6.8,1.47,7.18,1.25,14.33,3,21.56,3.43a44.36,44.36,0,0,1,18.74,5.48c12.31,6.4,25.15,12.24,38.37,16.35,19.59,6.07,37.54,15.14,54.85,25.75a151.7,151.7,0,0,1,32.06,26.38c2,2.14,4.76,3.59,7.32,5.11,6.35,3.78,11.14,8.71,15.55,14.89,6.8,9.54,11.1,21.38,22.28,27.44a4.7,4.7,0,0,1,1.41,1.4c8.19,10.85,17.9,20.89,24.19,32.75,11.35,21.44,20.09,44.07,19.55,69.18-.1,4.81,2.33,9.62,3,14.5a84.94,84.94,0,0,1,.49,12.57c0,8.28-.42,16.57-.36,24.85.08,11.66.51,23.31.63,35,.09,9.27-3.82,17.43-7.49,25.64-2.3,5.16-5,10.21-6.61,15.58-3.66,12.19-6.87,15.72-19.38,15.61-6.31-.06-9.59,2.75-13.38,6.78-10.67,11.33-18.51,25-30.06,35.61-11.2,10.31-21.82,21.26-32.7,31.92-12.35,12.1-24.82,24.1-37,36.33a101.14,101.14,0,0,1-20.24,15.85c-9.37,5.56-17.36,13.39-26.44,19.51-18.15,12.22-35.06,26.29-56,34.28-22,8.4-43.59,18.07-65.19,27.57-7.58,3.33-14.68,7.75-22,11.71-16.36,8.88-32.76,17.69-49,26.72-11.91,6.61-23.6,13.61-35.49,20.24-6.39,3.56-12.8,7.25-19.57,9.94-16.65,6.63-29.83,18-40.59,31.56-18.59,23.38-37.7,46.44-53.58,71.9-8.6,13.78-18.07,27-26.9,40.66-1.51,2.34-1.86,5.45-2.63,8.24-.44,1.57-.08,3.88-1.05,4.7-7.57,6.37-7.63,15.86-10.26,24.21-2.71,8.55-4.32,17.46-7.17,26-5.43,16.18-3.05,33.06-5.14,49.49-2.44,19.11,1.28,37.68,3.31,56.41.45,4.1,3,8,4.79,11.91,3.47,7.5,8.07,14.57,8.55,23.27l-4.32,1.72c4.14,13.78,9.57,27.15,12,41,3.05,17.63,9.43,33.75,16.2,50.07,4.82,11.59,7.21,24.18,11.11,36.18a206.23,206.23,0,0,0,8.35,21.14c4.91,10.94,10.39,21.34,19.33,30,5,4.87,7.54,12.33,11.36,18.51,3.67,5.94,7.64,11.69,11.33,17.62,1.57,2.54,3.37,5.17,4,8,4.06,17.38,15.1,31.47,22.13,47.44,4.5,10.24,10.37,19.85,12.14,31.19a28.92,28.92,0,0,0,3.63,9.1c10.1,18.35,20.38,36.61,30.53,54.94,5.31,9.59,10.74,19.14,15.67,28.93,7.16,14.21,14.45,28.39,20.7,43s10.74,30.07,17,44.71c6.92,16.14,11.69,33.09,20.63,48.53,6.78,11.69,10.08,25.34,16.06,37.56,10.36,21.19,21.48,42,32.59,62.81a29.4,29.4,0,0,0,7.91,8.88c11.7,9.06,17.44,21.16,20.3,35.4,5.24,26.06,12.52,51.53,23.91,75.71,2.53,5.38,4.31,11,2.34,17.33-2,6.58,2.3,12.18,4.23,18.12,1.42,4.37,3.35,8.69,4,13.19,1.61,11.73,5.71,22.48,10.86,33,2.41,5,3.4,10.61,5,16,1.71,5.7,2.85,11.64,5.16,17.1a174.35,174.35,0,0,1,13.23,54c1,11.81,4.28,23.55,7.54,35,9.23,32.6,11.05,66.17,13.51,99.63.73,9.89-.35,19.91-.59,29.87-.12,5-.89,10-.21,14.92,1.69,12.15-1,23.76-2.79,35.6-1.52,10.11-1.82,20.42-2.18,30.66-.4,11.27.34,22.61-.58,33.82-.53,6.49-3.39,12.78-5.14,19.18-1.39,5.06-3.08,10.07-3.92,15.23-1.75,10.82-2.89,21.74-4.6,32.57-.5,3.17-2.06,6.17-3.16,9.23-.66,1.84-1.71,3.61-2,5.51-1.68,10.34-2.95,20.75-4.83,31.06-2.67,14.68-10.15,27.33-18.63,39.17-6.56,9.15-15.58,16.61-21.55,26.06-4.36,6.9-11.88,11.68-13.66,20.23h-74ZM851.28,218.68c2.59,0,3,.13,3.21,0,12.54-8.95,17.12-21.74,17.72-36.5a14.85,14.85,0,0,1,1-5.58c1.78-3.79-.56-5.17-3.54-7.4-3.36,5-7.4,9.26-9.25,14.29-3.16,8.57-5,17.64-7.28,26.52C852.44,212.66,852,215.39,851.28,218.68ZM1223,65.05c2-9.14-.44-11.91-12-14.59C1211.4,58,1217.51,60.46,1223,65.05Z"/><path d="M2399.14,2816.79c1.17-3.1,2.56-6.13,3.44-9.31,2.08-7.5,4.81-9.8,12.39-9.71,2.58,0,5.15.33,9,.59-5.7,6.08-8,13.08-12.8,18.43Z"/><path d="M2461.14,2816.37v.42h-18c-.53-8.95,5.67-15.07,9.35-22.26,5.88,4.08,6.06,5.1,2.51,16Z"/><path d="M2385.14,2816.79c0-5.31.36-10.46,4.77-15.23,5.1,5.3,1.81,10.38,1.23,15.23Z"/><path d="M2357.14,2816.79c-.09-2.66-2.41-5.61,1-8.28,3.4,2.69,1.11,5.62,1,8.28Z"/><path d="M2433.14,2816.79c2-4.07,4-3.64,6,0Z"/><path d="M2612.45,2783l1.48-1.13,1,2.08c-.59.2-1.24.63-1.76.52C2612.85,2784.38,2612.69,2783.51,2612.45,2783Z"/><path d="M2613.72,2805.88l1.56.68a9.46,9.46,0,0,1-1.14,1.22c-.11.08-.78-.25-.77-.37A8.25,8.25,0,0,1,2613.72,2805.88Z"/><path d="M1992,1653.77c-12.61-17.48-24.28-34.78-37.16-51.13a345.48,345.48,0,0,0-31.49-34.65,266.61,266.61,0,0,1-32.79-38.8,92,92,0,0,0-29.44-26.52c-10.9-6.36-21.75-12.81-32.46-19.48-6.43-4-12.62-8.42-18.81-12.8-3.69-2.61-3.57-7.49-.18-12.51,2.57-3.8,5.62-4.53,9.26-1.78,4.49,3.4,9.61,6.33,13.12,10.57,6.86,8.29,16.37,12.34,25.1,17.71q14.4,8.86,28.61,18c1.61,1,2.76,2.85,4,4.43,9.07,11.91,17.84,24.06,27.25,35.7,5.36,6.64,12.2,12.08,17.55,18.72,10.83,13.46,24.85,23.87,34.71,38.35,11.2,16.44,23.91,31.84,36.39,48.27,2.77-2,5.16-4.24,8-5.6,5.68-2.73,10.09.13,9.91,6.35-.16,6-.14,12.2-7.39,15.65,5.65,7.58,11.12,13.82,15.35,20.81,10.63,17.55,21.09,35.23,30.79,53.3,3.72,6.93,5.07,15.11,7.66,22.67,7.75,22.63,15.93,45.12,23.24,67.9,4.76,14.84,8.48,30,12.31,45.14,3.76,14.84,6.89,29.83,10.64,44.67,8.09,32,15.15,64.11,15.15,97.32,0,4.41,1.76,7.15,5.68,8.22,13.74,3.73,27.44,7.77,41.37,10.6,6.46,1.31,13.09-.85,19.15-4.29,15.46-8.76,30-18.67,39.14-34.35,6.47-11.15,11.56-23.11,17.36-34.66,1.94-3.85,4.22-7.53,6.28-11.33,2.86-5.29,5.44-10.36,3.73-17-1.54-6,1.56-7.94,7.31-5.4,9.53,4.21,12.32,12.45,7.7,24.18a131.15,131.15,0,0,1-7.14,14.28c-5.37,9.88-11.39,19.44-16.22,29.58a111.47,111.47,0,0,1-39.89,46.17c-11.14,7.3-24.33,10.84-37.5,12.93-3.83.61-8.39-1.6-12.24-3.33-11-4.93-22.2-8.67-35.29-8.13-.93,7.27-1.87,14.42-2.75,21.58-1.78,14.52-3.28,29.08-5.39,43.55-1.24,8.48-3.91,16.75-5.09,25.24-1.73,12.48-2.83,25.06-3.92,37.62-.34,3.91-.43,7.53-5.44,7.93-4.37.35-8.29-2.57-8.88-7.66a65.23,65.23,0,0,1-.15-16.92c2.21-14.77,5.23-29.42,7.73-44.15,2.61-15.43,5.65-30.83,7.29-46.37a428.1,428.1,0,0,0,2-43.73c0-25.72-4.24-50.92-10.09-76-5-21.34-8.77-43-13.64-64.34a421.37,421.37,0,0,0-17.8-57c-8.06-21.11-14.66-42.83-20.75-64.61a125.85,125.85,0,0,0-18.94-39.34c-2.87-4-5-8.59-7.63-12.85-6.32-10.45-12.68-20.87-19.79-32.55-6.55,9.14-8.59,18.05-11.21,26.71,6.41,9.46,0,18.61-.89,27.83-1.18,12.58-3.28,25.06-4.95,37.59-.48,3.63-1.24,7.28-1.16,10.91.32,14.91-3.6,29.14-7.76,43.1-2.91,9.72-8.45,18.67-13,27.88a8.48,8.48,0,0,1-3.58,3.38c-6.58,3.42-9.83,9.69-13.8,15.41-5.64,8.14-11.48,16.14-17.34,24.12-.94,1.28-2.26,2.72-3.67,3.12-10.17,2.86-15.49,12.25-23.95,17.44s-16.28,11.17-24.45,16.72c-8.81,6-17.71,11.87-26.52,17.87-6.84,4.67-13.81,9.2-20.32,14.3-4.66,3.64-8.7,8.08-12.95,12.23-5.66,5.54-11.41,10.07-19.19,13.42-12.94,5.56-25.24,13.46-36.37,22.21-13.68,10.74-29.28,16.9-45.06,22.93-17.69,6.77-36.24,11-53.49,19.27a49.3,49.3,0,0,1-36,2.84,11.57,11.57,0,0,0-2.93-.6c-20.55-.48-41-3.69-61.67.7-12.56,2.67-25.71,2.62-38.6,3.64-18.38,1.46-36.36-2.46-54.51-4.16a141.76,141.76,0,0,0-16-.39c-14,.26-27.91,1.24-41.83.84-6.82-.2-13.57-2.84-20.35-4.38-9.51-2.16-19.05-1.8-28.76-1.49-8.84.28-17.89-1.28-26.61-3.13a168.41,168.41,0,0,0-44.7-2.92c-25,1.41-49.78,2.4-74.39-3.58-5.09-1.23-10.64-.45-15.88-1.2-17.44-2.51-34.81-5.48-52.26-7.9-10.52-1.45-21.12-2.65-31.72-3.17-15.73-.77-30.77-4.37-46-8.11-12.43-3-23.81-8.25-35.75-12.2-11-3.65-22.48-5.86-33.67-9-3.08-.85-5.91-2.6-8.82-4-2.69-1.3-5.32-2.69-8-4-15.16-7.55-30.79-14.3-45.32-22.91-11.32-6.71-21.49-15.46-31.75-23.81A369.58,369.58,0,0,0,877.77,1917c-12.49-8-22.45-18.66-32.38-29.33-8.83-9.49-17-19.56-25.41-29.49a42.67,42.67,0,0,1-4.81-7.49c-10.65-20.12-16.79-42-22.92-63.65-5.13-18.14-9-36.91-7-56.13a40.36,40.36,0,0,1,2.3-9.6c1.7-4.69,4-9.16,5.74-13.84,2.11-5.76,4.91-10.78,10.15-14.43,4.52-3.16,7.94-7.18,5.73-13.54a7,7,0,0,1,.19-4.88c1.07-2.21,2.5-4.87,4.48-5.79,1.32-.6,4,1.28,5.87,2.44,9.82,6.25,12,16.76,14.9,26.91.69,2.47,1.56,4.89,2.64,8.24,8.49-5.38,12.85,0,18.24,4.89,8.06,7.33,17.15,13.52,25.73,20.29,4.93,3.87,10.42,7.32,14.43,12,9,10.46,21.88,12,33.56,16.43,6.19,2.35,12.21,5.19,18.5,7.23,7.21,2.35,14.71,3.81,21.94,6.11,9.16,2.91,18.7,5.27,27.09,9.73,8.83,4.7,18.19,6.29,27.59,8.15a125.36,125.36,0,0,1,25.42,8.31c8.41,3.62,17.76,5.41,26.89,6.91,13.12,2.16,26.4,3.38,39.62,4.89a77.76,77.76,0,0,0,8.29,0c-1.32-8.59-3.32-16.06-3.42-23.56-.17-12.27.88-24.55,1.46-36.82.08-1.66.48-3.3.66-5q3.42-31.24,6.77-62.49c.13-1.24-.38-2.55-.84-5.36-4.39,1.37-8.55,2.07-12.13,3.91-11.82,6.07-23.06,13.41-35.22,18.63s-25.09,8.88-37.89,12.44c-7.63,2.12-15.67,2.74-23.53,4-2,.31-4,.14-5.94.68-23.64,6.7-48,8.1-72.19,7.19-13-.49-25.9-5.33-38.77-8.48a11.39,11.39,0,0,1-5.78-3.81c-9.22-11.69-23-17.77-34.17-27a319.73,319.73,0,0,1-29.76-27.65,79,79,0,0,1-5.85-6.83c-5-6.7-4.39-10,3.58-12.28,4.51-1.31,6.43-3.73,8.34-7.47,3.2-6.27,6.34-6.66,11.85-2.83,6.26,4.33,12.72,8.36,19.17,12.41,5.34,3.35,11,6.2,16.14,9.85,6,4.26,12.36,4.45,19.09,3.51,6.92-1,13.8-2.58,20.75-2.92,13.12-.65,24.1-6.83,35.62-12.07,11.77-5.35,24.3-9,36.11-14.3,19.91-8.9,41.81-10.67,62.06-18.21a74.62,74.62,0,0,0,11.86-5.19c18.58-10.94,36.42-23.35,55.71-32.82s34.37-23.71,50.38-37.15c4-3.37,9.19-5.42,13.06-8.93,11.25-10.19,24.76-16.34,38.15-22.9a64.75,64.75,0,0,1,17.68-6.09,326.46,326.46,0,0,0,35.78-8.8c9.62-2.86,18.75-3.41,28.32.17,4.52,1.7,9.66,2.2,14.55,2.34,7.27.2,12.58,2.28,16.08,9.37,2.1,4.26,6,7.81,9.71,11a8.59,8.59,0,0,0,11.1.64c8.78-5.93,18.3-10.56,25.85-18.54,6.38-6.74,15.71-8.4,24.89-8.2,18.37.42,36.45,3.38,54.27,7.63,5.41,1.29,10.32,4.5,15.63,6.35,21.16,7.37,40.08,19.24,59.41,30.12,20.52,11.54,40.17,24.61,60.15,37.08,5.63,3.52,11,7.49,16.67,10.88,16.16,9.65,35,12.49,52,19.78,10.36,4.42,20.38,10.22,31.17,13,21.21,5.44,42.87,9.11,64.31,13.71,10.69,2.29,21.47,4.09,31.5,9.11a74,74,0,0,0,36.73,7.67c8.48-.33,17.2,1.44,25.56,3.36,20.73,4.75,41.3,10.13,62,15.23A30.62,30.62,0,0,0,1929,1657q23.9,1,47.79,1.87C1981.8,1659.05,1986.79,1658.85,1992,1653.77ZM817.05,1697c-3.42,3.15-6.53,4.86-7.87,7.47-5.17,10.14-9.78,20.94-8.76,32.39,1.47,16.49,2.9,33.13,9.1,48.88a130.5,130.5,0,0,1,6.44,21.94c3.09,15.31,11.26,28.17,19,41.23,1.48,2.49,4.23,4.19,6.19,6.43,2.18,2.48,4.64,4.91,6.08,7.81a55.26,55.26,0,0,0,21.22,23,31.11,31.11,0,0,1,5.12,4.58c2.53,2.48,5.1,4.94,7.43,7.59,4.88,5.53,10.9,9.32,17.19,13.09a185.12,185.12,0,0,1,22.46,16.4c13.77,11.36,30.41,18.79,43,31.71a13.68,13.68,0,0,0,4.16,2.7c17.81,8,35.53,16.26,53.56,23.74a62.37,62.37,0,0,0,20.32,4.75c12.26.62,23.08,5.42,34.16,9.63,14.65,5.57,29.6,9.71,45.3,10.65,20.6,1.24,41.21,2.1,61.28,7.72,4.1,1.15,8.52,1.29,12.81,1.67,15.25,1.37,30.49,2.8,45.76,3.9,15.57,1.12,31.17,2.59,46.76,2.64,23.78.06,47.64-2.5,71.1,3.69a32.66,32.66,0,0,0,6,.51c18.83,1.26,37.66,2.71,56.51,3.72,13.58.74,27.2,1.47,40.78,1.09a90.49,90.49,0,0,1,21.68,1.88c9.71,2.07,19.35,4.15,29.56,1.32,5.22-1.45,11.19-.24,16.82-.19,12.58.1,25.14.55,37.39-3.45,13.8-4.49,28-4.58,42.3-3,11.55,1.24,23.07,3,34.65,3.66,8.72.48,17.06-1.47,24.25-7.4,2.92-2.41,7-3.62,10.82-4.68,13.44-3.78,27.1-6.83,40.42-11,14-4.37,27.15-10.72,38.66-20.29,6.36-5.29,13.66-9.47,20.66-14,9.47-6.06,19.43-11.44,28.54-18,17.25-12.39,34-25.54,51.07-38.13,11.79-8.68,23.85-17,35.83-25.38,8.58-6,14.3-15.85,25.21-18.78a5.09,5.09,0,0,0,2.36-1.77q6.46-8.05,12.81-16.21c5.11-6.56,9.48-13.89,15.4-19.59,10.05-9.68,15.12-21.76,18.88-34.54,4.7-16,4.94-32.68,7.19-49.06,0-.31-.89-.76-2.35-1.93-3.36,5.12-8.29,8.86-10.79,14.85-2.29,5.48-4.67,11.07-8,15.94-5,7.38-10.85,14.25-16.51,21.2-7.52,9.25-14.77,18.81-23,27.4a57.59,57.59,0,0,1-17.55,12.76c-12,5.34-25.41,7.42-36.76,14.72-2.46,1.58-5.51,2.36-8.39,3.15-10.24,2.79-20.76,4.78-30.75,8.29-14.65,5.13-28.71,11.4-44.66,12.77-12,1-23,8.6-35.68,7.57-.88-.07-1.8.81-2.75,1.1q-32,9.62-64,19.18c-9.54,2.85-19,6.14-28.68,8.32-26.94,6-53.94,11.89-81,17.27-12.71,2.53-25.57,4.06-38.69,2-10.46-1.66-21-2.76-31.73-1.2-13.46,2-27,3.58-40.52,5-4.89.49-9.9,0-14.83-.35-6.6-.45-13.17-1.55-19.77-1.69-12.81-.27-25.13-2.22-36.71-8.08a33.58,33.58,0,0,0-9.54-2.69q-26.54-4.44-53.13-8.6a132.15,132.15,0,0,0-14.85-1.48c-17.42-.77-34-5-50.35-10.86-4.86-1.75-10.41-3.43-15.33-2.79a372.89,372.89,0,0,0-39.19,7.34c-16.82,4.06-33.34,9.14-51,7.47-16.89-1.58-33.54-3.51-49.95-8.55a125.11,125.11,0,0,0-47.3-4.82c-6.93.57-14,1.74-20.82.8a177.39,177.39,0,0,1-28.09-6.71c-12-3.72-23.61-9-35.77-12.22-16.76-4.39-30-13.55-41.85-25.78-14.12-14.55-29.15-28.22-41.58-44.37-1.81-2.35-4.25-4.22-6.22-6.47-3.26-3.71-7.23-7.13-9.41-11.42-6.73-13.28-15.88-25.14-21.3-39.27-5-13-12.25-25-18.12-37.67-2.63-5.68-4.15-11.87-6.48-17.71C821.69,1705.94,819.61,1702.27,817.05,1697Zm31.12,30.34c2.37,15.9,15,25,16.27,39,.07.81,1.32,1.46,1.87,2.29,2.2,3.32,4.31,6.7,6.51,10,4.58,6.86,8.61,14.19,13.91,20.45,10.7,12.62,22.4,24.38,33.12,37,14.9,17.49,32.09,31.54,53.92,39.49,5.29,1.92,10.28,4.68,15.54,6.7,7.39,2.82,14.73,6.74,22.4,7.67,23.76,2.91,47.66,4.63,71.51,6.8,13.82,1.25,28,.07,40.89,7a10.16,10.16,0,0,0,3.84,1.08c16.23,1.58,32.44,3.55,48.72.12,18.22-3.83,36.48-7.53,54.77-11,13.28-2.5,26.36-2.7,39.1,3.34a75,75,0,0,0,18.84,6.18c12.75,2.23,25.69,5,38.51,4.85,18.66-.24,36,5.78,54,8.53,7.15,1.1,14,4,21,6.06,2.55.77,5,2.25,7.57,2.47,14.23,1.19,28.55,3.42,42.73,2.78,18.22-.81,36.42-3.49,54.46-6.42,6.9-1.13,13-1.14,19.43,1.36,4,1.53,8.39,2.87,12.56,2.75,12.17-.37,24.21-.06,36.41-3.53,18.84-5.35,38.48-7.81,57.58-12.38,22.28-5.33,44.36-11.53,66.49-17.51,6.74-1.82,13.89-3.18,19.9-6.47,17.59-9.61,37-12.53,56.07-17.08,7.44-1.77,15-3,22.4-5,13.43-3.6,26.84-7.33,40.1-11.48,5.27-1.65,10.18-4.5,15.17-7,4.16-2,8-5.58,12.33-6.33,19.91-3.45,36.18-12.7,49-28.26,8.55-10.41,17.12-20.81,25.8-31.35-4.54-3.94-8-2.59-12-1.34-14.54,4.58-28.72,10.06-44.14,12.1-15.07,2-29.82,6.54-44.66,10.14-8,1.94-15.86,4.77-24,6.22-13,2.32-26.24,3.34-39.21,5.79-16.32,3.09-32.48,7-48.69,10.67a58.92,58.92,0,0,0-10.51,3c-11.56,5-23.9,5.88-36.12,6.32-9.91.35-19.91-2-29.84-1.81-19.6.35-39,.39-58.38-3.9-9.59-2.13-19.77-2-29.69-2.15-19-.36-37.91-.34-56.86-.25-13.89.08-27.82,0-41.68.91-26.35,1.67-52.55,1.56-78.55-3.64-4.54-.9-9.06-2.54-13.61-2.64-19.22-.4-38.12-7.34-57.57-2.84a3.6,3.6,0,0,1-2-.1c-9.74-4-19.54-1.84-29.49-1-5.83.47-8,2.33-9.41,7.76-1.65,6.56-3.2,13.56-9.79,18.35-5.91-5-13.16-8.5-10.86-18.29,3.79-.43,10,2.56,7.74-5.8-2-.19-4-.76-5.85-.49-20.38,2.93-40.91,5.15-61.06,9.27-18.12,3.7-36.24,3.54-54.43,3.19-11.61-.22-23.22-1.5-34.8-2.66-9.87-1-19.92-1.58-29.5-3.93-15.13-3.71-29.76-9.44-44.91-13-19.5-4.65-38.13-11.56-56.66-19-3.65-1.47-7.71-1.91-11.52-3-4.38-1.27-8.74-2.63-13-4.14-8.43-3-16.7-6.43-25.24-9-15.94-4.86-31.24-9.8-43.56-22.65C872.09,1742.31,860,1735.93,848.17,1727.37Zm1100.13-49.53c-.1-.91-.21-1.82-.32-2.73-2.26-.23-4.54-.37-6.79-.68-7.21-1-14.58-1.38-21.59-3.18-15.41-4-30.69-8.48-45.93-13.07-14.87-4.47-30.22-4.3-45.46-5.39-11.63-.83-23.55-1.47-33.88-7.18-13.77-7.61-28.65-10.5-43.83-12.63-31.5-4.42-61.73-12.94-90.24-27.24a42.88,42.88,0,0,0-10.15-3.53c-14.79-3.17-28.83-8.29-41.14-17.1-15.64-11.21-32.46-20.53-48.11-31.87-24.47-17.72-51.71-31.19-80.17-41.82-7.16-2.67-14.15-5.8-21.36-8.31a104.07,104.07,0,0,0-15.41-4.07,149.21,149.21,0,0,0-16.77-2c-11.45-.8-22.87.17-32.59,6.62-9.37,6.21-17.87,13.74-26.75,20.69-3.69,2.89-8.31,4.35-12.2,2.3-9.54-5-20.62-7.77-27.08-17.7-1.73-2.65-4.43-6-7.11-6.46-10.11-1.7-20.8-4.62-30.55-2.92a289.16,289.16,0,0,0-73.95,23.11c-3.53,1.67-6.5,4.55-9.66,7-2.38,1.81-4.59,3.85-7,5.63-8.22,6.12-17.37,11.27-24.56,18.42-15.87,15.79-35.55,25.53-54.5,36.43-10.33,5.94-21.15,10.81-31.3,17.34-16.42,10.57-33.71,20.21-54,22a76.07,76.07,0,0,0-18.56,3.67c-17.84,6.38-35.59,13.08-53.11,20.26-14.51,6-29,11.58-44.51,14.56-14.86,2.86-28.41,3-41.69-6.66-8.33-6-17.81-12.11-31-11.43,13,12,24,23.89,37.71,32.94,6.08,4,12.24,8,18,12.49,8.26,6.5,16.69,11.7,27.83,11.79,6.91.06,13.79,2.11,20.74,2.82,5.58.58,11.35,1.32,16.83.54,15-2.14,30-5.24,45-7.55,6.54-1,13.4-.24,19.83-1.6a206.86,206.86,0,0,0,50.57-18.2c11.54-5.84,22.67-12.74,34.7-17.23,10.12-3.78,19.23-8.87,28.31-14.41,4.24-2.59,8.88-4.56,13.37-6.75,11-5.42,21.95-11.1,33.16-16.12,15.4-6.91,30.74-14.12,46.63-19.73,25.37-9,51.76-14.93,76.5-25.82a28.21,28.21,0,0,1,4.76-1.35c14.55-3.52,29.45-6,43.53-10.84,12.89-4.44,25.8-6.11,39.15-6.24a22.22,22.22,0,0,1,7.84.89c9.6,3.63,19.18,7.36,28.53,11.57,5.72,2.57,10.91,6.27,16.52,9.1,19.76,10,42.53,13.3,60.37,27.5a7.09,7.09,0,0,0,1.85.74c15.38,6.23,30.47,13.4,46.24,18.46,18.3,5.88,35,16.4,54.52,18.75a90.12,90.12,0,0,1,17.44,4c12,4,23.71,8.62,35.66,12.68s21.67,12.37,33.13,17.67c13,6,25.8,9.79,40.06,10.36,12.48.5,24.88,2.77,37.35,3.82,9.2.77,18.46,1.18,27.69,1.09,7.61-.08,15.3-2.19,22.8-1.55,16.59,1.42,32.41-3.09,48.58-4.73,15.72-1.59,30.07-8.29,45.27-11.83C1934.45,1681.56,1941.36,1679.63,1948.3,1677.84Zm-669.41,121.63c6.31,0,10.92.22,15.5,0,8.61-.5,17.22-2.07,25.78-1.78,20.89.7,41.29,7.13,62.44,5.68,2.87-.2,5.84,1.09,8.76,1.7,12.67,2.64,25.27,5.66,38,7.78,8.63,1.44,10.63-1,9.93-9.92-1.39-17.53-2.75-35.06-4.2-52.58-1.83-22.2-5.06-44.26-4.56-66.69.36-16.23-.94-32.52-2.06-48.75-.5-7.4,1.81-13.92,5-20.06,1.15-2.25,5.33-4.15,8.07-4.08,3.72.1,3.72,3.93,3.44,7.07-.31,3.31-.73,6.64-.73,10,0,17.17,0,34.34.22,51.51.12,12-.21,24,.92,35.84,2.36,24.81,5.54,49.54,8.44,74.71l8.11,2.27c-.64,6.1-1.25,11.85-2,18.74,4.48-.35,8.32-.69,12.18-.94q25.35-1.61,50.7-3.14a19.62,19.62,0,0,1,2,.31c12.29.54,24.58,1,36.88,1.6,4.37.2,7.59-1.27,9.9-5.26,2.82-4.9,6.07-9.56,9.29-14.23,4.37-6.32,5.55-13.4,5.37-20.88-.37-15-.55-30-1.1-44.91-.46-12.31-1.1-24.61-2.13-36.88-.83-9.7-4.53-19.43,2-28-15.34-6.07-30-11.38-44.21-17.61-21.54-9.43-42.82-19.47-64.17-29.32-8.72-4-17.33-8.3-26-12.33-7.83-3.62-16-6.58-23.56-10.71-16.27-8.9-33-11.57-50.93-6-4.12,1.27-8.21,2.68-12.4,3.62-20,4.52-40,9.17-59.28,16.59-8.87,3.43-17.73,6.89-26.72,10.38,0,1.61-.29,3,0,4.18,3.79,14.06,3.21,29.08,9.52,42.6a21.77,21.77,0,0,1,1.52,7.82c.85,15.29,2.33,30.59,2.11,45.87-.26,18.93-.88,37.93-5.75,56.48C1282.76,1779.35,1281.14,1788.84,1278.89,1799.47Zm-123.27,15.42c13-1.05,23.58-1,33.79-3,17.28-3.34,34.21-8.26,52.12-7.86,6.17.14,12.39-2,18.59-3.06,4.92-.87,7.45-4.07,8.4-8.72,1.64-8.13,3.58-16.23,4.73-24.43,1.83-13.16,2.74-26.45,4.73-39.58,4.87-32.13-3.64-62.45-11.94-92.84-.13-.48-1-.77-1.5-1.14l-8.19,4.3c3.49-7.92,6.13-13.9,9.08-20.56-45.39,9.8-84.33,30.43-121.81,51.83,0,6.41-.09,11.71.05,17,0,1.6.19,4,1.19,4.65,6.54,4.52,4.79,10.06,2.75,16a29.73,29.73,0,0,0-1.72,9.77c.12,15.29-.17,30.63,1.12,45.83a104.66,104.66,0,0,0,6.71,29C1156.41,1799,1160.2,1805,1155.62,1814.89Zm432.66-8.79c5,1,9.34,1.22,13.2,2.76,13.67,5.43,28.07,4.16,42.22,5.18,8.93.65,17.88,1.52,26.82,1.58s17.91,0,26.68-1.37c10.11-1.54,20-4.7,30-6.79,10.75-2.24,21.59-4,32.36-6.11,3.64-.72,7.34-1.87,7.31-6.72-.05-7.29.08-14.6-.35-21.87-1-17.29-2.29-34.55-3.58-51.81-.14-1.84-1.09-3.62-1.63-5.32-11.31-1.86-22.06-3.73-32.86-5.37a84.35,84.35,0,0,1-33.5-12.16c-3.6-2.3-7.76-3.76-11.71-5.51-5.77-2.56-11.76-4.67-17.33-7.61a165.19,165.19,0,0,0-54.62-17.89c-4.14-.58-8.26-1.33-13.3-2.15,0,4.36-.06,7.62,0,10.87.34,14.58,1.14,29.16,1,43.73-.18,14-1.4,27.84.88,41.83,1.61,9.81,1.29,19.91-3.22,29.23C1594.19,1795.63,1591.34,1800.45,1588.28,1806.1Zm390.21-121.89c-3.73,5.06-8,6.91-13.4,7.06-2.85.07-5.69,1.38-8.48,2.28-3.75,1.22-7.37,3.07-11.2,3.8-17.91,3.38-36,6-52.91,13.36-1.73.75-3.91.52-5.88.71-6.6.65-13.21,1.26-19.81,1.91-8.25.81-16.52,1.53-24.75,2.49-8.84,1-17.64,2.35-26.46,3.46a30.84,30.84,0,0,1-6.9.37c-7.57-.78-15.1-1.94-22.68-2.65-2.44-.22-5,.49-8.26.86,1.34,26.52,2.64,52.13,4,78.31,2.85-.31,4.6-.12,6-.72a112.15,112.15,0,0,1,39.72-8.46c3.21-.11,6.36-1.75,9.55-2.62s6.3-1.71,9.47-2.42c15.78-3.53,31.63-6.74,47.33-10.57q21.75-5.3,43.22-11.67c9.31-2.75,18.23-6.33,22.49-16.46,3-7,6.89-13.62,9.92-20.61,1.57-3.62,2.11-7.68,3.59-13.38C1980,1704,1982.69,1695.6,1978.49,1684.21Zm-844.76,87.44c-1.5,16.11,1.12,29.19,8,35.52C1138.92,1794.65,1136.54,1784.09,1133.73,1771.65Z"/><path d="M2060.84,993.46l8.41.41c2.07,2.64.52,8.12-2.94,9.32a18.49,18.49,0,0,1-8.75,1c-3.92-.66-6.52.95-8.77,3.47-4.21,4.71-8.47,9.42-12.24,14.48a107.46,107.46,0,0,1-51.16,37.93c-18.13,6.53-36.8,8.79-55.57,11.38-6.91,1-13.8,2.15-20.7,3.17-18.09,2.66-36.11,6.3-54.3,7.57-13.13.92-26.49-1.23-39.73-2.21-14.26-1.06-28.49-2.37-42.74-3.55-1.66-.13-3.41.16-5-.29-15.64-4.47-31.46-8.46-46.81-13.78-14.07-4.88-27.62-11.27-41.43-16.89a40.48,40.48,0,0,0-6.76-1.78,164.32,164.32,0,0,1-51.71-20.44c-16.17-9.88-33.08-18.71-48.35-29.8C1562,986,1553.1,976,1545,965.92c-13.33-16.52-25.83-33.75-38-51.18a106.86,106.86,0,0,1-11.66-23.08c-5.32-14-10.88-28-14.15-42.53-2.74-12.13-2.84-25-3.22-37.49-.65-21.68,2.76-43,7.36-64.1,3.33-15.26,9.83-29.36,17.43-43a220.11,220.11,0,0,1,36.91-49.43c4.9-4.87,10.07-9.47,15-14.27,7.63-7.38,15.41-14.63,22.74-22.31,4.91-5.15,10-9.51,16.83-12.09,4.93-1.86,9.38-5,14.1-7.47,1.75-.91,4.16-2.58,5.43-2,6.67,3,10.49-1.65,14.68-5,11.25-9,23.79-13.64,38.34-15,19.27-1.81,37.3-7.43,53.07-20.16,6-4.8,15.33-6.19,23.4-7.38,15.44-2.27,31.06-3.56,46.64-4.69,6.93-.5,14,.29,20.94.68q24.88,1.37,49.76,3a19.55,19.55,0,0,1,5.89,1c23.26,9.2,47.65,14.27,71.9,19.84,23.81,5.46,46.13,14.79,68,25.46,12.82,6.25,25.88,12,38.83,18a9.24,9.24,0,0,1,2.71,1.24c9.19,9.05,21.18,13.34,32.28,19.15a8.73,8.73,0,0,1,3.16,2.35c7.37,10.45,14.71,20.93,21.87,31.53,1.26,1.86,1.57,4.34,2.51,6.44,1.42,3.22,2.31,7.08,4.67,9.39,5.56,5.42,7.54,12.34,10,19.22,3.91,11.14,4.07,23.34,11,33.76,2.9,4.32,2.53,10.88,3.52,16.44,2.74,15.35,5.4,30.72,8.11,46.07.29,1.64,1.09,3.27,1,4.87-.86,19.22.09,38.7-5.28,57.41A330.4,330.4,0,0,1,2127.64,898c-3.58,8.49-9,16.24-13.63,24.27-2,3.42-4.34,6.64-6.27,10.1-4.85,8.68-9.45,17.29-17.31,24.06S2075.9,971,2069.3,978.84C2066,982.81,2064,987.91,2060.84,993.46ZM1699.07,611c-5.26-2.32-9.92-4-14.24-6.4-3.67-2-6.58-2.08-10,.56-9.24,7.09-19.32,13.2-27.94,20.95-13.74,12.35-25.14,26.68-29.72,45.19-1.49,6-5.17,8.77-12.45,9.61,5.62-37.21,29.66-59.48,58.33-78.84a25.7,25.7,0,0,0-8.58.35c-7.94,1.86-16.33,2-22.32,9.58-2,2.5-8.2,3.16-12,2.37-6.33-1.32-10.19,1.11-14,5.32-3.48,3.89-7.12,7.64-10.33,11.07-9.13-2.11-9-2-15.58,3.92-8.61,7.76-17.39,15.36-26.15,23-2.74,2.38-6.08,4.22-8.4,6.94-7.1,8.32-14.25,16.65-20.63,25.51-11.93,16.56-22.17,34.36-26.35,54.42-5.53,26.53-10.78,53-8.14,80.8,2.09,22.14,8.73,42.41,17.64,61.89a259.67,259.67,0,0,0,35.33,56.53c11.35,13.82,21.92,28.5,36.35,39.47,5.26,4,11.83,6.4,16.68,10.77,13.48,12.16,31,16.61,46.34,25.17,7.75,4.32,16.36,8.36,25,9.55,12.61,1.74,23.47,7.59,34.49,12.48,15.86,7,32.3,11.83,48.7,16.91,31.26,9.68,63.84,9.13,96,10.16a218.77,218.77,0,0,0,70.91-9.52,52.15,52.15,0,0,1,14.71-2.34c22.52-.14,42.91-8.11,63.2-16.56a20.5,20.5,0,0,0,4.48-2.2c13.32-10,24.79-21.74,33.81-36.37-.45-.93-1.09-2-1.57-3.23-2.43-6,2.61-14.24,8.53-12.66,7.3,2,9.47-2.43,12.41-6.83,2.57-3.86,4.88-7.94,7.83-11.48,5.9-7.09,12.18-13.87,18.29-20.79,3.26-3.7,6.86-7.17,9.61-11.22a266.22,266.22,0,0,0,14.19-22.83c5.67-10.48,11-21.18,15.82-32.07,2.4-5.4,2.53-11.83,5.08-17.11,10.46-21.63,11.25-44.56,7.87-67.38-3.63-24.51-7-49.1-15.87-72.77-3.94-10.59-7.8-21.08-13-31.07-3.07-5.87-7.15-11.28-9.74-17.34-5.91-13.79-11-27.95-26.81-33.87a8.17,8.17,0,0,1-2.37-1.82c-16.39-15.38-37.05-23.18-57.08-32-10.92-4.81-22.42-8.36-33.12-13.58-11.79-5.74-24-9.35-36.64-12.72-7.61-2-13.45-2.49-17.72,3.39-12.23-3.72-23.41-8.78-35-10.3-24.74-3.22-49.7-4.82-74.61-6.57-5.67-.39-11.49,1.33-17.62,2.13,4.75,10.55,3.41,15.69-4.08,16.58a265.43,265.43,0,0,1-31.74,2.1c-14.63,0-29.27-1.17-43.91-1.57-5.47-.14-11.25-.87-16.66,3.36,2.3,3.93,4.43,7.59,6.45,11C1701.52,603.94,1700.49,606.93,1699.07,611Zm46.52-35.76c14,2.73,25.21.88,37.68-3.37C1769.85,566.61,1758.6,568.56,1745.59,575.28Zm-17.92-11.16c.23.86.46,1.71.7,2.57l18.53-6.22C1737.69,557,1733.13,562.1,1727.67,564.12Zm-9.75,7.84c.12.73.25,1.46.37,2.19l12.13-2.63c-.06-.43-.12-.85-.19-1.28Z"/><path d="M1119.24,1038.9c-24,5.89-47,10.9-70.83,3.09-7.51-2.46-15.51-3.44-23.33-4.86a10.45,10.45,0,0,0-5.87.55c-9.29,4.23-19.06,1.94-28.62,2.44a8.25,8.25,0,0,1-3-.3c-10.69-3.55-21.59-6.6-32-10.93-9.4-3.92-17-10.48-20.88-20.41-.74-1.91-.53-4.17-1-8.42,7.82,6.63,13.44,12.79,20.3,16.82,6.67,3.91,14.61,5.65,22,8.35l1.09-1.91c-.87-1-1.53-2.4-2.62-3.07-12.15-7.47-24.33-14.9-36.61-22.16-2.51-1.48-5.53-2.08-8.23-3.3-3.23-1.46-6.9-2.54-9.43-4.84-9.2-8.35-19.48-13.11-32.13-14.1-15.8-1.24-30.4-6.88-43.71-15.68-6.35-4.21-13.18-7.74-19.31-12.23a56,56,0,0,1-10.49-10.59c-8.23-10.43-16.89-20.64-23.95-31.83-7.91-12.53-18.8-23-23.93-37.58-2.67-7.59-9.07-13.8-13.25-21-3.49-6-6.9-12.2-9.09-18.74-4-12-7.43-24.14-10.42-36.4-4-16.36-2.87-33-1.85-49.64A227.77,227.77,0,0,1,744.25,682c4.16-12.19,12.16-22.12,19.67-32.18,8.33-11.16,17.57-21.63,26.59-32.25,6-7.06,11.77-14.44,18.6-20.62,5.84-5.29,12.92-9.28,19.67-13.5,13.52-8.46,27.16-16.73,40.81-25a39.3,39.3,0,0,1,9-4.31c14.22-4.22,26.7-11.9,38.84-20,7.71-5.14,16.08-7.73,24.83-9.86,5.81-1.42,11.73-2.67,17.26-4.85,13.12-5.18,26.83-7.21,40.67-9,4.56-.6,9-2.43,13.49-3.43,7.1-1.58,14.23-3.1,21.4-4.31,5.88-1,11.82-1.62,17.76-2.16a58.29,58.29,0,0,1,8.86.14c6,.38,11.92.91,17.88,1.33,1.33.09,3.25-.62,3.91,0,6,6,11.93,1.72,18.41.9,17.79-2.27,35.8-3.91,53.72-3.85a97.58,97.58,0,0,1,37.86,7.72,24.92,24.92,0,0,0,5.74,1.63c28.72,4.65,53.55,17.38,75.61,36,4.57,3.86,9.63,7.15,14.1,11.12a52.73,52.73,0,0,1,9.36,10.23c12.1,18.67,23.92,37.54,35.75,56.39a30.14,30.14,0,0,1,3.91,8c4.81,18.29,9.75,36.56,13.88,55,1.87,8.35,1.7,17.13,2.93,25.65,1.42,9.77,3.43,19.44,5.07,29.17,2.68,16,6.31,31.94,3.48,48.34a9,9,0,0,0-.16,2c1.34,20-1.92,39.72-4.41,59.48-1.39,11.11-5.17,21.3-9.6,31.37-8.52,19.36-20.6,36.38-34.21,52.44-6,7.07-11.77,14.35-17.41,21.72-6,7.92-15.18,11.63-22.89,17.26-6.18,4.51-12.25,9.35-19,12.85-10.11,5.25-19.62,12.62-32.1,11.56a8.5,8.5,0,0,0-4.82,1c-7.93,4.9-16.64,6.46-25.76,6.51a4,4,0,0,0-2,.32c-11,6.43-23.72,7.75-35.61,11.49a27.79,27.79,0,0,1-5.56,1.1c-1.3.13-3-.76-3.92-.22-8.51,4.86-17.46,1.61-26.24,1.83-3.23.07-6.46,1.33-9.65,2.2-3.73,1-7.1,4-11.38,1.9a2.19,2.19,0,0,0-1.93.05c-8.35,8.73-19.56,1.31-28.85,5.1-2.58,1-5.8.54-8.72,1.18,13.4,3.67,26.63,6.2,40.71,2.26,4.89-1.37,11,1,16.37,2.27C1117.42,1034.31,1118.08,1036.94,1119.24,1038.9ZM834.13,942.41l-5.27-4.16c-.4.82-.79,1.65-1.19,2.47l6.47,1.62c4.65,1.35,9.6,2.08,13.87,4.18a271.83,271.83,0,0,0,39.75,15.6c7.09,2.21,15.76,1.42,20.87,8.28,2.91,3.9,6.69,5,11.07,5.78,11,2,20.58,7.12,29.37,13.9,10.44,8,20.26,16.87,34.22,19,5.34.84,10.69,4,15.22,7.2,10.6,7.58,22.43,10.1,34.82,8.47a397.81,397.81,0,0,0,45.08-8.37c9.49-2.39,18.37-6.36,28.57-4,3,.69,6.51-.87,9.79-1.38,4.27-.67,8.58-2.05,12.81-1.84,14,.71,27.31-3.2,39.83-8.08,16-6.23,32.51-9.78,49.1-12.67,15.71-2.74,28.54-10.25,41.1-19,5.15-3.57,9.63-8.56,15.26-10.85a30.74,30.74,0,0,0,12.49-9.37c12.42-15.11,25.05-30.1,36.64-45.85a128.5,128.5,0,0,0,14.8-27c7.28-17.64,8.42-36.66,10.2-55.44.94-9.88,1.45-19.81,1.85-29.73.71-17.35-.4-34.56-4.55-51.51a178.59,178.59,0,0,1-3.81-17.48c-1.52-10.79-2.67-21.65-3.74-32.5-1.74-17.61-6.51-34.54-11.61-51.38a61,61,0,0,0-6.05-13.67c-5.81-9.68-12.71-18.74-18.08-28.64-9.33-17.22-21-31.86-37.28-43.29-12.29-8.6-24.29-17.29-38-23.61-16.48-7.6-34.34-10.3-51.55-15.23-19.06-5.46-38.61-6.12-58.39-3.37-9.82,1.36-19.93.57-29.89,1-15.6.69-31.37.44-46.76,2.69-22,3.22-43.75,8.31-65.59,12.67a76.92,76.92,0,0,0-7.66,2.23c-11.08,3.46-22.18,6.86-33.21,10.46a78.1,78.1,0,0,0-12.82,5.08c-9.63,5.16-19,10.91-28.56,16.11-14,7.6-28.8,14-42.13,22.62-16.88,10.94-34.21,21.62-47.72,37-9.2,10.48-18.52,20.87-27.32,31.68a177.63,177.63,0,0,0-13.47,19.64c-5.53,9-11.73,17.77-13.29,28.71-2.71,19.06-6.08,38-8.15,57.19-.9,8.39-2.62,17.17.54,25.6,1.34,3.57,4.47,7.1,4.27,10.51-.85,14.31,8.46,24.72,13.08,36.89,1.28,3.39,2.29,7,4.18,10,7,11.21,14.24,22.29,21.56,33.3,4.67,7,9.64,13.88,14.56,20.93,9.9-9.85,17.84-10.86,26.35-3.88-3.58,9.55-14.24,8.2-21.13,13,8.23,9.57,16.3,18.63,23.94,28C831,935.09,832.33,939,834.13,942.41Z"/><path d="M684.31,1844.7c1.46-2.89,3.56-5.62,4.26-8.67,4.81-20.72,15.82-38.75,24.79-57.65,7.42-15.62,14.8-31.29,23-46.51,10.1-18.72,21.36-36.82,31.53-55.51a392.39,392.39,0,0,1,36.48-54.63q28.3-36,57.49-71.41a342.06,342.06,0,0,1,43.08-44c8.35-7.06,15.64-15.37,24-22.41,8.59-7.25,18-13.55,26.89-20.45,24.42-18.93,50.95-35.11,73.65-56.3a76.79,76.79,0,0,1,11-8.57c1.8-1.15,4.45-.93,7.82-1.53-1.74,9.27-5.71,15.21-11.49,19.84-10.91,8.74-21.43,18.17-33.22,25.56-21.17,13.27-40.33,29.17-60.24,44.07-10,7.49-20,15-28.26,25-7.11,8.64-16.94,15-24.66,23.18-12.07,12.82-23.66,26.12-34.92,39.66q-17.85,21.47-34.65,43.79c-17.66,23.36-34.74,47.12-48.61,73-9.9,18.49-20.38,36.66-30.5,55-2.25,4.07-4.09,8.37-6.08,12.57-4.28,9-8.46,18.06-12.83,27-6.82,14-14.54,27.46-18.67,42.83-3.23,12.06-9.89,23.17-14.14,35a299.91,299.91,0,0,0-9.37,32.53c-3.41,14.57-5.88,29.35-9.08,44-3.76,17.2-8.4,34.22-11.68,51.51-2.61,13.71-3.5,27.73-5.59,41.55-3.23,21.36-6.81,42.68-10.29,64-.81,4.94-2.13,9.73,3,13.57,1.14.86,1.23,4.4.51,6.17a12.55,12.55,0,0,1-5,6.05c-2.68,1.45-6.29,2.66-9.09,2.07-4-.84-5.37-4.79-4.91-8.77,1.46-12.56,2.06-25.36,4.94-37.61,4.13-17.58,5.75-35.43,8.42-53.18,3-20.06,6.82-40,10.75-59.9,3.54-17.94,7.54-35.79,11.67-53.61,3.37-14.58,7.09-29.09,10.91-43.56,2.28-8.61,2.15-8.78-6.53-12a58.84,58.84,0,0,1-13.24-6.7c-12.79-8.84-25.36-18-37.89-27.19-2.33-1.71-5.06-3.88-5.91-6.41-3.82-11.3-8.21-22.6-10.16-34.28a440.11,440.11,0,0,1-5.27-51.53c-.54-11.07-.68-22.77,8.15-31.79.93-.94,1.64-2.11,2.59-3,3.68-3.58,8.17-4.49,10.62-2,3.19,3.3,2.06,7.23-.21,10.06-8.24,10.27-8.44,21.85-7,34.08,1.59,13.2,2.1,26.54,4,39.68,1.09,7.49,2.68,15.53,6.49,21.85A66,66,0,0,0,638.81,1819c13.28,9.3,27.74,16.92,41.73,25.2C681.06,1844.46,681.83,1844.35,684.31,1844.7Z"/><path d="M977.66,435l-.77-4.83c-1.19-7.4-.6-8.91,6.59-10.66,6.78-1.65,13.41-5.35,20.88,0,2.49,1.79,8.54.09,12.27-1.58,7.74-3.47,15.85-4.08,24-5.64,12.89-2.47,25.35-7.29,37.88-11.46,4.7-1.57,9-4.39,13.62-6.15,8.42-3.18,8.52-3,12.28,6.19,10.69.32,20.46-7.22,32.15-5-.18,1.68-.21,2.93-.46,4.13a19.84,19.84,0,0,1-1.07,2.8,11.72,11.72,0,0,0,2.7,1.38c1.93.41,4,1.09,5.88.77,13-2.23,26-4.72,39.05-7.06a16.79,16.79,0,0,1,5.83-.43c6.35,1.17,12.48,1.78,18.35-1.93,1.21-.76,3.75-1,4.73-.25,5.69,4.39,12.15,8.39,16.21,14.05,2.69,3.76,2.43,10.11,2.21,15.24-.09,2.13-3.18,5.31-5.48,5.94-6.68,1.84-13.62,3.41-20.51,3.64a311.46,311.46,0,0,1-35.63-.73c-7.67-.62-15.07-3-17.72-12-1.16-3.94-4.58-5.47-8.67-5.35-11.9.36-23.81-.61-35.43,3.91-5,1.95-11,1.26-16.55,1.84-16.84,1.76-34.51.95-50.28,6-17.75,5.72-36.24,11.22-52,22.45-3.13,2.23-7.31,3.07-11.08,4.32-14.44,4.76-29.53,7.78-42.37,16.71-2,1.41-5.39,2.74-7.31,2a17.39,17.39,0,0,1-8-6.5c-2.27-3.62.24-6.8,3-9.57,11.4-11.28,26-15.57,41-19C967.77,437.12,972.57,436.1,977.66,435Zm189.16-19.58c-.9.9-4.45,2.9-4.29,4.55.44,4.61,4.94,4.89,8.43,4.37a8.55,8.55,0,0,0,5.69-4.11C1177.83,417.68,1173.52,415.17,1166.82,415.4Z"/><path d="M1861,474.59c18.93,5.5,36.46,10.58,54,15.68a60.22,60.22,0,0,1,19.59,9.28c11.25,8.28,24.71,10.91,38.61,11.26,5.12.12,10.8-1.67,15.6,4.33l-4.9,10.11c-13.09-2.07-25.28-3.44-37.19-6.1-6.37-1.42-12.31-4.9-18.33-7.7-22.56-10.49-45.55-19.83-69.42-26.91-10.48-3.11-20.82-6.78-31.43-9.34-4.69-1.14-10-.66-14.85,0-11.22,1.48-11.87,1.21-13.34-10.09-.92-.58-2-1.66-3.16-1.91-16.55-3.51-33.08-7.2-49.73-10.22-10.6-1.92-20.8-1.62-30.63,5-5.49,3.68-12.92,4.95-19.69,6.12-7.16,1.24-13,3-13.55,10.47-6.67,2.1-12.51,4-18.4,5.76a8.39,8.39,0,0,1-3.89.18c-6.85-1.41-16.35-15.18-12.74-22.16a160.55,160.55,0,0,1,10.76-17.77,56.17,56.17,0,0,1,8.88-9.37,22.79,22.79,0,0,1,7.41-4.68c9.12-3.08,18.3-6.11,27.64-8.4a51.42,51.42,0,0,1,15.8-1.2c11.48.85,14.93,5.5,13.73,16.93-.17,1.62,0,3.27,0,6,2.82.48,5.63.89,8.4,1.45,9.76,1.94,19.52,3.87,29.25,5.94,3.25.69,6.37,2,9.61,2.67,16.27,3.37,32.54,6.78,48.86,9.88,9.09,1.72,18.26,3,27.44,4.17C1861.21,464.64,1863.62,467.4,1861,474.59Zm-143-45.42c-2.37,3.74-3.64,5.73-5.09,8C1719.69,438.18,1719.69,438.18,1718,429.17Z"/><path d="M1424.42,809.42c3.7,2.12,9.13,1.29,8.07,7.57-1.2,7-6.68,6.15-12.7,6.35-1,6.22-1,12.69-3.2,18.32-4.82,12.41-3.17,26.14-9.21,38.36-3.91,7.92-5.73,16.9-8.23,25.48q-5.84,20-11.27,40.11c-1.64,6.07-2.44,12.37-4.29,18.37-3.79,12.36-8.17,24.54-12,36.88-3.68,11.71-6.91,23.57-10.57,35.28-1.68,5.37-3.84,10.61-6,15.83q-9.7,24-19.57,48c-5.45,13.18-11.8,26.06-16.39,39.53-4.45,13.09-3.19,26.19,4.63,38.26,2.48,3.85,3.78,8.44,6.11,12.41,2.48,4.22,5.52,8.13,8.36,12.14,2,2.8,4.07,5.54,6.21,8.46-8.59,4.66-13.16,4.78-17.9-.53a241.77,241.77,0,0,1-17.9-22.59c-10.11-14.49-10-30.31-5.39-46.74,6.11-21.88,17.32-41.54,26.35-62.15,3-7,5.55-14.21,9-21,11-21.37,13.8-45.51,23.34-67.53,7.85-18.14,11.61-38,17.24-57.13,4.41-14.92,9-29.78,13.31-44.74,2.09-7.32,3.63-14.81,5.38-22.23s3.66-14.79,5.07-22.27c2.15-11.41,3.57-23,6.1-34.3.78-3.5,3.69-6.91,6.47-9.44,1.56-1.43,5.45-2,7.17-1.06,1.54.88,1.66,4.42,2.19,6.84C1425,806.81,1424.63,807.86,1424.42,809.42Z"/><path d="M1338.63,1432.13c-8.06-4.56-9.33-7.09-7-13.78,4.54-13.19,9.37-26.28,13.86-39.49,6.21-18.24,4.6-36.32-3.83-53.23-3.41-6.85.53-11.24,1.82-16.6.18-.75,4.51-1.62,5.81-.76a15.33,15.33,0,0,1,5.66,6.77c4.84,12.64,7.78,25.47,7.69,39.4-.07,11.76-4.1,21.87-7.43,32.52-2.47,7.9-3.72,16.2-6.53,24C1346,1418.22,1342,1425,1338.63,1432.13Z"/><path d="M1393.1,1413.36c1.19-9.62,2.22-16.18,2.76-22.78,1.25-15.21,2.07-30.46,3.46-45.66.75-8.17,3.46-11.15,9.38-12.13,5.56-.93,8.39,1.46,7.51,7.14-1.62,10.47-3.88,20.84-5.53,31.3-1.54,9.83-3.32,19.7-3.69,29.59-.25,6.78,1.54,13.68,2.82,20.45.74,4,2.41,7.45,6.8,9.1,3.17,1.19,5,4.4,3.06,7.19a10,10,0,0,1-7.33,3.57c-6-.13-11.18-3.2-13.42-8.76C1396.11,1425.41,1394.47,1418,1393.1,1413.36Z"/><path d="M1249.3,1264.08c-13.14-.46-15.37-2.64-20.81-15.69-8.74-21-3.56-40.36,6.54-58.84,2.4-4.38,8.57-7.07,13.53-9.45,1.66-.8,5.82,1.12,7.3,3,2.18,2.79,1.54,6.59-1.74,8.73-18.71,12.16-18.11,38.14-8.58,53,1.81,2.83,5.13,5,8.23,6.61,2.92,1.48,7,1.53,6.33,6.1-.71,4.75-4.62,6.08-8.82,6.58A11,11,0,0,1,1249.3,1264.08Z"/><path d="M1480.41,1247.1c-.58,3-.88,7.77-2.58,12a9.73,9.73,0,0,1-6.5,5c-1.77.29-4.83-2.08-5.92-4-1.54-2.77-3.34-6.92-2.31-9.31,2.74-6.39.2-12.42.14-18.51-.08-9.5-6.57-16.34-12.4-23-1.55-1.76-5.48-1.55-8.35-2-6.08-1-9.28-3.43-9.11-7.26.17-4.08,4.3-7.83,9.53-8.66,10.89-1.72,19.58,3.07,24.76,13.45,1,2,2.73,3.72,3.9,5.7,1.68,2.83,4,5.62,4.57,8.71C1477.87,1227.82,1478.88,1236.66,1480.41,1247.1Z"/><path d="M1448.36,734.87c-15.75,0-30-.27-44.21.14-5.21.15-10.37,1.92-15.56,2.94-3.58.7-7.13,1.49-10.73,2.08s-6.61-.44-7.88-4.29.73-6.68,3.92-8.1a35,35,0,0,1,11.19-3.16c16.5-1.23,33-2,49.53-3.08,3.91-.27,7.74-1.71,11.65-2,2.06-.18,5.29.19,6.1,1.49,1.12,1.81,1.15,5,.41,7.1C1451.85,730.65,1449.67,732.92,1448.36,734.87Z"/><path d="M1313.3,1252.66c.08-11.19,5.75-17,15.45-17.68,2.65-.18,5.46.12,7.92-.68,5.66-1.82,10.11-.57,14.75,3.13,2.9,2.32,7,3.57,10.7,4.38,7.26,1.57,10.44,4.15,9.65,8.94-1,5.82-8.74,11-14.44,8.92-4.29-1.58-8.24-4.25-12.08-6.82-7.51-5-14.36-4.55-20,2.23-2.35,2.82-4.88,5.4-8.25,3.32C1314.85,1257.09,1314,1253.77,1313.3,1252.66Z"/><path d="M1435.22,1249.52c1.06-7.28,5.46-10.36,10.19-12.72,4.07-2,7.67,0,10.69,3,3.86,3.87,3.75,8.12,1.47,12.74-1.91,3.85-3.3,8-5.46,11.67-3.4,5.8-9.3,6.12-12.44.15C1437.14,1259.54,1436.43,1253.76,1435.22,1249.52Z"/><path d="M760.13,949.77c-2.47,2-3.38,2.86-4.45,3.5-7.94,4.74-15.82,9.47-20.48,18-1.33,2.45-3.76,4-6.59,1.81s-4.63-5.35-1.92-8.52c7.23-8.42,16.13-14.44,27.19-16.67C755.24,947.65,756.87,948.76,760.13,949.77Z"/><path d="M977.74,1045.83c-2.89,10.4-10,14.83-16.62,19.67-2.57,1.89-5.57,4.55-8.67.72-2.15-2.65-1.46-9.43,1.6-10.85C961.39,1052,969.06,1049.27,977.74,1045.83Z"/><path d="M2459.93,2726.36c5.06,6.55,4.63,13.25,4.25,19.66-.11,1.8-3.25,3.42-5,5.13-1.24-1.69-3.31-3.25-3.58-5.08C2454.63,2739.48,2452.18,2732.36,2459.93,2726.36Z"/><path d="M2501.17,2793.09c-2.64-1.67-5.31-3.29-7.9-5-3.8-2.55-4.11-4.57-.79-7.74,2-2,4.59-3.38,6.81-5C2506.86,2783.17,2506.93,2784,2501.17,2793.09Z"/><path d="M2467.44,2779.45c-5.2,1.31-9.08-.6-9-5.23.09-3.43,2.67-7.38,5.27-10,2.17-2.17,6.68,1.51,6.14,5.08S2468.27,2776.14,2467.44,2779.45Z"/><path d="M1518.27,981.92c-5.92,6.2-13.57,5.65-23.76-1.72C1499.59,975.21,1499.59,975.21,1518.27,981.92Z"/><path d="M693.91,948.42c-6.55,2.63-14.87,1.23-16.69-2.64-.77-1.63-.17-5.69.67-6,2.83-.9,6.81-1.81,8.93-.47C689.79,941.24,691.49,945.15,693.91,948.42Z"/><path d="M598.8,374.91c2-4.48,1.77-10,8.09-9.88,2.78,0,5.9,7.89,4.57,10.63C609.83,379,606.13,379,598.8,374.91Z"/><path d="M863.13,974.71l5.52,14.63c-6.2,3.52-9.26-.64-13.62-3.75Z"/><path d="M1253.49,111.66c10.76-1.07,12.84,6.85,17.57,11.21C1263.82,122,1257.81,119.39,1253.49,111.66Z"/><path d="M2478.81,2684.49c2.29,0,5.24-.91,6.74.18,3.12,2.29,5.47,5.62,3,10.84l-10.27-8.4C2478.45,2686.24,2478.63,2685.36,2478.81,2684.49Z"/><path d="M2547.8,2747.33c-2.17,4.69-4.15,9-6.32,13.63C2536.58,2752.4,2537.65,2750.13,2547.8,2747.33Z"/><path d="M2387.52,2725.21c-2.24,2.37-3.14,4.18-4.3,4.36a16.29,16.29,0,0,1-6.22-.75c-.35-.09-.69-2.35-.41-2.51a22.16,22.16,0,0,1,5.67-2.43C2383.29,2723.63,2384.56,2724.41,2387.52,2725.21Z"/><path d="M2444.81,2706.29l3.11,5.21c-1.58.84-3.12,2.22-4.74,2.3-.89,0-2.92-2.49-2.65-3.14C2441.12,2709.2,2442.82,2708.19,2444.81,2706.29Z"/><path d="M2482.16,2753.12c-.95,2.84-1.9,5.68-3.48,10.43-4-6.63-1.14-8.83.89-11.3Z"/><path d="M2507.29,2672.11c3.39,5.24.41,7.43-2.44,10.85C2502.83,2678.34,2502.54,2675.22,2507.29,2672.11Z"/><path d="M2466.32,2631.09q-.43-2.94-.89-5.88c1.18-.1,3.32-.46,3.38-.25a41.07,41.07,0,0,1,.89,5.67Z"/><path d="M1284.09,136c-5.56,1-7-1.31-5.85-7.3Z"/><path d="M2303.45,2765c1.8-1.33,3.16-2.78,3.56-2.55a8.93,8.93,0,0,1,2.84,3.18c.13.21-1.34,1.94-1.76,1.83C2306.77,2767.11,2305.58,2766.21,2303.45,2765Z"/><path d="M2499.69,2619.91l5.51-5.28c.7,1.39,1.3,2,1.21,2.49C2505.83,2620.17,2504.18,2621.52,2499.69,2619.91Z"/><path d="M2426.2,2615.82l-4,2.89c-.61-1-1.94-2.25-1.68-2.86.53-1.26,1.9-2.16,2.93-3.2C2424.21,2613.53,2425,2614.42,2426.2,2615.82Z"/><path d="M2444.44,2787.34l-2.73,3.33c-.83-.75-2.2-1.41-2.34-2.27a3.17,3.17,0,0,1,1.63-2.66C2441.74,2785.5,2442.91,2786.57,2444.44,2787.34Z"/><path d="M2433.82,2618.18q1.28-2.59,2.53-5.19l2,.91-2.37,5.26Z"/><path d="M2568.67,2687.11l2.6,2.16a20.53,20.53,0,0,1-2.59,2.36c-.23.16-1.55-.7-1.51-.85A30.78,30.78,0,0,1,2568.67,2687.11Z"/><path d="M2509.54,2633.29c1.34,1.76,2.27,2.59,2.61,3.61.15.46-.89,1.31-1.39,2-.66-.65-1.61-1.19-1.9-2S2509.12,2635.29,2509.54,2633.29Z"/><path d="M2209.72,2155.74c.73,1.75,1.72,3,1.42,3.68-.42.92-2,2.1-2.74,1.91a3.45,3.45,0,0,1-2-2.78C2206.5,2157.76,2208.09,2157.07,2209.72,2155.74Z"/><path d="M2265,2496c.2,1.41.64,2.37.34,3s-1.33,1.13-2,1.68c-.27-.8-.93-1.71-.72-2.35S2263.76,2497.06,2265,2496Z"/><path d="M2318.38,2752.05c-1.79.59-2.82,1.13-3.87,1.15a2.61,2.61,0,0,1-.9-2.1,2.78,2.78,0,0,1,2.2-1.25C2316.44,2749.87,2317,2750.85,2318.38,2752.05Z"/><path d="M2541.21,2446.38l-4.83,1.95-.75-1.81,4.82-2C2540.71,2445.16,2541,2445.77,2541.21,2446.38Z"/><path d="M2543.12,2707.37c.89.66,1.56,1.16,2.24,1.65l-2.19,2.4c-.62-.59-1.71-1.17-1.72-1.76S2542.4,2708.29,2543.12,2707.37Z"/><path d="M2487.73,2548.47c-.67-.41-1.61-.81-1.57-1a14.92,14.92,0,0,1,1-2.5l2.07,1.16Z"/><path d="M2369.13,2642.73l1,1.24a12.25,12.25,0,0,1-1.36.78c-.06,0-.53-.53-.47-.68A8,8,0,0,1,2369.13,2642.73Z"/><path d="M2348.16,2702.77c.36.43,1,.89,1,1.27s-.7.86-1.08,1.28l-1.35-1.69Z"/><path d="M2239.18,2659.34l1.29-1.14c.34.65.69,1.29,1,1.93-.52.21-1.1.66-1.54.55S2239.44,2659.82,2239.18,2659.34Z"/><path class="cls-1" d="M851.28,218.68c.69-3.29,1.16-6,1.85-8.69,2.31-8.88,4.12-18,7.28-26.52,1.85-5,5.89-9.25,9.25-14.29,3,2.23,5.32,3.61,3.54,7.4a14.85,14.85,0,0,0-1,5.58c-.6,14.76-5.18,27.55-17.72,36.5C854.28,218.81,853.87,218.68,851.28,218.68Z"/><path class="cls-1" d="M1223,65.05c-5.46-4.59-11.57-7-12-14.59C1222.53,53.14,1225,55.91,1223,65.05Z"/><path class="cls-2" d="M817.05,1697c2.56,5.24,4.64,8.91,6.18,12.79,2.33,5.84,3.85,12,6.48,17.71,5.87,12.64,13.14,24.71,18.12,37.67,5.42,14.13,14.57,26,21.3,39.27,2.18,4.29,6.15,7.71,9.41,11.42,2,2.25,4.41,4.12,6.22,6.47,12.43,16.15,27.46,29.82,41.58,44.37,11.87,12.23,25.09,21.39,41.85,25.78,12.16,3.19,23.74,8.5,35.77,12.22a177.39,177.39,0,0,0,28.09,6.71c6.78.94,13.89-.23,20.82-.8a125.11,125.11,0,0,1,47.3,4.82c16.41,5,33.06,7,49.95,8.55,17.69,1.67,34.21-3.41,51-7.47a372.89,372.89,0,0,1,39.19-7.34c4.92-.64,10.47,1,15.33,2.79,16.33,5.89,32.93,10.09,50.35,10.86a132.15,132.15,0,0,1,14.85,1.48q26.6,4.14,53.13,8.6a33.58,33.58,0,0,1,9.54,2.69c11.58,5.86,23.9,7.81,36.71,8.08,6.6.14,13.17,1.24,19.77,1.69,4.93.33,9.94.84,14.83.35,13.53-1.37,27.06-3,40.52-5,10.71-1.56,21.27-.46,31.73,1.2,13.12,2.07,26,.54,38.69-2,27.09-5.38,54.09-11.22,81-17.27,9.7-2.18,19.14-5.47,28.68-8.32q32-9.56,64-19.18c1-.29,1.87-1.17,2.75-1.1,12.71,1,23.69-6.54,35.68-7.57,15.95-1.37,30-7.64,44.66-12.77,10-3.51,20.51-5.5,30.75-8.29,2.88-.79,5.93-1.57,8.39-3.15,11.35-7.3,24.72-9.38,36.76-14.72a57.59,57.59,0,0,0,17.55-12.76c8.23-8.59,15.48-18.15,23-27.4,5.66-7,11.46-13.82,16.51-21.2,3.33-4.87,5.71-10.46,8-15.94,2.5-6,7.43-9.73,10.79-14.85,1.46,1.17,2.4,1.62,2.35,1.93-2.25,16.38-2.49,33.1-7.19,49.06-3.76,12.78-8.83,24.86-18.88,34.54-5.92,5.7-10.29,13-15.4,19.59q-6.35,8.14-12.81,16.21a5.09,5.09,0,0,1-2.36,1.77c-10.91,2.93-16.63,12.77-25.21,18.78-12,8.41-24,16.7-35.83,25.38-17.11,12.59-33.82,25.74-51.07,38.13-9.11,6.55-19.07,11.93-28.54,18-7,4.48-14.3,8.66-20.66,14-11.51,9.57-24.62,15.92-38.66,20.29-13.32,4.16-27,7.21-40.42,11-3.77,1.06-7.9,2.27-10.82,4.68-7.19,5.93-15.53,7.88-24.25,7.4-11.58-.64-23.1-2.42-34.65-3.66-14.28-1.53-28.5-1.44-42.3,3-12.25,4-24.81,3.55-37.39,3.45-5.63,0-11.6-1.26-16.82.19-10.21,2.83-19.85.75-29.56-1.32a90.49,90.49,0,0,0-21.68-1.88c-13.58.38-27.2-.35-40.78-1.09-18.85-1-37.68-2.46-56.51-3.72a32.66,32.66,0,0,1-6-.51c-23.46-6.19-47.32-3.63-71.1-3.69-15.59,0-31.19-1.52-46.76-2.64-15.27-1.1-30.51-2.53-45.76-3.9-4.29-.38-8.71-.52-12.81-1.67-20.07-5.62-40.68-6.48-61.28-7.72-15.7-.94-30.65-5.08-45.3-10.65-11.08-4.21-21.9-9-34.16-9.63a62.37,62.37,0,0,1-20.32-4.75c-18-7.48-35.75-15.73-53.56-23.74a13.68,13.68,0,0,1-4.16-2.7c-12.6-12.92-29.24-20.35-43-31.71a185.12,185.12,0,0,0-22.46-16.4c-6.29-3.77-12.31-7.56-17.19-13.09-2.33-2.65-4.9-5.11-7.43-7.59a31.11,31.11,0,0,0-5.12-4.58,55.26,55.26,0,0,1-21.22-23c-1.44-2.9-3.9-5.33-6.08-7.81-2-2.24-4.71-3.94-6.19-6.43-7.77-13.06-15.94-25.92-19-41.23a130.5,130.5,0,0,0-6.44-21.94c-6.2-15.75-7.63-32.39-9.1-48.88-1-11.45,3.59-22.25,8.76-32.39C810.52,1701.89,813.63,1700.18,817.05,1697Z"/><path class="cls-3" d="M848.17,1727.37c11.87,8.56,23.92,14.94,32.87,24.28,12.32,12.85,27.62,17.79,43.56,22.65,8.54,2.6,16.81,6.06,25.24,9,4.31,1.51,8.67,2.87,13,4.14,3.81,1.1,7.87,1.54,11.52,3,18.53,7.42,37.16,14.33,56.66,19,15.15,3.61,29.78,9.34,44.91,13,9.58,2.35,19.63,3,29.5,3.93,11.58,1.16,23.19,2.44,34.8,2.66,18.19.35,36.31.51,54.43-3.19,20.15-4.12,40.68-6.34,61.06-9.27,1.87-.27,3.86.3,5.85.49,2.24,8.36-3.95,5.37-7.74,5.8-2.3,9.79,4.95,13.3,10.86,18.29,6.59-4.79,8.14-11.79,9.79-18.35,1.37-5.43,3.58-7.29,9.41-7.76,10-.81,19.75-2.93,29.49,1a3.6,3.6,0,0,0,2,.1c19.45-4.5,38.35,2.44,57.57,2.84,4.55.1,9.07,1.74,13.61,2.64,26,5.2,52.2,5.31,78.55,3.64,13.86-.88,27.79-.83,41.68-.91,19-.09,37.91-.11,56.86.25,9.92.19,20.1,0,29.69,2.15,19.37,4.29,38.78,4.25,58.38,3.9,9.93-.18,19.93,2.16,29.84,1.81,12.22-.44,24.56-1.34,36.12-6.32a58.92,58.92,0,0,1,10.51-3c16.21-3.65,32.37-7.58,48.69-10.67,13-2.45,26.21-3.47,39.21-5.79,8.1-1.45,15.94-4.28,24-6.22,14.84-3.6,29.59-8.15,44.66-10.14,15.42-2,29.6-7.52,44.14-12.1,4-1.25,7.46-2.6,12,1.34-8.68,10.54-17.25,20.94-25.8,31.35-12.79,15.56-29.06,24.81-49,28.26-4.34.75-8.17,4.28-12.33,6.33-5,2.47-9.9,5.32-15.17,7-13.26,4.15-26.67,7.88-40.1,11.48-7.38,2-15,3.23-22.4,5-19,4.55-38.48,7.47-56.07,17.08-6,3.29-13.16,4.65-19.9,6.47-22.13,6-44.21,12.18-66.49,17.51-19.1,4.57-38.74,7-57.58,12.38-12.2,3.47-24.24,3.16-36.41,3.53-4.17.12-8.59-1.22-12.56-2.75-6.45-2.5-12.53-2.49-19.43-1.36-18,2.93-36.24,5.61-54.46,6.42-14.18.64-28.5-1.59-42.73-2.78-2.57-.22-5-1.7-7.57-2.47-7-2.11-13.87-5-21-6.06-18-2.75-35.34-8.77-54-8.53-12.82.17-25.76-2.62-38.51-4.85a75,75,0,0,1-18.84-6.18c-12.74-6-25.82-5.84-39.1-3.34-18.29,3.45-36.55,7.15-54.77,11-16.28,3.43-32.49,1.46-48.72-.12a10.16,10.16,0,0,1-3.84-1.08c-12.84-7-27.07-5.8-40.89-7-23.85-2.17-47.75-3.89-71.51-6.8-7.67-.93-15-4.85-22.4-7.67-5.26-2-10.25-4.78-15.54-6.7-21.83-8-39-22-53.92-39.49-10.72-12.6-22.42-24.36-33.12-37-5.3-6.26-9.33-13.59-13.91-20.45-2.2-3.32-4.31-6.7-6.51-10-.55-.83-1.8-1.48-1.87-2.29C863.16,1752.34,850.54,1743.27,848.17,1727.37Z"/><path class="cls-2" d="M1948.3,1677.84c-6.94,1.79-13.85,3.72-20.83,5.34-15.2,3.54-29.55,10.24-45.27,11.83-16.17,1.64-32,6.15-48.58,4.73-7.5-.64-15.19,1.47-22.8,1.55-9.23.09-18.49-.32-27.69-1.09-12.47-1-24.87-3.32-37.35-3.82-14.26-.57-27-4.33-40.06-10.36-11.46-5.3-21.14-13.58-33.13-17.67s-23.69-8.71-35.66-12.68a90.12,90.12,0,0,0-17.44-4c-19.53-2.35-36.22-12.87-54.52-18.75-15.77-5.06-30.86-12.23-46.24-18.46a7.09,7.09,0,0,1-1.85-.74c-17.84-14.2-40.61-17.55-60.37-27.5-5.61-2.83-10.8-6.53-16.52-9.1-9.35-4.21-18.93-7.94-28.53-11.57a22.22,22.22,0,0,0-7.84-.89c-13.35.13-26.26,1.8-39.15,6.24-14.08,4.86-29,7.32-43.53,10.84a28.21,28.21,0,0,0-4.76,1.35c-24.74,10.89-51.13,16.86-76.5,25.82-15.89,5.61-31.23,12.82-46.63,19.73-11.21,5-22.13,10.7-33.16,16.12-4.49,2.19-9.13,4.16-13.37,6.75-9.08,5.54-18.19,10.63-28.31,14.41-12,4.49-23.16,11.39-34.7,17.23a206.86,206.86,0,0,1-50.57,18.2c-6.43,1.36-13.29.6-19.83,1.6-15,2.31-30,5.41-45,7.55-5.48.78-11.25,0-16.83-.54-6.95-.71-13.83-2.76-20.74-2.82-11.14-.09-19.57-5.29-27.83-11.79-5.71-4.51-11.87-8.47-18-12.49-13.67-9.05-24.74-21-37.71-32.94,13.18-.68,22.66,5.39,31,11.43,13.28,9.65,26.83,9.52,41.69,6.66,15.51-3,30-8.61,44.51-14.56,17.52-7.18,35.27-13.88,53.11-20.26a76.07,76.07,0,0,1,18.56-3.67c20.3-1.83,37.59-11.47,54-22,10.15-6.53,21-11.4,31.3-17.34,19-10.9,38.63-20.64,54.5-36.43,7.19-7.15,16.34-12.3,24.56-18.42,2.4-1.78,4.61-3.82,7-5.63,3.16-2.41,6.13-5.29,9.66-7a289.16,289.16,0,0,1,73.95-23.11c9.75-1.7,20.44,1.22,30.55,2.92,2.68.45,5.38,3.81,7.11,6.46,6.46,9.93,17.54,12.69,27.08,17.7,3.89,2,8.51.59,12.2-2.3,8.88-7,17.38-14.48,26.75-20.69,9.72-6.45,21.14-7.42,32.59-6.62a149.21,149.21,0,0,1,16.77,2,104.07,104.07,0,0,1,15.41,4.07c7.21,2.51,14.2,5.64,21.36,8.31,28.46,10.63,55.7,24.1,80.17,41.82,15.65,11.34,32.47,20.66,48.11,31.87,12.31,8.81,26.35,13.93,41.14,17.1a42.88,42.88,0,0,1,10.15,3.53c28.51,14.3,58.74,22.82,90.24,27.24,15.18,2.13,30.06,5,43.83,12.63,10.33,5.71,22.25,6.35,33.88,7.18,15.24,1.09,30.59.92,45.46,5.39,15.24,4.59,30.52,9.11,45.93,13.07,7,1.8,14.38,2.19,21.59,3.18,2.25.31,4.53.45,6.79.68C1948.09,1676,1948.2,1676.93,1948.3,1677.84Z"/><path class="cls-1" d="M1278.89,1799.47c2.25-10.63,3.87-20.12,6.3-29.39,4.87-18.55,5.49-37.55,5.75-56.48.22-15.28-1.26-30.58-2.11-45.87a21.77,21.77,0,0,0-1.52-7.82c-6.31-13.52-5.73-28.54-9.52-42.6-.33-1.2,0-2.57,0-4.18,9-3.49,17.85-7,26.72-10.38,19.23-7.42,39.23-12.07,59.28-16.59,4.19-.94,8.28-2.35,12.4-3.62,17.88-5.54,34.66-2.87,50.93,6,7.55,4.13,15.73,7.09,23.56,10.71,8.72,4,17.33,8.31,26,12.33,21.35,9.85,42.63,19.89,64.17,29.32,14.24,6.23,28.87,11.54,44.21,17.61-6.58,8.52-2.88,18.25-2,28,1,12.27,1.67,24.57,2.13,36.88.55,15,.73,29.94,1.1,44.91.18,7.48-1,14.56-5.37,20.88-3.22,4.67-6.47,9.33-9.29,14.23-2.31,4-5.53,5.46-9.9,5.26-12.3-.56-24.59-1.06-36.88-1.6a19.62,19.62,0,0,0-2-.31q-25.35,1.53-50.7,3.14c-3.86.25-7.7.59-12.18.94.73-6.89,1.34-12.64,2-18.74l-8.11-2.27c-2.9-25.17-6.08-49.9-8.44-74.71-1.13-11.87-.8-23.89-.92-35.84-.18-17.17-.22-34.34-.22-51.51,0-3.32.42-6.65.73-10,.28-3.14.28-7-3.44-7.07-2.74-.07-6.92,1.83-8.07,4.08-3.15,6.14-5.46,12.66-5,20.06,1.12,16.23,2.42,32.52,2.06,48.75-.5,22.43,2.73,44.49,4.56,66.69,1.45,17.52,2.81,35,4.2,52.58.7,8.88-1.3,11.36-9.93,9.92-12.76-2.12-25.36-5.14-38-7.78-2.92-.61-5.89-1.9-8.76-1.7-21.15,1.45-41.55-5-62.44-5.68-8.56-.29-17.17,1.28-25.78,1.78C1289.81,1799.69,1285.2,1799.47,1278.89,1799.47Zm87.56-116.07c-7.14-5.23-12.18-6.2-17.91-4C1355.51,1684.1,1358.26,1684.78,1366.45,1683.4Z"/><path class="cls-1" d="M1155.62,1814.89c4.58-9.89.79-15.91-1.9-22.74a104.66,104.66,0,0,1-6.71-29c-1.29-15.2-1-30.54-1.12-45.83a29.73,29.73,0,0,1,1.72-9.77c2-6,3.79-11.49-2.75-16-1-.7-1.14-3-1.19-4.65-.14-5.28-.05-10.58-.05-17,37.48-21.4,76.42-42,121.81-51.83-3,6.66-5.59,12.64-9.08,20.56l8.19-4.3c.51.37,1.37.66,1.5,1.14,8.3,30.39,16.81,60.71,11.94,92.84-2,13.13-2.9,26.42-4.73,39.58-1.15,8.2-3.09,16.3-4.73,24.43-1,4.65-3.48,7.85-8.4,8.72-6.2,1.08-12.42,3.2-18.59,3.06-17.91-.4-34.84,4.52-52.12,7.86C1179.2,1813.92,1168.59,1813.84,1155.62,1814.89Z"/><path class="cls-1" d="M1588.28,1806.1c3.06-5.65,5.91-10.47,8.34-15.5,4.51-9.32,4.83-19.42,3.22-29.23-2.28-14-1.06-27.86-.88-41.83.19-14.57-.61-29.15-1-43.73-.07-3.25,0-6.51,0-10.87,5,.82,9.16,1.57,13.3,2.15a165.19,165.19,0,0,1,54.62,17.89c5.57,2.94,11.56,5,17.33,7.61,4,1.75,8.11,3.21,11.71,5.51a84.35,84.35,0,0,0,33.5,12.16c10.8,1.64,21.55,3.51,32.86,5.37.54,1.7,1.49,3.48,1.63,5.32,1.29,17.26,2.56,34.52,3.58,51.81.43,7.27.3,14.58.35,21.87,0,4.85-3.67,6-7.31,6.72-10.77,2.13-21.61,3.87-32.36,6.11-10,2.09-19.9,5.25-30,6.79-8.77,1.33-17.78,1.43-26.68,1.37s-17.89-.93-26.82-1.58c-14.15-1-28.55.25-42.22-5.18C1597.62,1807.32,1593.25,1807.09,1588.28,1806.1Z"/><path class="cls-1" d="M1978.49,1684.21c4.2,11.39,1.47,19.78-5.46,25-1.48,5.7-2,9.76-3.59,13.38-3,7-7,13.59-9.92,20.61-4.26,10.13-13.18,13.71-22.49,16.46q-21.46,6.33-43.22,11.67c-15.7,3.83-31.55,7-47.33,10.57-3.17.71-6.32,1.56-9.47,2.42s-6.34,2.51-9.55,2.62a112.15,112.15,0,0,0-39.72,8.46c-1.42.6-3.17.41-6,.72-1.32-26.18-2.62-51.79-4-78.31,3.29-.37,5.82-1.08,8.26-.86,7.58.71,15.11,1.87,22.68,2.65a30.84,30.84,0,0,0,6.9-.37c8.82-1.11,17.62-2.42,26.46-3.46,8.23-1,16.5-1.68,24.75-2.49,6.6-.65,13.21-1.26,19.81-1.91,2-.19,4.15,0,5.88-.71,16.92-7.38,35-10,52.91-13.36,3.83-.73,7.45-2.58,11.2-3.8,2.79-.9,5.63-2.21,8.48-2.28C1970.5,1691.12,1974.76,1689.27,1978.49,1684.21Z"/><path class="cls-1" d="M1133.73,1771.65c2.81,12.44,5.19,23,8,35.52C1134.85,1800.84,1132.23,1787.76,1133.73,1771.65Z"/><path class="cls-1" d="M1745.59,575.28c13-6.72,24.26-8.67,37.68-3.37C1770.8,576.16,1759.54,578,1745.59,575.28Z"/><path class="cls-1" d="M1727.67,564.12c5.46-2,10-7.12,19.23-3.65l-18.53,6.22C1728.13,565.83,1727.9,565,1727.67,564.12Z"/><path class="cls-1" d="M1717.92,572l12.31-1.72c.07.43.13.85.19,1.28l-12.13,2.63C1718.17,573.42,1718,572.69,1717.92,572Z"/><path class="cls-1" d="M834.14,942.34l-6.47-1.62c.4-.82.79-1.65,1.19-2.47,1.76,1.39,3.51,2.77,5.28,4.2C834.16,942.49,834.14,942.34,834.14,942.34Z"/><path class="cls-1" d="M1166.82,415.4c6.7-.23,11,2.28,9.83,4.81a8.55,8.55,0,0,1-5.69,4.11c-3.49.52-8,.24-8.43-4.37C1162.37,418.3,1165.92,416.3,1166.82,415.4Z"/><path class="cls-1" d="M1718,429.17c1.72,9,1.72,9-5.09,8C1714.33,434.9,1715.6,432.91,1718,429.17Z"/><path d="M1366.45,1683.4c-8.19,1.38-10.94.7-17.91-4C1354.27,1677.2,1359.31,1678.17,1366.45,1683.4Z"/><path class="cls-4" d="M1936.43,749.6c-3.93-1.38-8.82-2.86-11-5.91-3.26-4.66-6.81-5.27-11.78-5.27-16.4,0-32.16-2.41-46.41-11.79-4.57-3-9.44-7.31-16.64-6.42.67,3.18,1.41,5.68,1.71,8.24a33.6,33.6,0,0,1-9.21,28.13c-3.52,3.73-7.59,6.93-13.23,12,9.13,3.43,15.38,7.17,22,7.91a120.79,120.79,0,0,0,27.85-.58c19.08-2.3,38.06-5.42,57.08-8.25,5.53-.82,11-2,14.91-7C1947.78,754.7,1942.53,751.75,1936.43,749.6Z"/><path class="cls-4" d="M1821.25,756.27c9.83-2.59,11-10.92,14.81-17C1828.59,742.27,1824.17,747.77,1821.25,756.27Z"/><path class="cls-4" d="M1767.76,667.57a14,14,0,0,0-7.51-4.76,14.62,14.62,0,0,0-8.79,1c-6,2.44-12,4.85-17.94,7.35s-11.88,5.08-17.72,7.84a17.81,17.81,0,0,0-5,3.8c-1.51,1.56-2.9,3.31-4.25,4.94a60.85,60.85,0,0,0-4,5.56c-1.24,1.9-2.43,3.82-3.66,5.63-4.42-1.32-6.61-2-8.33-1.5s-3,2-5.52,5.15a35.56,35.56,0,0,1-3,3.23c-1.08,1-2.19,2-3.29,3q-10.11,9.18-20.22,18.33t-20.27,18.29c-.45.39-.69,2.12-1,3.81a20.47,20.47,0,0,1-.33,2.85,8.07,8.07,0,0,1,4.91-1.45,8.25,8.25,0,0,1,6.09,3.24,25.68,25.68,0,0,0,8.68,6.83c3.23,1.66,6.67,2.88,10,4.25a85.27,85.27,0,0,0,9.91,3.3c3.37.92,6.79,1.7,10.2,2.45a28.79,28.79,0,0,0,14.53-.66,51.31,51.31,0,0,0,13-6.15,82.21,82.21,0,0,1,18.11-8.36c6.25-2.08,12.66-3.63,19.13-5.15,1.26-.29,2.51-.64,3.81-1s2.66-.8,4.15-1.22c-.22-1.22-.29-2.36-.42-3.38a7.21,7.21,0,0,0-.75-2.71c-4.72-8.34-6.79-16.62-6.47-24.81s3-16.28,7.9-24.26a17.82,17.82,0,0,1,3.88-4.29,48.38,48.38,0,0,1,4.85-3.47,26.38,26.38,0,0,1,4.84-2.31c1.75-.66,3.61-1.29,5.56-2.09-2-2.35-3.8-4.62-5.62-6.82S1769.59,669.66,1767.76,667.57Z"/><path d="M1996,771.64a9.4,9.4,0,0,0-3.38-1.56,28,28,0,0,1-9.86-3.49,62.6,62.6,0,0,1-8.48-6c-2.85-2.3-5.74-4.55-8.63-6.79s-5.79-4.47-8.64-6.76-6.08-4.34-9.06-6.57a29.07,29.07,0,0,1-7.5-7.55c-2.13-3.43-4.37-5.33-6.93-6.32s-5.43-1.08-8.81-.86a86.25,86.25,0,0,1-23.81-1.94,129.59,129.59,0,0,1-22.75-7.39c-3.36-1.41-6.62-3.08-9.91-4.69a87.45,87.45,0,0,0-10-4.34,169.34,169.34,0,0,1-20.28-8.36,130.14,130.14,0,0,1-18.79-11.29,44.87,44.87,0,0,1-5-4,14,14,0,0,1-3.54-5.33,8.2,8.2,0,0,0-3.35-4.34,6.15,6.15,0,0,0-5.35-.41c-3.65,1.27-6.4.84-8.75-.5s-4.3-3.59-6.33-6-4.32-5.07-6.6-7.5a72.51,72.51,0,0,0-7.22-6.82,23.23,23.23,0,0,0-10.43-5.24,15.23,15.23,0,0,0-11.57,2.93,8.67,8.67,0,0,1-2.22,1c-.79.27-1.61.51-2.37.83-6.71,2.83-13.79,4.79-20.67,7.19s-13.6,5.25-19.57,9.84a8.43,8.43,0,0,1-2.2,1.18,8.76,8.76,0,0,1-2.45.53,15,15,0,0,0-8.69,3.4,51.24,51.24,0,0,0-6.5,6.72c-4.26,4.87-8.37,9.87-12.79,14.58a89.06,89.06,0,0,1-14.61,12.92,103.07,103.07,0,0,0-10.8,8.73c-3.45,3.12-6.8,6.39-10.2,9.55-2.8,2.59-4.13,7.2-4.33,12.08s-1.27,14.4,2.43,13.66h0c-1.94,1.85-2.23,3.46-1.69,5.45s2,4.19,3.91,6.9c6.06,3.45,12.09,7.22,18.24,10.6a94.85,94.85,0,0,0,19,8.26,50.53,50.53,0,0,0,21.49,1.31,66.28,66.28,0,0,0,21.13-7.1c4.84-2.54,9.67-5.16,14.59-7.59a136,136,0,0,1,15-6.48,32.8,32.8,0,0,1,14.93-2,23.49,23.49,0,0,1,13.87,7,19.5,19.5,0,0,0,4.08,3.11,7.15,7.15,0,0,0,4.35,1.16,30.44,30.44,0,0,1,8.74,0c2.84.33,5.62.81,8.4.89a38,38,0,0,1,13.18,2.92c4.06,1.6,7.92,3.61,12,5.38,3.5,1.53,7,3.35,10.55,4.89a36.91,36.91,0,0,0,10.78,3.17,114.58,114.58,0,0,0,16.38.43c5.49-.21,11-.73,16.42-1.38,10.22-1.22,20.42-2.63,30.61-4.14s20.37-3.15,30.53-4.8c3.87-.63,8.11-.74,11.78-2.13s6.78-4.09,8.39-9.91c4.32,2.6,8.37,5.07,12.31,7.44s7.76,4.64,11.65,6.8a10.77,10.77,0,0,0,3.53,1.08c1.25.18,2.36.13,2.68-.3a28,28,0,0,0,2.89-4.95,42.13,42.13,0,0,0,2-5.41C1997.87,773.14,1997.06,772.37,1996,771.64Zm-337.48-44.52q10.13-9.15,20.22-18.33c1.1-1,2.21-2,3.29-3a35.56,35.56,0,0,0,3-3.23c2.55-3.12,3.8-4.69,5.52-5.15s3.91.18,8.33,1.5c1.23-1.81,2.42-3.73,3.66-5.63a60.85,60.85,0,0,1,4-5.56c1.35-1.63,2.74-3.38,4.25-4.94a17.81,17.81,0,0,1,5-3.8c5.84-2.76,11.76-5.34,17.72-7.84s12-4.91,17.94-7.35a14.62,14.62,0,0,1,8.79-1,14,14,0,0,1,7.51,4.76c1.83,2.09,3.61,4.22,5.42,6.42s3.66,4.47,5.62,6.82c-2,.8-3.81,1.43-5.56,2.09a26.38,26.38,0,0,0-4.84,2.31,48.38,48.38,0,0,0-4.85,3.47,17.82,17.82,0,0,0-3.88,4.29c-4.86,8-7.58,16.08-7.9,24.26s1.75,16.47,6.47,24.81a7.21,7.21,0,0,1,.75,2.71c.13,1,.2,2.16.42,3.38-1.49.42-2.85.84-4.15,1.22s-2.55.73-3.81,1c-6.47,1.52-12.88,3.07-19.13,5.15a82.21,82.21,0,0,0-18.11,8.36,51.31,51.31,0,0,1-13,6.15,28.79,28.79,0,0,1-14.53.66c-3.41-.75-6.83-1.53-10.2-2.45a85.27,85.27,0,0,1-9.91-3.3c-3.33-1.37-6.77-2.59-10-4.25a25.68,25.68,0,0,1-8.68-6.83,8.25,8.25,0,0,0-6.09-3.24,8.07,8.07,0,0,0-4.91,1.45,20.47,20.47,0,0,0,.33-2.85c.28-1.69.52-3.42,1-3.81m183,10.86c2.92-8.5,7.34-14,14.81-17C1832.26,745.35,1831.08,753.68,1821.25,756.27Zm115.56,11.41c-19,2.83-38,6-57.08,8.25a120.79,120.79,0,0,1-27.85.58c-6.58-.74-12.83-4.48-22-7.91,5.64-5.09,9.71-8.29,13.23-12a33.6,33.6,0,0,0,9.21-28.13c-.3-2.56-1-5.06-1.71-8.24,7.2-.89,12.07,3.41,16.64,6.42,14.25,9.38,30,11.78,46.41,11.79,5,0,8.52.61,11.78,5.27,2.13,3,7,4.53,11,5.91,6.1,2.15,11.35,5.1,15.29,11.11C1947.76,765.71,1942.34,766.86,1936.81,767.68Z"/><path d="M1795,882.74c-.53,3.63-.81,5.24-1,6.85-1.15,10.45-4.07,13.53-14.45,15.16-4.82.76-9.64,1.49-15.31,2.36,4.61-10.38,13-16.65,21.16-22.86C1787.43,882.75,1791,883.31,1795,882.74Z"/><path d="M1688.32,944c-6.75,5.14-13.78,4-20.57,3.16-3.35-.43-7.18-6.44-6.29-9.15,1.23-3.78,4.58-4.37,8-4.49C1678.75,933.22,1684,936,1688.32,944Z"/><path d="M1797.7,946c5.21,12.32,4.94,18.89-1.31,20.88-2.82.89-6.5.36-9.39-.65-2.23-.79-3.84-3.34-7.46-6.72C1790.3,958.67,1787.82,945.43,1797.7,946Z"/><path d="M1697.84,850c9-2.67,18.35.5,27.56-1.61-.91,10.92-4.09,13.07-12.22,9.77-5-2-10.21-3.62-15.33-5.41C1697.85,851.8,1697.84,850.89,1697.84,850Z"/><path d="M1993.52,971c-6.64.13-11.79-3-11.51-6.94.26-3.67,5.07-7.74,9.14-7.73,4.91,0,10,3.87,10.25,7.71S1998.31,970.91,1993.52,971Z"/><path d="M1913,961.13c-5.31-.13-9.33-3.76-9.34-8.42,0-3.66,4.12-7.1,8.32-6.93,4.89.2,10.3,5.31,10,9.41C1921.64,959.06,1918.32,961.26,1913,961.13Z"/><path d="M1956.08,971.25c4.63,1.17,8.14,1.84,11.47,3,1.67.59,3.89,1.87,4.26,3.27s-.61,3.91-1.79,5.22c-4.52,5-15.47,3.44-18-2.61C1950.18,975.8,1953.58,973.56,1956.08,971.25Z"/><path d="M2016.12,972.77a65.6,65.6,0,0,1,6.76,2c3.77,1.67,5.72,4.49,4.14,8.69-1.37,3.65-7.3,6-10.81,4.52-3.34-1.42-7.13-7.39-5.71-10.5C2011.47,975.37,2014.43,974.12,2016.12,972.77Z"/><path d="M1670.74,908.61c4.63,4.21,5.21,8.46,4.2,12.63-.53,2.18-3,5.64-4.33,5.52a18.39,18.39,0,0,1-9.28-4c-.85-.68.05-4.9,1.33-6.6C1664.84,913.31,1668,911.13,1670.74,908.61Z"/><path d="M1952.28,1017.6l9.36-1.23c2.49,4.46,3.71,8.58-.6,11.71C1957.92,1030.34,1954.59,1026.63,1952.28,1017.6Z"/><path d="M1835.59,997.16c3.42-1.34,6.23-3.48,7.57-2.79,3.76,2,3.46,5.74,2,9.6C1840.45,1005.23,1839.07,1001.62,1835.59,997.16Z"/><path d="M1697.65,966c-6.88,1-8.88-2.92-11.13-7C1693,956.3,1693.61,956.66,1697.65,966Z"/><path d="M1231.15,731.31,1246,741.87c-1,4.12-1.55,8.06-3.06,11.59-.79,1.83-3.2,3.85-5.07,4-1.67.18-4.43-1.6-5.26-3.24-4.41-8.76-12.94-12-20.77-16.19a13.14,13.14,0,0,0-6.7-1.36c-15.23,1.08-30.52,1.8-45.65,3.77-17.34,2.26-34.91,3.83-50.73,12.83-6,3.41-12.89,5.43-19.61,7.22a314.22,314.22,0,0,1-32,7.09,88.45,88.45,0,0,1-20.83.28c-7.6-.64-14.33.1-20.51,5.19-5,4.13-11.4,5-16.59.89-7.19-5.76-14.26-12-20.12-19.05-11.16-13.45-24.39-23.11-42.26-22.08-19.88,1.15-39.61,4.48-59.46,6.36a109.1,109.1,0,0,1-22.71-.26c-7.31-.85-10-6.65-6.42-13.19,2.43-4.48,4.5-8.67,4.16-14-.11-1.88,1.86-4.07,3.23-5.84,8.31-10.76,17.27-20.93,24.56-32.6,4.38-7,12-12.24,18.8-17.38,15.62-11.76,31.67-22.95,47.51-34.41a60.37,60.37,0,0,1,23.31-10.75c12.32-2.6,24.34-6.7,36.38-10.5,6.42-2,12.22-1.94,18.16,1.62,21.32,12.76,43.21,24.64,62.75,40.12,9.61,7.62,16.47,17.84,24.53,26.94A187.33,187.33,0,0,0,1138,692.89a119,119,0,0,0,24,14c9,4,18.78,6.51,28.23,9.62,4.41,1.45,8.82,3,13.31,4.1,2.51.64,5.31,1.22,7.76.73,9.42-1.91,18.75-4.26,28.12-6.44,2.6-.6,5.21-1.67,7.8-1.6,2.36.06,4.69,1.37,7,2.13-1,2.57-1.7,5.41-3.27,7.59-1.05,1.46-3.33,2.14-5.17,2.87C1241.16,727.68,1236.5,729.33,1231.15,731.31ZM956.82,720.16c.63-7.14,1-14.3,1.94-21.38,1.44-11.06,5.2-21.24,12.24-30.1a15.89,15.89,0,0,0,2.55-5.38c3.64-12.27,10.26-23,17.08-33.64,5.56-8.67,13.13-12.83,23.46-12,1.6.13,3.25-.43,6.27-.89-9-4.33-9-4.45-15.45-2.37-10.65,3.42-21.65,5.35-32.23,9.57-7,2.78-14.45,4.47-20.65,9-7.79,5.62-15.29,11.66-22.84,17.6-6,4.72-11.27,11.08-18,14-9.06,3.86-14.9,10.67-21.18,17.28a167.37,167.37,0,0,0-13.87,16.78c-1.57,2.16-3,5.93-2.16,8,2,4.94-.42,8.37-2.29,12.17-1.26,2.58-2.67,5.07-5.12,9.7,16.75-1,30.66-7.21,45.24-8.11C926.91,719.44,942.14,720.16,956.82,720.16Zm79.07,33.41a26.86,26.86,0,0,0,18.54,1.76c3.22-.78,6.35-2.13,9.61-2.58a136.49,136.49,0,0,0,50.59-17c4.4-2.56,10-3.27,15.19-4.23,10.44-1.93,21-3.37,31.42-5.2,2-.34,3.77-1.49,7.57-3.07-6.52-1.83-10.94-3-15.29-4.34-2.48-.78-5.25-1.48-7.18-3.08-18.82-15.71-38.44-30.53-53.95-49.91-5.15-6.42-11.64-11.82-17.84-17.33-2.2-2-5.35-2.88-9.36-4.93,0,13.76.15,25.63,0,37.5-.2,12.31,2.12,25.29-8.75,35-1.65,1.48-2.45,3.92-3.58,6-3.53,6.36-7,12.72-10.51,19.12C1040.16,745.2,1038.14,749.23,1035.89,753.57Zm-7.19-132.49c.87,10.06,8.54,9.62,13.11,12.71,5,3.35,10.58,5.58,17.35,4.42Zm-30.35,99.47c8.89-5.1,9.22-7.93,2.93-19.28C995.52,707.6,994.65,712.69,998.35,720.55Zm14.27-88.32c-10.42-1.23-12.27.13-14.67,10.84Zm9.93,51c-3.43-3.06-5.19-4.94-7.32-6.2-.33-.2-2.64,2.27-3.44,3.81-.43.85.4,2.34.78,4.15Zm-7.81,22,4.75-8.68c-3.57,0-6.39-.72-7,.13C1010.71,699.22,1010.75,702.19,1014.74,705.25Zm-49,14.74H968l-.45-5.29-1.65.1C965.86,716.53,965.79,718.26,965.71,720Zm34.48,41.27-1.37,1.07c.12.63.06,1.65.38,1.79a14.3,14.3,0,0,0,3,.63Z"/><path d="M1092.76,919.49c-3.12,9.7-3.28,19.87-9.42,28-1.29,1.72-5,3.48-6.47,2.78a9.87,9.87,0,0,1-4.84-6.58C1071.09,936.1,1083.63,921.38,1092.76,919.49Z"/><path d="M980.46,902.08c-2.37,4.71-4.36,8.67-6.34,12.65s-5.23,5.06-9,2.87c-3.48-2.06-4.59-5.44-3.18-9.39C964.43,901.41,970.72,898.8,980.46,902.08Z"/><path d="M1210.15,907.67c-.29,4.18-4.25,8.46-7.4,8s-8.25-7.94-7.77-11.67c.44-3.42,2.35-5.41,6-5.12C1205.83,899.27,1210.42,903.72,1210.15,907.67Z"/><path d="M1269.07,899c7.86-3,12.69-7,20.24-2.34-2.8,3.53-4.7,8.18-8,9.52C1276.5,908.15,1274.62,902.28,1269.07,899Z"/><path d="M940.12,946.14c-.56,3-.32,5.68-1.55,7.21a11.85,11.85,0,0,1-6.34,3.5c-.66.16-3.1-3-2.88-4.29a10,10,0,0,1,3.55-6.21C934.41,945.32,937.18,946.14,940.12,946.14Z"/><path d="M1246.07,960.49l11.27-2.07c-1.08,4.3-1.77,7-2.52,10C1249.6,969.4,1246.75,967.51,1246.07,960.49Z"/><path class="cls-1" d="M1829.92,768.6c5.64-5.09,9.71-8.29,13.23-12a33.6,33.6,0,0,0,9.21-28.13c-.3-2.56-1-5.06-1.71-8.24,7.2-.89,12.07,3.41,16.64,6.42,14.25,9.38,30,11.78,46.41,11.79,5,0,8.52.61,11.78,5.27,2.13,3,7,4.53,11,5.91,6.1,2.15,11.35,5.1,15.29,11.11-4,5-9.38,6.15-14.91,7-19,2.83-38,6-57.08,8.25a120.79,120.79,0,0,1-27.85.58C1845.3,775.77,1839.05,772,1829.92,768.6ZM1854,745.8c1.12,4.36,3.15,6,6.58,4.33.78-.37,1.48-2.5,1.12-3.36C1860.06,742.79,1857.26,744.4,1854,745.8Z"/><path class="cls-1" d="M1836.06,739.31c-3.8,6-5,14.37-14.81,17C1824.17,747.77,1828.59,742.27,1836.06,739.31Z"/><path class="cls-1" d="M956.82,720.16c-14.68,0-29.91-.72-45,.21-14.58.9-28.49,7.14-45.24,8.11,2.45-4.63,3.86-7.12,5.12-9.7,1.87-3.8,4.27-7.23,2.29-12.17-.84-2.1.59-5.87,2.16-8A167.37,167.37,0,0,1,890,681.8c6.28-6.61,12.12-13.42,21.18-17.28,6.76-2.89,12-9.25,18-14,7.55-5.94,15-12,22.84-17.6,6.2-4.48,13.69-6.17,20.65-9,10.58-4.22,21.58-6.15,32.23-9.57,6.45-2.08,6.49-2,15.45,2.37-3,.46-4.67,1-6.27.89-10.33-.86-17.9,3.3-23.46,12-6.82,10.66-13.44,21.37-17.08,33.64a15.89,15.89,0,0,1-2.55,5.38c-7,8.86-10.8,19-12.24,30.1C957.84,705.86,957.45,713,956.82,720.16Z"/><path class="cls-1" d="M1035.89,753.57c2.25-4.34,4.27-8.37,6.42-12.33,3.46-6.4,7-12.76,10.51-19.12,1.13-2,1.93-4.47,3.58-6,10.87-9.75,8.55-22.73,8.75-35,.19-11.87,0-23.74,0-37.5,4,2,7.16,3,9.36,4.93,6.2,5.51,12.69,10.91,17.84,17.33,15.51,19.38,35.13,34.2,53.95,49.91,1.93,1.6,4.7,2.3,7.18,3.08,4.35,1.38,8.77,2.51,15.29,4.34-3.8,1.58-5.62,2.73-7.57,3.07-10.46,1.83-21,3.27-31.42,5.2-5.17,1-10.79,1.67-15.19,4.23a136.49,136.49,0,0,1-50.59,17c-3.26.45-6.39,1.8-9.61,2.58A26.86,26.86,0,0,1,1035.89,753.57Z"/><path class="cls-1" d="M1028.7,621.08l30.46,17.13c-6.77,1.16-12.4-1.07-17.35-4.42C1037.24,630.7,1029.57,631.14,1028.7,621.08Z"/><path class="cls-1" d="M998.35,720.55c-3.7-7.86-2.83-12.95,2.93-19.28C1007.57,712.62,1007.24,715.45,998.35,720.55Z"/><path class="cls-1" d="M1012.62,632.23,998,643.07C1000.35,632.36,1002.2,631,1012.62,632.23Z"/><path class="cls-1" d="M1022.55,683.26l-10,1.76c-.38-1.81-1.21-3.3-.78-4.15.8-1.54,3.11-4,3.44-3.81C1017.36,678.32,1019.12,680.2,1022.55,683.26Z"/><path class="cls-1" d="M1014.74,705.25c-4-3.06-4-6-2.24-8.55.6-.85,3.42-.13,7-.13Z"/><path class="cls-1" d="M965.71,720c.08-1.73.15-3.46.23-5.19l1.65-.1L968,720Z"/><path class="cls-1" d="M1000.19,761.26l2,3.49a14.3,14.3,0,0,1-3-.63c-.32-.14-.26-1.16-.38-1.79Z"/><path d="M1854,745.8c3.22-1.4,6-3,7.7,1,.36.86-.34,3-1.12,3.36C1857.19,751.76,1855.16,750.16,1854,745.8Z"/><polygon points="2535.64 2815.07 2437.27 2823.37 2321.71 2823.96 2290.3 2821 2263.64 2820.41 2207.93 2811.52 2284.97 2810.33 2535.64 2815.07"/></svg>