<?xml version="1.0" encoding="utf-8"?>
<!-- Generator: Adobe Illustrator 25.4.1, SVG Export Plug-In . SVG Version: 6.00 Build 0)  -->
<svg version="1.1" id="レイヤー_1" xmlns="http://www.w3.org/2000/svg" xmlns:xlink="http://www.w3.org/1999/xlink" x="0px"
	 y="0px" viewBox="0 0 1051.1 1073" style="enable-background:new 0 0 1051.1 1073;" xml:space="preserve">
<style type="text/css">
	.st0{fill:#E5E3D1;}
	.st1{fill:#D4DAD4;stroke:#D8D8D8;stroke-miterlimit:10;}
	.st2{fill:#D8D8D8;stroke:#D4DAD4;stroke-miterlimit:10;}
	.st3{fill:#FFFFFF;}
	.st4{fill:#D4DAD4;stroke:#FFFFFF;stroke-miterlimit:10;}
</style>
<g>
	<path class="st0" d="M327.7,1056.8l-12.4-15.7c9.1-4.7,17.6-9.1,28.8-14.9C338,1037.7,333.4,1046.1,327.7,1056.8z"/>
	<path class="st1" d="M0.5,0.9c251.3,0,748.7-0.4,1000-0.4c15.5,107.7,24.3,216,30.8,324.4l-23-3c3.9,29.4,7.6,57.1,11.2,84.9l2.5,0
		v-79c5,5.9,8.9,8.4,9.2,11.2c4,34.1,7.6,68.2,11.1,102.4c0.3,2.8-0.3,5.6-0.6,11.5l-22.7-11.2c-1.6,6.6-3.3,14-5,21.5
		c22.7-1.1,27.8,2.7,31.1,26c2.6,18.1,3.7,36.4,5.4,54.6v528.8h-17.9c-1-2.8-1.5-5.9-3.2-8.3c-11.6-16.4-63.3-30.5-82.1-23
		c-4.7,1.9-10.2,3.7-15,3c-17.3-2.5-34.5-6-51.6-9.5c-3.3-0.7-6.1-2.6-8.1-5.3c-0.8-1.3,1.1-6.3,2.9-7.2
		c20.2-10.2,28.4-41,59.9-34.9c-9.6-5.5-19.3-6-27.6-9.5c-9-3.8-21.3-9.1-23.9-16.5c-3.8-10.9,4.5-20.6,16.9-25.1
		c7.4-2.7,13.9-7.7,20.8-11.7c-0.7-1.4-1.5-2.8-2.2-4.2c-10.9,5-21.7,10.2-32.7,14.8c-7.7,3.2-15.9,5.2-23.9,7.8l0.5,0.3
		c-16.9-13.8-6.3-29.1-3.4-44.6c3.9-20.9,25.5-18.1,38.5-30.1l-11.6-1c0.5-31.3,29.7-55.4,58.7-48.8c-1.1-19.6-2.2-39.2-3.5-61.6
		l-6.9,11l0.9-0.3c-8.8,2.1-14-0.6-13.8-10.4c0.1-7,1.2-14.2,0.4-21.1c-3.7-32.6-6.9-65.2-12.2-97.5c-3.8-23.2-11.4-45.7-16.1-68.8
		c-2.5-12.4-0.7-25.8-4-37.9c-5.5-20-8.6-39.4-0.8-59.3c1-2.6,0.8-5.7,0.7-8.6c-1-20-1.8-39.9-3.4-59.9c-0.4-5.5-3.3-10.8-5-16.2
		l4.5,1.9l17.5-44l-4.6-2c-2.6,5.8-5.1,11.6-8.9,20.1c-2.8-5.6-5.7-8.6-5.4-11.2c1.5-12.1,22.1-27.1,34.9-26.1
		c14.5,1.2,47.8-22.6,48.6-34.8c1.9-26.6,3.7-53.1,5.7-79.7c0.1-0.9,1.4-1.8,2.1-2.7c19.6-1.6,35.3-17.7,35.8-41.9
		c-7.1,9.8-10.7,17-16.3,22c-6.7,5.9-14.5,11.6-22.9,14.1c-7.9,2.4-17.1,0.5-24.6,0.5c5.1,4.1,14.8,9.4,14.2,12
		c-4.1,15.5-10.6,30.5-16.2,45.7l-5.3-1.9c-0.8-7.2-1.7-14.4-2.5-21.6l-3.5,0.2c-0.4,5.9-0.8,11.8-1.2,17.2H928l-4.9,28.4l-4.5-0.1
		c-5-19.4-10.1-38.9-15.6-59.9l-15.8,10.9c0-17.2-0.6-33.1,0.2-48.8c0.6-11.2-0.6-25.4,5.6-32.7c11.7-13.7,4.6-22.6,0.4-30.9
		L876,136c3.8,12.2,0.5,23.4-6.6,33.9l-5.3-0.1l-1.3-29.7l-4,0.3c-2.1,7.2-4.1,14.4-7,24.7l-26.6-17.3l-16.9,16
		c-4.8-8.5-11.4-15.5-12.5-23.3c-1.7-12.2-7.9-17-17.9-18.3c-6.7,11.4,8,28.5-13.5,36.4v-52.5l-23.1,14.7
		c-1.5-17.4-2.5-30.1-3.7-43.6l-19.9,34.1c2.2,6.8,5.8,17.7,9.6,29.3c9.5-20.3,11.9-21,26-7.2h-13.8c0.8,8.8,2.1,16.5,1.8,24
		c-0.1,3.2-3.7,6.4-5.7,9.5c-2.6-1.9-5.8-3.4-7.7-5.9c-10-13.1-19.6-26.4-29.6-39.8c-9.5,4.5,4.2,35.2-26.2,18.8l0.1,6.5l33.8,32.8
		l-21.4,25.4l-13.7-20.1l-2,14.6c-5.1,0.5-8.8,1.1-12.5,1.2c-4.2,0.1-9.8,1.4-12.3-0.7c-8.8-7.2-16.2-16.1-24.9-23.6
		c-2.6-2.2-7.5-1.7-11.4-2.4c-1.7,2.7-3.3,5.3-5,7.9c12.4,10.1,27.5,18.3,36.2,30.9c4.7,6.8,1.4,22.3-3,31.7
		c-5.1,10.9-12.4,1.4-18.5-2.6c-7.4-4.9-15.2-9.1-23-13.7c1.6,11.4,3.1,21.4,4.5,31.3l-5.6,1c-3.1-5.5-6.9-10.8-9-16.7
		c-4.6-12.6-9.6-22.4-26.3-22.3c-5.9,0.1-12.2-9.2-17.9-14.7c-3.3-3.1-5.9-7-8.1-9.7l-4,26.6c-8.4,2-12.1,2.1-15.1,3.6
		c-14.8,7.8-43-1.9-50.1-16.6c-2.4-5.1-7.7-8.8-11.9-13.3c-1.5,10.7-2.4,17.3-3.3,24c-8.9-14.2-19.8-19.5-35-3l35.4,2.5
		c-5.6,2.7-11.1,6-17,7.9c-9.1,2.9-18.5,4.9-27.8,7.2c13,2.4,27.3,6.4,37.2,1.5c17.6-8.7,30.6-7.2,40,4.7c6.6-4.1,10.6-8.6,14.8-8.9
		c13.6-0.9,27.5,0.8,41-0.6c17.1-1.8,28.4,4.9,36.2,19.2c5.3,9.9,17.1,24.2,14,29.3c-12.4,20.6-3.6,52.6-28.5,60.4l-7.7,66.7
		l14.7,16.3l-16.4,27.8c-12.5-11.5-24.9-16.2-39.7-3.9c6.4,5.4,11.6,10.2,17.2,14.5c14.5,11.2,30.5,19.1,26.5,44
		c-3.1,19.5-7.8,30.3-28,31.5c18.8,12.8,16.9,21.5-7.4,35.1c2.3,4.3,4.5,8.7,8.1,15.6c-19.6-6.4-36.2-12.4-53.1-17.3
		c-21-6.1-33.8,10.1-48.9,20.8c9.3,0.5,18.6-0.9,27.4-4.3c21.6-8.2,31.9-5.7,44.2,12.3c16.2-6.9,21.9-3.7,21.4,13.7
		c-0.4,15-2.9,30-4.5,45c-21.1-0.5-21.1-0.5-22.1,17.7c13.2-1,25,0.9,28,16.9c2.4,12.8,5.3,25.5,7.5,38.4c0.2,1.4-3,3.2-3.8,5.1
		c-1.9,4.2-5.4,9.3-4.4,13c2.8,10.1,10.3,19.4,11.1,29.5c1.2,13.8-2,27.9-3.5,43.4l36-2c0.2,1.4,0.4,2.8,0.6,4.1l-8.7,6.4
		c3.7,12.1,7.2,23.7,9.3,31c-31.6,18.4-61.9,34.3-90.1,53.4c-9.8,6.6-18.7,20.6-19.9,32.1c-1.4,14-1.3,25.7-21.8,32.2l27.6,5.6
		c-8.8,7-13.4,13.4-19.4,14.9c-12.4,3.2-17.1,11-20,22.3c-2.2,8.3-6.2,16.1-10.2,23.8c-4.6,8.8-10,17.1-15.1,25.7H5.8
		C5.8,980.8,0.5,188.5,0.5,0.9z M434.7,718.8l-7.7-1.8c11.2,35.6-8.8,46-35.6,51.9h58.2c1-1.2,4.4-5.2,7.3-8.6
		c-6.3-8.8-12.2-17.3-19.1-26.9C437.3,731.3,436,725.1,434.7,718.8z M437.3,414c0.2,2.2,0.4,4.3,0.5,6.5l87.3-7.6l-0.4-4.6
		L437.3,414z M1015.6,643.9l-5.2-4.5l33.2,12.1l-11.6-33.3c1.1,1.5,2.1,3,3.2,4.5C1028.6,629.7,1022.1,636.8,1015.6,643.9z
		 M775.1,91.8h3.6V49l-14,3.6C768.4,66.5,771.7,79.2,775.1,91.8z M836.5,6.4l-38.7,7.8l0.6,2.9l41.6,4
		C838.8,16.3,837.8,12.1,836.5,6.4z M978.6,633.5l-0.9-5.9c-15.7-4-28.8,4.4-42.8,8.5c0.4,2,0.8,3.9,1.2,5.9L978.6,633.5z
		 M327.7,1056.8c5.8-10.7,10.3-19.1,16.5-30.6c-11.2,5.8-19.7,10.2-28.8,14.9L327.7,1056.8z M405.2,905.4c-0.3-1.9-0.7-3.8-1-5.7
		c-14-6-24.5,6.5-37,8.7l0.9,4.5L405.2,905.4z M592.4,30.4c1.1,2.4,2.1,4.8,3.2,7.1l37.5-19.5l-1.5-3.4L592.4,30.4z M428,682.8
		l-4.4,2.9l1.6,22l5.3,1.4c1.9-4.7,5.6-9.5,5.2-14C435.4,690.8,430.7,686.9,428,682.8z"/>
	<path class="st1" d="M1050.6,543.7c-1.8-18.2-2.8-36.5-5.4-54.6c-3.3-23.3-8.3-27.1-31.1-26c1.8-7.5,3.5-14.8,5-21.5l22.7,11.2
		c0.3-5.9,0.9-8.8,0.6-11.5c-3.6-34.1-7.1-68.3-11.1-102.4c-0.3-2.9-4.2-5.3-9.2-11.2v79l-2.5,0c-3.7-27.7-7.3-55.5-11.2-84.9l23,3
		c-6.6-108.4-15.3-216.7-30.8-324.4h50v64.4l-21.5-6.7c0.6,9.1,0.1,19,2,28.5c6,29.8,13,59.3,19.6,89L1050.6,543.7z"/>
	<path class="st1" d="M246.6,561.5c5.3,3.3,10.6,6.6,15.9,9.8c9.7,5.8,8.8-2.9,12.6-7.8c6.2-8,14.8-17.1,23.8-19.2
		c5.9-1.4,19,7.7,20.6,14.2c2.2,8.9-0.4,22.4-6.3,29.1C298.9,604,286,619.7,289,643.3c0.3,2.5-2,5.2-4.3,10.7l26.3-1.7
		c-9.2,29.9-17.5,59.8-27.7,89c-6.1,17.3-14.8,33.8-23.5,50c-1.8,3.4-8.7,4.1-13.3,6V668.7c3.6-14.2,14.5-22.1,25.5-30.3
		c4.4-3.3,8.4-9.1,9.5-14.5c1-5.1-1.9-11-3.1-16.6c-5.6,1.9-12.4,2.5-16.5,6c-6.1,5.4-10.4,13-15.4,19.6L246.6,561.5z"/>
	<path class="st1" d="M1050.6,175.6c-6.6-29.6-13.6-59.2-19.6-89c-1.9-9.4-1.4-19.4-2-28.5l21.6,6.7L1050.6,175.6z"/>
	<path class="st2" d="M246.6,633c5-6.6,9.3-14.2,15.4-19.6c4.1-3.6,10.9-4.1,16.5-6c1.2,5.6,4.1,11.5,3.1,16.6
		c-1.1,5.3-5,11.1-9.5,14.5c-11,8.2-21.9,16.1-25.5,30.3V633z"/>
	<path class="st0" d="M434.7,718.8c1.3,6.2,2.6,12.5,3,14.6c6.9,9.7,12.9,18.1,19.1,26.9c-2.9,3.4-6.2,7.4-7.3,8.6h-58.2
		c26.8-5.9,46.8-16.3,35.6-51.9L434.7,718.8z"/>
	<path class="st3" d="M935.4,768c9.9,19.4,3.8,35.7-16.1,40.5c-2-17,0.2-31.8,16.9-40.8L935.4,768z"/>
	<path class="st0" d="M437.3,414l87.5-5.7l0.4,4.6l-87.3,7.6C437.6,418.3,437.5,416.2,437.3,414z"/>
	<path class="st0" d="M1015.6,643.9c6.5-7.1,13-14.2,19.5-21.2c-1.1-1.5-2.1-3-3.2-4.5l11.6,33.3l-33.2-12.1L1015.6,643.9z"/>
	<path class="st0" d="M775.1,91.8c-3.4-12.6-6.8-25.3-10.5-39.1l14-3.6v42.7L775.1,91.8z"/>
	<path class="st0" d="M836.5,6.4c1.3,5.6,2.3,9.9,3.5,14.8l-41.6-4l-0.6-2.9L836.5,6.4z"/>
	<path class="st0" d="M978.6,633.5l-42.5,8.4c-0.4-2-0.8-3.9-1.2-5.9c14-4.1,27.1-12.5,42.8-8.5L978.6,633.5z"/>
	<path class="st0" d="M447.9,220.7l-35.4-2.5c15.2-16.5,26.1-11.3,35,3L447.9,220.7z"/>
	<path class="st0" d="M405.2,905.4l-37.2,7.5l-0.9-4.5c12.5-2.2,23-14.8,37-8.7C404.6,901.6,404.9,903.5,405.2,905.4z"/>
	<path class="st0" d="M592.4,30.4l39.2-15.7l1.5,3.3l-37.5,19.5C594.5,35.1,593.5,32.8,592.4,30.4z"/>
	<path class="st0" d="M428,682.8c2.7,4.1,7.4,8,7.7,12.2c0.4,4.5-3.3,9.3-5.2,14l-5.3-1.4l-1.6-22L428,682.8z"/>
	<path class="st4" d="M863.1,942.8c4.5,7.5,9,15.2,13.7,22.6c4.4,7,9.2,13.7,13.5,20.1c-12.7,23.3-29.8,38.6-58.7,36l12.6-9.6
		l-21.6-1.5c-2.3-15.5-2.3-15.5,16.5-23.4c-1-7.8-3.3-14.7-2.5-21.2c1.9-15.4,13.5-20.7,27.1-22.7L863.1,942.8z"/>
	<path class="st3" d="M883.4,264.8v39.9c-7.9-8.6,7.2-27.1-18.4-24.7L883.4,264.8z"/>
</g>
</svg>
