<?xml version="1.0" encoding="utf-8"?>
<!-- Generator: Adobe Illustrator 25.4.1, SVG Export Plug-In . SVG Version: 6.00 Build 0)  -->
<svg version="1.1" id="レイヤー_1" xmlns="http://www.w3.org/2000/svg" xmlns:xlink="http://www.w3.org/1999/xlink" x="0px"
	 y="0px" viewBox="0 0 71.7 48.4" style="enable-background:new 0 0 71.7 48.4;" xml:space="preserve">
<style type="text/css">
	.st0{fill:#56B746;}
</style>
<path class="st0" d="M53.9,45.3"/>
<path class="st0" d="M53.9,45.3c5.8-1,8.2-2.5,12.3-3.3c1.2-0.4,6-0.5,5.4-1.4c0,0-0.1-0.1-0.1-0.1c0,0,0.1,0,0.1,0
	c0-0.5-5.1-6.4-5.3-7.1c-2.3-3.6-5.5-13.6-10.7-19.9c0-0.1-0.1-0.2-0.1-0.3c-6.9-9.6-18.2-14.4-30.3-13C14.7-0.2,11.3,5.6,9.5,15.3
	c0,0.1,0,0.1,0,0.2c0,0,0,0,0,0C-5.5,28.6,19.5,50.4,31.7,48.1"/>
<path class="st0" d="M30.4,48.3C30.4,48.4,30.7,48.4,30.4,48.3C30.5,48.3,30.5,48.3,30.4,48.3z"/>
</svg>
