<?xml version="1.0" encoding="utf-8"?>
<!-- Generator: Adobe Illustrator 25.4.1, SVG Export Plug-In . SVG Version: 6.00 Build 0)  -->
<svg version="1.1" id="レイヤー_1" xmlns="http://www.w3.org/2000/svg" xmlns:xlink="http://www.w3.org/1999/xlink" x="0px"
	 y="0px" viewBox="0 0 71.7 48.4" style="enable-background:new 0 0 71.7 48.4;" xml:space="preserve">
<style type="text/css">
	.st0{fill:#56B746;}
</style>
<path class="st0" d="M53.9,45.3"/>
<path class="st0" d="M44.8,48.3C57,50.6,82,28.8,67,15.7l0,0c0-0.1,0-0.1,0-0.2C65.2,5.8,61.8,0,51.3,0.4C39.2-1,27.9,3.8,21,13.4
	c0,0.1-0.1,0.2-0.1,0.3C15.7,20,12.5,30,10.2,33.6c-0.2,0.7-5.3,6.6-5.3,7.1H5l-0.1,0.1c-0.6,0.9,4.2,1,5.4,1.4
	c4.1,0.8,6.5,2.3,12.3,3.3"/>
<path class="st0" d="M30.4,48.3C30.4,48.4,30.7,48.4,30.4,48.3C30.5,48.3,30.5,48.3,30.4,48.3z"/>
</svg>
