<?xml version="1.0" encoding="utf-8"?>
<!-- Generator: Adobe Illustrator 26.2.1, SVG Export Plug-In . SVG Version: 6.00 Build 0)  -->
<svg version="1.1" id="レイヤー_1" xmlns="http://www.w3.org/2000/svg" xmlns:xlink="http://www.w3.org/1999/xlink" x="0px"
	 y="0px" viewBox="0 0 179 34" style="enable-background:new 0 0 179 34;" xml:space="preserve">
<style type="text/css">
	.st0{fill-rule:evenodd;clip-rule:evenodd;fill:#231815;}
	.st1{fill-rule:evenodd;clip-rule:evenodd;fill:none;}
</style>
<g>
	<g>
		<g>
			<path class="st0" d="M11.4,13.5c0.2-0.6,0-1.9,0.4-2.5c0.4-0.5,1-1,1.2-1.4c0.2-0.4-0.1-1.4-0.9-1.6c-0.8-0.2-4.5-1-5.9-1.1
				C4.8,6.9,3.5,6.9,2.8,7C2,7.1,0.9,7.4,0.9,7.4L0.3,7.7c0,0,0.1,0.9,0.7,1.5c0.6,0.6,1.3,1.5,1.3,1.5L2.1,25.3
				c0,0-0.3,0.7-0.6,1.1c-0.3,0.4-2.4,1.1-1,1.7c1.4,0.6,3,1,3,1s3,0.8,4.3,0.9c1.3,0.1,2.9-0.3,3.3-0.6c0.4-0.3,0.4-0.6,0.1-1.4
				l-0.8-0.8l0.4-9.4C10.9,17.9,11.2,14.2,11.4,13.5z"/>
			<path class="st0" d="M26.5,17.3c-0.5,0-2.8,0-2.8,0l-11.2,0.2l0.2,1.8c0,0,1.4,0.4,2,0.4c0.6,0,1.6,0,2.3-0.2
				c0.6-0.2,2.4-0.2,3.3-0.4c1-0.2,2.7-0.3,3.7-0.4c1-0.1,2.6-0.4,3.3-0.9C28.1,17.4,27,17.3,26.5,17.3z"/>
			<path class="st0" d="M38.4,8.7c-0.5-0.4-1.6-1-2.7-1c-1.1,0-2.8-0.4-4-0.5c-1.2-0.1-1.7,0-2.5,0.1C28.5,7.4,28,7.8,28,7.8
				S28.8,9,29,9.6c0.2,0.5,0.5,4.6,0.5,5.7c0,1.1-0.4,7.1-0.3,9.6c0,1.1,0.3,2.7,0.3,2.7s5,0.8,5.7,0.8c0.8,0,3,0,3,0
				s0.1-7.6,0.3-9.2c0.2-1.5,0.4-6.4,0.3-7.9C38.8,9.8,38.9,9.1,38.4,8.7z"/>
			<path class="st0" d="M64.5,18.5c-1.6-0.1-6.1,0-7.6,0.1c-1.5,0.1-4.8,0.2-6.4,0.6c-1.5,0.4-2.7,1-3.4,1.4
				c-0.8,0.4-1.9,1.4-1.9,1.4c-0.8,0.5-1.2,0.2-1.4,1.6c-0.2,1.4-1.1,2.6,1.4,3.6c2.5,1,6.1,1.3,8.3,1.3c2.2,0,6.8-0.2,8.7-0.8
				c1.9-0.5,5.5-2.4,6.6-3.3c1.1-1,1.4-2.6,0.6-3.6C68.6,19.9,66.1,18.6,64.5,18.5z M60.5,26c-1.1,0.4-5.5,0.5-7,0.4
				c-1.5-0.1-2.7-1.1-3.1-1.9c-0.4-0.9,0.1-2,0.8-2.9c0,0,1-1.1,1.6-1.3c0.6-0.2,1.5-0.3,3-0.4c1.5-0.1,3.4,0.2,4.5,0.5
				c1.1,0.3,2.4,1.6,2.4,2.7S61.6,25.6,60.5,26z"/>
			<path class="st0" d="M96.6,25.4C96,25,95.2,23.8,94.8,23c-0.4-0.8-1-2.9-1.5-3.7c-0.5-0.8-2.3-1.7-3.4-1.6
				c-1.2,0.1-3.2,0.9-4.6,1.8c-1.4,1-2.7,2.4-3.2,2.8c-0.5,0.4-0.6,0.5-1,0.2c-0.3-0.3-0.1-1.2,0-1.7c0.1-0.8,0-1.3-0.6-1.7
				c-0.6-0.4-1.4-0.5-2.7-0.8c-1.3-0.2-2.3-0.4-2.9-0.3c-0.6,0.1-1.5,0.6-1.5,0.6s0.8,2.7,0.8,3.7c0,1-0.5,2.9-0.2,4
				c0.3,1.1,1.2,1.3,2.2,1.4c1,0.1,2.8,0,3.6-0.3c0.8-0.3,1.5-1.8,2.6-3.1c0.8-1,2.8-2.2,3.3-2.4c0.5-0.2,1.4-0.2,1.4-0.2
				s0.6,2.4,1,3.2c0.3,0.9,1,1.7,1.6,2.5c0.6,0.8,0.2,0,1.2,0.3c1,0.3,3.2,0,4.4-0.2c1.2-0.2,1.7-0.3,2-1
				C97.3,25.9,97.1,25.8,96.6,25.4z"/>
			<path class="st0" d="M125.3,7.3c-0.3-0.4-1.3-0.3-2.6-1c-1.3-0.6-1.6-0.8-3-0.8c-1.4,0-2.5,0.8-2.5,0.8c0.2,0.9,0.6,1.4,0.6,3
				c0,1.6,0.5,2.7,0.3,4.2c-0.2,1.5-0.1,4.3-0.1,4.3s-5.6-0.6-6.9-0.3c-1.3,0.3-4.6,1.3-6,1.9c-1.4,0.6-2.5,1.4-3.6,2.5
				c-1.1,1.1-2.3,1.7-1.8,2.9c0.4,1.2,1.3,2,3.4,2.7c2.2,0.6,6.7,0.5,8.1,0.1c1.4-0.4,2.6-1,3.9-1c1.3,0,1.7-0.6,2.8,0
				c1.1,0.6,0.7,1.3,1.7,1.6c2.5,0.6,5.6,0.2,5.6,0.2S125.1,14,125.1,13C125.1,12,125.7,7.7,125.3,7.3z M117.9,23.8
				c-0.5,0.3-1.6,1.1-3.8,1.6c-2.2,0.5-3.7,0.4-5.4-0.2c-1.7-0.6-1.5-1.3-1.5-2.3c0-1,1-1.8,1.5-2.5c0,0,0.9-0.6,1.3-0.8
				c0.4-0.1,1.2-0.4,2.5-0.4c1.3,0,2.5,0.2,3.8,0.6c1.3,0.4,2,1.2,2,1.2S118.5,23.5,117.9,23.8z"/>
			<path class="st0" d="M155.7,24.4c-0.6-1.1-1.3-1.2-1.2-1.8c0.1-0.6,0.3-3.4,0.1-4c-0.2-0.5-0.5-0.5-1.6-0.4
				c-1.1,0.1-3.6,0.2-4.4,0.2c-0.9,0-2-0.9-2.7-0.9c-0.6,0-2.3,0.1-2.3,0.1c-2.7-0.1-4.6,0.4-6.4,1.1c-1.7,0.6-3.6,1.2-4.6,2.3
				c-1.1,1.1-2.3,1.3-2.4,2.6c-0.1,1.3-0.2,2,1.3,3.1c1.5,1.1,2.6,1.4,4.5,1.2c1.9-0.2,4.5-0.2,6.6-1c2-0.8,4.1-1.1,4.6-1.4
				c0.5-0.3,1-0.4,1.3,0.2c0.3,0.6,1.2,1.4,2,1.6c0.9,0.2,2.9,0,4-0.3c1.1-0.3,1.4-0.4,1.7-1C156.7,25.5,156.4,25.5,155.7,24.4z
				 M147.8,23c-0.3,1.3-1.5,1.1-2.7,1.8c-1.2,0.8-3.1,0.9-4.6,0.5c-1.5-0.3-2.3-0.5-2.9-1.4c-0.6-0.9,0.1-2.2,0.8-3
				c0,0,1.6-1.3,2.3-1.5c0.6-0.2,1.3-0.3,2.2-0.3c0.9,0,2.8,0,4.1,0.6C148.1,20.4,148.1,21.7,147.8,23z"/>
			<path class="st0" d="M108,14.7c0.5,0.2,0.8-0.3,0.8-0.3l0.1-1.7c0,0,1.8,0,2.6,0c0.8,0,1-0.6,1.4-1.4c0.4-0.8,0.4-1,0-1.6
				C112.4,9,112.3,9,111.3,9c-1,0-3.9-0.5-3.9-0.5s-0.6,1.5-1.1,2.7c-0.4,1.2,0.3,2.6,0.6,3.1C107,14.3,107.5,14.5,108,14.7z
				 M110,10.5c0.6-0.2,0.3-1.1,0.6-0.2c0.3,0.9,1.1,0.5,0.3,0.9c-0.8,0.3-1.4,0.1-1.4,0.1S109.4,10.7,110,10.5z"/>
			<path class="st0" d="M102.7,12.5c1.5-0.5,2.3-1.2,2.2-2.2c-0.1-1-0.4-1.9-1.6-2c-1.2-0.1-1.6-0.1-2.6,0.4c-1,0.5-1.3,0.5-1.7,1.4
				c-0.4,0.9-0.2,2-0.2,2C99.5,12.7,101.2,13,102.7,12.5z M101.2,10c0.2-0.6,0,0,0.6-0.1c0.6-0.1,0.8,0.5,0.8,1
				c0,0.4-0.8,0.4-1.4,0.4C101.2,11.3,101,10.6,101.2,10z"/>
			<path class="st0" d="M96.8,11.1c-0.5-0.3-0.5-0.3-0.5-0.3L94.9,9l-1.7,0.1l0.2-2.8l-1.9-0.1c0,0-1.4,3.7-1.6,4.4
				c-0.2,0.8-0.8,1.6-0.3,1.9c0.4,0.3,1.5,0.9,2,0.3c0.5-0.5,0.4-1.1,1-1c0.5,0.1,0.9,0,1.3,0.4c0.4,0.4,0.1,0.9,0.5,1
				c0.4,0.1,1.1-0.1,1.7-0.5c0.6-0.4,1.1-1.1,1.1-1.1S97.3,11.4,96.8,11.1z"/>
			<path class="st0" d="M84.1,13.8c1-0.2,1.6-0.3,2.6-0.8c1-0.4,1.2-0.4,1.2-1c0-0.5-0.6-0.6-0.6-1.1c0,0-0.5-0.2,0-0.6
				c0.5-0.4,1.1-0.4,1-0.8c-0.1-0.4-0.8-0.9-0.8-0.9c-1.2,0.3-1.7,1-2.5,1.3c-0.8,0.3-1.4,0.8-1.4,0.8s-0.3,1.1,0.1,1.2
				c0.4,0.1,0.6,0.4,0.2,0.6c-0.4,0.2-0.5,0.1-0.6,0.8C83.1,14,83.1,14,84.1,13.8z"/>
			<path class="st0" d="M76.1,12.4c0.2-0.5,0.5-1.1,0.5-1.8c0-0.8,0.1-1-0.5-1.1c-0.6-0.1-1-0.4-1.2,0.2c-0.2,0.6-0.9,1.2-0.9,1.2
				l-1,0.2c0,0,0.1-1.5-0.2-1.8c-0.2-0.3-1.3,0.2-1.3,0.2c-0.3,0.8-0.6,1.3-1,1.9c-0.3,0.5-0.2,1.6,0.6,1.7c0.9,0.1,1.8,0,1.8,0
				s0.5,0.4-0.3,0.6c-0.4,0.1-1-0.1-0.6,0.8c0.3,0.6,1.2,0.3,2.2-0.3C75.3,13.5,75.9,12.9,76.1,12.4z"/>
			<path class="st0" d="M63.6,13.8c0.9,0.2,1.5,0,2.9-0.6c1.4-0.6,2.5-1.2,2.6-2c0.1-0.9-0.3-2.2-0.9-2.7c-0.5-0.5-0.8-1.8-1.6-1.8
				c-0.9,0-1.3-0.2-1.8,0c-0.5,0.2-0.6,0-0.5,0.6c0.1,0.6,0.4,0.6,0.9,1.1c0.4,0.4,0,0.4,0,0.4c-0.4,0.1-0.8,0.3-1.4,1.1
				c-0.6,0.8-1.4,1.3-1.3,1.9C62.5,12.4,62.8,13.5,63.6,13.8z M65.5,10.5c0.3-0.6,1-1.2,1-1.2s0.1,0.8,0.1,1.2
				c-0.1,0.5-0.2,1.2-0.6,1.5c-0.4,0.3-0.8,0.1-1-0.2C64.7,11.5,65.1,11.2,65.5,10.5z"/>
			<path class="st0" d="M57.2,13.5c1.1-0.1,1.6-0.2,2.6-1c1-0.8,1.2-1,1.2-1.7c0.1-0.7-0.1-1.2-0.7-1.5c-0.6-0.3-1.7-0.4-2.2-0.4
				C57.6,9,57,9.4,56.6,9.7c-0.5,0.3-1.3,1.1-1.3,1.1s-0.3,1.5-0.1,2C55.4,13.3,56.1,13.7,57.2,13.5z M57.3,10.4
				c0,0,0.4-0.3,0.8-0.2c0.4,0.1,0.4,0,0.6,0.1c0.2,0.1,0.2,0.5,0.1,0.8c-0.1,0.3-0.4,0.8-0.6,0.9c-0.3,0.1-1-0.3-1-0.3L57.3,10.4z"
				/>
			<path class="st0" d="M45.4,9.1c0.1,0.7-0.1,1.5-0.2,2c-0.1,0.5-0.5,1.3-0.2,1.7c0.3,0.4,0.7,0.8,1.3,0.6c0.6-0.2,0.9-0.3,1.2-1
				c0.3-0.7,0.3-1.1,0.8-1.2c0.5-0.1,0.9-0.2,1.3,0c0.4,0.2,0.4,0.2,0.4,0.2l-0.2,1.5c0,0-0.5,0.4-0.8,0.6c-0.2,0.2-0.9,0.2-0.8,0.6
				c0.2,0.4,0.3,1,0.9,0.9c0.6-0.1,2-0.8,2.6-1.5c0.6-0.6,1.3-1.2,1.3-1.2s0.2-0.8-0.4-1.5c-0.6-0.7-1-0.8-1-0.8s0.1-0.4,0.4-0.9
				c0.4-0.5,0.9-0.7,0.6-1.3c-0.2-0.6-0.2-1-0.6-1.1c-0.4-0.2-2.2-0.1-2.9-0.1c-0.8,0.1-2.4,0.2-3.2,0.4c-0.8,0.3-1.3,0.3-1.5,0.6
				c-0.2,0.3,0,0.9,0,0.9C45,8.6,45.3,8.4,45.4,9.1z M49.1,7.8c0.3-0.2,0.5-0.2,0.8-0.1c0.3,0.1,0.4,0.2,0.4,0.4
				c-0.1,0.2-0.3,0.4-0.6,0.5c-0.3,0.1-0.9-0.1-0.9-0.1S48.9,8,49.1,7.8z"/>
		</g>
	</g>
	<rect class="st1" width="179" height="34"/>
</g>
</svg>
