<?xml version="1.0" encoding="utf-8"?>
<!-- Generator: Adobe Illustrator 25.4.1, SVG Export Plug-In . SVG Version: 6.00 Build 0)  -->
<svg version="1.1" id="レイヤー_1" xmlns="http://www.w3.org/2000/svg" xmlns:xlink="http://www.w3.org/1999/xlink" x="0px"
	 y="0px" viewBox="0 0 2016.3 1836.3" style="enable-background:new 0 0 2016.3 1836.3;" xml:space="preserve">
<style type="text/css">
	.st0{fill:#D1BCDD;}
	.st1{fill:#FFFFFF;}
	.st2{fill:#FF0000;}
</style>
<g>
	<path d="M528.8,127.7c1-0.4,1.6-0.4,1.9-0.7c22.4-21.6,48.6-38.3,72.6-57.7c7.3-5.9,13.5-13.2,20-20.1c6.6-6.8,12.6-14.2,19.5-20.7
		c10.9-10.2,25.4-13.7,39.1-18C696.6,6,712,3.7,727.3,1c18.1-3.2,34.9,1.4,49.6,11.9c6,4.2,10.6,10.5,15.4,16.2
		c7.7,9.2,15.4,18.4,19,30.2c1,3.3,2.6,6.4,4,9.7c15.4,36.7,42.5,62,78.1,78.6c9.4,4.4,18.9,9.2,29.5,10.4c3.5,0.4,7,1.2,10.4,0.7
		c17.3-2.6,34.6-5.6,50.6-12.7c6.5-2.9,12.8-5.5,19.8-6.3c16.4-1.7,30.4-9.2,44-17.7c2.1-1.3,4.2-3,6.5-3.6
		c12.1-3.4,23.3-8.8,34.5-14.4c7.5-3.7,15.7-2.3,23.6-2.5c2.2-0.1,4.9,1.5,6.5,3.1c4.5,4.7,10.1,6,16.2,6.9
		c4.4,0.6,8.8,2.2,13.2,2.6c23.1,2,35.1,17.2,42.3,36.9c4.1,11.2,6,23.1,8.7,34.8c2.1,8.7,4.1,17.2,8.9,25.1
		c4.3,7.1,6.4,15.6,9.1,23.7c2.1,6.3,1,12.5-0.5,19c-3.1,13.5-6.4,27.2-2.3,41.2c0.8,2.9,1.3,6.1,2.9,8.4
		c10.8,14.8,17.6,32.3,32.8,44.1c7.3,5.7,13,13.6,19.1,20.8c6,7.2,13,11.6,22.5,13.3c21.9,4,43.7,3.9,65.3-1.3
		c12.9-3.1,25.9-2.6,38.7-1.3c11.9,1.2,23.5,4.2,35.3,6.4c2.4,0.5,4.9,1.1,7.3,1.4c16.9,1.4,33.8,2.7,50.7,4c4.5,0.3,9.1,0.1,13.4,1
		c16.7,3.4,33.6,4.1,50.5,3.9c7.2-0.1,12.5,3.9,16.1,9.5c6.2,9.6,11.6,19.7,17.2,29.8c5.8,10.5,10.6,21.5,17.1,31.5
		c6.9,10.7,8.8,21.3,6.5,34c-4.4,23.9-13.1,45.9-26,66.4c-4,6.3-7.8,12.9-10.4,19.8c-3.2,8.3-8.8,14.8-15.3,19.9
		c-10.9,8.6-20.8,18.6-33.6,24.8c-9.9,4.8-18.1,12.2-27.1,18.4c-2.4,1.7-4.9,4.3-7.6,4.5c-13.4,1.5-26,6.7-39.8,6.3
		c-9.4-0.2-18.9,1.2-28.2,2.6c-15.6,2.3-24.7,12.7-29.4,26.7c-4,11.8-6.2,24.1-9.2,36.2c-4.7,19.6-5.2,39.7-5.1,59.6
		c0.2,24.3,2.9,48.8,12.7,71.8c4.7,11,8.2,22.5,11.5,34c4.3,15,11.8,28.3,20.4,41.2c6.1,9.1,12.2,18.1,16.7,28.3
		c3.4,7.7,8.1,14.9,13.1,21.6c4.5,6.1,8.2,12.4,11.1,19.3c0.8,1.8,1.9,3.7,3.5,4.8c8.4,5.6,14.5,13.5,21,21.1
		c1.3,1.5,2.9,2.8,4.6,3.8c20.2,11.5,35.5,28.7,51.6,44.9c11.9,12,22.7,25,33.6,37.9c9.2,10.9,19,21.4,28.7,32
		c6.7,7.3,14.7,13.3,22.2,19.9c0.7,0.7,1.5,1.4,2.4,1.8c21.5,9.5,35.6,28.4,53.6,42.4c2.3,1.8,4.2,4.2,6.3,6.3
		c7.9,8.2,15.9,15.7,19.1,27.8c3.3,12.4,10,23.8,15.1,35.7c1.6,3.7,3.4,7.4,3.9,11.3c1.9,15.2,8.7,28.6,15.4,41.9
		c9.3,18.3,17.6,37,22.9,56.8c4.4,16.6,13.2,31.2,19.4,46.9c0.4,0.9,1.3,1.7,1.4,2.6c2.2,17.2,13.4,30.9,18,47.1
		c2.9,10.2,4.8,20.4,4.7,30.9c-0.1,7-0.4,14,0.2,20.9c1.6,18.2-2.1,35.7-6.5,53.2c-1.7,6.7-2.6,13.7-3.2,20.6
		c-1,10.7-3.6,20.5-10.5,29.1c-3,3.8-4.7,8.7-6.8,13.2c-8.5,17.7-20.6,32.9-32.4,48.4c-7.2,9.5-15.2,18.5-22.2,28.2
		c-7.9,10.9-17.8,16.6-31.4,17.3c-9.4,0.5-18.6,3.2-28,4.6c-5.4,0.9-10.9,1.6-16.3,1.8c-10.9,0.4-21.7-0.9-32.6,2.6
		c-8.1,2.6-16.9,0.2-25.1-1.9c-9.7-2.5-19.4-4.2-29.6-4.2c-4.3,0-8.9-1.2-13-2.8c-12.5-4.9-24.9-10.1-37.3-15.5
		c-5.9-2.6-11.8-5.4-17.3-8.7c-20.1-12.2-41.1-22.4-62.5-32.3c-19-8.8-37.8-18.3-56.1-28.4c-13.1-7.2-25.4-15.9-37.9-24
		c-14.7-9.5-29.8-17.6-46.5-23.5c-12.5-4.4-24.5-11-35.1-19.6c-2.7-2.2-5.3-4.6-8.1-6.7c-7.9-6-15.4-7.1-24.4-0.6
		c-8.8,6.3-19.1,10.8-28.8,15.8c-6.3,3.2-11.7,7.2-16.8,12.2c-7,7-15.3,12.7-23,18.9c-2.7,2.2-6.4,3.7-8,6.4
		c-4.4,7.5-11.6,12.3-17.2,18.5c-14.4,15.9-30.2,30.3-42.8,47.9c-10.2,14.1-21.9,27.1-33.3,40.3c-11.4,13.3-22.9,26.3-34.6,39.3
		c-6,6.6-11.5,13.7-20.3,17.2c-3.1,1.3-5.6,4.2-8.6,5.8c-5.2,2.8-10.6,5.3-16.1,7.6c-3.7,1.5-7.8,2-11.3,3.8
		c-14.5,7.3-30.3,9.7-46,12.5c-6.3,1.1-12.9,0.6-19.3,0.6c-4.5,0-9-0.7-13.4-0.8c-27.1-0.9-53.7-4.3-79-14.6
		c-2.8-1.1-5.7-1.7-8.6-2.6c-9.5-3-19.1-5.8-28.4-9.2c-14.6-5.2-29.1-10.4-43.4-16.3c-17.1-7.1-33-16.5-48.5-26.6
		c-8.9-5.7-16.9-12.3-24.1-20c-3.1-3.3-6.6-6-9.8-9.2c-6.7-6.7-13.5-13.3-19.7-20.4c-17-19.6-33.1-40-50.7-59.1
		c-13.2-14.2-26.8-28-43.6-38.6c-12.1-7.6-23.2-17.3-31.7-29.3c-0.9-1.2-1.5-2.7-2.6-3.6c-12.3-10.2-21.8-23.4-33.6-34
		c-12-10.8-26.6-16.9-42.9-19.3c-23-3.3-44.5,0.6-65.8,9c-17.2,6.8-34.8,12.3-52.1,18.7c-13.1,4.8-26.3,9.5-38.9,15.4
		c-9.4,4.4-17.8,10.9-26.7,16.4c-14.9,9.3-30.4,16.9-48.3,18.3c-8.9,0.7-17.8,2.7-26.7,2.4c-9.4-0.3-19-1.4-28-4
		c-13.3-4-26.8-7.9-39-15.2c-12.4-7.5-25.1-14.3-37.2-22.1c-4.5-2.9-8.5-7.2-11.3-11.8c-17.7-29-33.2-59.1-43.5-91.7
		c-3.3-10.6-5.2-21.4-4.9-32.4c0.7-30.4,0-61,4.3-91.2c3-21.2,7.5-42.3,13.7-62.8c8.2-27.2,18.5-53.8,28.4-80.4
		c3.1-8.4,7.2-16.5,11.9-24.1c13-20.8,24.3-42.3,33.8-64.9c4.6-10.9,11.1-21.2,17.7-31.2c12.7-19,25.1-38.4,39.4-56.3
		c6.5-8.2,12-17.2,18.4-25.5c9.1-11.8,18.1-23.9,28.1-34.9c10.9-12.1,18.1-26.3,25.2-40.5c6.9-13.9,14.6-27.1,23.5-39.8
		c11.2-15.9,21.7-32.3,33.1-48.1c9.6-13.4,19.8-26.2,29.8-39.3c17.3-22.6,33.3-46.1,44.5-72.5c1.6-3.7,3.2-7.5,3.7-11.3
		c2-15.2,5.6-30.3,2.5-46c-2.1-10.7-2.1-21.9-1.9-32.8c0.3-16.3-3.2-31.2-9.4-46.4c-8.1-19.8-20.7-36.1-33.1-52.9
		c-2.7-3.6-5.6-7.1-7.7-11c-8.1-15.5-18-29.6-30.1-42.5c-9.4-10-17.3-22-23.7-34.3c-7.5-14.5-15.5-29.1-19-45.4
		c-1.9-8.7-3.8-17.5-5-26.3c-1.2-9.4-1.9-18.9-2.2-28.4c-0.6-19.4-0.8-38.8-1-58.2c-0.1-6.5,0.4-13,0.5-19.5
		c0.3-15.1,3.6-29.5,8.5-43.9c4.6-13.7,8.6-27.5,14.7-40.7c2.7-5.9,5.6-11.5,9.8-16.6c5.4-6.5,9.7-13.9,15-20.5
		c14-17.2,33.5-26.5,53.3-35c6.9-3,14.1-5.1,21-8c21-8.7,43-12.7,65.7-12.4c13.9,0.2,27.9,0.4,41.8,1.1c5.4,0.3,11,1.2,16.1,3
		c12.1,4.5,23.9,10,35.9,14.7c7.2,2.8,13.2,6.9,17.6,13.3C525.8,125.5,527.5,126.6,528.8,127.7z M522.9,135.9
		c-0.6-8.5-5-11-9.3-13.3c-14.9-8.2-30.3-15.3-46.5-20.5c-4.2-1.3-8.8-2.4-13.2-2.4c-15.4,0-30.8-3.7-46.2-0.3c-1.9,0.4-4,0-6,0.2
		c-7.9,1-15.8,2.1-23.7,3.3c-20,3.2-37.9,12.4-56.2,20c-12.4,5.1-24.3,12-33.9,21.6c-16,16-28.8,34.4-36.5,55.9
		c-4.4,12.2-7.7,24.7-11.8,37c-4.1,12.5-5.7,25.2-5.4,38.3c0.3,15.5,1.1,31,0.1,46.4c-1.2,18.1,0.2,35.9,2.4,53.7
		c3.2,25.6,11.9,49.5,26.3,71c8.5,12.8,17.1,25.8,28.3,36.6c4.2,4.1,7.3,9.4,10.6,14.4c4.9,7.5,9.1,15.5,14.2,22.9
		c8.2,11.9,16.7,23.7,25.4,35.2c8.3,10.9,13.2,23.4,18.4,35.8c4.7,11.3,6.9,23.1,6.2,35.1c-0.6,11.1,0.5,21.9,1.9,32.8
		c1.1,8.9,2.3,18,1.5,26.8c-1.4,14.9-3.6,29.8-10.4,43.5c-3.8,7.5-7.9,14.9-11.9,22.3c-9.9,18-22,34.6-35.1,50.2
		c-8,9.6-15.3,19.7-22.7,29.6c-10.5,13.9-18.9,29.3-29.2,43.4c-16.9,23.1-28.8,49-41.6,74.3c-2,3.9-4.4,7.9-7.4,11
		c-7.7,7.9-15.6,15.5-20.2,25.8c-0.8,1.8-2.2,3.4-3.7,4.7c-8.1,6.7-14.3,15.1-20.6,23.2c-19.4,24.7-38.2,49.9-53.5,77.5
		c-2.9,5.2-5.7,10.5-8.5,15.9c-7.4,14.2-14.5,28.5-22.2,42.5c-11.8,21.4-24.3,42.5-31.6,66c-0.7,2.4-2,4.5-3,6.8
		c-8.7,20.7-17.5,41.4-22.3,63.4c-3.1,14.1-5.5,28.4-9.5,42.3c-3,10.3-3.8,20.6-4,31c-0.3,18.4-0.7,36.9-0.5,55.3
		c0.2,11.9,0.6,24,2.4,35.8c2.7,17.9,10.1,34.3,18.1,50.5c4.4,8.9,8.4,18.1,13,26.9c9.6,18.5,21.5,34.6,41.5,43.2
		c5.5,2.4,10.7,5.5,15.6,8.9c13.4,9.2,28.6,14,44,18.3c2.8,0.8,5.9,0.9,8.9,0.7c9.5-0.6,18.9-1.7,28.4-2.2c19-1,36-7,51.2-18.5
		c7.1-5.4,14.7-10.4,22.7-14.4c10.2-5.2,21-9.2,31.5-13.7c20.5-1.3,37.8-12.2,56.5-18.8c20.7-7.3,40.3-18,63.3-12.6
		c0.5,0.1,1,0,1.5,0c11.7-0.9,23,1.5,33.8,5.1c11.7,3.9,23.2,8.5,31.7,18.7c8.9,10.7,18.8,20.6,28.8,30.2
		c11.1,10.7,22.7,20.8,34.4,30.8c8.3,7.1,17.5,13.2,25.8,20.3c6.8,5.8,13.2,12,19,18.8c11,12.9,20.3,27.1,33.2,38.4
		c1.8,1.6,3.2,3.7,4.8,5.7c10.2,12.8,19.2,26.8,33.5,35.8c0.8,0.5,1.5,1.3,2.1,2.1c11.7,13.1,24.3,24.7,39.7,33.6
		c12.9,7.4,25,16.1,39.2,21c15.1,5.2,29.9,11.2,45.1,16.3c19.3,6.5,38.7,13.3,58.3,18.7c22.2,6.1,45.2,7.9,68.2,7.8
		c4.3,0,8.7-1.9,13-3.1c3.8-1,7.8-3.5,11.4-3.1c11.1,1.2,20.6-3.4,30.4-6.8c21.6-7.5,40.7-18.8,55.8-36.2
		c7.5-8.7,15.2-17.2,22.8-25.7c5.7-6.3,12.2-12,16.9-19c8.9-13.3,18.5-25.8,30.1-36.8c4.3-4.1,8.3-8.6,12.4-12.9
		c3.5-3.6,7.2-7,10.5-10.7c10.2-11.6,20.2-23.4,30.4-35c2.3-2.6,5-4.8,7.7-7c6.1-5,12.6-9.7,18.5-15c9.7-8.7,19.8-16.6,32-21.7
		c8.2-3.4,15.7-8.6,23.5-13c3.5-2,6.8-4.1,10.4-5.8c5.3-2.6,10.7-2.7,15.8,0.5c6.7,4.2,13.3,8.7,20,13c9.6,6.2,18.5,13.9,28.9,18.3
		c11.4,4.8,23.5,8.3,34.2,14.6c15.3,9,33.5,13.4,45.4,28.1c1.5,1.9,4,2.9,6.1,4.3c16.7,11.2,35.3,18.5,53.4,26.6
		c22.3,10,44.9,19.2,65.8,32.2c18.7,11.6,39.5,18.8,59.9,26.7c2.3,0.9,4.9,1.1,7.3,1.5c9.3,1.6,18.6,3.8,28,4.6
		c7.9,0.7,16.1,0.8,23.8-0.8c7-1.4,13.8-1.9,20.8-1.7c10,0.2,19.9,0.1,29.8-2.3c7.7-1.9,15.7-3.1,23.6-3.5
		c7.5-0.5,13.3-3.1,18.1-8.9c8.5-10.4,17.9-20.2,26.1-30.8c8.6-11,16.8-22.3,24.2-34c6.1-9.7,11.3-20,16.2-30.3
		c2.5-5.3,3.7-11.2,5.3-17c0.9-3.3,1.1-6.9,1.9-10.2c6.8-27.2,12.6-54.5,9-82.8c-0.1-0.5,0-1,0-1.5c1-14.8-3.1-28.6-8.7-42.1
		c-1.9-4.6-3.6-9.3-5.5-13.9c-5.3-12.4-10.7-24.7-16-37.1c-3.3-7.8-7.2-15.4-9.6-23.5c-6.4-21-13.3-41.7-23.4-61.3
		c-5-9.7-9.8-19.7-13.1-30.1c-5.4-17.1-11.8-33.9-18.1-50.7c-7.2-19-19-33.8-33.3-47.1c-6.2-5.8-12.7-11.2-19.2-16.7
		c-5-4.1-10.1-8-15.2-11.9c-12.9-9.9-28.3-16.9-36.9-32.1c-2.8-5-8.5-8.3-12.6-12.8c-10-11.1-20.7-21.8-29.6-33.7
		c-14.2-18.9-32-34.2-48.6-50.6c-1.7-1.7-4.1-2.8-6.1-4.2c-16.8-12-30.7-27-44.6-41.9c-1.3-1.4-2.2-3.3-3.2-5.1
		c-8.6-14.5-17.2-29.1-25.8-43.7c-2.5-4.3-5-8.6-7.6-12.8c-10.2-16-20-32.1-26.1-50.3c-4.1-12.3-9.3-24.2-13.5-36.5
		c-6.6-19.4-11.9-39.3-12.9-59.8c-1.9-39.2,3-77.8,15.3-115.1c4.6-14.2,13-25.4,28-31.1c9-3.4,17.9-5.9,27.6-5.4
		c3.5,0.2,7.1,0.4,10.5-0.1c12.8-2,25.6-4.1,38.2-6.7c2.7-0.5,5-3.2,7.4-4.9c5.8-3.9,11.1-8.7,17.4-11.7
		c14.1-6.8,25.7-17.1,38.2-26.1c3.1-2.2,5.5-5.7,7.6-9.1c6.7-11.1,13.1-22.4,19.4-33.7c8.6-15.3,15-31.5,19.1-48.6
		c3.3-14.1,3.3-27.1-5.4-40c-7.8-11.5-13.3-24.5-19.8-36.9c-2.1-4-4-8.1-6.3-11.9c-5-8.4-12.2-12.9-22.2-12.5
		c-25.1,1.2-49.7-3.2-74.3-7.2c-4.9-0.8-9.9-1.8-14.8-1.7c-11.1,0.3-21.8-2-32.3-5.1c-18.1-5.3-36.7-3.2-55-3.3
		c-14.8-0.1-29.8,2.8-44.5,5.2c-16.9,2.8-32.8-0.9-48.3-6.6c-3-1.1-6.6-3.5-7.8-6.3c-4.8-11-13.6-18.2-21.8-26.3
		c-10.3-10.1-21.1-19.9-27.4-33.4c-3.6-7.8-7.8-15-14.6-20.6c-4.3-3.5-5.1-8.1-3.6-13.5c1.9-6.7,3.2-13.6,4.9-20.3
		c3.9-15.4,4.4-30.2-2.3-45.3c-7.4-16.9-12.7-34.5-15.7-52.9c-1.2-7.3-3.6-14.7-6.8-21.3c-6.7-13.8-17.1-22.8-33.4-23.9
		c-6.3-0.5-12.5-3.1-18.6-4.9c-5.3-1.6-10.3-3.9-15.6-5.1c-8.6-1.9-17-1.3-24.1,4.6c-5.5,4.6-12,6.8-18.6,9.2
		c-8.9,3.2-18.1,6.4-25.9,11.4c-10.8,6.9-22.5,10.4-34.7,13.2c-3.9,0.9-7.9,1.4-11.6,2.7c-17.4,6.3-34.8,11.7-53.2,14.6
		c-6.7,1-12.6,1.7-18.9-0.9c-2.3-0.9-4.8-1.4-7.2-2.2c-30.2-10-58.1-23.8-78.9-49c-2.9-3.5-6.1-6.6-9.3-9.7
		c-5.8-5.7-10.4-12.1-13.6-19.6c-2.7-6.4-5.6-12.8-8-19.4c-6.1-16.9-16.8-30.5-29.5-42.7c-13.4-12.9-29.6-17.8-48.1-15.6
		c-2,0.2-4,0.5-5.9,0.8c-21.7,3.4-43.3,6.7-63,17.8c-7.1,4-13.8,7.8-19.3,13.7c-9.2,9.9-18.3,19.8-27.6,29.5
		c-3.4,3.6-7.2,6.9-11.2,9.9c-13.1,9.9-26.7,19.2-39.4,29.6c-12,9.8-23,20.6-34.5,31c-3.7,3.3-7,7.2-14.8,7.4c-1.6-2-4.2-5-6.4-8.3
		c-2.8-4.1-7.3-4.9-11.3-6.9c-3.5-1.8-6.7-4.3-10.3-5.9c-4.1-1.9-8.4-3.2-12.6-4.7c-3.4-1.2-7.6-0.1-11.3-2.7
		c7.3-5.3,7.8-5.7,12.5-4.5c7.7,1.9,15.4,4.2,23,6.6c2.3,0.7,4.8,1.9,6.3,3.7C507.3,133,514.5,132.6,522.9,135.9z"/>
	<polygon points="2016.3,1728.2 2016,1729.2 2015.5,1728.4 	"/>
	<path class="st0" d="M522.9,135.9c-8.3-3.3-15.6-2.9-20.5-9.1c-1.4-1.8-4-3-6.3-3.7c-7.6-2.4-15.3-4.6-23-6.6
		c-4.7-1.2-5.2-0.7-12.5,4.5c3.7,2.6,7.8,1.5,11.3,2.7c4.2,1.5,8.5,2.8,12.6,4.7c3.6,1.6,6.7,4.1,10.3,5.9c3.9,2,8.5,2.8,11.3,6.9
		c2.2,3.3,4.9,6.3,6.4,8.3c7.8-0.2,11.2-4.1,14.8-7.4c11.5-10.4,22.5-21.2,34.5-31c12.7-10.4,26.3-19.7,39.4-29.6
		c4-3,7.7-6.3,11.2-9.9c9.3-9.7,18.5-19.7,27.6-29.5c5.5-5.9,12.2-9.7,19.3-13.7c19.7-11.1,41.3-14.4,63-17.8c2-0.3,4-0.6,5.9-0.8
		c18.4-2.2,34.6,2.7,48.1,15.6c12.7,12.2,23.4,25.9,29.5,42.7c2.4,6.6,5.3,13,8,19.4c3.2,7.4,7.8,13.9,13.6,19.6
		c3.2,3.1,6.5,6.3,9.3,9.7c20.8,25.2,48.7,39,78.9,49c2.4,0.8,4.9,1.2,7.2,2.2c6.2,2.6,12.2,1.9,18.9,0.9
		c18.4-2.9,35.8-8.3,53.2-14.6c3.7-1.3,7.8-1.9,11.6-2.7c12.2-2.7,23.9-6.2,34.7-13.2c7.9-5,17-8.2,25.9-11.4
		c6.6-2.4,13.1-4.6,18.6-9.2c7.1-5.9,15.5-6.5,24.1-4.6c5.3,1.2,10.4,3.5,15.6,5.1c6.2,1.8,12.3,4.5,18.6,4.9
		c16.3,1.2,26.7,10.1,33.4,23.9c3.2,6.7,5.7,14,6.8,21.3c3,18.3,8.3,36,15.7,52.9c6.7,15.2,6.2,30,2.3,45.3
		c-1.7,6.8-3,13.6-4.9,20.3c-1.5,5.4-0.7,10,3.6,13.5c6.8,5.6,11,12.8,14.6,20.6c6.3,13.5,17.1,23.3,27.4,33.4
		c8.2,8.1,17,15.3,21.8,26.3c1.2,2.7,4.8,5.1,7.8,6.3c15.6,5.7,31.4,9.4,48.3,6.6c14.8-2.4,29.7-5.3,44.5-5.2
		c18.3,0.1,36.9-2,55,3.3c10.5,3.1,21.2,5.4,32.3,5.1c4.9-0.1,9.9,0.9,14.8,1.7c24.6,4,49.2,8.4,74.3,7.2
		c10.1-0.5,17.3,4.1,22.2,12.5c2.3,3.9,4.2,8,6.3,11.9c6.5,12.3,12,25.4,19.8,36.9c8.8,12.9,8.7,26,5.4,40
		c-4.1,17.1-10.4,33.3-19.1,48.6c-6.4,11.3-12.8,22.6-19.4,33.7c-2,3.4-4.5,6.8-7.6,9.1c-12.5,9-24.1,19.3-38.2,26.1
		c-6.2,3-11.6,7.7-17.4,11.7c-2.5,1.7-4.7,4.3-7.4,4.9c-12.7,2.6-25.4,4.7-38.2,6.7c-3.4,0.5-7,0.3-10.5,0.1
		c-9.7-0.5-18.5,2-27.6,5.4c-15,5.7-23.4,16.9-28,31.1c-12.2,37.4-17.2,75.9-15.3,115.1c1,20.4,6.2,40.4,12.9,59.8
		c4.2,12.3,9.3,24.2,13.5,36.5c6.1,18.1,16,34.3,26.1,50.3c2.7,4.2,5.1,8.6,7.6,12.8c8.6,14.6,17.2,29.1,25.8,43.7
		c1,1.7,1.9,3.6,3.2,5.1c13.9,15,27.9,30,44.6,41.9c2,1.4,4.4,2.5,6.1,4.2c16.6,16.4,34.4,31.7,48.6,50.6
		c8.9,11.9,19.6,22.6,29.6,33.7c4,4.4,9.7,7.7,12.6,12.8c8.6,15.2,24,22.1,36.9,32.1c5.1,3.9,10.3,7.8,15.2,11.9
		c6.5,5.4,13,10.9,19.2,16.7c14.3,13.4,26.2,28.2,33.3,47.1c6.3,16.8,12.7,33.5,18.1,50.7c3.3,10.4,8.1,20.4,13.1,30.1
		c10.1,19.6,17,40.3,23.4,61.3c2.5,8,6.3,15.7,9.6,23.5c5.3,12.4,10.7,24.7,16,37.1c2,4.6,3.6,9.3,5.5,13.9
		c5.6,13.5,9.7,27.2,8.7,42.1c0,0.5-0.1,1,0,1.5c3.6,28.3-2.2,55.6-9,82.8c-0.8,3.4-1,6.9-1.9,10.2c-1.5,5.7-2.8,11.7-5.3,17
		c-4.9,10.3-10.1,20.7-16.2,30.3c-7.5,11.7-15.7,23.1-24.2,34c-8.3,10.6-17.6,20.4-26.1,30.8c-4.8,5.8-10.5,8.5-18.1,8.9
		c-7.9,0.5-15.9,1.7-23.6,3.5c-9.9,2.4-19.8,2.5-29.8,2.3c-7-0.1-13.8,0.3-20.8,1.7c-7.7,1.6-15.9,1.5-23.8,0.8
		c-9.4-0.8-18.7-3-28-4.6c-2.5-0.4-5-0.6-7.3-1.5c-20.4-7.9-41.2-15.2-59.9-26.7c-20.9-12.9-43.5-22.2-65.8-32.2
		c-18.2-8.1-36.8-15.4-53.4-26.6c-2.1-1.4-4.6-2.4-6.1-4.3c-11.9-14.7-30.1-19.1-45.4-28.1c-10.7-6.3-22.8-9.8-34.2-14.6
		c-10.4-4.4-19.3-12.1-28.9-18.3c-6.7-4.4-13.3-8.8-20-13c-5.1-3.2-10.5-3-15.8-0.5c-3.6,1.7-6.9,3.9-10.4,5.8
		c-7.8,4.4-15.3,9.6-23.5,13c-12.2,5.1-22.3,13.1-32,21.7c-5.9,5.3-12.4,10-18.5,15c-2.7,2.2-5.4,4.4-7.7,7
		c-10.2,11.6-20.2,23.4-30.4,35c-3.3,3.7-7,7.1-10.5,10.7c-4.2,4.3-8.1,8.8-12.4,12.9c-11.6,11-21.2,23.6-30.1,36.8
		c-4.7,7-11.2,12.7-16.9,19c-7.6,8.5-15.3,17.1-22.8,25.7c-15.1,17.5-34.3,28.8-55.8,36.2c-9.8,3.4-19.3,8-30.4,6.8
		c-3.7-0.4-7.6,2.1-11.4,3.1c-4.3,1.2-8.7,3.1-13,3.1c-23,0-46-1.7-68.2-7.8c-19.7-5.4-39-12.1-58.3-18.7
		c-15.1-5.1-30-11.1-45.1-16.3c-14.2-4.9-26.4-13.6-39.2-21c-15.3-8.9-28-20.6-39.7-33.6c-0.7-0.7-1.3-1.6-2.1-2.1
		c-14.4-8.9-23.3-22.9-33.5-35.8c-1.5-1.9-3-4.1-4.8-5.7c-12.8-11.3-22.2-25.5-33.2-38.4c-5.8-6.8-12.2-13-19-18.8
		c-8.3-7.1-17.5-13.2-25.8-20.3c-11.7-10-23.3-20.1-34.4-30.8c-10.1-9.6-20-19.6-28.8-30.2c-8.5-10.2-20-14.8-31.7-18.7
		c-10.8-3.7-22.2-6.1-33.8-5.1c-0.5,0-1,0.1-1.5,0c-23.1-5.4-42.7,5.3-63.3,12.6c-18.7,6.6-36.1,17.4-56.5,18.8
		c-10.5,4.5-21.3,8.5-31.5,13.7c-8,4-15.6,9-22.7,14.4c-15.2,11.6-32.2,17.5-51.2,18.5c-9.5,0.5-18.9,1.6-28.4,2.2
		c-2.9,0.2-6.1,0.1-8.9-0.7c-15.4-4.4-30.6-9.1-44-18.3c-4.9-3.4-10.1-6.5-15.6-8.9c-20-8.6-31.9-24.8-41.5-43.2
		c-4.6-8.9-8.6-18-13-26.9c-8-16.2-15.4-32.6-18.1-50.5c-1.8-11.8-2.2-23.8-2.4-35.8c-0.3-18.4,0.1-36.9,0.5-55.3
		c0.2-10.5,1-20.8,4-31c4-13.9,6.3-28.2,9.5-42.3c4.9-22,13.6-42.7,22.3-63.4c1-2.3,2.3-4.5,3-6.8c7.3-23.6,19.9-44.6,31.6-66
		c7.7-14,14.8-28.3,22.2-42.5c2.8-5.3,5.6-10.6,8.5-15.9c15.3-27.6,34.2-52.7,53.5-77.5c6.3-8.1,12.6-16.5,20.6-23.2
		c1.5-1.2,2.9-2.9,3.7-4.7c4.7-10.3,12.5-17.9,20.2-25.8c3.1-3.1,5.4-7.1,7.4-11c12.8-25.3,24.7-51.2,41.6-74.3
		c10.3-14.1,18.8-29.5,29.2-43.4c7.5-9.9,14.7-20,22.7-29.6c13.1-15.6,25.2-32.2,35.1-50.2c4.1-7.4,8.2-14.8,11.9-22.3
		c6.8-13.6,9.1-28.6,10.4-43.5c0.8-8.8-0.4-17.9-1.5-26.8c-1.4-10.9-2.5-21.7-1.9-32.8c0.7-12-1.5-23.8-6.2-35.1
		c-5.2-12.4-10.1-24.9-18.4-35.8c-8.8-11.5-17.2-23.3-25.4-35.2c-5.1-7.4-9.3-15.3-14.2-22.9c-3.3-5-6.4-10.3-10.6-14.4
		c-11.2-10.9-19.8-23.8-28.3-36.6c-14.3-21.4-23.1-45.3-26.3-71c-2.2-17.8-3.6-35.7-2.4-53.7c1-15.4,0.3-30.9-0.1-46.4
		c-0.3-13.1,1.3-25.8,5.4-38.3c4.1-12.3,7.4-24.8,11.8-37c7.7-21.5,20.5-39.9,36.5-55.9c9.6-9.6,21.5-16.5,33.9-21.6
		c18.4-7.6,36.3-16.8,56.2-20c7.9-1.3,15.8-2.3,23.7-3.3c2-0.3,4.1,0.2,6-0.2c15.4-3.4,30.8,0.3,46.2,0.3c4.4,0,9,1,13.2,2.4
		c16.2,5.1,31.6,12.2,46.5,20.5C517.8,124.9,522.3,127.3,522.9,135.9z"/>
	<path class="st1" d="M752.9,287.5c1,3.6,1.7,7.3,2.9,10.9c0.6,1.7,3.6,1.3,4.8-0.4c1.5-2.2,1.8-4.7-0.4-6.4
		c-2.3-1.6-5.1-2.5-7.6-3.7c-0.7-4.7,1.2-10.3-5.5-13.7c-7.4,5.7-19,0.8-26.5,9.3c-1,1.1-3.9,1.1-5.8,0.9
		c-5.4-0.6-11.2-0.6-16.1-2.6c-8.5-3.6-17.3-4.4-26.2-5.1c-4.4-0.4-8.9,0.5-13.4,0.2c-10.4-0.6-20.9-0.2-31.2-2.8
		c-5.7-1.4-11.9-1-17.8-0.8c-3.3,0.1-5.3,2.6-5.5,6c-0.2,3,2.4,5.6,5.6,5.7c2,0.1,4-0.1,6-0.3c14.5-1.3,28.9-1.6,43.1,2.8
		c3.3,1,6.9,1.2,10.4,1.2c16.7,0,32.4,5.3,48.3,9.5c3.9,1,6.8,3.5,9.8,6.4c6.9,6.7,16.8,4.1,20.4-4.8
		C749.7,295.7,751.3,291.6,752.9,287.5z"/>
	<path class="st1" d="M945.1,1233.2l0.3,0.3c1.4-1.3,2.7-2.7,4.1-3.9c4-3.2,5.1-5.9,4-10.1c-1-3.5-3.5-5.3-8.2-4.9
		c-3.9,0.4-8,1-11.6,2.4c-6.5,2.6-12.7,2.2-18.9-0.4c-13.4-5.4-27.2-10.1-38.9-20.6c-1.1-4.6-2.4-9.9-3.6-15.2
		c-2.2-10.3-4.4-20.5-6.3-30.8c-1.4-7.8-5.4-14.1-11.8-18.5c-9.8-6.8-19.8-13.4-30.3-19.2c-6.3-3.5-11.5-7.3-15.4-13.5
		c-4.5-7.1-9.7-13.9-15.4-20.1c-6.2-6.8-12.4-5.7-16.8,2.3c-2.4,4.4-4.6,8.9-6.4,13.5c-1.6,4.2-4.6,6.2-8.7,7.5
		c-10,3.1-19.9,6.3-29.8,9.6c-2.8,0.9-5.5,2.4-8.1,3.8c-6.5,3.7-12.9,7.6-19.5,11.2c-5,2.7-8.7,6.3-10.5,12
		c-2.7,8.2-8.1,14.8-13.8,21.2c-5.3,5.9-10.7,11.9-15,18.6c-7.5,11.5-10.6,13.2-24.8,7.9c-2.8-1-5.3-2.8-8.1-3.9
		c-4.1-1.8-8.2-3.7-12.5-5c-6.4-1.9-9,0.2-9.2,7.3c0,1.9,0.6,3.8,1,5.8c3.3,1,6.1,2.1,9,2.7c9,1.9,17.4,4.2,19.8,15.1
		c0.6,3,4.8,3.8,7.6,2.5c3.9-1.9,6.5-6.4,12.8-5.7c1.3,2.6,2.7,5.5,4.2,8.5c3.5,7.1,7,14.3,10.6,21.3c2.1,4.1,6,5.1,10.2,4.4
		c1.9-0.3,3.8-1.2,5.7-1.9c13.5-5.1,27.1-10.3,40.6-15.3c4.7-1.7,9.5-3.3,14.3-4.3c15.2-2.9,30.5-5.1,45.6-8.3
		c16.6-3.6,31.6-0.7,45.3,9.4c4.8,3.6,9.6,7.2,14.3,10.9c7.8,6.2,15.9,11.6,25.2,15.8c16.2,7.4,33.1,10.6,50.3,13.7
		c5.4-4,10.6-7.8,15.7-11.7c2.8-2.1,5.6-4.2,7.9-6.8c1.1-1.3,1.7-3.9,1.2-5.5C950.4,1232.7,947.6,1232.8,945.1,1233.2z"/>
	<path class="st1" d="M918.8,451.5l0.3,0.2c0.8-4.3,1.5-8.6,2.4-13.6c-2.4-0.4-4.5-1.3-6.2-0.9c-5.8,1.4-11.6,3.1-17.2,5.1
		c-2.7,1-5.5,2.5-7.7,4.4c-9.3,8.4-17.5,17.7-21.9,29.8c-1.3,3.6-3.6,6.8-5.9,11c-7.3-1.9-13.8-3.7-20-5.3
		c-2.6-8.4-2.8-15.8-2.2-23.3c2-22.3-7.5-40.9-20-57.9c-7.6-10.4-17.2-19.5-26.7-28.2c-4.6-4.1-11-7.7-17-8.6
		c-18.5-2.7-35.4-10.3-52.8-16.3c-4.8-1.6-9.4-2.6-14.3-3.5c-17.8-3.2-35.8-2.7-53.7-2.9c-13.4-0.2-26.8,1.8-40.3,2.4
		c-10.6,0.5-20.7,2.5-30.7,6c-12.7,4.5-25.2,9.6-38.7,11.2c-16.9,2.1-31.2,9.8-44.4,20.3c-7,5.6-14.2,11-21.2,16.6
		c-17.7,14.2-28.4,33.4-36,54.1c-6.7,18.3-2.8,36.8,5.6,53.6c7.6,15,17.4,29,26.3,43.3c0.8,1.3,1.6,2.6,2.7,3.5
		c7.6,5.7,15.1,11.4,22.8,16.9c6.1,4.3,12.5,8.1,18.6,12.3c4.5,3.2,8.5,6.9,12.9,10.2c11.7,8.9,24.7,15.9,39.3,17.1
		c16.7,1.4,32.4,5.7,47.8,11.6c6.7,2.6,13.4,4.2,20.4,2.1c4.6-1.4,9-0.9,13.2,0.7c5.6,2.2,10.4,2.3,15.3-2c1.5-1.3,4.6-1,7.1-1.2
		c3.5-0.2,7.6,1.1,10.3-0.3c5.8-3.1,11.6-2,17.5-2.2c2.3-0.1,5.6-0.5,6.8-2c3.1-4,7.6-4.4,11.5-6.5c15.3-8.3,31.4-15.2,45.2-26.1
		c8.2-6.5,16.6-12.8,24.5-19.6c8.7-7.5,16.7-15.6,23.3-25.2c7.7-11.2,14.6-22.6,18.6-35.6c0.7-2.3,2.1-4.5,3.3-7.1
		c3.5-0.2,7-0.9,10.4-0.5c12.6,1.6,16,4.7,18.1,17.5c3.4,20.3,9.5,39.6,18.8,58.1c7.3,14.4,17.3,25.5,30.9,33.5
		c17.6,10.3,34.2,22.3,52.6,31.3c6.2,3.1,12.5,6.2,19,8.5c6.1,2.1,12.5,3.3,18.8,4.7c7.8,1.7,15.5,3.8,23.4,4.8
		c16.8,2.1,33.8,3,50.6,5.4c19.1,2.8,37.7,2.1,56.3-2.9c9.1-2.4,18.6-3.3,27.8-5.5c12.2-3,24.1-6.7,31.4-18.5
		c2.9-4.6,7.1-8.4,10.4-12.7c2.1-2.7,4-5.7,5.4-8.8c8.1-19.1,11.9-39.1,12.1-59.7c0.1-6.5,0.3-13-0.6-19.4c-1.5-9.8-4-19.5-6.2-29.2
		c-4.7-20-15.6-36.5-29.4-51.1c-3.4-3.6-7.3-6.5-12.3-8.1c-7.1-2.3-13.7-5.9-20.7-8.6c-2.7-1.1-5.7-1.9-8.6-2.1
		c-8.9-0.8-17.9-1.1-26.8-1.8c-7.4-0.6-14.7-1.6-22.6-2.6c0.3-5.1-1.4-8.5-6.5-8.3c-3.9,0.1-7.8,0.7-11.7,1.3
		c-4.9,0.7-9.8,1.6-14.7,2.2c-5.9,0.7-11.9,1-17.8,1.8c-6,0.8-11.6,0.3-17.6-1.7c-15.6-5.2-31.8-8.4-48.3-9.5
		c-4.3-0.3-8.9,0.5-13.2,1.7c-4,1.1-7.2,4.1-6.9,8.7c0.3,4.5,1,9.1,7,9.7c2.7-2.4,4.8-5.6,7.8-6.8c3.6-1.4,7.9-1.8,11.7-1.3
		c5.6,0.7,11.9-0.6,19.2,4.7c-9.7,1.9-16.9,4.2-24.7,5c-9.4,1-18.9,2-28,4.5C941.2,443.1,930.1,447.6,918.8,451.5z"/>
	<path class="st1" d="M1074.7,1371.3c4.5-3.9,4-9.1,4.6-14c1.4-11.9,1.5-24.1,4.6-35.5c6.1-22.3,8.1-45.2,10-67.9
		c2.5-30.4-0.7-60.7-9.7-90.1c-4.4-14.3-9.4-28.5-12.2-43.1c-5.4-28.7-18.2-54.7-28.3-81.6c-8.2-21.7-19.3-42.6-34.1-61
		c-4.2-5.2-10.5-9-16.2-12.8c-2.8-1.9-6.7,0.2-8.8,3.6c-1.5,2.5-0.7,5.4,2.3,7.7c1.2,0.9,2.5,1.7,3.8,2.4
		c11.9,6.6,19,17.7,24.8,29.2c9.2,18.2,18.8,36.3,25.4,55.7c5,14.6,11.1,28.8,15.6,43.6c5.8,19,9.8,38.6,15.9,57.5
		c7.8,24.1,10.2,48.9,10.8,73.7c0.6,25.3-3.3,50.6-9,75.5c-2,8.7-3.7,17.6-4.6,26.5c-0.7,8-1.4,15.8-7.9,21.4
		C1064.8,1368.2,1068.4,1371.7,1074.7,1371.3z"/>
	<path class="st1" d="M759.6,840.9c6.3-6.2,11.8-11.7,16.8-16.7c6.3,0.2,10.7,2.7,14.3,6.2c2,1.9,4.5,4.7,4.6,7.2
		c0.3,8.5,6.8,11.9,12.2,16c6.9,5.2,11.1,4.7,16.6-2.1c3.1-3.8,5.3-8.4,8-12.6c2.4-3.8,4.7-7.6,7.4-11.2c1.4-1.9,3.4-3.8,7.4-2.4
		c0.4,2.2,1.5,4.9,1.4,7.6c-0.1,3.9-1.5,7.9-1.5,11.8c0,9.5,5.6,14.7,15,14.5c8.2-0.1,14.5-2.9,17.5-11.2c1.2-3.2,2.8-6.3,4.4-9.6
		c-1.8-2.7-3.4-5.2-5.1-7.6c-3.8-5.4-7.1-11.2-6.3-17.9c1.5-13.5-4.8-21.6-16-26.7c-6,0.8-9.1,4.1-11.8,8.8
		c-8.1,13.7-16.7,27.1-25.3,40.5c-0.4,0.6-1.7,0.6-3.2,1.1c0-6,0-11.8,0-17.6c-5.4-5.1-11.4-0.3-16.9-1c-3.7-2.2-6.9-4.5-10.5-6.1
		c-5.7-2.5-12-3.6-17.1,0.4c-5.8,4.5-10.9,10.1-15.8,15.6c-1.3,1.5-1.3,4.8-0.7,7C755.5,836.9,757.7,838.5,759.6,840.9z"/>
	<path class="st1" d="M671.4,900.8c-2.4,0-4.9-0.7-5.8,0.1c-6.5,6.1-13.2,12.2-19,19c-14.2,16.7-27.9,33.9-41.8,50.8
		c-3.2,3.8-7.1,7.2-9.6,11.4c-8.3,14.2-16.6,28.4-24,43c-6.6,12.9-12,26.3-18.1,39.4c-5.9,12.7-10.8,25.7-13.5,39.5
		c-1.8,9.3-5.1,18.2-7.6,27.4c-3.7,13.5-7.3,26.9-7.7,41.1c-0.5,20-2.2,39.8-5.6,59.5c-1.7,10-1,20,2,29.6c1.4,4.7,4,9,6.7,13.2
		c0.6,0.9,3.6,0.9,5.2,0.4c0.9-0.3,1.4-2.4,1.6-3.8c0.2-0.9-0.3-1.9-0.7-2.9c-4.9-12.9-5.9-26-3.8-39.6c3.2-20.7,4.6-41.5,5.2-62.5
		c0.3-9.4,2.3-18.8,4.6-28c3.6-14.5,7.7-28.9,12.3-43.1c15.3-46.7,35.9-90.7,67.6-128.9c4.8-5.7,10.2-11,14.7-16.9
		c8.2-10.6,16.3-21.4,26.5-30.3C666,914.8,670,909.3,671.4,900.8z"/>
	<path class="st1" d="M764,762.9c0.6,4.1,0.8,7.1,1.4,10c0.7,3.4,1.4,6.9,2.6,10.2c2.1,6,6.8,9.7,11.8,13.1c2.7,1.8,7.4-0.2,8.7-3.4
		c1.7-4.2,0.8-7.7-2.3-10.9c-7.2-7.5-8.5-16.7-6.9-26.5c0.7-4.4,1.8-8.8,3.2-13c3.3-9.4,7-18.7,10.3-28.1c7.8-22.1,15-44.4,24.2-66
		c5.7-13.2,9.8-27.1,13-41.2c4.2-18.4,10.4-36.4,15.2-54.8c3-11.6,4.9-23.4,7.3-35.1c0.3-1.4,0.2-3.1-0.3-4.4
		c-0.5-1.2-1.7-2.7-2.9-3c-1.1-0.3-3.4,0.5-3.8,1.4c-2.4,5.4-4.8,10.9-6.4,16.6c-2.8,10.1-4.9,20.4-7.6,30.5
		c-2.3,8.7-5.3,17.2-7.6,25.8c-3.8,13.9-6.6,28.2-11.2,41.9c-5.5,16.5-12.6,32.5-18.7,48.8c-9.4,25.2-18.6,50.6-27.7,75.9
		C765,754.9,764.6,759.5,764,762.9z"/>
	<path class="st1" d="M703.5,1423.8c6.7-2.6,6.1-7.7,7.7-11.7c7.3-18.5,20-32.4,38-40.3c12.6-5.5,24-4.4,31.3,8
		c2.3,3.8,5,7.4,7.8,10.9c2.8,3.4,5.8,6.7,9.1,9.6c4.1,3.6,8.7,6.7,13.1,9.8c1.6,1.1,3.4,2.4,5.2,2.7c1.8,0.3,4.5,0.2,5.5-1
		c1.5-1.6,2.2-4.2,2.5-6.5c0.2-1.2-0.8-2.9-1.8-3.9c-4.5-4.7-8.5-10.1-13.8-13.5c-9.1-5.9-15.7-13.8-21.2-22.6
		c-5.1-8.2-12-11.7-21.3-10.9c-4.9,0.4-10,0.9-14.6,2.3c-19.5,5.9-33,19.9-45.6,34.9c-2.5,2.9-3.5,7.1-5.1,10.7
		C697.1,1409.8,698.5,1416.7,703.5,1423.8z"/>
	<path class="st1" d="M938.5,345.6c0.8,5,3.7,8.1,7.4,9.5c6.4,2.5,13,4.5,19.7,5.9c8.3,1.7,16.8,2.1,25,3.9
		c9.2,2.1,18.4,4.1,27.9,4.4c12.7,0.4,24.2,4.5,34.6,12.2c5.5,4,12.2,6.5,18.5,9.3c2.7,1.2,6.3-0.4,7.1-3.6c0.7-2.6,0-5.5-0.1-7.4
		c-7.8-3.8-14.7-6.8-21.1-10.4c-9.7-5.6-20.3-7.9-31.2-9.3c-7.4-0.9-14.8-1.7-22.1-3.3c-10.2-2.2-20.3-4.9-28.7-11.7
		c-6-4.9-13.3-6.4-20.7-8.1C946.7,335.3,941.6,338.9,938.5,345.6z"/>
	<path class="st1" d="M923.6,859.8c-1.9-13-3.7-25.8-9.7-37.5c-3.3-6.4-8.6-10.9-15-14.1c-2.6-1.3-5.1-0.5-6.5,1.7
		c-0.9,1.4-1.2,3.9-0.6,5.4c0.9,2.2,2.8,4,4.3,6c11.2,14.5,15.4,30.9,12.5,49c-0.5,3.4-1.3,6.9-1.5,10.3c-0.3,4.1,1.8,7.1,5.1,8.1
		c3.1,0.9,6.3-1.1,7.3-5.7C921.2,875.4,922.3,867.5,923.6,859.8z"/>
	<path class="st1" d="M805.2,937.2c1.2,9.1,2.7,20.8,4.5,32.6c0.3,1.9,1.4,3.7,2.4,5.4c1.6,2.7,6,2.8,7.5,0.2
		c2.3-3.9,4-7.9,2.9-12.7c-0.8-3.4-0.7-7-1.8-10.2c-3.9-11.7-3.1-23.5-0.8-35.3c0.6-3.4,1.1-6.9,0.9-10.3c-0.1-1.6-1.8-4.2-3-4.3
		c-2.1-0.3-5.4,0.2-6.5,1.7c-2,2.6-3.4,6.1-3.9,9.4C806.3,920.5,806.1,927.4,805.2,937.2z"/>
	<path class="st1" d="M736.5,820.3c-8.5-8.7-7.5-19-5.4-29.5c1.2-6.2,3.5-11.5,9.9-13.9c3.7-1.4,5.6-4.3,5.9-7.9
		c0.1-1.7-0.6-3.8-1.6-5.1c-0.7-0.8-3-1.1-4.1-0.6c-3.6,1.5-7,3.9-10.6,5.3c-5.6,2.2-8.5,6.4-10.5,11.9c-4.9,13.2-4.9,26.3-0.4,39.5
		c1.2,3.5,2.9,6.6,6.6,7.4C730.8,828.5,733.6,825.9,736.5,820.3z"/>
	<path class="st1" d="M792.8,924.3c0.5-6.6-1.2-13.2-6.2-18.7c-2.1-2.4-5.4-2.7-8.1-0.8c-2.2,1.6-3.4,3.6-2.7,6.4
		c0.2,1,0.6,2,1.1,2.8c6.2,8.7,4.5,18,1.7,27.3c-1.6,5.2-4.1,10.2-5.8,15.4c-0.7,2.2-1,5-0.5,7.2c0.4,1.5,2.4,3,4,3.6
		c1,0.4,2.7-0.8,3.9-1.5c0.8-0.5,1.5-1.4,1.8-2.3C786.7,951.1,792.5,938.8,792.8,924.3z"/>
	<path class="st1" d="M715.8,1374.8c4.1-2.6,4.4-6.2,2-10c-0.6-0.9-2.6-1.6-3.8-1.4c-1.2,0.3-2.9,1.8-2.9,2.8
		C710.9,1369.7,711.5,1373.2,715.8,1374.8z"/>
	<path d="M918.8,451.5c11.3-3.9,22.4-8.4,33.9-11.5c9.1-2.4,18.6-3.5,28-4.5c7.8-0.8,15-3.1,24.7-5c-7.3-5.3-13.6-4-19.2-4.7
		c-3.8-0.5-8.2-0.1-11.7,1.3c-3,1.2-5.2,4.4-7.8,6.8c-6-0.5-6.7-5.1-7-9.7c-0.3-4.7,2.9-7.6,6.9-8.7c4.2-1.2,8.8-2,13.2-1.7
		c16.5,1.1,32.7,4.4,48.3,9.5c6,2,11.5,2.5,17.6,1.7c5.9-0.8,11.9-1.1,17.8-1.8c4.9-0.6,9.8-1.5,14.7-2.2c3.9-0.5,7.8-1.1,11.7-1.3
		c5.1-0.1,6.8,3.3,6.5,8.3c7.9,0.9,15.2,1.9,22.6,2.6c8.9,0.8,17.9,1,26.8,1.8c2.9,0.2,5.9,1,8.6,2.1c6.9,2.8,13.6,6.3,20.7,8.6
		c5,1.7,8.9,4.5,12.3,8.1c13.9,14.7,24.8,31.1,29.4,51.1c2.3,9.7,4.7,19.4,6.2,29.2c1,6.3,0.7,12.9,0.6,19.4
		c-0.3,20.7-4,40.7-12.1,59.7c-1.3,3.1-3.3,6.1-5.4,8.8c-3.3,4.4-7.5,8.1-10.4,12.7c-7.3,11.8-19.2,15.5-31.4,18.5
		c-9.2,2.3-18.7,3.1-27.8,5.5c-18.6,5-37.2,5.7-56.3,2.9c-16.8-2.5-33.8-3.4-50.6-5.4c-7.9-1-15.6-3-23.4-4.8
		c-6.3-1.4-12.7-2.6-18.8-4.7c-6.5-2.3-12.8-5.4-19-8.5c-18.4-9-35-21-52.6-31.3c-13.6-8-23.6-19.1-30.9-33.5
		c-9.3-18.5-15.3-37.8-18.8-58.1c-2.2-12.8-5.5-15.9-18.1-17.5c-3.3-0.4-6.8,0.3-10.4,0.5c-1.3,2.7-2.6,4.8-3.3,7.1
		c-4,13.1-10.9,24.4-18.6,35.6c-6.6,9.6-14.6,17.7-23.3,25.2c-7.9,6.8-16.3,13.1-24.5,19.6c-13.8,10.9-29.9,17.9-45.2,26.1
		c-3.9,2.1-8.4,2.5-11.5,6.5c-1.2,1.5-4.4,1.9-6.8,2c-5.9,0.3-11.7-0.8-17.5,2.2c-2.7,1.4-6.8,0.2-10.3,0.3
		c-2.4,0.1-5.5-0.2-7.1,1.2c-4.8,4.3-9.7,4.2-15.3,2c-4.2-1.7-8.6-2.1-13.2-0.7c-7,2.1-13.7,0.5-20.4-2.1
		c-15.4-5.9-31.1-10.1-47.8-11.6c-14.5-1.3-27.6-8.2-39.3-17.1c-4.4-3.3-8.4-7.1-12.9-10.2c-6.1-4.3-12.5-8.1-18.6-12.3
		c-7.7-5.5-15.3-11.2-22.8-16.9c-1.1-0.9-2-2.2-2.7-3.5c-8.9-14.4-18.7-28.3-26.3-43.3c-8.5-16.8-12.3-35.3-5.6-53.6
		c7.6-20.7,18.3-39.9,36-54.1c7-5.6,14.2-11,21.2-16.6c13.1-10.4,27.4-18.2,44.4-20.3c13.5-1.7,26.1-6.8,38.7-11.2
		c10-3.5,20.1-5.6,30.7-6c13.4-0.6,26.9-2.6,40.3-2.4c17.9,0.3,35.9-0.3,53.7,2.9c4.9,0.9,9.5,1.9,14.3,3.5
		c17.4,5.9,34.3,13.6,52.8,16.3c6,0.9,12.4,4.4,17,8.6c9.6,8.7,19.1,17.8,26.7,28.2c12.5,17,22,35.6,20,57.9
		c-0.7,7.5-0.4,14.9,2.2,23.3c6.2,1.6,12.8,3.4,20,5.3c2.3-4.1,4.6-7.4,5.9-11c4.3-12.2,12.5-21.4,21.9-29.8
		c2.1-1.9,4.9-3.4,7.7-4.4c5.6-2,11.4-3.7,17.2-5.1c1.7-0.4,3.7,0.5,6.2,0.9c-0.9,4.9-1.6,9.3-2.4,13.5c-14.1-2.7-18.7-1.3-25.6,8.9
		C902.5,457.3,910.6,454.4,918.8,451.5z M968.3,501.1c-1.1-1.3-2.2-2.5-3.4-3.7c-0.2-0.2-0.9-0.1-1.3-0.1c0,0.8-0.2,2.3,0.1,2.4
		c1.6,0.5,3.3,0.8,4.9,1.1c1.7,6.1,6.6,9.6,11,13.6c6.6,6.1,13.6,11.7,19.9,18.1c9.3,9.4,21.1,14.8,31.7,22.2
		c2.4,1.6,5.5,2.3,8.4,3.1c15.7,4.2,31.6,3.3,47.5,1.9c2.8-0.2,5.5-1.6,8.2-2.5c-4.5-1.7-8.8-2.1-13-1.6
		c-11.7,1.2-22.8-0.9-33.4-5.8c-13.1-6-26.4-11.7-39.5-17.7c-6.3-2.9-10.4-7.5-11.2-14.7c-0.3-2.4-0.8-4.8-1.2-7.2
		c-3.6-1.6-6.7-3.3-10-4.3C980.8,504,974.5,502.6,968.3,501.1z M829.7,481.1c0.1-10.3,0-19.8,0.4-29.1c0.9-18.4-7.7-32.6-19.5-45.4
		c-5.4-5.8-11.4-11.2-16.5-17.3c-7.7-9.2-17.4-14.6-28.9-17.3c-8.7-2.1-17.4-4.6-25.8-7.7c-26.6-9.6-54.2-13.6-82.3-12.6
		c-16.4,0.6-32.8,2.9-49.1,4.9c-7.4,0.9-14.6,3-21.8,4.8c-10.1,2.6-20,6.6-30.2,8.2c-24.6,3.9-45.1,15.3-63,32.1
		c-6.2,5.8-13.5,10.6-18.5,17.2c-6.9,9.1-12.4,19.3-17.9,29.3c-5.2,9.4-5.3,20-6.8,30.4c-1.4,9.3,8.8,14.6,7.1,23.8
		c-0.2,1.2,1.1,2.7,1.7,4c0.2,0.4,0.6,0.8,1,1.1c6.5,5.1,10,12.1,13.5,19.4c2.3,4.9,6.2,9,9.4,13.4c6.6,9.1,17,13.8,25.2,20.9
		c6.3,5.4,12.9,9.3,21.3,8.4c2.8,3.7,5,7,7.6,10c6.4,7.2,13.7,13.7,23.8,14.3c9.1,0.5,17.6,2.8,26.1,5.6c3.7,1.2,7.8,1.4,11.8,1.8
		c16.3,1.6,32.6,3,48.1,4.5c2.7,3.7,4.7,6.5,6,8.3c17.5,4,32.4-4.9,48.4-4.9c20-6.5,39-15.3,56.3-27.2c6.1-4.2,10.8-10.5,17-14.5
		c15.3-10,27.2-23,37.5-38c6.9-10.1,10.6-20.9,13.5-32.7c-2.2-0.6-3.5-1.2-5-1.4c-3.5-0.6-5.7-2.8-5-6.1c0.4-2.1,2.3-4.5,4.1-5.5
		C821.8,482.3,824.9,482.2,829.7,481.1z M1103.4,545.1c1.9,4.3,3,6.9,4.2,9.6c4.9-0.5,9.3-1.2,13.8-1.1c1.4,0,3.4,2.1,4,3.7
		c1.6,4.6-0.7,8-5.3,8.5c-6.4,0.7-13,0.6-19.1,2.2c-13.7,3.8-27.5,4.2-41.5,4.2c-13.6,0.1-26.9-0.8-38-10.4
		c-2.6-2.3-6.2-3.3-8.9-5.4c-5.9-4.5-12.3-8.7-17.2-14.3c-11.3-12.8-24-24-37.5-34.3c-5.5-4.2-11.7-7.6-17.3-11.6
		c-7.3-5.2-15.3-10.1-13-21.2c2.3-1.2,5.4-1.7,6.3-3.4c3-5.5,5.1-11.5,7.8-17.7c-1.7-0.1-3.3-0.7-4.5-0.3c-7.6,2.5-15.2,5-22.6,8
		c-6.5,2.6-13.5,4.8-18.8,9c-4.6,3.7-9.1,5.5-14.9,4.7c-1.7,4.4-3,8-4.3,11.6c9,5.1,9.3,6,5.8,13.8c-1.2,2.7-3.7,5.5-3.5,8
		c0.7,7.3-1,14.9,2.3,22c2.5,5.4,3.6,11.4,6.1,16.8c5.5,12.2,10.7,24.5,20.2,34.6c7.1,7.4,15.4,12.6,24,17.6
		c13.7,8.1,27.9,15.5,41.1,24.3c15,10,31.7,14.3,48.8,17.1c14.7,2.5,29.9,2.1,44.5,4.9c23.6,4.6,46.6,3.2,69.6-2.6
		c4.3-1.1,8.8-1.4,13.2-2.2c10.3-1.9,21.5-2.4,29.6-9.3c10.2-8.7,18.9-18.8,24.2-31.8c7.3-17.9,8-36.9,10.8-55.6
		c0.2-1.5,0.1-3-0.2-4.5c-3.2-16.1-5.1-32.6-11.7-47.8c-3.5-8.2-7.6-16.4-12.9-23.5c-13-17.5-31.8-25.3-52.7-27.8
		c-21.3-2.6-42.7-4-64.1-5.8c-1.7-0.1-4.1-0.8-5,2.7c8.3,8.1,17,16.6,28.6,19.9c10.7,3,19.1,10.3,30.8,12.8c-1.4,4.5-2.5,8-3.5,11.2
		c-6.3,1.6-10.7-1.3-15.2-3.2c-6.9-2.9-13.6-6.3-20.5-9c-1.9-0.8-4.4-0.1-8-0.1c3,5.5,5.6,9.7,7.7,14.1c1.2,2.6,2.1,5.6,2.2,8.5
		c0,1.6-1.6,3.9-3,4.5c-1.4,0.6-4.3-0.1-5.2-1.2c-6.3-8.1-13.9-15.9-10.2-28.4c-3.1-0.6-5.4-1.2-7.7-1.4c-0.7-0.1-1.5,1-1.9,1.3
		c2.2,7.3,5.3,14.3,6.1,21.5c0.9,7.7-0.3,15.6-0.7,24.4c17.2,2.7,33.9,8.3,51.6,3.2c3.1-0.9,6.1,2,5.4,5.3c-0.6,3.2-2.2,6.3-3.5,9.9
		c-13.1-0.8-25.5,0.4-37.7-2.7c-6.7-1.7-13.7-2.6-20.7-3.2c-8.2-0.8-15.5,1.6-22.7,8.3c5.9,2.4,10.8,4.3,15.7,6.4
		c8.9,3.7,17.8,5.7,27.7,4.4C1088.9,543.6,1096,544.8,1103.4,545.1z M1010.8,455.7c-4.8,0-7.8-0.5-10.6,0.1
		c-10.7,2.1-21.3,4.8-32,6.7c-9.1,1.7-16.3,7-24.6,10.4c0.8,1.2,1.1,2.4,1.8,2.8c6.8,2.9,13.5,6.7,20.7,8c6.8,1.3,10.2,7.2,16.1,9.1
		c7.5,2.4,15,5,22.6,7.4c2.3,0.7,4.9,1.2,6-0.5C1010.8,484.9,1010.8,471.2,1010.8,455.7z M1021.3,441.8c20.9,7.8,28,9,37.6,6.3
		c-2.6-5.4-6.9-8.8-12.7-9.2C1038.2,438.2,1029.7,436.2,1021.3,441.8z M1034.2,462.3c-0.4-1-0.8-1.9-1.1-2.9
		c-3.2,0.4-6.9-0.1-9.3,1.4c-2,1.3-3.1,4.9-3.6,7.6c-0.5,2.4-2.3,5.6,1.6,7.6C1025.9,471.5,1030,466.9,1034.2,462.3z M1011.3,518
		c1.7,1.1,3.2,2.3,4.9,3c0.6,0.3,2.1-0.2,2.3-0.7c0.3-0.6,0-2-0.6-2.5C1016.1,516.2,1014,515.3,1011.3,518z"/>
	<path d="M945.1,1233.2c2.6-0.4,5.4-0.5,6.3,2.4c0.5,1.6-0.1,4.2-1.2,5.5c-2.3,2.6-5.2,4.7-7.9,6.8c-5.1,3.9-10.4,7.7-15.7,11.7
		c-17.2-3.1-34.1-6.3-50.3-13.7c-9.3-4.2-17.3-9.7-25.2-15.8c-4.7-3.7-9.5-7.3-14.3-10.9c-13.6-10.1-28.6-13-45.3-9.4
		c-15.1,3.2-30.4,5.4-45.6,8.3c-4.9,0.9-9.7,2.5-14.3,4.3c-13.6,5-27.1,10.2-40.6,15.3c-1.9,0.7-3.7,1.6-5.7,1.9
		c-4.3,0.7-8.1-0.2-10.2-4.4c-3.7-7.1-7.1-14.2-10.6-21.3c-1.5-3-3-6-4.2-8.5c-6.2-0.7-8.8,3.8-12.8,5.7c-2.8,1.3-6.9,0.4-7.6-2.5
		c-2.4-10.9-10.8-13.2-19.8-15.1c-2.9-0.6-5.7-1.7-9-2.7c-0.4-2-1.1-3.9-1-5.8c0.2-7.1,2.8-9.2,9.2-7.3c4.3,1.3,8.4,3.2,12.5,5
		c2.7,1.2,5.3,2.9,8.1,3.9c14.3,5.3,17.3,3.6,24.8-7.9c4.4-6.6,9.7-12.6,15-18.6c5.7-6.4,11.1-13,13.8-21.2c1.8-5.7,5.5-9.2,10.5-12
		c6.6-3.6,12.9-7.5,19.5-11.2c2.6-1.5,5.3-2.9,8.1-3.8c9.9-3.3,19.9-6.5,29.8-9.6c4.1-1.3,7-3.3,8.7-7.5c1.8-4.6,4-9.2,6.4-13.5
		c4.4-8,10.5-9.1,16.8-2.3c5.7,6.2,10.9,13,15.4,20.1c3.9,6.2,9.1,10,15.4,13.5c10.4,5.8,20.4,12.4,30.3,19.2
		c6.4,4.4,10.3,10.6,11.8,18.5c1.9,10.3,4.1,20.6,6.3,30.8c1.1,5.3,2.5,10.6,3.6,15.2c11.7,10.5,25.5,15.1,38.9,20.6
		c6.3,2.5,12.4,3,18.9,0.4c3.6-1.4,7.7-2,11.6-2.4c4.6-0.4,7.2,1.4,8.2,4.9c1.2,4.2,0.1,6.9-4,10.1c-1.5,1.2-2.8,2.6-4.2,3.8
		c-3-1-6.2-2.6-7.2,3.5C940.8,1235.5,943,1234.3,945.1,1233.2z M679,1210.8c2.7,12.4,4.9,14.2,15.4,11.1c9.1-2.7,18.1-5.7,26.8-9.3
		c10.2-4.2,20.4-8,31.6-8.1c3.4,0,6.8-1.4,10.2-2.1c4.4-0.9,8.7-2.3,13.2-2.6c7-0.4,13.8-1.7,20.4-4.1c3.7-1.3,8-2.7,11.6-2
		c13.6,2.7,27.5,5.5,38.1,15.7c10.5,10.1,22.3,18.7,35.5,24.5c10.4,4.6,21.6,7.5,32.6,10.3c3.9,1,9.1,1.4,12.2-4.3
		c-4.2-1.8-8.3-3.5-12.2-5.4c-4-1.9-7.7-4.8-11.9-6.1c-21.8-6.6-37.6-21.9-54-36.5c-1.1-1-2.1-2.2-2.9-3.4
		c-8-13.1-16.2-26.2-23.9-39.5c-3.1-5.3-6.7-9.6-12.2-12.4c-5.4,2.4-8.3,6.4-11,10.6c-3.5,5.4-6.5,11.2-9.8,16.7
		c-2.9,4.8-6.7,5.5-11.2,2.1c-2-1.5-3.7-3.3-5.5-5.1c-4.9-5-9.7-10.1-14.7-14.9c-1.7-1.6-4-2.5-6.8-4.1c-5.1,9.8-13.5,14.7-22,19.9
		c-12.5,7.6-22.4,18.4-30.1,30.7C690.5,1205.4,691.1,1205.8,679,1210.8z M785.8,1093.2c-5.5,3.3-6.9,8.6-8.8,13.6
		c-3,7.9-8.6,12.2-17.1,11.6c-5.7-0.4-10.8,1-15.8,3.4c-3.6,1.7-7.5,2.8-11,4.6c-13.1,6.9-27.5,12.1-33.2,27.9c-0.8,2.2-2.9,4-4.4,6
		c-6.9,8.5-13.9,16.9-20.7,25.5c-1.3,1.7-1.7,4.1-2.7,6.3c7.1,3.2,11.4,1.3,14.6-4.4c6.9-12.3,16.2-22.3,26.8-31.7
		c9.2-8.1,19.7-14.6,27.8-24.3c7.5-9,15.4-7.3,23.4,2.5c5,6.2,10.8,11.1,18.3,14.6c8.2-10.2,15.9-19.7,23.7-29.4
		C800.3,1109.7,795,1100.2,785.8,1093.2z M859.5,1179.7c-1.2-13.1-4.2-24.5-10.1-34.9c-3.6-6.5-13.2-11.4-20.5-11.6
		c5.1,16.6,18.8,28,25.8,43.4C855.3,1177.6,857.1,1178.1,859.5,1179.7z"/>
	<path d="M1074.7,1371.3c-6.3,0.4-9.9-3.1-12.7-9.3c6.5-5.6,7.1-13.3,7.9-21.4c0.8-8.9,2.6-17.7,4.6-26.5c5.6-24.9,9.6-50.2,9-75.5
		c-0.6-24.8-3-49.6-10.8-73.7c-6.2-18.9-10.1-38.5-15.9-57.5c-4.5-14.7-10.6-29-15.6-43.6c-6.6-19.4-16.2-37.5-25.4-55.7
		c-5.8-11.5-12.9-22.6-24.8-29.2c-1.3-0.7-2.6-1.5-3.8-2.4c-3-2.3-3.8-5.2-2.3-7.7c2-3.4,6-5.5,8.8-3.6c5.7,3.8,12,7.6,16.2,12.8
		c14.8,18.3,25.8,39.2,34.1,61c10.2,26.9,22.9,52.9,28.3,81.6c2.8,14.6,7.8,28.8,12.2,43.1c9,29.4,12.1,59.7,9.7,90.1
		c-1.8,22.7-3.9,45.6-10,67.9c-3.1,11.4-3.3,23.6-4.6,35.5C1078.7,1362.1,1079.2,1367.3,1074.7,1371.3z"/>
	<path d="M759.6,840.9c-1.9-2.3-4.1-3.9-4.7-5.9c-0.6-2.2-0.6-5.5,0.7-7c4.9-5.6,10-11.1,15.8-15.6c5.1-4,11.4-2.9,17.1-0.4
		c3.6,1.6,6.9,4,10.5,6.1c5.4,0.8,11.5-4,16.9,1c0,5.8,0,11.6,0,17.6c1.4-0.5,2.8-0.5,3.2-1.1c8.5-13.4,17.2-26.8,25.3-40.5
		c2.8-4.7,5.8-7.9,11.8-8.8c11.2,5.1,17.5,13.2,16,26.7c-0.7,6.6,2.5,12.5,6.3,17.9c1.7,2.4,3.3,4.9,5.1,7.6
		c-1.5,3.3-3.2,6.4-4.4,9.6c-3,8.3-9.3,11.1-17.5,11.2c-9.4,0.1-15.1-5-15-14.5c0-3.9,1.4-7.9,1.5-11.8c0.1-2.7-1-5.4-1.4-7.6
		c-4-1.5-5.9,0.5-7.4,2.4c-2.7,3.5-5,7.4-7.4,11.2c-2.7,4.2-4.9,8.8-8,12.6c-5.5,6.8-9.8,7.3-16.6,2.1c-5.4-4.1-11.8-7.5-12.2-16
		c-0.1-2.5-2.5-5.3-4.6-7.2c-3.6-3.4-8-5.9-14.3-6.2C771.4,829.2,765.9,834.6,759.6,840.9z"/>
	<path d="M671.4,900.8c-1.4,8.4-5.5,14-10.7,18.6c-10.2,9-18.3,19.7-26.5,30.3c-4.6,5.9-10,11.1-14.7,16.9
		c-31.7,38.2-52.3,82.2-67.6,128.9c-4.6,14.2-8.7,28.6-12.3,43.1c-2.3,9.2-4.3,18.6-4.6,28c-0.6,21-2,41.8-5.2,62.5
		c-2.1,13.6-1,26.7,3.8,39.6c0.3,0.9,0.8,2,0.7,2.9c-0.3,1.4-0.8,3.5-1.6,3.8c-1.6,0.5-4.6,0.5-5.2-0.4c-2.6-4.2-5.2-8.5-6.7-13.2
		c-3-9.6-3.7-19.7-2-29.6c3.4-19.7,5.2-39.5,5.6-59.5c0.3-14.1,4-27.6,7.7-41.1c2.5-9.1,5.8-18.1,7.6-27.4
		c2.7-13.9,7.6-26.8,13.5-39.5c6.1-13.1,11.5-26.6,18.1-39.4c7.5-14.6,15.7-28.9,24-43c2.5-4.2,6.4-7.6,9.6-11.4
		c13.9-16.9,27.6-34.1,41.8-50.8c5.8-6.8,12.5-12.9,19-19C666.5,900.1,669,900.8,671.4,900.8z"/>
	<path d="M764,762.9c0.7-3.4,1-8,2.5-12.1c9.1-25.4,18.3-50.7,27.7-75.9c6.1-16.3,13.2-32.3,18.7-48.8c4.6-13.7,7.4-27.9,11.2-41.9
		c2.4-8.7,5.3-17.2,7.6-25.8c2.7-10.1,4.8-20.4,7.6-30.5c1.6-5.7,4-11.2,6.4-16.6c0.4-0.9,2.6-1.6,3.8-1.4c1.2,0.3,2.4,1.8,2.9,3
		c0.5,1.3,0.6,3,0.3,4.4c-2.3,11.7-4.3,23.6-7.3,35.1c-4.8,18.3-10.9,36.3-15.2,54.8c-3.3,14.2-7.4,28-13,41.2
		c-9.3,21.6-16.4,43.9-24.2,66c-3.3,9.4-7.1,18.7-10.3,28.1c-1.5,4.2-2.6,8.6-3.2,13c-1.5,9.8-0.3,19,6.9,26.5
		c3.1,3.2,4,6.8,2.3,10.9c-1.3,3.2-6,5.2-8.7,3.4c-5-3.4-9.7-7.1-11.8-13.1c-1.1-3.3-1.9-6.7-2.6-10.2
		C764.8,769.9,764.5,766.9,764,762.9z"/>
	<path d="M703.5,1423.8c-5-7.1-6.3-14-3.1-21.6c1.6-3.6,2.6-7.8,5.1-10.7c12.6-15,26.1-29,45.6-34.9c4.7-1.4,9.7-1.8,14.6-2.3
		c9.3-0.8,16.1,2.7,21.3,10.9c5.5,8.8,12.2,16.7,21.2,22.6c5.3,3.5,9.4,8.9,13.8,13.5c1,1,2,2.7,1.8,3.9c-0.3,2.3-1,4.9-2.5,6.5
		c-1,1.1-3.7,1.3-5.5,1c-1.8-0.3-3.6-1.6-5.2-2.7c-4.5-3.2-9-6.3-13.1-9.8c-3.3-2.9-6.3-6.2-9.1-9.6c-2.8-3.4-5.6-7-7.8-10.9
		c-7.3-12.4-18.7-13.5-31.3-8c-18,7.9-30.7,21.8-38,40.3C709.6,1416.1,710.1,1421.3,703.5,1423.8z"/>
	<path d="M752.9,287.5c-1.6,4.1-3.1,8.3-4.8,12.4c-3.6,8.9-13.5,11.4-20.4,4.8c-3-2.9-5.9-5.4-9.8-6.4c-15.9-4.2-31.6-9.5-48.3-9.5
		c-3.5,0-7.1-0.2-10.4-1.2c-14.2-4.4-28.6-4.1-43.1-2.8c-2,0.2-4,0.3-6,0.3c-3.3-0.1-5.8-2.7-5.6-5.7c0.2-3.4,2.2-5.9,5.5-6
		c5.9-0.2,12.1-0.6,17.8,0.8c10.3,2.6,20.8,2.2,31.2,2.8c4.4,0.3,9-0.6,13.4-0.2c8.9,0.7,17.7,1.6,26.2,5.1c4.9,2.1,10.7,2,16.1,2.6
		c1.9,0.2,4.8,0.2,5.8-0.9c7.5-8.5,19.1-3.6,26.5-9.3c6.8,3.3,4.8,8.9,5.5,13.7L752.9,287.5z"/>
	<path d="M938.5,345.6c3.1-6.8,8.2-10.3,16.4-8.4c7.3,1.6,14.7,3.2,20.7,8.1c8.4,6.8,18.5,9.6,28.7,11.7c7.3,1.5,14.7,2.4,22.1,3.3
		c10.9,1.4,21.5,3.7,31.2,9.3c6.4,3.7,13.3,6.6,21.1,10.4c0.1,1.9,0.8,4.8,0.1,7.4c-0.8,3.2-4.4,4.8-7.1,3.6
		c-6.3-2.9-13-5.3-18.5-9.3c-10.4-7.7-21.9-11.7-34.6-12.2c-9.5-0.3-18.7-2.4-27.9-4.4c-8.2-1.9-16.8-2.2-25-3.9
		c-6.7-1.4-13.3-3.4-19.7-5.9C942.2,353.7,939.4,350.6,938.5,345.6z"/>
	<path d="M923.6,859.8c-1.3,7.7-2.4,15.6-4.1,23.3c-1,4.5-4.2,6.6-7.3,5.7c-3.3-1-5.4-4.1-5.1-8.1c0.3-3.5,1-6.9,1.5-10.3
		c2.8-18.1-1.3-34.5-12.5-49c-1.5-2-3.4-3.8-4.3-6c-0.6-1.5-0.3-4,0.6-5.4c1.4-2.2,3.9-3,6.5-1.7c6.4,3.2,11.7,7.8,15,14.1
		C919.9,834,921.7,846.8,923.6,859.8z"/>
	<path d="M805.2,937.2c0.8-9.8,1.1-16.7,2.2-23.6c0.5-3.3,1.9-6.8,3.9-9.4c1.1-1.5,4.4-2,6.5-1.7c1.2,0.2,2.9,2.8,3,4.3
		c0.2,3.4-0.3,6.9-0.9,10.3c-2.2,11.8-3.1,23.6,0.8,35.3c1.1,3.3,1,6.9,1.8,10.2c1.1,4.8-0.6,8.8-2.9,12.7c-1.5,2.6-5.9,2.5-7.5-0.2
		c-1-1.7-2.1-3.5-2.4-5.4C808,958,806.4,946.2,805.2,937.2z"/>
	<path d="M736.5,820.3c-2.8,5.6-5.7,8.2-10.3,7.1c-3.7-0.9-5.5-3.9-6.6-7.4c-4.5-13.2-4.5-26.4,0.4-39.5c2-5.4,4.9-9.6,10.5-11.9
		c3.7-1.5,7-3.8,10.6-5.3c1.2-0.5,3.5-0.2,4.1,0.6c1.1,1.3,1.8,3.5,1.6,5.1c-0.3,3.7-2.1,6.6-5.9,7.9c-6.5,2.3-8.7,7.7-9.9,13.9
		C729,801.3,727.9,811.6,736.5,820.3z"/>
	<path d="M792.8,924.3c-0.3,14.5-6.1,26.8-10.6,39.4c-0.3,0.9-1,1.8-1.8,2.3c-1.2,0.7-2.9,1.9-3.9,1.5c-1.6-0.6-3.7-2.1-4-3.6
		c-0.6-2.2-0.3-5,0.5-7.2c1.7-5.2,4.2-10.2,5.8-15.4c2.9-9.2,4.5-18.5-1.7-27.3c-0.6-0.8-0.9-1.8-1.1-2.8c-0.7-2.8,0.5-4.8,2.7-6.4
		c2.7-2,5.9-1.6,8.1,0.8C791.5,911.1,793.3,917.7,792.8,924.3z"/>
	<path d="M752.5,287.9c2.6,1.2,5.4,2.1,7.6,3.7c2.3,1.6,1.9,4.1,0.4,6.4c-1.2,1.8-4.2,2.2-4.8,0.4c-1.2-3.6-2-7.3-2.9-10.9
		C752.9,287.5,752.5,287.9,752.5,287.9z"/>
	<path d="M715.8,1374.8c-4.3-1.6-4.8-5.1-4.7-8.6c0-1,1.7-2.5,2.9-2.8c1.1-0.3,3.2,0.4,3.8,1.4
		C720.1,1368.6,719.9,1372.2,715.8,1374.8z"/>
	<path class="st1" d="M829.7,481.1c-4.8,1.1-8,1.2-10.5,2.5c-1.9,1-3.7,3.4-4.1,5.5c-0.6,3.3,1.5,5.5,5,6.1c1.4,0.2,2.8,0.8,5,1.4
		c-2.9,11.7-6.6,22.6-13.5,32.7c-10.3,15-22.2,28-37.5,38c-6.2,4.1-10.9,10.3-17,14.5c-17.4,11.8-36.3,20.6-56.3,27.2
		c-15.9,0.1-30.8,8.9-48.4,4.9c-1.3-1.8-3.3-4.5-6-8.3c-15.5-1.4-31.8-2.9-48.1-4.5c-4-0.4-8.1-0.6-11.8-1.8
		c-8.5-2.8-17-5.1-26.1-5.6c-10.1-0.5-17.4-7-23.8-14.3c-2.6-3-4.8-6.3-7.6-10c-8.4,0.9-15-3-21.3-8.4c-8.3-7.1-18.6-11.7-25.2-20.9
		c-3.2-4.4-7.1-8.5-9.4-13.4c-3.4-7.3-6.9-14.3-13.5-19.4c-0.4-0.3-0.8-0.7-1-1.1c-0.7-1.3-1.9-2.8-1.7-4c1.7-9.2-8.5-14.5-7.1-23.8
		c1.5-10.4,1.6-21,6.8-30.4c5.6-10,11-20.2,17.9-29.3c5-6.6,12.3-11.5,18.5-17.2c17.9-16.7,38.4-28.2,63-32.1
		c10.2-1.6,20.1-5.6,30.2-8.2c7.2-1.9,14.4-3.9,21.8-4.8c16.3-2.1,32.7-4.3,49.1-4.9c28.1-1,55.7,3,82.3,12.6
		c8.4,3,17.1,5.6,25.8,7.7c11.6,2.8,21.2,8.1,28.9,17.3c5.1,6.1,11.1,11.4,16.5,17.3c11.8,12.8,20.4,27,19.5,45.4
		C829.7,461.4,829.9,470.8,829.7,481.1z M615.5,423.8c-1.5,3.4-4.6,3.6-7.5,3.4c-6-0.4-11.9-1.3-17.9-1.8c-3.9-0.3-7.9-0.4-11.8-0.1
		c-1,0.1-2.6,2.1-2.5,3.1c0.2,1.7,1.1,4,2.4,4.8c1.5,0.9,3.8,0.3,5.8,0.5c8.3,1,16.9-0.2,24.5,2.8c1.6,12.6,3.2,24.3,4.7,36.1
		c-9.2,2.3-14.6,2.1-23.3,0c-17.5-4.3-34.1-11.2-50.5-18.6c-12.7-5.8-25.6-11-33.4-23.5c-7.3,5.5-8.6,11.3-3.6,16.2
		c4.6,4.4,10,8,15.5,12.4c-0.7,1.6-1.7,3.3-2.2,5.2c-2,6.9-1,10.3,4.5,14.3c3.2,2.3,6.9,3.9,10.4,5.9c4.8,2.6,10.1,4.7,14.3,8
		c14.2,11.3,30.6,16.2,48.2,18.6c23.1,3.2,45.8-1.2,68.6-2.3c2-0.1,3.9-1,5.9-1.2c4-0.3,8-0.4,11.9-0.3c1,0,2,1.1,3.3,1.8
		c-1.4,1.2-2.1,2.4-2.8,2.4c-9.7,0.7-18.1,5.2-27,8.4c-5.6,2-11.6,4.5-17.3,4.1c-18.4-1.5-37,0.2-55.2-4c-5.7-1.3-11.9-0.9-17.9-0.7
		c-2.2,0.1-5,1.3-6.5,3c-1.4,1.6-2.3,4.4-2,6.6c0.3,2.8,3,3.6,5.7,3.4c7-0.4,14-1.6,20.8-0.9c18,1.8,35.9,0.9,53.8,0.5
		c6.4-0.2,12.9-1.2,19.2-2.6c10.6-2.4,20.6-7.5,31.7-8.1c3.3-0.2,6.6-2.3,9.7-3.8c1.7-0.8,3.8-2.1,4.3-3.6c1.8-6.2,6.9-8,12.1-10
		c6.9-2.8,14.1-5.4,20.3-9.4c6.9-4.4,15.5-3.7,22-8.8c4.2-3.3,9.3-2.6,13.8,0.9c2.2,1.7,5,2.7,8.1,4.3c6.6-7,2.7-14.3,3.1-20.4
		c-6.2-2-11.3-3.7-16.2-5.4c-0.2-2.5-0.4-3.9-0.3-5.4c1.1-12-3.5-21.2-13.3-28.2c-9.8-7-19.9-13.2-30.7-18.5
		C698,402.6,676,398,654.1,393.4c-20.5-4.4-41-8.3-61.6-12.1c-6.8-1.3-13.7-1.5-21.6,0.4c1.1,2.3,1.5,5,2.5,5.2
		c11,2.8,22.1,5.2,33.2,7.6c0.5,0.1,1-0.1,1.5-0.2c7-1.5,13.8-0.4,20.7,1.2c11.2,2.7,22.4,5.3,33.6,7.3
		c20.3,3.6,39.5,10.6,57.7,20.1c6.6,3.4,12.6,8,18.7,12.2c1.3,0.9,3.5,2.4,1.3,4.8c-8.5-1.7-15.6-6.3-22.1-11.7
		c-6.3-5.2-13.6-8.6-21.4-10.3c-9.2-1.9-18.5-3.6-28.2-2.9c-13.9,1-27.8,1.2-41.8-0.7c-18.3-2.4-36.6-5.1-55.2-4
		c-11.2,0.7-21.4,3.4-31.9,8.8c0.2,4,0.5,7.7,0.8,12.8c12.8-6.4,24.6-11.3,37.8-12.1C592,419.1,608.3,420.4,615.5,423.8z"/>
	<path class="st1" d="M1103.4,545.1c-7.4-0.3-14.5-1.5-21.2-0.6c-9.9,1.3-18.8-0.7-27.7-4.4c-4.9-2-9.8-4-15.7-6.4
		c7.2-6.7,14.5-9.1,22.7-8.3c6.9,0.7,13.9,1.6,20.7,3.2c12.3,3.1,24.7,1.9,37.7,2.7c1.3-3.6,2.9-6.6,3.5-9.9
		c0.7-3.3-2.3-6.2-5.4-5.3c-17.6,5.1-34.3-0.5-51.6-3.2c0.3-8.8,1.6-16.7,0.7-24.4c-0.9-7.3-4-14.3-6.1-21.5
		c0.4-0.3,1.2-1.4,1.9-1.3c2.3,0.2,4.6,0.8,7.7,1.4c-3.7,12.5,3.9,20.3,10.2,28.4c0.9,1.2,3.8,1.8,5.2,1.2c1.5-0.6,3.1-3,3-4.5
		c-0.1-2.9-1-5.9-2.2-8.5c-2.1-4.4-4.7-8.6-7.7-14.1c3.6,0,6-0.6,8,0.1c6.9,2.8,13.7,6.1,20.5,9c4.5,1.9,8.9,4.8,15.2,3.2
		c1-3.2,2.1-6.7,3.5-11.2c-11.7-2.5-20.1-9.8-30.8-12.8c-11.6-3.3-20.3-11.8-28.6-19.9c0.9-3.5,3.2-2.8,5-2.7
		c21.4,1.8,42.8,3.2,64.1,5.8c20.9,2.5,39.7,10.3,52.7,27.8c5.3,7.1,9.3,15.3,12.9,23.5c6.6,15.2,8.5,31.7,11.7,47.8
		c0.3,1.5,0.4,3,0.2,4.5c-2.8,18.7-3.5,37.6-10.8,55.6c-5.3,13-14,23.1-24.2,31.8c-8.1,6.9-19.3,7.4-29.6,9.3
		c-4.4,0.8-8.9,1.2-13.2,2.2c-23,5.8-46,7.2-69.6,2.6c-14.6-2.9-29.8-2.5-44.5-4.9c-17.1-2.9-33.9-7.1-48.8-17.1
		c-13.2-8.8-27.4-16.3-41.1-24.3c-8.6-5.1-16.9-10.2-24-17.6c-9.6-10.1-14.7-22.4-20.2-34.6c-2.5-5.4-3.6-11.5-6.1-16.8
		c-3.3-7.2-1.7-14.7-2.3-22c-0.2-2.5,2.3-5.3,3.5-8c3.5-7.8,3.1-8.7-5.8-13.8c1.3-3.5,2.7-7.2,4.3-11.6c5.8,0.8,10.3-1,14.9-4.7
		c5.3-4.2,12.3-6.4,18.8-9c7.4-3,15-5.5,22.6-8c1.2-0.4,2.8,0.2,4.5,0.3c-2.6,6.2-4.8,12.2-7.8,17.7c-0.9,1.7-4,2.3-6.3,3.4
		c-2.3,11.1,5.7,16.1,13,21.2c5.7,4,11.8,7.4,17.3,11.6c13.5,10.3,26.2,21.4,37.5,34.3c4.8,5.5,11.3,9.7,17.2,14.3
		c2.7,2.1,6.4,3.2,8.9,5.4c11,9.6,24.4,10.5,38,10.4c14-0.1,27.8-0.4,41.5-4.2c6.1-1.7,12.7-1.6,19.1-2.2c4.6-0.5,6.9-3.8,5.3-8.5
		c-0.6-1.6-2.6-3.7-4-3.7c-4.4-0.1-8.9,0.6-13.8,1.1C1106.4,552,1105.3,549.4,1103.4,545.1z M1152,529.1c-0.3-1.4-0.2-3-0.9-4.2
		c-4.8-8.1-9.5-16.3-14.6-24.2c-2.1-3.2-6-3.7-9.3-2c-3.1,1.7-3.8,5.1-1.6,9c4.1,7.4,8.1,14.8,12.4,22c1.2,2.1,3.1,3.9,4.9,5.5
		c2.2,2,6.1,0.9,7.5-1.9C1151.1,532.1,1151.5,530.6,1152,529.1z"/>
	<path class="st1" d="M1010.8,455.7c0,15.5,0,29.2,0,44c-1.1,1.7-3.6,1.2-6,0.5c-7.6-2.4-15.1-4.9-22.6-7.4
		c-5.9-1.9-9.3-7.8-16.1-9.1c-7.1-1.3-13.8-5.2-20.7-8c-0.7-0.3-1.1-1.5-1.8-2.8c8.3-3.4,15.5-8.7,24.6-10.4c10.7-2,21.3-4.6,32-6.7
		C1003,455.3,1006,455.7,1010.8,455.7z"/>
	<path class="st1" d="M968.3,501.1c6.2,1.6,12.5,3,18.7,4.8c3.3,1,6.4,2.7,10,4.3c0.4,2.4,1,4.8,1.2,7.2c0.8,7.2,4.9,11.9,11.2,14.7
		c13.1,6,26.4,11.7,39.5,17.7c10.7,4.9,21.7,7,33.4,5.8c4.2-0.4,8.5-0.1,13,1.6c-2.7,0.9-5.4,2.2-8.2,2.5
		c-15.9,1.4-31.8,2.3-47.5-1.9c-2.9-0.8-6-1.4-8.4-3.1c-10.6-7.3-22.5-12.8-31.7-22.2c-6.3-6.4-13.3-12-19.9-18.1
		c-4.3-4-9.3-7.5-11-13.6L968.3,501.1z"/>
	<path class="st1" d="M1021.3,441.8c8.4-5.6,16.8-3.5,24.9-2.9c5.7,0.5,10,3.8,12.7,9.2C1049.3,450.7,1042.3,449.6,1021.3,441.8z"/>
	<path class="st1" d="M1034.2,462.3c-4.2,4.6-8.3,9.1-12.5,13.8c-3.8-2.1-2-5.3-1.6-7.6c0.6-2.7,1.6-6.3,3.6-7.6
		c2.4-1.5,6.2-1.1,9.3-1.4C1033.4,460.4,1033.8,461.4,1034.2,462.3z"/>
	<path class="st1" d="M918.8,451.5c-8.2,2.9-16.3,5.8-25.4,9c7-10.1,11.6-11.6,25.6-8.9C919,451.7,918.8,451.5,918.8,451.5z"/>
	<path class="st1" d="M1011.3,518c2.7-2.7,4.8-1.7,6.7-0.1c0.5,0.5,0.9,1.8,0.6,2.5c-0.3,0.5-1.7,0.9-2.3,0.7
		C1014.6,520.2,1013.1,519.1,1011.3,518z"/>
	<path class="st1" d="M968.6,500.7c-1.7-0.3-3.4-0.6-4.9-1.1c-0.3-0.1-0.1-1.5-0.1-2.4c0.4,0,1.1-0.1,1.3,0.1
		c1.2,1.2,2.3,2.5,3.4,3.7C968.3,501.1,968.6,500.7,968.6,500.7z"/>
	<path class="st2" d="M679,1210.8c12.2-5,11.6-5.4,19.7-18.3c7.7-12.3,17.6-23.1,30.1-30.7c8.6-5.2,17-10.1,22-19.9
		c2.8,1.6,5.1,2.5,6.8,4.1c5,4.8,9.8,9.9,14.7,14.9c1.7,1.8,3.5,3.6,5.5,5.1c4.5,3.5,8.3,2.8,11.2-2.1c3.3-5.5,6.3-11.3,9.8-16.7
		c2.7-4.1,5.6-8.2,11-10.6c5.4,2.8,9.1,7,12.2,12.4c7.7,13.3,15.9,26.4,23.9,39.5c0.8,1.3,1.8,2.5,2.9,3.4
		c16.3,14.6,32.1,29.9,54,36.5c4.2,1.3,7.9,4.2,11.9,6.1c3.9,1.9,8,3.5,12.2,5.4c-3.2,5.7-8.3,5.3-12.2,4.3
		c-11-2.8-22.2-5.8-32.6-10.3c-13.3-5.8-25-14.4-35.5-24.5c-10.6-10.2-24.5-12.9-38.1-15.7c-3.6-0.7-7.9,0.7-11.6,2
		c-6.7,2.4-13.4,3.6-20.4,4.1c-4.4,0.3-8.8,1.7-13.2,2.6c-3.4,0.7-6.8,2-10.2,2.1c-11.3,0.1-21.4,3.8-31.6,8.1
		c-8.7,3.6-17.7,6.7-26.8,9.3C683.9,1225,681.7,1223.2,679,1210.8z"/>
	<path class="st2" d="M785.8,1093.2c9.3,7,14.5,16.5,20.7,26.2c-7.8,9.7-15.5,19.2-23.7,29.4c-7.4-3.5-13.3-8.5-18.3-14.6
		c-8-9.9-15.9-11.5-23.4-2.5c-8.1,9.7-18.6,16.1-27.8,24.3c-10.6,9.4-19.9,19.4-26.8,31.7c-3.2,5.7-7.5,7.6-14.6,4.4
		c0.9-2.3,1.3-4.6,2.7-6.3c6.8-8.6,13.8-17,20.7-25.5c1.6-1.9,3.6-3.7,4.4-6c5.7-15.8,20.1-21,33.2-27.9c3.5-1.8,7.4-2.9,11-4.6
		c5-2.3,10.1-3.8,15.8-3.4c8.5,0.6,14.1-3.7,17.1-11.6C778.8,1101.8,780.3,1096.4,785.8,1093.2z"/>
	<path class="st2" d="M859.5,1179.7c-2.5-1.6-4.2-2.1-4.7-3.2c-7.1-15.3-20.7-26.7-25.8-43.4c7.3,0.2,16.9,5.1,20.5,11.6
		C855.3,1155.2,858.4,1166.6,859.5,1179.7z"/>
	<path class="st1" d="M945.1,1233.2c-2.1,1.2-4.2,2.3-7,3.8c1.1-6.1,4.3-4.5,7.2-3.5C945.4,1233.5,945.1,1233.2,945.1,1233.2z"/>
	<path d="M615.5,423.8c-7.2-3.4-23.5-4.7-37.5-3.9c-13.2,0.8-25,5.7-37.8,12.1c-0.3-5-0.5-8.7-0.8-12.8c10.5-5.3,20.7-8.1,31.9-8.8
		c18.6-1.1,36.9,1.5,55.2,4c14,1.9,27.9,1.6,41.8,0.7c9.6-0.7,19,1,28.2,2.9c7.8,1.6,15.1,5.1,21.4,10.3c6.5,5.4,13.6,10,22.1,11.7
		c2.2-2.4,0.1-3.9-1.3-4.8c-6.1-4.2-12.1-8.8-18.7-12.2c-18.2-9.5-37.4-16.5-57.7-20.1c-11.3-2-22.5-4.6-33.6-7.3
		c-6.9-1.6-13.7-2.8-20.7-1.2c-0.5,0.1-1,0.3-1.5,0.2c-11.1-2.5-22.2-4.8-33.2-7.6c-1.1-0.3-1.5-3-2.5-5.2
		c7.9-1.9,14.8-1.7,21.6-0.4c20.6,3.9,41.2,7.7,61.6,12.1c21.9,4.7,43.9,9.2,64.3,19.3c10.8,5.3,21,11.5,30.7,18.5
		c9.7,7,14.4,16.2,13.3,28.2c-0.1,1.4,0.1,2.9,0.3,5.4c5,1.6,10.1,3.3,16.2,5.4c-0.4,6.2,3.5,13.4-3.1,20.4c-3-1.6-5.8-2.6-8.1-4.3
		c-4.5-3.5-9.6-4.2-13.8-0.9c-6.6,5.2-15.1,4.5-22,8.8c-6.2,4-13.4,6.6-20.3,9.4c-5.2,2.1-10.2,3.8-12.1,10
		c-0.4,1.5-2.6,2.8-4.3,3.6c-3.1,1.6-6.4,3.7-9.7,3.8c-11.2,0.6-21.1,5.7-31.7,8.1c-6.3,1.4-12.8,2.5-19.2,2.6
		c-17.9,0.5-35.9,1.3-53.8-0.5c-6.9-0.7-13.9,0.6-20.8,0.9c-2.7,0.1-5.4-0.6-5.7-3.4c-0.2-2.2,0.6-5,2-6.6c1.5-1.6,4.2-2.9,6.5-3
		c6-0.2,12.2-0.6,17.9,0.7c18.2,4.2,36.8,2.6,55.2,4c5.6,0.5,11.7-2.1,17.3-4.1c8.9-3.2,17.3-7.7,27-8.4c0.7-0.1,1.4-1.2,2.8-2.4
		c-1.3-0.7-2.3-1.8-3.3-1.8c-4-0.1-8,0.1-11.9,0.3c-2,0.1-3.9,1.1-5.9,1.2c-22.9,1.1-45.6,5.5-68.6,2.3c-17.6-2.4-34-7.3-48.2-18.6
		c-4.2-3.4-9.5-5.4-14.3-8c-3.5-1.9-7.2-3.6-10.4-5.9c-5.5-4-6.5-7.4-4.5-14.3c0.5-1.8,1.5-3.5,2.2-5.2c-5.5-4.3-10.9-7.9-15.5-12.4
		c-5-4.8-3.6-10.6,3.6-16.2c7.7,12.5,20.6,17.7,33.4,23.5c16.4,7.4,32.9,14.2,50.5,18.6c8.7,2.2,14.1,2.4,23.3,0
		c-1.5-11.8-3.1-23.6-4.7-36.1c-7.6-3-16.2-1.8-24.5-2.8c-1.9-0.2-4.3,0.4-5.8-0.5c-1.3-0.8-2.2-3.1-2.4-4.8c-0.1-1,1.5-3,2.5-3.1
		c3.9-0.3,7.9-0.2,11.8,0.1c6,0.5,11.9,1.4,17.9,1.8C610.9,427.4,614.1,427.2,615.5,423.8z M527.2,462.2c-0.9,8.1,4.4,10.8,8.7,13.9
		c4.5,3.2,9.4,5.6,14,8.6c24.9,16,51.5,21.8,81.2,17.2c16.5-2.5,33.6-2.3,50.4-4.3c1-0.1,2-0.1,3,0.1c11.4,2.2,21.7-1.2,31.6-6.3
		c1.5-0.8,2.5-2.3,5.6-5.3c-12.8,0.7-23.1,1.4-33.4,1.7c-17.4,0.5-34.9,1.8-52.2,0.7c-18.8-1.1-37.6-4.4-56.3-7.1
		c-3.8-0.6-7.5-2.5-11.2-4c-12-4.9-23.9-10-35.9-14.9C531.4,462,529.8,462.3,527.2,462.2z M749.4,474.1c-2.3-3.4-5.4-5.9-5.7-8.7
		c-0.7-7.1-5.2-10.3-10.7-13.1c-8.5-4.2-17.1-7.8-26.7-8.8c-9.3-1-18.6-2.5-27.6-6.1c-7.1-2.9-10.8-2.4-18.7-0.3
		c2.8,2.6,5.8,4.5,7.8,7.2c6,8.1,9.2,16.5,1.4,25.6c-1.3,1.6-1.5,4.2-2.5,7.4c6,0.7,10.9,2,15.7,1.6
		C704.6,477.1,727,477,749.4,474.1z M705.3,434.3c-9.4-9.1-22.5-11.8-39.2-8.8C678.5,429.9,691.1,433,705.3,434.3z M650.8,457.6
		c-1.3,2-2.2,3-2.6,4.1c-0.2,0.7,0.6,1.6,0.9,2.5c1.1-0.7,2.7-1.2,3-2.1C652.5,461.2,651.5,459.8,650.8,457.6z M633.9,453
		c0.5-0.7,1-1.4,1.3-2.2c0.1-0.3-0.3-0.8-0.5-1.3c-0.6,0.3-1.8,0.7-1.8,1C633,451.4,633.5,452.2,633.9,453z"/>
	<path d="M1152,529.1c-0.6,1.5-1,3-1.6,4.3c-1.4,2.8-5.3,3.9-7.5,1.9c-1.8-1.6-3.7-3.4-4.9-5.5c-4.3-7.3-8.4-14.6-12.4-22
		c-2.1-3.9-1.4-7.4,1.6-9c3.2-1.7,7.2-1.3,9.3,2c5.1,7.9,9.9,16,14.6,24.2C1151.9,526.1,1151.8,527.7,1152,529.1z"/>
	<path class="st1" d="M527.2,462.2c2.6,0.1,4.2-0.2,5.4,0.3c12,4.9,23.9,9.9,35.9,14.9c3.7,1.5,7.3,3.5,11.2,4
		c18.7,2.7,37.5,6,56.3,7.1c17.3,1.1,34.8-0.2,52.2-0.7c10.3-0.3,20.7-1,33.4-1.7c-3,2.9-4.1,4.5-5.6,5.3
		c-9.9,5.1-20.2,8.5-31.6,6.3c-1-0.2-2-0.2-3-0.1c-16.8,2-33.8,1.8-50.4,4.3c-29.7,4.5-56.3-1.3-81.2-17.2c-4.6-2.9-9.5-5.4-14-8.6
		C531.6,473,526.3,470.3,527.2,462.2z"/>
	<path class="st1" d="M749.4,474.1c-22.4,2.9-44.8,3.1-67,4.9c-4.8,0.4-9.7-1-15.7-1.6c1-3.2,1.1-5.9,2.5-7.4
		c7.8-9.1,4.6-17.5-1.4-25.6c-2-2.7-5-4.6-7.8-7.2c7.9-2.1,11.6-2.6,18.7,0.3c8.9,3.6,18.2,5.1,27.6,6.1c9.7,1,18.2,4.6,26.7,8.8
		c5.5,2.8,10,5.9,10.7,13.1C744,468.1,747.1,470.7,749.4,474.1z"/>
	<path class="st1" d="M705.3,434.3c-14.2-1.2-26.8-4.4-39.2-8.8C682.8,422.4,695.9,425.1,705.3,434.3z"/>
	<path class="st1" d="M650.8,457.6c0.7,2.2,1.7,3.6,1.4,4.5c-0.3,0.9-1.9,1.4-3,2.1c-0.3-0.8-1.1-1.8-0.9-2.5
		C648.6,460.5,649.5,459.6,650.8,457.6z"/>
	<path class="st1" d="M633.9,453c-0.4-0.8-0.9-1.6-1-2.5c0-0.3,1.1-0.7,1.8-1c0.2,0.4,0.7,1,0.5,1.3
		C634.9,451.6,634.3,452.3,633.9,453z"/>
</g>
<g>
</g>
<g>
</g>
<g>
</g>
<g>
</g>
<g>
</g>
<g>
</g>
<g>
</g>
<g>
</g>
<g>
</g>
<g>
</g>
<g>
</g>
<g>
</g>
<g>
</g>
<g>
</g>
<g>
</g>
</svg>
