<svg xmlns="http://www.w3.org/2000/svg" id="sakana" viewBox="0 0 666.41 301.76"><defs><style>.cls-1{fill:#fff;}.cls-2{fill:#fdfdfc;}.cls-3{fill:#726451;}.cls-4{fill:#95846d;}.cls-5{fill:#504335;}.cls-6{fill:#fefefe;}</style></defs><g id="レイヤー_2" data-name="レイヤー 2"><g id="レイヤー_1-2" data-name="レイヤー 1"><path d="M459,191.33c1.17,6.72,3,14,3.52,21.44.37,5.53-.79,11.23-1.77,16.77-.75,4.23-2.87,4.69-6.35,2.2-2.27-1.63-4.62-4-7.14-4.3-13.77-1.75-25.44-8.61-37.35-14.81a16.07,16.07,0,0,0-13.32-.95c-10.6,3.41-21.21,6.83-32,9.52-5.52,1.38-11.43,1.2-18.15,1.82,7.83,20.82-2.46,38.64-10.1,56.93-.64,1.52-2.21,2.65-3.65,4.32l-8.2-9.4c-3.58,9.1-2.66,19.34-8.09,26.89-10-10.91-19.46-20.9-28.47-31.31-9.22-10.68-16.29-22.38-14.24-37.48a50.22,50.22,0,0,0,0-6.71c-45.15-1.07-89.69-3.26-132.61-18l-.78,1c1.15,2.23,2.13,4.57,3.48,6.68a24,24,0,0,1,3.9,16.6c-.71,5.44-.81,10.95-1.27,16.42-.57,6.9-3.1,8.59-8.78,5.13-13.81-8.43-23.76-19.71-25.14-36.75-.31-3.81-.91-7.61-1.11-11.42-.48-9.39-6.58-15.4-12.8-21.21-3-2.83-6.3-5.75-10-7.35-13-5.6-26.33-10.64-39.52-15.9l-1.62,1.65c.57,1.58.82,3.39,1.76,4.7,4.81,6.7,5.19,19.58.36,26.36-.67.95-2.43,1.14-3.68,1.68-.17-1.17-.84-2.56-.44-3.47,6.11-13.75-2.55-23.86-8.45-34.63a5.16,5.16,0,0,0-2.21-2c-8.92-4.15-13.09-12.46-17.82-20.27-2.5-4.12-2.33-8,1.72-11a109.54,109.54,0,0,1,11.84-8.09c11.6-6.5,23-13.67,35.13-18.84,43.9-18.65,87.68-37.73,133.46-51.49a127.63,127.63,0,0,1,25.46-4.69c15.37-1.34,28.71-6.86,40.06-17.16C275,14.91,287.56,9.47,299.78,3.53c4.77-2.33,10.56-2.87,16-3.47,6.38-.7,10.35,4.43,9,10.77-.11.49-.14,1-.23,1.48-1.64,9,.37,11.12,9.51,11.92a182.42,182.42,0,0,1,20.57,3.34,12.53,12.53,0,0,1,6.05,3.25c9,9.11,20.75,13,32.36,17,9,3.14,13.08,9,12,18.57-.5,4.48.83,8.11,4.81,10.09q19.81,9.84,39.85,19.26c7.93,3.76,15.81,7.73,24,10.76,18,6.65,35.95,10.36,55.36,3.21,8.4-3.09,17.47-4.74,25.1-9.66,6.82-4.39,13.05-9.73,19.47-14.73,16.29-12.67,32.54-25.35,51.2-34.58,6.32-3.13,12.11-3.74,18.61-1.08,15.31,6.25,18.44,11.88,13.43,29-3.64,12.45-11.81,22.58-20,32.47a87.47,87.47,0,0,1-7.64,7.89c-13.84,13.07-11,24.86,2.57,37.11q14.38,13,27.84,27a23.09,23.09,0,0,1,6.42,20.25c-2,12.55-15.79,21.56-30.2,20.31a86,86,0,0,1-32-8.82,23.38,23.38,0,0,0-4.14-1.73c-22.19-6.28-40.57-20.49-61.46-29.33-10.06-4.25-21.41-5.59-32.28-7.68-2.65-.5-5.8,1.08-8.62,2C484.71,182.43,472.08,186.83,459,191.33Zm73.43-32.51c-5.19,5.5-5.19,5.5,2.42,7.58a2.6,2.6,0,0,1,.47.16c9.22,4.55,18.83,8.47,27.56,13.81,10.44,6.39,20.74,12.48,33,14.81,4.32.82,8.36,3.16,12.52,4.8,8,3.16,15.93,6.59,24.05,9.41,7.36,2.56,12.47.38,16.71-6,5.17-7.82,1.08-14.46-2.92-20.75-7.59-11.94-20-18.89-30.56-27.54-9.8-8-12.6-17.46-6.25-28.31a42.94,42.94,0,0,1,3.58-5.41c6.39-7.89,13.1-15.53,19.22-23.61A178.86,178.86,0,0,0,644.52,79c3.38-5.87,2.14-11.64-2.63-16.37-5-5-7.33-5.47-14.52-1.12-6.37,3.86-12.31,8.45-18.31,12.89-15.21,11.27-29.93,23.26-45.68,33.68-7.71,5.11-17.32,7.35-26,11-2.5,1-4.85,2.44-7.49,3.78,5.54,7.58,8.2,14.15,2.29,21.44-.55.68-.38,2.18-.14,3.21.72,3.11,1.65,6.17,2.4,8.88a47.35,47.35,0,0,1,6.37,1.86C551,162.75,561,167.68,571.26,172c18.65,7.86,37.42,15.43,56.18,23a21.36,21.36,0,0,0,7.64,1.86c5.71,0,7.8-3.54,4.44-8a83.73,83.73,0,0,0-12.22-13c-8.54-7.39-18-13.74-26.13-21.56-8.94-8.63-9.66-15.86-2.89-26.4s15-20.33,22.2-30.69a138.32,138.32,0,0,0,9.36-16.36c.66-1.28.41-4-.51-4.81s-3.58-.89-5-.23a38.34,38.34,0,0,0-9.3,5.74c-21.5,19.28-47.71,30.64-73,43.59-1.13.58-3-.23-4.49-.39,0-.55.08-1.09.13-1.64l4-1.94c12.06-6,24.63-11.15,36.07-18.15,13.58-8.32,26.17-18.25,39.24-27.42,2.29-1.61,4.66-3.64,7.26-4.15s6.32-.24,8.08,1.33c1.48,1.31,1.55,5.16,1,7.6-1.84,8.18-7.36,14.32-12.18,20.91-7.63,10.43-15,21.06-21.92,32-3.56,5.64-2.33,11.71,2.3,16.54A141.68,141.68,0,0,0,614,161.18c4.38,3.56,9.57,6.21,13.61,10.09,5.66,5.45,12.91,9.56,15.84,17.53,1.91,5.17-.22,9.93-5.71,10.25-4.28.25-8.8-.9-13-2.23-4.39-1.4-8.39-4-12.72-5.64-23.26-8.91-46.59-17.64-69.83-26.62C538.94,163.3,536.07,161,532.46,158.82ZM370,44.8l-1.35-2.38L349.28,54.83l-1.1-1.32c1.08-7.88,11-7.74,14.37-14.48-11.68-.44-16.95,11-26.72,13.29,4.62-8.69,14.45-11.49,20.34-18.81-13.43,1.24-21.78,12.12-33.7,17.87,1-7,7-8.11,10.84-11.12,4.27-3.33,8.91-6.17,13.39-9.22-.28-.47-.56-.94-.83-1.41-14.93-.89-22.53,12.48-35.11,19,.39-2.21.25-4,1-5.14A16,16,0,0,1,316,40c5.25-3.67,10.55-7.27,15.83-10.9l-.63-1.39c-3.14,1.13-6.58,1.78-9.37,3.48-6.37,3.9-12.42,8.33-18.65,12.47a32.79,32.79,0,0,1-4.07,2l-.72-1.32c6-8.61,15.92-12.4,24.17-18.18-1.34-4-3.49-4.56-6.78-2.36-8.41,5.62-17,11-25.32,16.74-2.45,1.68-4,2.15-5.36-1.21a36.14,36.14,0,0,1,4.12-3.55c8.52-5.47,17.08-10.9,25.7-16.21,4.33-2.65,4.69-3,3.73-8.11L272.53,40.15c.81-2.35,2-4.81,3.93-6,12.76-8.11,25.69-16,38.56-23.89,1.77-1.09,3.57-2.14,5.36-3.21l-.49-1.84c-2.54.4-5.55,0-7.54,1.32-16.11,10.26-32,20.84-48,31.31-1,.66-2.09,1.2-3.51,2,.75-3.74,9.61-11.78,20.31-18.65,7.67-4.93,15.5-9.6,23.26-14.38l-.89-1.4c-19.66,7.72-36,20.84-53.12,33.44l16,20.69c8.56-3.45,6.77-10.67,7-17,10.61,3.15,13.81,11.31,16.19,20.26a19.19,19.19,0,0,0,3.55,6.8c5.28,6.6,10.83,13,16.23,19.5a7.35,7.35,0,0,1,1,2.27c2.76,7.86,5.51,15.72,8.36,23.89,5.11-3.37,6.44-8.15,5.53-13.25-.61-3.46-2.76-6.63-4.06-10a14.2,14.2,0,0,1-.44-3.49,18.2,18.2,0,0,1,3.72,1.21c.61.34.73,1.46,1.19,2.13,2.69,3.93,5.15,8.06,8.19,11.7,3.48,4.17,7.21,8.38,6.71,14-.71,8.06,3.64,14.15,6.37,21.14,7.08-7.79,7.95-17.38,2.26-25.56-2.09-3-1.77-5.35.34-8.08,6-7.82,6.4-11.78,1.26-19.87-2-3.19-1.91-4.93,1.26-7.31,8.34-6.27,8.58-8.38,2.86-17.21-1.65-2.57-1.36-3.65,1.41-5.32C360.43,52.23,365.13,48.35,370,44.8ZM74.64,165.61c8,4.18,15.22,7.95,22.44,11.67,4.68,2.41,9.78.41,10.26-4.8a19.81,19.81,0,0,0-2.42-11.08c-1.76-3.07-1.12-3.91,1.45-5.21,1.87-.94,4.13-1.89,5.19-3.5,6.23-9.5,3.5-22.81-6-29.28,9.53-9.69,9.09-19.31-1.2-28.33,4.08-3.49,9.77-5.39,7-12.6-6.49,2.42-13,4.37-19.12,7.19-17,7.88-34.13,15.71-50.74,24.42-6.17,3.24-11.4,8.56-16.39,13.58a10.29,10.29,0,0,0-2.29,8.4,22.92,22.92,0,0,0,14.79,16.15c4.45-4.33,4.9-4.12,8,.87A11.62,11.62,0,0,0,51,157.66a75.81,75.81,0,0,0,12.09,2.91c16.86,3.22,39.75-4.21,43.05-26.2a26.49,26.49,0,0,1,1.11-3.53C111.23,144.29,96.82,159.57,74.64,165.61ZM246.16,83.82c7.61-3.47,8.46-13.2,3.13-18.67-3-3.1-4-5.64-.49-9.67,1.76-2.06,1.6-6.72.69-9.72-.44-1.46-4.57-2.51-7-2.54-6.14-.06-12.4-.06-18.4,1.06-11,2-21.86,4.93-32.66,7.43a12.87,12.87,0,0,0,.34,2.19,12.81,12.81,0,0,0,1,1.74c5.89,9.06,8.52,18,.25,27.35-.89,1-.57,4.09.32,5.5,3.28,5.16,3.59,10.39.77,15.57-1.72,3.15-4.31,5.82-6.63,8.86,5.46,9.45,11,19,16.53,28.63,5.83-5.81,6.67-12.66,1.95-19.39-2.13-3-2.31-5.53-.5-8.68a49.45,49.45,0,0,0,3.51-8.22c1.54-4.33.41-8.14-2.63-11.51-5-5.52-5-5.54.23-10.63,5.92-5.8,6.78-12.86,2.48-18.85a23.69,23.69,0,0,1-2.38-5c-.05-.12,1.25-1.05,1.38-.94a27.08,27.08,0,0,1,4.89,4.53c.92,1.25.91,3.15,1.5,4.69a17.18,17.18,0,0,0,2.18,4.37c6.86,8.94,13.82,17.79,20.75,26.68,5.74-5,3.78-12,2.64-18.89l1.59-.53ZM273.05,218.6c7.17,1.76,6.87,1.72,5.86,8.19-1.58,10.15-2.18,20.43,4.33,29.29,4.89,6.65,10.49,12.78,15.78,19.14,2.26,2.73,4.54,5.45,6.81,8.17l1.87-1.57a44.67,44.67,0,0,0-3.76-5.95c-5.68-6.53-11.9-12.63-17.18-19.45a29.27,29.27,0,0,1-5.93-12.8c-1-6.33-.28-12.94,0-19.42.07-1.53,1.36-3,2.09-4.51l1.68.54a40.55,40.55,0,0,0-.22,5.27c.63,8-2.09,16.86,2.83,23.88,6.59,9.43,14.44,18,21.74,26.92l1.09-.69a38.18,38.18,0,0,0-1.25-4.67c-2.24-5.53-4.94-10.9-6.85-16.55-3.38-10-6.44-20.16-9.31-30.35-.49-1.72.65-3.9,1-5.73,4.44,12.67,8.31,25,13.1,36.89,3.14,7.82,7.39,15.18,8.13,23.81.23,2.75.57,5.48.87,8.22l2,.08c.68-5.83,2.73-11.9,1.75-17.44-2.11-12-5.73-23.81-8.81-35.67-.88-3.37-2.16-6.64-3-10a2.31,2.31,0,0,1,4-2.33,11.38,11.38,0,0,1,2,3.41,124.2,124.2,0,0,1,12.11,38.34c.31,2.18,1.56,4.22,2.38,6.33l1.93-.55c-.91-7.16-1.3-14.44-2.9-21.44-1.51-6.59-4.12-13-6.6-19.29-1-2.66-3-5-5-8.16,1-5.33,7.46-11.73.28-18.91a52.61,52.61,0,0,1-4.38,3.44,42.3,42.3,0,0,1-4.4,2.1,13.8,13.8,0,0,1,3.77-5.68c4.27-4.28,5.36-11.23,1.79-15.92-1.09-1.43-5.21-2.64-5.95-1.92-6,5.82-13.85,9.64-17.41,18.14-1.7,4-6.18,7-9.47,10.33C277.57,214.3,275.28,216.43,273.05,218.6ZM533.86,115.81l1.34,1a11.86,11.86,0,0,0,1.47-.24c18.36-5.38,34.22-15.59,48.87-27.27,13.5-10.77,25.51-23.36,41-31.56,6.26-3.31,10.46-3.35,16.14.88,7,5.25,9.13,14.66,4.13,22.24-6.57,10-13.79,19.52-20.72,29.27-5.1,7.16-10.44,14.16-15.14,21.57-3,4.72-2.49,10.06,1,14.46a64.41,64.41,0,0,0,8.56,8.18c12,10.26,25.4,19,32.25,34.52,2.79,6.28,1.92,10.44-1.45,15.34-6.13,8.92-9.13,10.19-19.73,8a23.48,23.48,0,0,1-2.87-.81c-15.64-5.58-31.35-11-46.87-16.85-5.86-2.22-11.28-5.6-16.9-8.46l-33.36-17c-1.5,3.8-1.32,5.69,1.66,7.09,4.36,2,8.54,4.47,12.79,6.76,11.84,6.37,23.44,13.26,35.6,19,11.84,5.57,24.19,10.08,36.41,14.8,12.65,4.88,25.22,6,37.26-2,5.43-3.58,7.4-8.58,6.76-15-.91-9.22-5.79-16.08-12.35-22.06-8.22-7.51-16.48-15-24.72-22.46-10.24-9.32-12.55-26-.23-37.29a144.59,144.59,0,0,0,18.25-21.08c6.44-8.78,11.46-18.5,11.2-29.84-.07-2.87-1-6.89-3-8.33-7.35-5.27-15.26-8.15-24.69-4.09-14.87,6.41-27.5,16.09-40.23,25.74-15.59,11.82-29.93,25.61-49.51,31.18C535.52,111.79,534.83,114.3,533.86,115.81ZM267.31,175.05a186.43,186.43,0,0,1-30.53,31.79c2.93-7.91,9-15.38,0-23.58-2.63,8.47-9.71,11.07-17.55,14.52.59-2.05.62-3.43,1.3-4.32,3.3-4.33,3.61-9,.71-13.45-1.72-2.65-3.8-2.89-5.46-.28-3.46,5.44-7.27,10.8-9.69,16.7-2.78,6.8-4.16,14.17-12.21,17.08-.3.11-.36.85-.78,1.92,1.72.58,3.32,1.5,5,1.62q32.83,2.44,65.69,4.64a6.92,6.92,0,0,0,4.25-.89c5.19-3.79,6.92-15,2.43-19.52-3.06-3.06-2.2-5.25-1.26-8.6C270.78,187.12,272.44,181.19,267.31,175.05ZM139.58,240.53c-2.14-5.28-4.08-10.64-6.46-15.8-3.18-6.91-7-13.56-10-20.55-1-2.46-.49-5.61-.66-8.45,2.81,4.86,4.19,9.84,6.43,14.4,4.14,8.41,8.78,16.57,13.25,24.82.1.18.59.14.93.21,2-5.33,1.78-10.4-1.56-15.18-4-5.68-7.85-11.41-11.91-17-1.61-2.24-2.89-4.16.35-6l5.61,3.13c7.17-7.23,8-20.9,1.26-28.48-1.67,11.09-10.29,15.77-18.18,22.39,0-4.49.61-8-.14-11.3-1.47-6.37-6.4-7.6-11-3.14-1.16,1.12-2.23,2.33-3.54,3.7,3.37,4.94,6.58,9.64,10.24,15v-7.77l1.81-.31c1.21,5,2.63,10,3.59,15.09C122.21,219.06,125,232.6,139.58,240.53Zm201-25.07c3.52.75,5.6,1.11,7.64,1.64,8.1,2.09,13.06-1.65,12.29-10-.21-2.36-2.2-5.51-4.24-6.46s-5.69-.37-7.59,1a59.93,59.93,0,0,0-10.41,10c-3.7,4.38-6,9.28-4.77,15.52,2.28,11.13,4.08,22.36,6,33.17C349.73,246.64,343,231.48,340.61,215.46Zm65.92-37.27c-2.79,4.7-6.64,8.86-7.71,13.64-1.12,5.07-2.79,9-6.74,12.15a63.83,63.83,0,0,0-4.56,4.47c7.09-1.06,13.34-3.49,18.93-2.42s10.78,5.61,16.13,8.62c.72.41,1.5.72,2.21,1.14,8.55,5,18,6.82,27.81,8.19a48.93,48.93,0,0,0-9.71-6.68c-7.45-3.63-15.15-6.76-22.61-10.37-2.89-1.4-5.84-3.05-4.85-7.51.31-1.38-1.4-3.21-2.18-4.84l-5.86,3C411.47,186,411.41,183.56,406.53,178.19Zm44.27,38.2,1.06-1.14c-1.65-2.24-3.05-4.74-5-6.65-3.68-3.6-7.87-6.69-11.46-10.37-1.39-1.42-2.62-4-2.38-5.85.91-7-.51-10-7.51-13.13-2.3,2.54-5,4.88-6.83,7.79-1.07,1.74-1.07,4.42-.83,6.6.31,2.83,1.33,5.57,2.31,9.34ZM319.1,198.57c4.6,5.48,4.75,11.15,2.58,17.2a8.45,8.45,0,0,0-.6,4.78c1.44,4.9,3.59,9.6,4.91,14.52,2.29,8.59,4.18,17.3,6.24,26,.28,1.17.57,2.34.85,3.51a5.51,5.51,0,0,0,.89-3.93c-1.6-12.32-3.37-24.62-4.8-37-.26-2.22,0-5.17,1.33-6.79,5.79-7.3,4.67-19.61-2.93-25.86-1.47,1.27-3,2.54-4.47,3.86C321.87,196,320.69,197.09,319.1,198.57Zm81.06-131-1-.79c-1.83,1.48-5.23,3-5.2,4.45.1,4.35.61,9.19,2.68,12.86,3,5.3,7.53,9.73,11.53,14.7,8.85-4.08,9.73-12,1.33-18-2.43-1.73-4.76-3.62-7.32-5.12C398.72,73.6,397.26,71.26,400.16,67.52ZM370.22,81.27c5-1.78,9.11-4,8.47-9.83-.44-4.06,1.07-6.54,4.49-8.51a108,108,0,0,0,9.45-6.46,14.92,14.92,0,0,0,2.26-2.54l-.88-1c-7.34,2.16-12,8.67-18.55,12.32-2.74-3-1.16-4.71,1.32-6.44,3.38-2.36,6.61-4.91,10.89-8.12-4.81-.26-16.69,7.2-17.77,10.09-.16.42.07,1-.06,1.43-.77,2.53-1.06,5.43-2.54,7.46-1.79,2.44-2.09,4.31-.38,6.67C368,77.8,368.94,79.35,370.22,81.27ZM326.6,135.42c6.13-4.3,10.27-12.38,9.43-18.38-.69-4.89-2.87-8.86-6.66-10.81-2.83,4.69-5.4,8.82-7.83,13-.64,1.12-1.52,2.8-1.12,3.72C322.25,127.21,324.49,131.26,326.6,135.42Zm55.31-6.52c2.15,5.71,4,10.63,5.85,15.53,7.55-3.37,10.45-8.35,10.17-17-.17-4.88-2.2-8.1-7.36-9.34ZM385.57,176c7.67-3,11.41-7.76,11-13.81-.35-4.86-3.89-8.71-9.31-10.12C377.69,163.88,377.64,164.41,385.57,176ZM400,60.6,399.35,59c-1,.15-2.29,0-3.08.52-3.89,2.55-7.67,5.24-11.42,8a2.92,2.92,0,0,0-1.25,2c.47,7.12-3.8,11.59-9,15.57,1.23,1.82,2.22,3.32,3.24,4.8s2,2.94,3,4.33c10-4.28,12.84-13,7.14-21.47-1.77-2.65-1.31-3.83,1.5-5.29C393.17,65.52,396.5,62.91,400,60.6Zm-23.56,98.93c8.25-5.41,9.36-20.1,1.26-26.82L367.42,144C370.39,149.11,373.41,154.33,376.43,159.53Zm9.21,44.76c2.46-1.94,4.51-3.57,6.58-5.18,3.08-2.4,3.91-5.86,2-8.81-2-3.14-5.19-5.55-8.07-8-.29-.25-2.32.88-3,1.78-2.43,3.32-4.61,6.8-7,10.38ZM324,170.56l7,14c8.43-2.78,12.13-12.53,7-20.68-2-3.23-5.15-3.73-7.8-.91C327.76,165.57,325.64,168.53,324,170.56Zm70.13-82c-9.41,9.07-9.65,11.39-2.66,22.7,5.6-1,9.36-4.64,10.27-9.85C402.86,95,399,91.66,394.13,88.54ZM157,176.06c-2.27,3.36-4.46,6.46-6.45,9.68a4.06,4.06,0,0,0-.47,3.06c1.71,4.7,3.64,9.33,5.49,14C166,195.67,167,181.62,157,176.06Zm290.49-.51c-2.48,2.89-5,5.75-7.42,8.64-3.21,3.79-4.15,9.79-1.52,12.31,3.92,3.77,8.21,7.17,12.34,10.72l1-.65c-2.05-5.7-4.11-11.4-6.15-17.06C452.36,182.92,452.72,179.41,447.49,175.55ZM282.14,156.1a21.72,21.72,0,0,0,9.3-15.9c.54-5-1.67-9.24-6.42-12-2.22,3.65-4.45,7-6.26,10.51a7.26,7.26,0,0,0-.11,4.48C279.64,147.39,280.89,151.55,282.14,156.1Zm129.64-8.3c9.74-7.26,10.6-19.12,2.11-25.17C404.41,132.94,404,136.92,411.78,147.8Zm-218.3,62c5.46-5.56,9.26-11.4,9.24-18.89,0-3.62-.86-7.47-4.84-9.16-1.94,3.82-3,8-5.61,10.65-5.05,5.16-4.84,9.77-.53,14.9C192.16,207.83,192.49,208.4,193.48,209.83Zm39.93-70.6-9.13,10.39,5.51,12.85c4.48-2.05,8.87-3.92,9.72-9.22C240.41,147.64,238.76,142.82,233.41,139.23ZM128,157.38c-1.54,3.32-2.62,6.5-4.4,9.22s-4.23,4.86-6.48,7.35q3.43,4.86,6.76,9.6C133.82,178,135.72,165.62,128,157.38Zm35.81-51.08c5.69-3.62,7.84-9.27,7.81-15.83,0-4.58-2.79-7.48-6.8-9.32C159.11,89.25,155.21,97.25,163.78,106.3Zm82.4-11.46c-7.84,8-8.42,9.35-5.43,15.66,1.47,3.12,3.64,5.9,5.5,8.83,1.85-3.2,4.08-6.24,5.48-9.62C254.17,103.83,252,98.43,246.18,94.84Zm-74.66,66c-2.43,3.48-4.94,6.91-7.24,10.47-.6.93-1.1,2.5-.72,3.38,1.69,3.9,3.71,7.66,5.63,11.51C179.09,179.56,179.85,167,171.52,160.81Zm165.82-30.38c-3.5,4-6.72,7.72-9.35,10.74,1.87,5.1,3.44,9.37,5,13.64C343.32,150.85,345.77,139.92,337.34,130.43Zm-71-63.05-6,10.37,8.56,14.12C278,83.93,277.24,72.37,266.33,67.38Zm-104.16,77.7c-10.26,12.07-10.88,15.45-4.72,24.77C167.37,165.34,169.71,153.69,162.17,145.08Zm116.32,62.64c9.1-5.35,11.87-15.7,6.21-23.27-3.48,2.75-7.07,5.38-10.37,8.33a4.35,4.35,0,0,0-1.13,3.8C274.71,200.39,276.68,204,278.49,207.72Zm85.23-32.2c8.93-8.75,9.51-19.41,1.61-25.45C356.11,160,355.86,163.32,363.72,175.52Zm-18-26.45c-2,2.33-4.14,4.65-6.07,7.11a3.2,3.2,0,0,0-.52,2.61c2,5.56,4.24,11.07,6.34,16.45C354.27,167.35,354.72,154.93,345.77,149.07Zm-33.1,1.38c5.8-2.36,9.21-6.41,9.73-12.3.44-5-1.27-9.4-6.84-12.58-2.06,3.7-5.27,7.07-5.62,10.71C309.52,140.65,311.55,145.25,312.67,150.45ZM183.18,147c-2.38,3-4.64,5.64-6.68,8.46a3.88,3.88,0,0,0-.64,3.07c2.13,5.42,4.48,10.76,6.69,16C189.14,167.3,189.84,152.94,183.18,147ZM356,154.86c7.51-7.8,7.71-20.79.39-25.45C348.08,143.06,348,146,356,154.86ZM191.61,130.49c-1.69,4.61-4.75,8.93-4.34,12.88.51,4.83,3.93,9.36,6.16,14.16C201.11,147.52,200.65,136.49,191.61,130.49Zm205.6-15.87c2.07,5.55,3.85,10.35,5.63,15.12,9-7.77,10.47-20.19,2.57-24.68Zm-30.83,22.84c4.78-2.07,8.7-8.23,7.85-13.52a10.3,10.3,0,0,0-8-8.73c-1.8,2.9-3.64,5.48-5,8.28a5.22,5.22,0,0,0,0,3.94C362.7,130.74,364.52,133.89,366.38,137.46ZM165.66,113.9l-2,.4c-1,1.67-1.84,3.57-3.17,5-5.35,5.63-4.62,11,.45,16.23a32.3,32.3,0,0,0,3.2,2.59c1-1.23,2.5-2.36,2.77-3.73a54.24,54.24,0,0,0,1.49-12.31C168.28,119.32,166.61,116.62,165.66,113.9Zm203-3.83c5.23-1.84,7.16-5.51,7.14-10.48s-1.45-8.91-5.73-11.36l-9,10.38ZM176.24,98.5c-9.62,10.51-9.81,13.76-1.38,23.39C182.45,114.63,183.17,102.38,176.24,98.5Zm120.1,40.73c9-7.11,9.58-18.67,2-23.72-7.21,5-9,11.18-4,18.78C295.25,135.6,295.59,137.27,296.34,139.23Zm76.19,51.56c10.05-7,10.73-18,1.71-22.35C365.66,179.63,365.62,180.06,372.53,190.79ZM279.09,52.12c-2.1,3.21-4.33,6.28-6.14,9.57a4.72,4.72,0,0,0,.22,3.88c2.21,4,4.72,7.84,7.09,11.71C287,71,286.7,59.31,279.09,52.12Zm76.27,118c-10.83,13.38-10.49,9.87-3.79,23.48C360.15,189,361.89,179,355.36,170.15Zm-225-43.72-7.14,15.21c1.36,2.33,3.17,5.44,5,8.51C138.52,145.08,139.38,133.83,130.33,126.43Zm57.84-69.06-8.54,9.36c1.52,2.46,2.9,4.72,4.31,7s2.8,4.35,4.22,6.56C195.88,74.11,195.89,64.47,188.17,57.37Zm204.24,90.47,8.19,13.06c8-7,8-17.11-.43-22Zm-100.1,41.21c5.5-2.47,10.22-5.82,11-12.25.48-4.21-1.4-7.88-5.15-10.42-.75,1.58-1.31,3-2,4.24a30,30,0,0,1-2.67,4.16C288.23,181.16,288.19,181.3,292.31,189.05ZM130,91.62c6-2.59,9.13-9.68,6.59-14.76-.73-1.45-3.4-3.24-4.6-2.89-3.68,1.08-7.08,3.13-11.08,5Zm6.95,72c5.44-1.82,8.93-5.4,9.6-11.23.53-4.56-1.54-7.86-5.76-10.05a69.14,69.14,0,0,1-4.23,7.35C131.65,156.25,131.58,156.69,136.91,163.67Zm36.46-34.52c-1,3-1.16,6.25-2.83,8.22-5.08,6-1,10.56,1.25,15.73C182.22,145.22,183,133.86,173.37,129.15Zm52-37.8c-7.21,10.82-7.26,15.3-.4,23.32C233.27,107.86,233.61,97.24,225.4,91.35Zm83,85.54c6-1.81,10.24-9.33,8.12-14.88-1.11-2.92-3-5.92-6.95-5-3.12.76-6.08,6.73-5.07,9.35C305.83,169.77,307.06,173.18,308.43,176.89ZM142.79,85.39l-8.54,11.52c2.05,2.91,4.38,6.23,6.66,9.49C150.5,101.22,151,91.17,142.79,85.39Zm116,17.54c5.21-3.71,6.27-11.62,2-17.05-3.35-4.24-5.23-4.34-8.88-.44-1.23,1.31-2.42,2.66-3.27,3.59Zm165.72,30.21c7.6-10.15,8.89-20.31.68-22.2l-8,6.78Zm-43.73-32.08c-2.05,3.6-4.07,6.93-5.85,10.4-.59,1.14-1.14,2.82-.72,3.87,1.31,3.27,3.09,6.36,4.71,9.57C387.71,118.49,388.33,106.5,380.76,101.06ZM288.2,94.12c5.72-2,7.84-5,7.95-11,.1-5.1-2.24-8.28-7.09-9.68C282.7,83.31,282.69,83.78,288.2,94.12Zm-146.55,19c-7.11,9.1-7.2,12.83-.5,21.51,4.84-1.55,5.83-2.9,6.33-8.6S145.7,115.18,141.65,113.16Zm146,60.75c8.17-6.63,10.65-18,5.11-23.25L282.6,161.31c1.29,2.57,2.38,4.41,3.16,6.38S287,171.74,287.63,173.91ZM121.91,111c1.69,2.3,3.6,4.63,5.19,7.15,2,3.12,3.94,2.3,6.06.35,5.12-4.69,2.8-15.49-3.32-18.37C127.25,103.66,124.75,107.09,121.91,111Zm-2.22,34.19c-2.9,5-6.14,9.78-8.37,15-.83,1.92.48,5,1.42,7.24.17.4,3.72.07,5.13-.83C124.63,162.25,125.39,150.74,119.69,145.18ZM435,154.13c-14,5.86-13.19,9-5.86,18.82C438,167.33,440,161.05,435,154.13ZM248.57,171c-7.72,9.49-7.74,9.85-1.6,20.83C256.76,184.23,257.52,175.85,248.57,171Zm18-48.34c7.8-5.86,8.46-18.24.55-22.36-1.83,2.66-3.78,5.31-5.49,8.1a3.82,3.82,0,0,0-.31,3C262.93,115.28,264.8,119,266.55,122.69ZM117,106c5.74-1.44,7.89-5.1,7.8-10.32-.09-4.9-1.41-9.08-5.86-10.7l-6.89,12.26Zm222.82,98c10.26-5.68,7.59-14.43,1.15-20.33l-8.29,5.32ZM117.76,114.37c-6.11,7.7-5.44,14.18,2.18,20.93C127.59,129.11,126.53,118.92,117.76,114.37Zm96.68-8.85c-6.89,10.49-7,15.26-.49,23.46C221.15,118.79,221.41,110.47,214.44,105.52ZM299.83,108c8.69-6.58,9.44-15.66,1.9-20.43C293.09,96.2,292.89,98.06,299.83,108ZM232.64,130.2c8.62-6.56,9.55-15.25,2.22-20.61C224.94,123.63,225.39,119.34,232.64,130.2Zm-56.83,74.72c4.79-4,7.22-8.67,7.33-14,.06-2.38-2.18-4.83-3.66-7.82-3.22,3-5.48,5-7.46,7.17-.74.81-1.4,2.44-1.07,3.32C172.27,197.24,174,200.77,175.81,204.92Zm60.39-70.53,8.23,13.22a20.73,20.73,0,0,0,3.3-17.8c-.37-1.42-1.58-3.28-2.78-3.64s-3,.91-4,2A66,66,0,0,0,236.2,134.39Zm-82.67-34.14c-8,7.77-8.14,13-.56,20.79C160.52,114,160.77,104.7,153.53,100.25ZM415.3,113.08c9.51-5.22,11.42-12.93,4.75-19.2C410.17,100.92,409.56,103.36,415.3,113.08ZM214.43,98.39c8.09-5.54,8.5-15.09,1.14-19.93C207.18,88.25,207.18,88.25,214.43,98.39Zm61.41,87.19c9.36-6.46,10.11-14.58,2.29-20.91C269.41,170.78,273.72,178.21,275.84,185.58Zm14-84.78-2,.87c-1.86,6.33-9.26,12.07-1.77,19.75,4.67-3,8.57-6.68,8.24-12.26C294.2,106.29,291.45,103.58,289.87,100.8Zm-17,43.7c-7.92,11-8.41,15.09-2.79,21.74C277.9,157.83,280.24,148.15,272.88,144.5ZM177,90.94c7.94-3.47,8.14-15-1.08-19.42a29.89,29.89,0,0,0-3.46,4.07c-.8,1.38-1.84,3.44-1.35,4.59A115.61,115.61,0,0,0,177,90.94Zm101.1,18.71c6.87-7.41,6.82-18.14.1-22.5C271.69,96.49,271.67,98,278.07,109.65Zm78.26,11.87c9.05-7.68,8.62-15.73-.14-19.78C346.58,108.32,354.2,114.51,356.33,121.52Zm76.49,6.69c-5.54,8.18-5.72,13.26-1,21.8C440.33,145.37,440.77,137.46,432.82,128.21Zm-284.59,34c-8.1,6-8.44,10.38-1.53,19.7C154.06,175.68,154.67,167.77,148.23,162.19Zm3.1-10.71c7.77-4.49,8-18.77.16-20.6l-5.58,8.78Zm292.13-37.66c-8.9,12.24-8.72,9.39-1,20.57C449.23,128.59,449.69,121.54,443.46,113.82ZM251.56,162c6.22-3.43,8.76-12.9,4.7-18.58a4.19,4.19,0,0,0-3.2-1.63c-2.33.32-5.79,9.52-4.8,11.76C249.44,156.17,250.39,158.94,251.56,162Zm-29.64-17.33c7.85-5.88,7.94-14.68.2-20.44C215.72,134.74,216,133.22,221.92,144.62Zm41.29-15.94c-1.69,3.38-4.73,6.65-4.5,9.67.31,4.2,3.07,8.21,4.79,12.31C270.8,139.7,272,133,263.21,128.68ZM157.08,68.54c4.72,7,7.28,8,11.33,4,1.86-1.82,2.69-5.14,3.07-7.91.48-3.61-1.83-5.75-5.16-3.85S160.22,65.85,157.08,68.54Zm202.55,6.58C353,81.86,352.91,85.88,359,93.7,367.58,88.83,367.94,81.35,359.63,75.12ZM436,116.89c7.57-10.56,7.51-13.62,1.18-20.61C429.19,104.54,429,107.68,436,116.89Zm-132.89-5,5.24,15.61c6.36-6.4,7.2-16.33,1.95-22.28Zm-94,54.35c-9.73,10.31-10.07,13.5-2.21,18.84C214.57,176.24,215.12,172,209.14,166.2Zm248.8-12-1.52-3.82c-1.51,1-3.29,1.81-4.46,3.14a41.47,41.47,0,0,0-6.15,8.31,6.31,6.31,0,0,0,.61,5.58c.65.86,3.76.87,5.05.09C455.87,164.84,457.78,160.53,457.94,154.22Zm-240.12,18.1c4.46-1.88,6.52-5.4,6.56-10.07,0-3.46-.2-7-4.25-8.54C211.72,162.18,211.46,164.28,217.82,172.32Zm26.58-16.1c-3.49,3.05-6.71,5.8-9.85,8.64-.55.5-1.28,1.52-1.1,2,1.36,3.33,2.93,6.57,4.53,10.06C244.82,171.31,247.31,162.62,244.4,156.22ZM452,146.87c7.12-7.91,7.44-15.23,1-20.22C445.26,136.26,445.17,137.74,452,146.87ZM209.87,158.09c8.13-6.87,9.19-14.42,3-19.81C204.33,146.76,204,149,209.87,158.09Zm111.62,8c7.14-6.35,8.36-15.37,2.94-19.73C315.62,154.31,315.5,155.06,321.49,166.11Zm150.1-45.87L464.42,130c1.44,1.67,2.61,3,3.8,4.4s2.54,2.87,3.81,4.32C478.37,132.64,478.33,125.44,471.59,120.24ZM256.16,114.1c-6.81,6.15-5.74,12.91-2.66,20C261.45,128.75,262.8,118.48,256.16,114.1Zm45.12,43.68c7.06-6.09,8.21-13.25,3.55-20.16C295.84,145.57,295.84,145.58,301.28,157.78Zm17.8,34.76c4.2-2.53,6.05-5.4,6.54-9.73.46-4.08-2.06-6.32-5.23-7.4-1.22-.42-3.3,1.39-4.86,2.39a4.83,4.83,0,0,0-1.33,1.54Zm163-64.2c3.53-.84,5.27-3.15,3.77-7.75-1.76-5.41-7.88-9.44-15-9.39Zm-11.21,19c-1.89,2.61-3.44,5.16-5.39,7.34-3.24,3.61-.05,6.14,1.61,8.54.39.56,4.24-.46,5.78-1.66C477.58,157.8,476.71,150.94,470.83,147.32ZM410.67,154,403,166.18l4.69,6c4.93-3.22,8.14-7.3,7.83-12.79C415.36,157.5,412.35,155.78,410.67,154Zm8.94,12c-9.13,9.13-9.47,10.91-3.83,18.46C424.45,175.78,425.11,172.84,419.61,166Zm112-29.72c.07-4.77-3.63-10.12-5.7-8.89-2.61,1.55-6.21,5-5.87,7.08.46,2.89,3.79,6.75,6.59,7.47C530.17,142.79,531.38,138.7,531.66,136.24ZM453.59,120c2.39-2,4.82-3.5,6.59-5.59,3.08-3.62.4-6.46-2-9-2.77-3-4.21-.36-5.81,1.56C448.52,111.56,448.63,113.84,453.59,120ZM378.45,48.12,377.05,46,358.36,58.25c1.43,3.89,2.58,7,3.73,10.21l1.83.36c.76-2.1,2.67-4.65,2.05-6.19-1.18-2.94-.21-4.27,1.79-5.84C371.36,53.94,374.89,51,378.45,48.12Zm-4.71,151.13c-3.81,3.58-5.48,7.47-2.15,11.92,1,1.28,3.27,2.78,4.39,2.42,1.78-.59,4-2.43,4.42-4.12C381.58,204.37,379.24,200.82,373.74,199.25Zm-114.45-22c6.83-4.09,7.54-12.65,1.39-17.94l-6.85,8.45C255.71,171,257.5,174.11,259.29,177.22Zm-57.75-24.61c-5.13,8.1-6.6,13.87-5.24,20.09C205.29,167.68,207.61,159.41,201.54,152.61Zm73.72-15.42c2.05-5.57,4-10,5.19-14.66.33-1.23-1.5-3-2.34-4.56a20.27,20.27,0,0,0-3.78,2.41C269.41,125.31,269.8,130.49,275.26,137.19Zm88.84,47.43c-2.32,3.67-4.6,7.25-7,11,2,1.49,3.93,3.08,6,4.37,3.42,2.12,5.08,1.22,5.54-2.85A14.94,14.94,0,0,0,364.1,184.62Zm-137-17.33c-1.33,3.54-3.56,6.51-3.12,9,.66,3.77,3.18,7.21,4.91,10.78C235.21,183.28,235,175.65,227.07,167.29Zm-40.17-62c5.9-3,5.41-11.3,2.73-15.61-.4-.64-3.4-.73-4,0C181.34,94.85,181.71,98.19,186.9,105.24Zm236.42,35.24-8.51,11.15,5.85,6.89C426.53,151.78,427.27,146.94,423.32,140.48Zm64.67,8c-1.44,2.63-3.2,5.13-4.14,7.91a5.83,5.83,0,0,0,1,4.89c.75.85,3.16.94,4.48.43,2.95-1.12,5-3.21,4.58-6.85S491.8,149.05,488,148.44ZM185.15,202.09l-12.48,10.56,17.29,3Zm-18-5.47-9.56,11.62,11.42,3.32C171.63,206,170.82,201.49,167.2,196.62Zm325-52.27a35,35,0,0,0,3.38,4.81c1,1,3,2.36,3.66,2,1.7-.95,4.11-2.81,4.07-4.25-.09-3.63-1.38-7.23-2.5-12.2-2.13,2.72-3.16,4.2-4.36,5.52S493.82,142.74,492.16,144.35ZM153.51,75.08c-7.58,7-7.47,9.47.5,15.14C160,82.34,160,79,153.51,75.08ZM480,176.26c1.44-3.1,3.2-5.47,3.46-8,.16-1.58-2.21-5-3-4.84-3.41.61-6.64,2.18-10.67,3.68Zm-345.34,69a67.23,67.23,0,0,1-18.84-40.14C117.75,228.49,123.3,240.32,134.61,245.28ZM255.29,54.08c-4.29,6.38-3.59,10,3,16.85C263.71,64.86,262.73,58.84,255.29,54.08Zm144.44,115-8.86,9.67c1,1.24,2.08,2.29,2.9,3.49s1.46,2.56,2.2,3.9C404,177.62,404.53,174.6,399.73,169.06Zm91.52-43.69c-7.81,7.75-8,8.68-2.84,15.48C496,136.37,497.08,131.12,491.25,125.37Zm-10,27.63c3.7-4.95,3.1-12.74-1-16.16C472.88,144,472.7,142.08,481.23,153ZM188.1,190.1c6-5.84,6.44-12.46,1.21-16.75C183,181.24,183,181.73,188.1,190.1Zm-3.83-74c-6.63,11.31-6.62,11.5.61,18.07C187.79,128.09,188.8,122.3,184.27,116.08Zm277.56,36.49c8.14-6.64,7.32-15.67.2-16.87C461.09,141.31,457,146.85,461.83,152.57Zm-18.17-9.43c-5.93,4.5-6.25,8.56-1.21,15.27C449.3,152.91,449.65,148.47,443.66,143.14Zm72,11.9c-5.77,6.38-5.77,6.72-.24,14.69C522.39,165.43,522.57,160,515.63,155Zm-84.51,21.72c4.7,5.59,4.73,5.6,7.41,3.65,4.72-3.46,5.67-7.91,2.48-13Zm93.1-17.23c5.71-2.4,7.5-5,5.64-8.32-1.49-2.64-3.51-4.65-6.85-2.53C519.14,151.12,519.32,152.81,524.22,159.53ZM139.36,203l8.3,3c3.27-6.39,2.66-9.77-2.5-13.79ZM508.2,123.92c-5.92,8.88-6,9.8-1.93,14.36C512.86,134.45,513.66,129.31,508.2,123.92ZM467.42,184c2.25-1.5,6.46-.09,6.5-5,0-4.06-1.7-6.22-4.93-6.59C464.48,175.79,463.39,179.55,467.42,184Zm49.06-48.41-7.86,6.8c2.71,2.08,4.84,4.11,7.35,5.38.67.35,3.72-1.79,3.61-2.42C519.05,142.36,517.81,139.5,516.48,135.59Zm0-5.79c4.76-3.57,3-6.61,1.21-10-1.93-3.61-4.26-3.46-7.71-1.59C512.06,121.94,514.12,125.62,516.45,129.8Zm-48.91-16.9c-4.33,4-7.74,7.22-11.4,10.65L460,127.9C464.8,124.39,467.68,120.31,467.54,112.9Zm30.66,44.49c-4.81,7.39-4.81,7.39-.06,12.6C503.86,165.44,504,162,498.2,157.39Zm-14.86,21.22c3.93-2.13,9-1.06,10.19-6.3.73-3.2-1.37-5.1-4.46-5.86ZM453,187.2c-3.07,3.53-.21,15.39,5.27,22.07C456.6,202.25,454.93,195.24,453,187.2Zm54.92-39.79a46.26,46.26,0,0,0-4.05,6.12,4,4,0,0,0,.58,3.76c.79.66,2.83.62,3.86.06C512.54,155.06,512.4,151.41,507.93,147.41ZM139.52,70.74l-.29,2,4.55,4.42a59.47,59.47,0,0,0,4.85-5.83c.4-.6-.44-2-.72-3.07Zm283.54,17.8,5.47,12.61C433.57,94.55,432.31,91.61,423.06,88.54Zm97.82,27.22c1.81,2.62,1.66,6.09,5.77,4.57,3.48-1.28,4.25-3.64,2.73-7.49Zm-20.74,13.59,1.72-.56a31.69,31.69,0,0,0-.07-5.43,21.3,21.3,0,0,0-1.92-5.16c-.06-.13-2.3.34-2.36.73a15.82,15.82,0,0,0-.27,6.07C497.62,126.59,499.13,127.91,500.14,129.35Zm19,43.51c.24.57.49,1.13.74,1.69l7.22-1.78L525,165.29Zm-62.85-3.14c-5.49,2.64-5.48,4.54,0,11.12Zm6.36,3.51V162.77C456.77,166.76,459.16,170,462.68,173.23Zm41.07-2.56.79,1.49,6-2.36L507,163.61Zm-135.3,44.77c-.93-2.22-1.75-4.14-2.56-6.06l-1.27.34c-.7,2.36-1.39,4.73-2.34,8Zm78.36-109.12,1.35.67c.7-1.58,1.89-3.16,1.89-4.75,0-.74-2.3-1.48-4.45-2.75C446.18,102.79,446.5,104.55,446.81,106.32Z"/><path class="cls-1" d="M370,44.8c-4.89,3.55-9.59,7.43-14.75,10.54-2.77,1.67-3.06,2.75-1.41,5.32,5.72,8.83,5.48,10.94-2.86,17.21-3.17,2.38-3.28,4.12-1.26,7.31,5.14,8.09,4.79,12-1.26,19.87-2.11,2.73-2.43,5.07-.34,8.08,5.69,8.18,4.82,17.77-2.26,25.56-2.73-7-7.08-13.08-6.37-21.14.5-5.63-3.23-9.84-6.71-14-3-3.64-5.5-7.77-8.19-11.7-.46-.67-.58-1.79-1.19-2.13a18.2,18.2,0,0,0-3.72-1.21,14.2,14.2,0,0,0,.44,3.49c1.3,3.37,3.45,6.54,4.06,10,.91,5.1-.42,9.88-5.53,13.25-2.85-8.17-5.6-16-8.36-23.89a7.35,7.35,0,0,0-1-2.27c-5.4-6.51-10.95-12.9-16.23-19.5a19.19,19.19,0,0,1-3.55-6.8c-2.38-9-5.58-17.11-16.19-20.26-.22,6.31,1.57,13.53-7,17l-16-20.69c17.16-12.6,33.46-25.72,53.12-33.44l.89,1.4c-7.76,4.78-15.59,9.45-23.26,14.38C270.43,28,261.57,36.06,260.82,39.8c1.42-.81,2.5-1.35,3.51-2,16-10.47,31.91-21,48-31.31,2-1.27,5-.92,7.54-1.32L320.38,7c-1.79,1.07-3.59,2.12-5.36,3.21C302.15,18.14,289.22,26,276.46,34.1c-1.95,1.24-3.12,3.7-3.93,6l46.08-28.67c1,5.1.6,5.46-3.73,8.11-8.62,5.31-17.18,10.74-25.7,16.21a36.14,36.14,0,0,0-4.12,3.55c1.39,3.36,2.91,2.89,5.36,1.21,8.34-5.73,16.91-11.12,25.32-16.74,3.29-2.2,5.44-1.65,6.78,2.36-8.25,5.78-18.12,9.57-24.17,18.18l.72,1.32a32.79,32.79,0,0,0,4.07-2c6.23-4.14,12.28-8.57,18.65-12.47,2.79-1.7,6.23-2.35,9.37-3.48l.63,1.39C326.51,32.73,321.21,36.33,316,40a16,16,0,0,0-4.16,3.51c-.79,1.15-.65,2.93-1,5.14,12.58-6.54,20.18-19.91,35.11-19,.27.47.55.94.83,1.41-4.48,3.05-9.12,5.89-13.39,9.22-3.87,3-9.82,4.17-10.84,11.12,11.92-5.75,20.27-16.63,33.7-17.87-5.89,7.32-15.72,10.12-20.34,18.81,9.77-2.27,15-13.73,26.72-13.29-3.35,6.74-13.29,6.6-14.37,14.48l1.1,1.32,19.39-12.41Z"/><path class="cls-1" d="M74.64,165.61c22.18-6,36.59-21.32,32.58-34.77a26.49,26.49,0,0,0-1.11,3.53c-3.3,22-26.19,29.42-43,26.2A75.81,75.81,0,0,1,51,157.66a11.62,11.62,0,0,1-5.37-4.57c-3.14-5-3.59-5.2-8-.87a22.92,22.92,0,0,1-14.79-16.15,10.29,10.29,0,0,1,2.29-8.4c5-5,10.22-10.34,16.39-13.58,16.61-8.71,33.7-16.54,50.74-24.42,6.11-2.82,12.63-4.77,19.12-7.19,2.81,7.21-2.88,9.11-7,12.6,10.29,9,10.73,18.64,1.2,28.33,9.51,6.47,12.24,19.78,6,29.28-1.06,1.61-3.32,2.56-5.19,3.5-2.57,1.3-3.21,2.14-1.45,5.21a19.81,19.81,0,0,1,2.42,11.08c-.48,5.21-5.58,7.21-10.26,4.8C89.86,173.56,82.67,169.79,74.64,165.61Zm.73-48.41c-3.35-2.41-5.92-4.13-8.33-6-3.32-2.62-6.26-2.58-9,.8-1.67,2.05-3,4.64-5.2,5.92-3.14,1.88-2.73,3.59-1.1,6,.74,1.09,1.27,2.32,1.93,3.46,4,6.87,12.79,7.51,17.15.82C73.08,124.69,74.09,120.4,75.37,117.2Z"/><path class="cls-1" d="M246.16,83.82l-4.64-4.67-1.59.53c1.14,6.87,3.1,13.9-2.64,18.89-6.93-8.89-13.89-17.74-20.75-26.68a17.18,17.18,0,0,1-2.18-4.37c-.59-1.54-.58-3.44-1.5-4.69A27.08,27.08,0,0,0,208,58.3c-.13-.11-1.43.82-1.38.94a23.69,23.69,0,0,0,2.38,5c4.3,6,3.44,13-2.48,18.85-5.2,5.09-5.22,5.11-.23,10.63,3,3.37,4.17,7.18,2.63,11.51a49.45,49.45,0,0,1-3.51,8.22c-1.81,3.15-1.63,5.65.5,8.68,4.72,6.73,3.88,13.58-1.95,19.39-5.54-9.61-11.07-19.18-16.53-28.63,2.32-3,4.91-5.71,6.63-8.86,2.82-5.18,2.51-10.41-.77-15.57-.89-1.41-1.21-4.5-.32-5.5,8.27-9.32,5.64-18.29-.25-27.35a12.81,12.81,0,0,1-1-1.74,12.87,12.87,0,0,1-.34-2.19c10.8-2.5,21.65-5.38,32.66-7.43,6-1.12,12.26-1.12,18.4-1.06,2.47,0,6.6,1.08,7,2.54.91,3,1.07,7.66-.69,9.72-3.47,4-2.53,6.57.49,9.67C254.62,70.62,253.77,80.35,246.16,83.82Z"/><path class="cls-1" d="M273.05,218.6c2.23-2.17,4.52-4.3,6.69-6.53,3.29-3.37,7.77-6.28,9.47-10.33,3.56-8.5,11.44-12.32,17.41-18.14.74-.72,4.86.49,5.95,1.92,3.57,4.69,2.48,11.64-1.79,15.92a13.8,13.8,0,0,0-3.77,5.68,42.3,42.3,0,0,0,4.4-2.1,52.61,52.61,0,0,0,4.38-3.44c7.18,7.18.69,13.58-.28,18.91,2,3.2,4,5.5,5,8.16,2.48,6.33,5.09,12.7,6.6,19.29,1.6,7,2,14.28,2.9,21.44l-1.93.55c-.82-2.11-2.07-4.15-2.38-6.33a124.2,124.2,0,0,0-12.11-38.34,11.38,11.38,0,0,0-2-3.41,2.31,2.31,0,0,0-4,2.33c.83,3.38,2.11,6.65,3,10,3.08,11.86,6.7,23.63,8.81,35.67,1,5.54-1.07,11.61-1.75,17.44l-2-.08c-.3-2.74-.64-5.47-.87-8.22-.74-8.63-5-16-8.13-23.81-4.79-11.93-8.66-24.22-13.1-36.89-.37,1.83-1.51,4-1,5.73,2.87,10.19,5.93,20.33,9.31,30.35,1.91,5.65,4.61,11,6.85,16.55a38.18,38.18,0,0,1,1.25,4.67l-1.09.69c-7.3-8.93-15.15-17.49-21.74-26.92-4.92-7-2.2-15.85-2.83-23.88a40.55,40.55,0,0,1,.22-5.27l-1.68-.54c-.73,1.5-2,3-2.09,4.51-.29,6.48-1,13.09,0,19.42a29.27,29.27,0,0,0,5.93,12.8c5.28,6.82,11.5,12.92,17.18,19.45a44.67,44.67,0,0,1,3.76,5.95l-1.87,1.57c-2.27-2.72-4.55-5.44-6.81-8.17-5.29-6.36-10.89-12.49-15.78-19.14-6.51-8.86-5.91-19.14-4.33-29.29C279.92,220.32,280.22,220.36,273.05,218.6Z"/><path class="cls-1" d="M267.31,175.05c5.13,6.14,3.47,12.07,1.91,17.63-.94,3.35-1.8,5.54,1.26,8.6,4.49,4.49,2.76,15.73-2.43,19.52a6.92,6.92,0,0,1-4.25.89q-32.85-2.22-65.69-4.64c-1.66-.12-3.26-1-5-1.62.42-1.07.48-1.81.78-1.92,8.05-2.91,9.43-10.28,12.21-17.08,2.42-5.9,6.23-11.26,9.69-16.7,1.66-2.61,3.74-2.37,5.46.28,2.9,4.46,2.59,9.12-.71,13.45-.68.89-.71,2.27-1.3,4.32,7.84-3.45,14.92-6.05,17.55-14.52,9,8.2,2.9,15.67,0,23.58A186.43,186.43,0,0,0,267.31,175.05Z"/><path class="cls-1" d="M139.58,240.53c-14.55-7.93-17.37-21.47-20-35.2-1-5.08-2.38-10.06-3.59-15.09l-1.81.31v7.77c-3.66-5.38-6.87-10.08-10.24-15,1.31-1.37,2.38-2.58,3.54-3.7,4.62-4.46,9.55-3.23,11,3.14.75,3.25.14,6.81.14,11.3,7.89-6.62,16.51-11.3,18.18-22.39,6.74,7.58,5.91,21.25-1.26,28.48L130,197c-3.24,1.8-2,3.72-.35,6,4.06,5.61,7.95,11.34,11.91,17,3.34,4.78,3.6,9.85,1.56,15.18-.34-.07-.83,0-.93-.21-4.47-8.25-9.11-16.41-13.25-24.82-2.24-4.56-3.62-9.54-6.43-14.4.17,2.84-.39,6,.66,8.45,3,7,6.77,13.64,10,20.55C135.5,229.89,137.44,235.25,139.58,240.53Z"/><path class="cls-1" d="M340.61,215.46c2.39,16,9.12,31.18-1.07,44.88-1.93-10.81-3.73-22-6-33.17-1.27-6.24,1.07-11.14,4.77-15.52a59.93,59.93,0,0,1,10.41-10c1.9-1.37,5.59-1.93,7.59-1s4,4.1,4.24,6.46c.77,8.32-4.19,12.06-12.29,10C346.21,216.57,344.13,216.21,340.61,215.46Z"/><path class="cls-1" d="M406.53,178.19c4.88,5.37,4.94,7.85.86,19.39l5.86-3c.78,1.63,2.49,3.46,2.18,4.84-1,4.46,2,6.11,4.85,7.51,7.46,3.61,15.16,6.74,22.61,10.37A48.93,48.93,0,0,1,452.6,224c-9.76-1.37-19.26-3.17-27.81-8.19-.71-.42-1.49-.73-2.21-1.14-5.35-3-10.41-7.53-16.13-8.62s-11.84,1.36-18.93,2.42a63.83,63.83,0,0,1,4.56-4.47c3.95-3.15,5.62-7.08,6.74-12.15C399.89,187.05,403.74,182.89,406.53,178.19Z"/><path class="cls-1" d="M450.8,216.39,420.15,203c-1-3.77-2-6.51-2.31-9.34-.24-2.18-.24-4.86.83-6.6,1.8-2.91,4.53-5.25,6.83-7.79,7,3.17,8.42,6.15,7.51,13.13-.24,1.85,1,4.43,2.38,5.85,3.59,3.68,7.78,6.77,11.46,10.37,2,1.91,3.36,4.41,5,6.65Z"/><path class="cls-1" d="M319.1,198.57c1.59-1.48,2.77-2.62,4-3.71,1.48-1.32,3-2.59,4.47-3.86,7.6,6.25,8.72,18.56,2.93,25.86-1.29,1.62-1.59,4.57-1.33,6.79,1.43,12.34,3.2,24.64,4.8,37a5.51,5.51,0,0,1-.89,3.93c-.28-1.17-.57-2.34-.85-3.51-2.06-8.66-4-17.37-6.24-26-1.32-4.92-3.47-9.62-4.91-14.52a8.45,8.45,0,0,1,.6-4.78C323.85,209.72,323.7,204.05,319.1,198.57Z"/><path class="cls-1" d="M326.6,135.42c-2.11-4.16-4.35-8.21-6.18-12.43-.4-.92.48-2.6,1.12-3.72,2.43-4.22,5-8.35,7.83-13,3.79,2,6,5.92,6.66,10.81C336.87,123,332.73,131.12,326.6,135.42Z"/><path class="cls-1" d="M381.91,128.9l8.66-10.76c5.16,1.24,7.19,4.46,7.36,9.34.28,8.6-2.62,13.58-10.17,17C385.91,139.53,384.06,134.61,381.91,128.9Z"/><path class="cls-1" d="M385.57,176c-7.93-11.56-7.88-12.09,1.67-23.93,5.42,1.41,9,5.26,9.31,10.12C397,168.21,393.24,173,385.57,176Z"/><path class="cls-1" d="M376.43,159.53c-3-5.2-6-10.42-9-15.57l10.27-11.25C385.79,139.43,384.68,154.12,376.43,159.53Z"/><path class="cls-1" d="M385.64,204.29l-9.43-9.87c2.38-3.58,4.56-7.06,7-10.38.66-.9,2.69-2,3-1.78,2.88,2.49,6.07,4.9,8.07,8,1.88,2.95,1.05,6.41-2,8.81C390.15,200.72,388.1,202.35,385.64,204.29Z"/><path class="cls-1" d="M324,170.56c1.64-2,3.76-5,6.23-7.62,2.65-2.82,5.78-2.32,7.8.91,5.1,8.15,1.4,17.9-7,20.68Z"/><path class="cls-1" d="M157,176.06c10,5.56,9,19.61-1.43,26.72-1.85-4.65-3.78-9.28-5.49-14a4.06,4.06,0,0,1,.47-3.06C152.54,182.52,154.73,179.42,157,176.06Z"/><path class="cls-1" d="M447.49,175.55c5.23,3.86,4.87,7.37-1.71,14,2,5.66,4.1,11.36,6.15,17.06l-1,.65c-4.13-3.55-8.42-6.95-12.34-10.72-2.63-2.52-1.69-8.52,1.52-12.31C442.52,181.3,445,178.44,447.49,175.55Z"/><path class="cls-1" d="M282.14,156.1c-1.25-4.55-2.5-8.71-3.49-12.94a7.26,7.26,0,0,1,.11-4.48c1.81-3.54,4-6.86,6.26-10.51,4.75,2.79,7,7,6.42,12A21.72,21.72,0,0,1,282.14,156.1Z"/><path class="cls-1" d="M411.78,147.8c-7.74-10.88-7.37-14.86,2.11-25.17C422.38,128.68,421.52,140.54,411.78,147.8Z"/><path class="cls-1" d="M193.48,209.83c-1-1.43-1.32-2-1.74-2.5-4.31-5.13-4.52-9.74.53-14.9,2.6-2.67,3.67-6.83,5.61-10.65,4,1.69,4.83,5.54,4.84,9.16C202.74,198.43,198.94,204.27,193.48,209.83Z"/><path class="cls-1" d="M233.41,139.23c5.35,3.59,7,8.41,6.1,14-.85,5.3-5.24,7.17-9.72,9.22l-5.51-12.85Z"/><path class="cls-1" d="M128,157.38c7.75,8.24,5.85,20.63-4.12,26.17q-3.33-4.74-6.76-9.6c2.25-2.49,4.72-4.68,6.48-7.35S126.43,160.7,128,157.38Z"/><path class="cls-1" d="M246.18,94.84c5.84,3.59,8,9,5.55,14.87-1.4,3.38-3.63,6.42-5.48,9.62-1.86-2.93-4-5.71-5.5-8.83C237.76,104.19,238.34,102.88,246.18,94.84Z"/><path class="cls-1" d="M171.52,160.81c8.33,6.15,7.57,18.75-2.33,25.36-1.92-3.85-3.94-7.61-5.63-11.51-.38-.88.12-2.45.72-3.38C166.58,167.72,169.09,164.29,171.52,160.81Z"/><path class="cls-1" d="M337.34,130.43c8.43,9.49,6,20.42-4.35,24.38-1.56-4.27-3.13-8.54-5-13.64C330.62,138.15,333.84,134.44,337.34,130.43Z"/><path class="cls-1" d="M162.17,145.08c7.54,8.61,5.2,20.26-4.72,24.77C151.29,160.53,151.91,157.15,162.17,145.08Z"/><path class="cls-1" d="M278.49,207.72c-1.81-3.71-3.78-7.33-5.29-11.14a4.35,4.35,0,0,1,1.13-3.8c3.3-2.95,6.89-5.58,10.37-8.33C290.36,192,287.59,202.37,278.49,207.72Z"/><path class="cls-1" d="M363.72,175.52c-7.86-12.2-7.61-15.57,1.61-25.45C373.23,156.11,372.65,166.77,363.72,175.52Z"/><path class="cls-1" d="M345.77,149.07c9,5.86,8.5,18.28-.25,26.17-2.1-5.38-4.3-10.89-6.34-16.45a3.2,3.2,0,0,1,.52-2.61C341.63,153.72,343.75,151.4,345.77,149.07Z"/><path class="cls-1" d="M312.67,150.45c-1.12-5.2-3.15-9.8-2.73-14.17.35-3.64,3.56-7,5.62-10.71,5.57,3.18,7.28,7.56,6.84,12.58C321.88,144,318.47,148.09,312.67,150.45Z"/><path class="cls-1" d="M183.18,147c6.66,5.94,6,20.3-.63,27.52-2.21-5.23-4.56-10.57-6.69-16a3.88,3.88,0,0,1,.64-3.07C178.54,152.64,180.8,150,183.18,147Z"/><path class="cls-1" d="M356,154.86c-8-8.88-7.9-11.8.39-25.45C363.69,134.07,363.49,147.06,356,154.86Z"/><path class="cls-1" d="M191.61,130.49c9,6,9.5,17,1.82,27-2.23-4.8-5.65-9.33-6.16-14.16C186.86,139.42,189.92,135.1,191.61,130.49Z"/><path class="cls-1" d="M397.21,114.62l8.2-9.56c7.9,4.49,6.44,16.91-2.57,24.68C401.06,125,399.28,120.17,397.21,114.62Z"/><path class="cls-1" d="M366.38,137.46c-1.86-3.57-3.68-6.72-5.14-10a5.22,5.22,0,0,1,0-3.94c1.39-2.8,3.23-5.38,5-8.28a10.3,10.3,0,0,1,8,8.73C375.08,129.23,371.16,135.39,366.38,137.46Z"/><path class="cls-1" d="M165.66,113.9c1,2.72,2.62,5.42,2.7,8.16a54.24,54.24,0,0,1-1.49,12.31c-.27,1.37-1.81,2.5-2.77,3.73a32.3,32.3,0,0,1-3.2-2.59c-5.07-5.25-5.8-10.6-.45-16.23,1.33-1.41,2.13-3.31,3.17-5Z"/><path class="cls-1" d="M176.24,98.5c6.93,3.88,6.21,16.13-1.38,23.39C166.43,112.26,166.62,109,176.24,98.5Z"/><path class="cls-1" d="M296.34,139.23c-.75-2-1.09-3.63-1.95-4.94-5-7.6-3.25-13.75,4-18.78C305.92,120.56,305.29,132.12,296.34,139.23Z"/><path class="cls-1" d="M372.53,190.79c-6.91-10.73-6.87-11.16,1.71-22.35C383.26,172.83,382.58,183.75,372.53,190.79Z"/><path class="cls-1" d="M355.36,170.15c6.53,8.88,4.79,18.81-3.79,23.48C344.87,180,344.53,183.53,355.36,170.15Z"/><path class="cls-1" d="M130.33,126.43c9,7.4,8.19,18.65-2.17,23.72-1.8-3.07-3.61-6.18-5-8.51Z"/><path class="cls-1" d="M392.41,147.84l7.76-9c8.41,4.92,8.42,15,.43,22Z"/><path class="cls-1" d="M292.31,189.05c-4.12-7.75-4.08-7.89,1.11-14.27a30,30,0,0,0,2.67-4.16c.72-1.29,1.28-2.66,2-4.24,3.75,2.54,5.63,6.21,5.15,10.42C302.53,183.23,297.81,186.58,292.31,189.05Z"/><path class="cls-1" d="M136.91,163.67c-5.33-7-5.26-7.42-.39-13.93a69.14,69.14,0,0,0,4.23-7.35c4.22,2.19,6.29,5.49,5.76,10.05C145.84,158.27,142.35,161.85,136.91,163.67Z"/><path class="cls-1" d="M173.37,129.15c9.62,4.71,8.85,16.07-1.58,23.95-2.28-5.17-6.33-9.75-1.25-15.73C172.21,135.4,172.39,132.16,173.37,129.15Z"/><path class="cls-1" d="M225.4,91.35c8.21,5.89,7.87,16.51-.4,23.32C218.14,106.65,218.19,102.17,225.4,91.35Z"/><path class="cls-1" d="M308.43,176.89c-1.37-3.71-2.6-7.12-3.9-10.5-1-2.62,2-8.59,5.07-9.35,3.94-.95,5.84,2.05,6.95,5C318.67,167.56,314.44,175.08,308.43,176.89Z"/><path class="cls-1" d="M424.49,133.14l-7.33-15.42,8-6.78C433.38,112.83,432.09,123,424.49,133.14Z"/><path class="cls-1" d="M380.76,101.06c7.57,5.44,6.95,17.43-1.86,23.84-1.62-3.21-3.4-6.3-4.71-9.57-.42-1,.13-2.73.72-3.87C376.69,108,378.71,104.66,380.76,101.06Z"/><path class="cls-1" d="M141.65,113.16c4,2,6.33,7.08,5.83,12.91s-1.49,7.05-6.33,8.6C134.45,126,134.54,122.26,141.65,113.16Z"/><path class="cls-1" d="M287.63,173.91c-.64-2.17-1.1-4.26-1.87-6.22s-1.87-3.81-3.16-6.38l10.14-10.65C298.28,155.86,295.8,167.28,287.63,173.91Z"/><path class="cls-1" d="M121.91,111c2.84-3.9,5.34-7.33,7.93-10.87,6.12,2.88,8.44,13.68,3.32,18.37-2.12,2-4.09,2.77-6.06-.35C125.51,115.62,123.6,113.29,121.91,111Z"/><path class="cls-1" d="M119.69,145.18c5.7,5.56,4.94,17.07-1.82,21.39-1.41.9-5,1.23-5.13.83-.94-2.27-2.25-5.32-1.42-7.24C113.55,155,116.79,150.21,119.69,145.18Z"/><path class="cls-1" d="M435,154.13c5.07,6.92,3,13.2-5.86,18.82C421.77,163.15,421,160,435,154.13Z"/><path class="cls-1" d="M248.57,171c8.95,4.82,8.19,13.2-1.6,20.83C240.83,180.88,240.85,180.52,248.57,171Z"/><path class="cls-1" d="M266.55,122.69c-1.75-3.69-3.62-7.41-5.25-11.24a3.82,3.82,0,0,1,.31-3c1.71-2.79,3.66-5.44,5.49-8.1C275,104.45,274.35,116.83,266.55,122.69Z"/><path class="cls-1" d="M339.84,204l-7.14-15,8.29-5.32C347.43,189.52,350.1,198.27,339.84,204Z"/><path class="cls-1" d="M117.76,114.37c8.77,4.55,9.83,14.74,2.18,20.93C112.32,128.55,111.65,122.07,117.76,114.37Z"/><path class="cls-1" d="M214.44,105.52c7,5,6.71,13.27-.49,23.46C207.48,120.78,207.55,116,214.44,105.52Z"/><path class="cls-1" d="M232.64,130.2c-7.25-10.86-7.7-6.57,2.22-20.61C242.19,115,241.26,123.64,232.64,130.2Z"/><path class="cls-1" d="M175.81,204.92c-1.82-4.15-3.54-7.68-4.86-11.35-.33-.88.33-2.51,1.07-3.32,2-2.18,4.24-4.12,7.46-7.17,1.48,3,3.72,5.44,3.66,7.82C183,196.25,180.6,200.92,175.81,204.92Z"/><path class="cls-1" d="M236.2,134.39a66,66,0,0,1,4.79-6.26c1-1,2.9-2.27,4-2s2.41,2.22,2.78,3.64a20.73,20.73,0,0,1-3.3,17.8Z"/><path class="cls-1" d="M153.53,100.25c7.24,4.45,7,13.71-.56,20.79C145.39,113.22,145.53,108,153.53,100.25Z"/><path class="cls-1" d="M275.84,185.58c-2.12-7.37-6.43-14.8,2.29-20.91C286,171,285.2,179.12,275.84,185.58Z"/><path class="cls-1" d="M289.87,100.8c1.58,2.78,4.33,5.49,4.5,8.36.33,5.58-3.57,9.25-8.24,12.26-7.49-7.68-.09-13.42,1.77-19.75Z"/><path class="cls-1" d="M272.88,144.5c7.36,3.65,5,13.33-2.79,21.74C264.47,159.59,265,155.52,272.88,144.5Z"/><path class="cls-1" d="M356.33,121.52c-2.13-7-9.75-13.2-.14-19.78C365,105.79,365.38,113.84,356.33,121.52Z"/><path class="cls-1" d="M432.82,128.21c7.95,9.25,7.51,17.16-1,21.8C427.1,141.47,427.28,136.39,432.82,128.21Z"/><path class="cls-1" d="M148.23,162.19c6.44,5.58,5.83,13.49-1.53,19.7C139.79,172.57,140.13,168.19,148.23,162.19Z"/><path class="cls-1" d="M151.33,151.48l-5.42-11.82,5.58-8.78C159.29,132.71,159.1,147,151.33,151.48Z"/><path class="cls-1" d="M443.46,113.82c6.23,7.72,5.77,14.77-1,20.57C434.74,123.21,434.56,126.06,443.46,113.82Z"/><path class="cls-1" d="M251.56,162c-1.17-3-2.12-5.78-3.3-8.45-1-2.24,2.47-11.44,4.8-11.76a4.19,4.19,0,0,1,3.2,1.63C260.32,149.05,257.78,158.52,251.56,162Z"/><path class="cls-1" d="M221.92,144.62c-5.92-11.4-6.2-9.88.2-20.44C229.86,129.94,229.77,138.74,221.92,144.62Z"/><path class="cls-1" d="M263.21,128.68c8.74,4.27,7.59,11,.28,22-1.71-4.1-4.47-8.11-4.78-12.31C258.48,135.33,261.52,132.06,263.21,128.68Z"/><path class="cls-1" d="M436,116.89c-7-9.21-6.82-12.35,1.18-20.61C443.52,103.27,443.58,106.33,436,116.89Z"/><path class="cls-1" d="M303.12,111.85l7.19-6.67c5.25,5.95,4.41,15.88-1.95,22.28Z"/><path class="cls-1" d="M209.14,166.2c6,5.84,5.43,10-2.21,18.84C199.07,179.7,199.41,176.51,209.14,166.2Z"/><path class="cls-1" d="M457.94,154.22c-.16,6.31-2.07,10.62-6.47,13.3-1.29.78-4.4.77-5.05-.09a6.31,6.31,0,0,1-.61-5.58,41.47,41.47,0,0,1,6.15-8.31c1.17-1.33,3-2.11,4.46-3.14Z"/><path class="cls-1" d="M217.82,172.32c-6.36-8-6.1-10.14,2.31-18.61,4.05,1.51,4.27,5.08,4.25,8.54C224.34,166.92,222.28,170.44,217.82,172.32Z"/><path class="cls-1" d="M244.4,156.22c2.91,6.4.42,15.09-6.42,20.66-1.6-3.49-3.17-6.73-4.53-10.06-.18-.44.55-1.46,1.1-2C237.69,162,240.91,159.27,244.4,156.22Z"/><path class="cls-1" d="M452,146.87c-6.86-9.13-6.77-10.61,1-20.22C459.47,131.64,459.15,139,452,146.87Z"/><path class="cls-1" d="M209.87,158.09c-5.91-9.07-5.54-11.33,3-19.81C219.06,143.67,218,151.22,209.87,158.09Z"/><path class="cls-1" d="M321.49,166.11c-6-11.05-5.87-11.8,2.94-19.73C329.85,150.74,328.63,159.76,321.49,166.11Z"/><path class="cls-1" d="M471.59,120.24c6.74,5.2,6.78,12.4.44,18.45-1.27-1.45-2.55-2.88-3.81-4.32s-2.36-2.73-3.8-4.4Z"/><path class="cls-1" d="M256.16,114.1c6.64,4.38,5.29,14.65-2.66,20C250.42,127,249.35,120.25,256.16,114.1Z"/><path class="cls-1" d="M301.28,157.78c-5.44-12.2-5.44-12.21,3.55-20.16C309.49,144.53,308.34,151.69,301.28,157.78Z"/><path class="cls-1" d="M319.08,192.54l-4.88-13.2a4.83,4.83,0,0,1,1.33-1.54c1.56-1,3.64-2.81,4.86-2.39,3.17,1.08,5.69,3.32,5.23,7.4C325.13,187.14,323.28,190,319.08,192.54Z"/><path class="cls-1" d="M482,128.34l-11.2-17.14c7.09,0,13.21,4,15,9.39C487.31,125.19,485.57,127.5,482,128.34Z"/><path class="cls-1" d="M470.83,147.32c5.88,3.62,6.75,10.48,2,14.22-1.54,1.2-5.39,2.22-5.78,1.66-1.66-2.4-4.85-4.93-1.61-8.54C467.39,152.48,468.94,149.93,470.83,147.32Z"/><path class="cls-1" d="M410.67,154c1.68,1.79,4.69,3.51,4.8,5.39.31,5.49-2.9,9.57-7.83,12.79l-4.69-6Z"/><path class="cls-1" d="M419.61,166c5.5,6.88,4.84,9.82-3.83,18.46C410.14,176.87,410.48,175.09,419.61,166Z"/><path class="cls-1" d="M531.66,136.24c-.28,2.46-1.49,6.55-5,5.66-2.8-.72-6.13-4.58-6.59-7.47-.34-2.07,3.26-5.53,5.87-7.08C528,126.12,531.73,131.47,531.66,136.24Z"/><path class="cls-1" d="M453.59,120c-5-6.14-5.07-8.42-1.21-13.06,1.6-1.92,3-4.54,5.81-1.56,2.39,2.57,5.07,5.41,2,9C458.41,116.48,456,118,453.59,120Z"/><path class="cls-1" d="M373.74,199.25c5.5,1.57,7.84,5.12,6.66,10.22-.4,1.69-2.64,3.53-4.42,4.12-1.12.36-3.43-1.14-4.39-2.42C368.26,206.72,369.93,202.83,373.74,199.25Z"/><path class="cls-1" d="M259.29,177.22c-1.79-3.11-3.58-6.21-5.46-9.49l6.85-8.45C266.83,164.57,266.12,173.13,259.29,177.22Z"/><path class="cls-1" d="M201.54,152.61c6.07,6.8,3.75,15.07-5.24,20.09C194.94,166.48,196.41,160.71,201.54,152.61Z"/><path class="cls-1" d="M275.26,137.19c-5.46-6.7-5.85-11.88-.93-16.81a20.27,20.27,0,0,1,3.78-2.41c.84,1.54,2.67,3.33,2.34,4.56C279.23,127.17,277.31,131.62,275.26,137.19Z"/><path class="cls-1" d="M364.1,184.62a14.94,14.94,0,0,1,4.55,12.56c-.46,4.07-2.12,5-5.54,2.85-2.08-1.29-4-2.88-6-4.37C359.5,191.87,361.78,188.29,364.1,184.62Z"/><path class="cls-1" d="M227.07,167.29c7.9,8.36,8.14,16,1.79,19.78-1.73-3.57-4.25-7-4.91-10.78C223.51,173.8,225.74,170.83,227.07,167.29Z"/><path class="cls-1" d="M423.32,140.48c3.95,6.46,3.21,11.3-2.66,18l-5.85-6.89Z"/><path class="cls-1" d="M488,148.44c3.81.61,5.56,2.79,6,6.38s-1.63,5.73-4.58,6.85c-1.32.51-3.73.42-4.48-.43a5.83,5.83,0,0,1-1-4.89C484.79,153.57,486.55,151.07,488,148.44Z"/><path class="cls-1" d="M185.15,202.09,190,215.62l-17.29-3Z"/><path class="cls-1" d="M167.2,196.62c3.62,4.87,4.43,9.4,1.86,14.94l-11.42-3.32Z"/><path class="cls-1" d="M492.16,144.35c1.66-1.61,3-2.8,4.25-4.14s2.23-2.8,4.36-5.52c1.12,5,2.41,8.57,2.5,12.2,0,1.44-2.37,3.3-4.07,4.25-.67.38-2.67-1-3.66-2A35,35,0,0,1,492.16,144.35Z"/><path class="cls-1" d="M480,176.26l-10.18-9.16c4-1.5,7.26-3.07,10.67-3.68.76-.13,3.13,3.26,3,4.84C483.15,170.79,481.39,173.16,480,176.26Z"/><path class="cls-1" d="M134.61,245.28c-11.31-5-16.86-16.79-18.84-40.14A67.23,67.23,0,0,0,134.61,245.28Z"/><path class="cls-1" d="M399.73,169.06c4.8,5.54,4.23,8.56-3.76,17.06-.74-1.34-1.37-2.69-2.2-3.9s-1.86-2.25-2.9-3.49Z"/><path class="cls-1" d="M491.25,125.37c5.83,5.75,4.79,11-2.84,15.48C483.29,134.05,483.44,133.12,491.25,125.37Z"/><path class="cls-1" d="M481.23,153c-8.53-10.92-8.35-9-1-16.16C484.33,140.26,484.93,148.05,481.23,153Z"/><path class="cls-1" d="M188.1,190.1c-5.11-8.37-5.07-8.86,1.21-16.75C194.54,177.64,194.06,184.26,188.1,190.1Z"/><path class="cls-1" d="M184.27,116.08c4.53,6.22,3.52,12,.61,18.07C177.65,127.58,177.64,127.39,184.27,116.08Z"/><path class="cls-1" d="M461.83,152.57c-4.81-5.72-.74-11.26.2-16.87C469.15,136.9,470,145.93,461.83,152.57Z"/><path class="cls-1" d="M443.66,143.14c6,5.33,5.64,9.77-1.21,15.27C437.41,151.7,437.73,147.64,443.66,143.14Z"/><path class="cls-1" d="M515.63,155c6.94,4.94,6.76,10.39-.24,14.69C509.86,161.76,509.86,161.42,515.63,155Z"/><path class="cls-1" d="M431.12,176.76l9.89-9.33c3.19,5.07,2.24,9.52-2.48,13C435.85,182.36,435.82,182.35,431.12,176.76Z"/><path class="cls-1" d="M524.22,159.53c-4.9-6.72-5.08-8.41-1.21-10.85,3.34-2.12,5.36-.11,6.85,2.53C531.72,154.52,529.93,157.13,524.22,159.53Z"/><path class="cls-1" d="M139.36,203l5.8-10.83c5.16,4,5.77,7.4,2.5,13.79Z"/><path class="cls-1" d="M508.2,123.92c5.46,5.39,4.66,10.53-1.93,14.36C502.17,133.72,502.28,132.8,508.2,123.92Z"/><path class="cls-1" d="M467.42,184c-4-4.45-2.94-8.21,1.57-11.62,3.23.37,5,2.53,4.93,6.59C473.88,183.91,469.67,182.5,467.42,184Z"/><path class="cls-1" d="M516.48,135.59c1.33,3.91,2.57,6.77,3.1,9.76.11.63-2.94,2.77-3.61,2.42-2.51-1.27-4.64-3.3-7.35-5.38Z"/><path class="cls-1" d="M516.45,129.8c-2.33-4.18-4.39-7.86-6.5-11.63,3.45-1.87,5.78-2,7.71,1.59C519.5,123.19,521.21,126.23,516.45,129.8Z"/><path class="cls-1" d="M467.54,112.9c.14,7.41-2.74,11.49-7.56,15l-3.84-4.35C459.8,120.12,463.21,116.94,467.54,112.9Z"/><path class="cls-1" d="M498.2,157.39c5.75,4.59,5.66,8.05-.06,12.6C493.39,164.78,493.39,164.78,498.2,157.39Z"/><path class="cls-1" d="M483.34,178.61l5.73-12.16c3.09.76,5.19,2.66,4.46,5.86C492.35,177.55,487.27,176.48,483.34,178.61Z"/><path class="cls-1" d="M453,187.2c1.92,8,3.59,15.05,5.27,22.07C452.8,202.59,449.94,190.73,453,187.2Z"/><path class="cls-1" d="M507.93,147.41c4.47,4,4.61,7.65.39,9.94-1,.56-3.07.6-3.86-.06a4,4,0,0,1-.58-3.76A46.26,46.26,0,0,1,507.93,147.41Z"/><path class="cls-1" d="M520.88,115.76l8.5-2.92c1.52,3.85.75,6.21-2.73,7.49C522.54,121.85,522.69,118.38,520.88,115.76Z"/><path class="cls-1" d="M500.14,129.35c-1-1.44-2.52-2.76-2.9-4.35a15.82,15.82,0,0,1,.27-6.07c.06-.39,2.3-.86,2.36-.73a21.3,21.3,0,0,1,1.92,5.16,31.69,31.69,0,0,1,.07,5.43Z"/><path class="cls-1" d="M519.17,172.86l5.79-7.57,2.17,7.48-7.22,1.78C519.66,174,519.41,173.43,519.17,172.86Z"/><path class="cls-1" d="M456.32,169.72v11.12C450.84,174.26,450.83,172.36,456.32,169.72Z"/><path class="cls-1" d="M462.68,173.23c-3.52-3.28-5.91-6.47,0-10.46Z"/><path class="cls-1" d="M503.75,170.67l3.29-7.06,3.53,6.19-6,2.36Z"/><path class="cls-1" d="M368.45,215.44l-6.17,2.24c1-3.23,1.64-5.6,2.34-8l1.27-.34C366.7,211.3,367.52,213.22,368.45,215.44Z"/><path d="M75.37,117.2c-1.28,3.2-2.29,7.49-4.55,11-4.36,6.69-13.18,6-17.15-.82-.66-1.14-1.19-2.37-1.93-3.46-1.63-2.4-2-4.11,1.1-6C55,116.6,56.37,114,58,112c2.74-3.38,5.68-3.42,9-.8C69.45,113.07,72,114.79,75.37,117.2ZM57.78,122l2.32-1.23,8.1-4.1c-1.9-1.35-4.12-4.06-5.63-3.71-2.24.51-4.23,3-5.8,5.06C56.26,118.69,57.4,120.63,57.78,122Z"/><path class="cls-1" d="M57.78,122c-.38-1.36-1.52-3.3-1-4,1.57-2.06,3.56-4.55,5.8-5.06,1.51-.35,3.73,2.36,5.63,3.71l-8.1,4.1Z"/><ellipse class="cls-1" cx="85.36" cy="125.67" rx="77.9" ry="88.42" transform="translate(-66.55 127.47) rotate(-56.49)"/><path class="cls-2" d="M41,99.35c.36-.39.72-1.39,1.1-1,.72.7,2.08-.56,2.45,1-.06-2,.92-3.46,1.95-4.93.22.16.53.34.69.06.3-.55-.24-.86-.55-1.1-3.08-2.35-4.33-5.86-5.82-9.22-.14-.31-.33-.61,0-1a3.58,3.58,0,0,0-.4-4.23,1.46,1.46,0,0,1-.46-.93c.23-.66,1-.87,1.12-1.41-.3.39-.92.06-1.4.23l-.51-.45c-.14-1.11-.29-2.22-.43-3.33.84.06,1-.28.55-1l.37-1.35c.19-.13.22-.44.37-.62,1.15-.07.54,1.93.63,2.63.87-1.68,0-3.33.23-5.06.4-.93.4-3.31,1.21-3.74.9,0,0,4.6.43,5.8.72-3.71-.15-7.29.79-10.78.17-.8,1.36-.89,1.3-1.86,3.16-3.4,5.48-8.31,10.46-9.19,7.07-3.19,12.37.26,19,2,6.17,3.48,11,6.66,13.81,13.52,1.79,3.88,1,8.46-.15,12.43a27.33,27.33,0,0,1-2.3,5c-.07.12-.21.24,0,.38-.26,0-.34.11-.23.35a1.41,1.41,0,0,0-.85,1.25,29.71,29.71,0,0,0-1.51,2.77c-4.22,5.77-8.75,11.56-15.24,14.88-3.7,2.21-6.9,1.19-10.78.56-3.44-.78-5.85-3.61-8.44-5.81-.21-.21-.51-.65-.84-.36s.21.5.33.75.72.69,0,1.09c-.68-1-1.87,2-2.33,2.44-.16.27-.6.65,0,.93,1.06.63,1.3-2.28,2.72-3.06,1.06-.8,1.74,1.09,2.61,1.55-.47.3-.76-.09-1.11-.28-1.76-1-2.88,1.86-2.76,3.25A21.42,21.42,0,0,0,41,99.35ZM56.45,85.83a.31.31,0,0,0-.19,0c-1.09-1.24-3.66,1.39-5.12,1.4-.57.25.24,1.58.82.88.86-.72,1.93-1.14,2.78-1.89.28-.25.73-.8,1.19-.11-.52.6.2,1.16.73.67.26-.3.72-.43.79-.9a4.55,4.55,0,0,0,2.62-2.49c-1,.66-1.83,1.82-3.11,2.07l0,.08-.35.2-.1,0Zm2.33-3.57c.31.6,2.29-.51,2.7-.9,1.24-.47,1.49-1.87,2.43-2.63.05,0,.09-.16.07-.19-.68-1.11,0-2.34-.32-3.48l.23-.36c.69-.36,1.27.91,1.6,0a.22.22,0,0,0,.11-.18c.29-.24.1-.42-.08-.6.12-.2.37-.31.35-.59.75-.75,1.62-2,2.14-.24a13.32,13.32,0,0,0-2.63,3.55,28.7,28.7,0,0,1,3-3,.75.75,0,0,0,.44-1.1c-.65-1.34.69-1.35.48-2.85-.68,2.23-4.31,3-3.66,1,.45-.93,1.74-1.23,2.17-2.15-.91.2-1.3,1.41-2.42,1.33.06-.37.28-.71.16-1.09-1,.33-.89,1.8-2,2-.37.11-.25.39-.23.64l-.6.34c-1.69-.06.51,3.35-1.64,2.23-.59-.66.51-1-.11-1.36-.38-.18-.58.4-.9.56C57.7,75,54.57,76,53.9,79.43c-1.66,1.72-2.18,4.29-3.67,6.18A1.26,1.26,0,0,0,50.12,87a5,5,0,0,0,1.18-2c.72-1.58,1.86-2.92,2.47-4.55.26-.29.37-.73.83-.83A7.21,7.21,0,0,0,58.78,82.26ZM48.52,84.71c-.24.69-.85,3,.28,3,.67-.07.44-.62.36-1.07-.18-1-.3-2.34.45-2.87,2.12-1.77,2.82-4.47,3.45-7,.67-1.09,1.33-2.2,2-3.29s2.16-1.88,2.2-3.5a.35.35,0,0,1,.58-.28c.52.31.73-.55.35-.81-.54-.58-1.14.41-1.43.8-1.51,3.36-4.35,5.42-6.08,8.67-.2-1.48.33-3.38,1-3.62-.92-.22-1.35.08-1.49,1-.45,2.94-1.24,5.78-1.58,8.71C48.45,84.49,48.49,84.6,48.52,84.71Zm12.09.82c-2.21,1.86-4.82,2.84-7.42,4-.34.19-1,.28-.75.78s.76.08,1.07-.1C56.06,89,58.81,87.81,60.61,85.53ZM44.74,83.8C45,82,42.89,80.56,43,78.56c.26-1-.74-1-.65,0C42.25,80.66,43.57,82.08,44.74,83.8Z"/><path class="cls-3" d="M142,119.32c.13-.2.26-.39.4-.58.56,1.28-.68,2.38-1.54,3.2-.07.61-1,.86-.7,1.65-3.52,1.25-4.26,6.37-7.87,7.58a25.91,25.91,0,0,1-6.87,1.7c-1.86.2-3.74-.32-5.6.32a9.43,9.43,0,0,1-2.9.42,24.53,24.53,0,0,0-10.21,2.66c-1.54,1.1-.5,4.07-.71,5.74,0,1.33-.48,1.46-1.49,1.61a4.48,4.48,0,0,0-3.7,6.26c1.41,4,.84,8.38,1.33,12.54a21.06,21.06,0,0,1-.51,6.59.72.72,0,0,0-.71,0,42.41,42.41,0,0,0,.06-10.44,30,30,0,0,0-1-8.11c-.65-2-1.48-4.4,1-6.05,1-.66,1.77-1.74,3-1.82.93-.06,1.1-.59,1-1.25.13-1.21-.54-5.8.83-5.94,3.68-1.32,7.33-2.6,11.32-2.72,2.25,0,4.48-.82,6.79-.69s4.2-.76,6.29-1.22c3.7-.54,5-4.32,7.4-6.68.58-.32.7-1,1.18-1.4a1.08,1.08,0,0,0,.86-1c.52-.9,1.56-1.32,2-2.25C141.92,119.86,142.3,119.62,142,119.32Z"/><path class="cls-3" d="M129.66,136.82c-2.92,1.38-5.35,3.75-8.52,4.55-2.74.69-5.32,1.78-8,2.68s-5.08,3.91-4.73,6.88a7.82,7.82,0,0,1-.52,4.09c-1,2.22-1,4.7-1.82,7-.2,3.74.93,7.37-2.82,10-1.75,1.2-1.87,3.08-2.38,4.79-.66,1.14.23,4.21-1.36,4.34a30.8,30.8,0,0,1,.77-6c.35-1.18-.1-1.23-1-1.07.64-1.06,1.74.36,2.24-.91.48-.84-.86-.27-.57-.95s.1-1.21.49-1.71c.17.44-.23,1,.16,1.38.56,0,.65-.74,1.07-1,2.29-1.26,2.71-3.44,2.64-5.71a13.07,13.07,0,0,1,.52-5.53,25.8,25.8,0,0,1,1.82-6.48c-.22-1.34.12-2.71-.21-4.06a1.34,1.34,0,0,1,.35-1.37c2.83-4.37,4.86-4.56,9.52-6.21,2.16-.85,4.58-1,6.57-2.33a70.72,70.72,0,0,1,6.69-3.76l.15.66a4.44,4.44,0,0,0-1.1.72Z"/><path class="cls-4" d="M130.75,136.13l-.15-.66c7.45-2.69,14.54-7.35,17.62-15,.43-1,1.27-2,1-3.23.35.32.84,1.1,1.29.45,0-.69-2-1.08-.7-2.69.42,1.16,1.27,1.08,2.23.85,6.68.29,13.27,2.53,19.64,4.54,2.5.59,4.75,2.32,7.32,2.43,1.16-.08,1.18,1.52-.05.84-9-3.16-18.11-6.46-27.74-7.23-.49-.06-1.29-.18-.48.75a.64.64,0,0,1-.37,1c-.74.16-.83.7-1,1.23A25.23,25.23,0,0,1,130.75,136.13Z"/><path class="cls-3" d="M41,99.35a23.4,23.4,0,0,1,7.32,2.9c1.77,1.09,1.16.54,1.63-.77.37.16.76.18,1.12.34s.43.39.75.32a41.79,41.79,0,0,1,3.4,2.83c-.84,0-.63.82-1,1.16v.06a22.46,22.46,0,0,0-2.08-1.09c0,.66.43.84.6,1.18-.46.64-.56-.46-.94-.2-4.77-5.72-13-6.74-20.08-6.25-.44,0-.85.33-.35.69,1.92,1.2-2.46,2.89-3.4,2.94.22-.55.11-1-.56-1.09.7-.46.83,0,1.35-.89.15,0,.34-.2.45.09.76,1.37,2.49-.62.64-.85a.54.54,0,0,0-.26-.55A.77.77,0,0,0,29.56,99l.06,0a6.69,6.69,0,0,0,3.24-.09C35.63,98.64,38.3,99.16,41,99.35Z"/><path class="cls-3" d="M85.68,80.41a27.39,27.39,0,0,0,2.06-4.59c.21.26.26.67.68.72-3.13,8.7-15.44,26.39-25.62,26-.54-.46-1.06-.06-1.63,0-1.14-.93-2.63-.34-3.89-.82-.13-.25-.21-.53-.48-.68,3.88.63,7.07,1.65,10.78-.56,6.33-3.18,10.64-8.8,14.86-14.29,1.39.07,2.77-4.29,3.55-5.43C86.13,80.47,85.83,80.48,85.68,80.41Z"/><path class="cls-3" d="M138.57,114.49c-4-.69-4,2.3-5.07.91-.68-.71.84-.6.56-1.26-.13-.27-.38-.16-.6-.15-5.21,0-10.4.14-15.61-.06a10.4,10.4,0,0,0-5.38.81c-1,.84-2-.83-.45-1a37,37,0,0,1,10.28-.64c.79.12,1.44-.52,2.3-.43s1.94.19,2.9.37c2.34.6,4.71-.38,7.06.28,1.79.69,3.32-.56,5-.66.22.12.42.25.36.55C138.93,113.41,139,113.53,138.57,114.49Z"/><path class="cls-4" d="M88.42,76.54c-.42-.05-.47-.46-.68-.72,1.16-4,1.94-8.55.15-12.43a23.82,23.82,0,0,0-11.31-12l.7-.63c7,3.1,13,10.44,12.52,18.41C89.54,71.67,89.45,74.18,88.42,76.54Z"/><path class="cls-4" d="M93.73,184.59a189.79,189.79,0,0,1-10.39-26.77c-.26-.84-.06-1.81-.69-2.57-.2-.25,0-.52.2-.68.52-.25,1.16.65,1.08,1.13,1.51,10,6.71,19.17,10.37,28.56A.47.47,0,0,0,93.73,184.59Z"/><path class="cls-5" d="M29.62,98.92c-.71.5-1.48-.08-2.22,0a1,1,0,0,0,.43.68l-.1.12c-1.12-.17-2-1-3.25-.92-.41,0-.77,0-.63.59-.19.31-.47.62-.15,1,.49.41,1.1-.15,1.67,0l.22.21h0c.1,1-1.4.48-1.58,1.27s-.81,1-1.21,1.58a1.78,1.78,0,0,0-1.53,1.09L20.7,104l.07-.38c.36-.32.07-.89.47-1.25.33.74.76.84,1.38.3.88-.76.87-1.07-.19-1.82l.3-.29c.51.11.54-.46,0-.48-.87-.41-1.29.26-1.79.74-.23,3-1.88.54-2.26,2.08-.88.37-2,0-2.71.9-.12.18-.23.37-.49.36l-.51-.33.43-.24c.54-.07.57-.62.85-.93.77-.52,2.14-.61,2.54-1.47.34-2.14,2.82-2.07,4.26-3C25.49,96.54,27.46,97.28,29.62,98.92Z"/><path class="cls-3" d="M100,134a8.32,8.32,0,0,1,2.43-3.14,15,15,0,0,1,9.39-4.68c4.4-.92,8.75-2.35,13.28-2.46.12.08.21-.08.32,0,.34.29,0,.53-.07.79-5.35.27-10.44,2.06-15.69,3-4,.46-6.49,3.84-8.83,6.74Z"/><path class="cls-4" d="M66.33,119.11a11.39,11.39,0,0,1-3.37-4c-2.63-2.84-5.89-5.09-8.06-8.41.17-.16.34-.1.51,0,.15.76.43,1.18,1.16.46l.4.32c-.21.33,0,.57.18.79.64.48,2,2.57,2.65,2.43.56-.67-2.06-2.53-2.57-3.08a5.41,5.41,0,0,1,2,1.23c.22.25.54.62.94.16.84,1.55,3.38,2.49,3.54,4.23-.21,1,.46,1.62.93,2.32,1.13,1.46.77-2.8,2.92,2.57C65.76,117,66.84,118.4,66.33,119.11Zm-6.58-7.86c0,.81.89.86,1.09,1.44,0,.15.37.37.53.08.33-.61-.1-1.09-.44-1.5S60.19,111.18,59.75,111.25Z"/><path class="cls-5" d="M40,77.92a1.46,1.46,0,0,0,.46.93c-.71.89-.9,1.68.33,2.32.62.5-.32,1.6-.39,2.18-1.27-.27-2.8-.16-3.72-1.08a.41.41,0,0,0-.42-.46l-.28-.38h0a3.42,3.42,0,0,1-.34-2.6c.42-1.54,0-3.13.3-4.68a.35.35,0,0,0,.18-.13c.48.68-.21,1.69.63,2.26-1.07,2.8,2.45,4.31,2.15,2.25-.09-.6-.52-1.15-.12-1.81-.28.23-1.08,1.39-1.19.63.52-1-.48-.78-.84-1.07-.05-.86.62-1.19,1.23-1.35s.25.61.52.86.36.48.7.49l.51.45C39.37,77.22,39.56,77.59,40,77.92Zm-2.78,3.89c.16,0,.43.39.6.07s-.84-1.53-1.1-.92C36.51,81.33,36.8,81.58,37.17,81.81Z"/><path class="cls-5" d="M3.41,136.43c-.23-2.13,0-4.28-.07-6.41-.06-3.22,1.32-6.14,1.49-9.29.08-1.59,1.61-2.81,1.59-4.41a4.14,4.14,0,0,1,1.21-1.39c.38.8,2-.49,2-1.17a.85.85,0,0,1,.67-.79c.72,0,.8,1,.19,1.26a1,1,0,0,0-.22.24c-.73-.06-.55.6-.76,1C8.28,116.3,6.71,117.1,7,119c-.34.42-1,.57-1.11,1.19-1.18,5.57-2.54,11.21-1.51,16.93Z"/><path class="cls-3" d="M94.77,145.65a3.17,3.17,0,0,1,.67-1.13c.08.38-.64,1.25.57.9a4.75,4.75,0,0,0,.25,2.51c.52,2,.53,4.17,1.44,6.12a12.37,12.37,0,0,1,1.29,6,18.43,18.43,0,0,0,.76,7.45,1.56,1.56,0,0,1-.23,2.1,21.81,21.81,0,0,1-1.59-9.37c.15-2.7-.91-4.94-1.55-7.37A47.58,47.58,0,0,1,95.07,146C95.09,145.73,95,145.6,94.77,145.65Z"/><path class="cls-4" d="M74.08,49.87A6.48,6.48,0,0,1,71.31,49a39.23,39.23,0,0,0-8.43-2.41c-3.82-.56-7.48,1-11,2.34a.69.69,0,0,0-.15-.86C60,44,66.24,45.7,74.25,49.21Z"/><path class="cls-3" d="M94,118.89c.27-.14.31-.33.23-.64-.36-1.43-.26-1.59,1-2,3.2-1.12,6,0,8.09,2.41,1.37,1.59-1.29,1-.22,3.48.06.23.24.4-.13.45-1.19.13-2.4,1-3.57-.08.47-.3,1.59.57,1.38-.48,1.1-1.26-.46-1.84-1.69-1.12.5-.4,0-.93.58-1,.25,0,.55.09.56-.34-.17-.93-1.55-.67-2-1.42a1,1,0,0,0-1.31-.18c-1.4-.49-1.71-.36-1.76.72A.74.74,0,0,1,94,118.89ZM102,120.3a1.28,1.28,0,0,0-.33.81c.57-.19.76-.41.33-.81,3.36-1.31-2.91-4.17-4.66-3.4,1,1,3,.84,3.42,2.36C101,120,101.41,120.14,102,120.3Z"/><path class="cls-3" d="M83.89,129.56c-1,2.35-4.1.36-6,1-1.55.09-5.71-4.51-6.7-5.92-.63-.94-1.12-2.13-2.24-2.75a.81.81,0,0,1-.46-.93c.47.3.75,1.49,1.53.32a31.22,31.22,0,0,0,5.37,6.44C77,129.4,79,129.36,81,129.47a2.48,2.48,0,0,0,2.49-.94c0,.59-.68,1-.4,1.72Z"/><path class="cls-4" d="M36.91,82.59a14.23,14.23,0,0,0,3.44.76c.07-.58,1-1.68.39-2.18-1.23-.64-1-1.43-.33-2.32,2.21,2.94-.25,3.81.45,5.27,1.49,3.36,2.74,6.87,5.82,9.22.31.24.85.55.55,1.1-.16.28-.47.1-.69-.06-.86-1.17-2.23-1.84-3-3.15S42.22,88.5,41.2,87.5l.62-.45c-.45-.33-.89-.75-1.32,0-1.52-1-1.08-3.72-3.07-4A.57.57,0,0,1,36.91,82.59Zm2.76,1.72c.31.13.5-.29.21-.48S39.34,84.1,39.67,84.31Z"/><path class="cls-3" d="M3.41,136.43l1,.64a20.18,20.18,0,0,0,8.38,11.74,5,5,0,0,1,1.52.84c.52.95,1.67.62,2.4,1.3.17.42.41.66.88.34l.58.33-.66.55-1-.58c-.05-.33-.23-.31-.45-.18C9.93,148.89,4.35,143.23,3.41,136.43Z"/><path class="cls-3" d="M109.71,206.05a25.67,25.67,0,0,1-3.32-4.1c.92-1.18,0-1-.32-2.48a3.46,3.46,0,0,0,0-1.61c1.6,1.46.26,3.89,3.94,6.12a69.89,69.89,0,0,1,5.66,4.27c.44.62,3.24,1.46,2,2.27-.37.18-.55-.12-.74-.34a46.9,46.9,0,0,0-4.94-3.83c-.74-.58-.7.9-1.27.59-.9-1,.55-1.95-1.38-2.16A1.17,1.17,0,0,1,109.71,206.05Z"/><path class="cls-4" d="M162,126.18c3.32,2.34,6.33,5.13,10.23,6.53.41.18,2,.85,1.71,1.33a.5.5,0,0,1-.7.16c-1.31-.64-2.57-1.36-3.89-1.95-2.74-1.2-4.64-3.58-7.2-5-1.41-.61-2.9-2.24-4.51-1.36a.7.7,0,0,1-1.07-.25c-.2-.44.31-.54.57-.69C158.86,124,160.53,125.36,162,126.18Z"/><path class="cls-5" d="M90.19,133c-1.88-1.56,1.68-2.93,2.83-3.49,1.12-.41,1.34-1.23,1.49-2.21.34-1.5.18-3.2,1-4.55.32-.51.67-.09,1,0s.37.43.13.72a4.69,4.69,0,0,0-.86,2.87c-.06.93-.62,1.74-.43,2.74-.15,1.19-2.93,1.69-3.88,2.4-.44.22-.91.47-.54,1.12.1.18.23.43-.06.58S90.37,133,90.19,133Z"/><path class="cls-5" d="M94,118.89a.74.74,0,0,0,1.18-.25c.84.38,1.23-.34,1.76-.72a1,1,0,0,1,1.31.18,3.88,3.88,0,0,0,1.57.85c.6.16.65,1.07-.1.91-.61.07-.08.6-.58,1,1.24-.72,2.79-.14,1.69,1.12-.75-.21-1.56.31-2.29-.18.26-1.14-2-.81-2.17-2.06-.1-.34-.45-.13-.69-.11-1.15-.22-3.63,1.62-3.95.7S93.33,118.89,94,118.89Zm3.78-.5c0-.06,0-.1,0-.13a.58.58,0,0,0,.08.22Z"/><path class="cls-4" d="M36.08,74a.35.35,0,0,1-.18.13,17.84,17.84,0,0,1,1.23-8c1.17-.76.93-2.29,1.78-3.25.51-.57-.21-1.6.59-2.17,1.12,2-2.32,6.92-.46,8.41l-.91,1.31c-1-.35,0-1.17-.37-1.71C36.08,70.32,37.44,73.29,36.08,74Z"/><path class="cls-3" d="M48,140.92c-2.31,4.23-10.44,9.62-15.12,10.64-.12-.23,0-.45,0-.68A18.65,18.65,0,0,0,41.65,146a16.49,16.49,0,0,0,5.87-5.72c.27.87-.74,1.22-.78,2C47.28,141.94,47.38,141.21,48,140.92Z"/><path class="cls-3" d="M102.35,198.81c-4.3.25-10.43-1.51-12.57-5.3.24-.29.51,0,.68.11,3.3,2.67,7.3,4.79,11.67,4.07C103.21,197.87,102.44,198.41,102.35,198.81Z"/><path class="cls-4" d="M32.89,150.88c0,.23-.16.45,0,.68-5,1.15-10.38,2.57-15.38.61l.66-.55C22.94,153.24,28.06,151.79,32.89,150.88Z"/><path class="cls-4" d="M102.35,198.81c.09-.4.86-.94-.22-1.12.58-.36.16-.74,0-1-1.41-2.07-3.25-3.95-4.52-6,.43.17.69.71,1.26.58,2.3,2.47,4,5.38,6.13,8,.23.29.5,1.17,1.11.28.27,1.47,1.24,1.3.32,2.48C105,201.38,103.86,197.45,102.35,198.81Z"/><path class="cls-4" d="M51.82,106.08c.38-.26.48.84.94.2,2.61,2,3,5.19,4.26,7.88.79,1.69.56,3.76.73,5.67l-.74-.1c-.35-2-.14-4-1.06-5.85s-1.31-4.35-2.85-6.16C52.66,107.2,51.93,106.87,51.82,106.08Z"/><path class="cls-5" d="M48,140.92c-.59.29-.69,1-1.23,1.41,0-.8,1-1.15.78-2,1.71-2.37.27-3.71,1.57-5.09,2.43-1.36,3-7.85,4.14-6.2.58.37-2,4.16-2.19,5.3-.68.6.07.81.32,1.15a4.54,4.54,0,0,0-2,2.27c-.25.81-1.15,1.46-.9,2.41Z"/><path class="cls-4" d="M138.57,114.49l.31-.61a59.91,59.91,0,0,1,9.42,1.46c-.23.79.48,1.11.79,1.63a.74.74,0,0,0-.9.49l-.7-.45c1.1-1.68-1.94-1.37-3.1-1.37.57.47,1.21.75.57,1.42-.85.89-1.63,1.86-2.43,2.8a2.37,2.37,0,0,0-.13-1.12C146.31,113.84,143.82,115.68,138.57,114.49Z"/><path class="cls-3" d="M51.78,48.11a.69.69,0,0,1,.15.86,19.67,19.67,0,0,0-3.44,3.26c-.33-.12-.07-.93-.68-.64a1,1,0,0,0-.14,1.79L44.61,57c-.51-.41-1-.84-1.25.24-.46-.22-.08-.94.14-1.09,1.39.2,1.57-1.13,2.3-1.76.54-.82-1-1,.63-2.23,2.69-3.09,2.41-.82,4.42-3.39l0,0C51.41,48.77,51.54,48.57,51.78,48.11Z"/><path class="cls-5" d="M96,145.42c-1.21.35-.49-.52-.57-.9,1.09-1,1.11-2.55,1.92-3.69,1.72-2.15,2.47-1.76,2.5-5l0,0c0-.5.34-.93.11-1.43l.1-.46.83.19a5.53,5.53,0,0,0-.3,2.32c-.06,1.45.44,3.15-1.56,3.83A15.52,15.52,0,0,0,96,145.42Z"/><path class="cls-4" d="M56.8,101c.27.15.35.43.48.68-2.59.16-4.32-2-6.41-3.15C50,98.09,49.32,96.2,48.26,97l-.36-.31c.67-.4.14-.72,0-1.09s-.8-.35-.33-.75.63.15.84.36C51,97.41,53.37,100.24,56.8,101Z"/><path class="cls-4" d="M43.2,56.6c-.06.24-.13.49.16.66l-.25.42c-.34,0-.48.22-.64.43-.41-1-.78-.51-1.15,0a7.17,7.17,0,0,0-1.9,1.38c-.21-.49,1.06-5.07,1.55-4.83,1.42.59,1.08-.75,1.46-1.3.37,0,.21.58.61.55.21.93-1,2.25-.39,2.93C42.92,57,43,56.73,43.2,56.6Zm-2.37-1.46c0,.28.05.55.32.62s.45.42.65,0S41.17,54.86,40.83,55.14ZM41,57.31c.31.15.47,0,.61-.27a.41.41,0,0,0-.13-.58c-.34-.24-.41.13-.54.31S40.66,57.16,41,57.31Z"/><path class="cls-4" d="M159.88,108.91c2.14,1.14,4.07,2.49,5,4.9,0,.7,1.84,2.14.4,2.31-.49-.11-.61-.51-.67-.94-.35-3.06-3.6-4.05-5.47-6C159.29,109,159.84,109.58,159.88,108.91Z"/><path class="cls-4" d="M140,113.17c.06-.3-.14-.43-.36-.55,3.29-.43,6.84-.18,9.6,1.76-.15.18-.27.41-.57.37C145.88,113.43,142.87,113.59,140,113.17Z"/><path class="cls-5" d="M7.34,114c.23-.59,1.1-1.13.43-1.71-.37-.34-.64.1-.82.44h0c-.16-.33,0-.57.19-.83,1.71-.32,2.25-1.86,3.15-3,.42-.13.62-.37.44-.82a3.53,3.53,0,0,1,1-1.46c.25.06.48-.23.73,0-1.5,2.63-3,5.23-4.57,7.83Z"/><path class="cls-5" d="M99.52,169.62l.55-.7c.1.28-.11.67.25.81s.38-.51.6-.71a.72.72,0,0,1,.71,0c-.32.36-.47.72-.08,1.13a12.45,12.45,0,0,0-.57,2.07c0,.11-.1.34.12.37s.72,0,.45.58c-.49,1.27-1.6-.15-2.24.91-.18.06-.37.26-.51,0a.33.33,0,0,0-.17-.42,3.84,3.84,0,0,0,1.15-2.73.62.62,0,0,0-.2-1Z"/><path class="cls-3" d="M98.83,191.2c-.57.13-.83-.41-1.26-.58-.16-.21-.32-.41-.47-.62s-.41-.43-.61-.64a1.35,1.35,0,0,1-.18-.41c.13-.29.12-.54-.24-.65a24.64,24.64,0,0,1-2.34-3.71.47.47,0,0,1,.57-.33l2.31,3.85Z"/><path class="cls-5" d="M6.45,114.09c-1,1.31-1.1,3.16-2.65,4-.29.23-.68.5-1,.2C2,117.53,5.81,114.78,6.45,114.09Z"/><path class="cls-4" d="M125.39,124.48c0-.26.41-.5.07-.79a27.17,27.17,0,0,1,5.77-.26c-.2.26.09.51,0,.76-.36.39-.84.29-1.27.3C128.45,124.51,126.92,124.49,125.39,124.48Z"/><path class="cls-3" d="M159.88,108.91c0,.67-.59,0-.78.31a6.66,6.66,0,0,0-3.62-.65c-1.43.17-1.91-.87-.83-1.9C155.08,108.13,157.62,107,159.88,108.91Z"/><path class="cls-4" d="M51.36,135.47c-.25-.34-1-.55-.32-1.15.29.27.53.18.73-.12,1-1.46,2.59-2.43,3.41-4l.48.62C54.72,132.7,52.88,134,51.36,135.47Z"/><path class="cls-3" d="M137.87,167.49c-.13,1.39.72,2.55.87,3.88,0,.34.45.83,0,.95a.89.89,0,0,1-1.09-.7c-.14-1.39-.8-2.64-.94-4C137.18,168.06,137.51,167.63,137.87,167.49Z"/><path class="cls-5" d="M70,121.29c-.78,1.17-1.06,0-1.53-.32l0,0c.18-.78-.58-1-1.11-1.35-.09-.31-.27-.25-.46-.1l-.54-.38c.06-.14.21-.29.18-.4C65.76,115.79,70.17,120.23,70,121.29Z"/><path class="cls-3" d="M85.56,138.11a3.63,3.63,0,0,1-3.8-1.83c-.15-.21-.35-.49-.09-.7,1.16-.37,1,1.77,4.53,1.61Z"/><path class="cls-2" d="M51.55,99.09c3.06,1.61,2.93,2.79,7.15,2.77a2.46,2.46,0,0,0,.07.29c-1.11,1.12-1.58,1.23-3.22.18C54.75,101.52,50.85,100.33,51.55,99.09Z"/><path class="cls-5" d="M55.41,106.73c-.17-.09-.34-.15-.51,0l-.66-.61c.39-.34.18-1.21,1-1.16,1.1.38,1.12,1.73,2.35,1.81.81.82,1.81,1.37,2.55,2.26-.4.46-.72.09-.94-.16A14.18,14.18,0,0,0,55.41,106.73Z"/><path class="cls-3" d="M138.44,166c1.28-1,2.95-1.06,4.32-1.88.38-.23.86.18,1,.53s-.37.39-.62.42c-1.74.18-3.16,1.16-4.71,1.82C138.54,166.57,138.88,166.28,138.44,166Z"/><path class="cls-4" d="M57.31,121.12a13.09,13.09,0,0,0-.65,6.23c-.28-.21-.54-.25-.77.06C55.81,125,55.3,123,57.31,121.12Z"/><path class="cls-4" d="M138.66,122.87a3.63,3.63,0,0,1-1,1.23c-.21-.67-2.73.32-3.81-.21,0-.46.75-.23.75-.73Z"/><path class="cls-5" d="M85.56,138.11c1.16-2.07,1.66-1.18,3.33-.87.61,0-.1,1.42-.54,1C87.42,137.61,86.48,138.21,85.56,138.11Z"/><path class="cls-3" d="M12.49,106.53c-.25-.18-.48.11-.73,0,.53-1.57,2.12-1.89,3.25-2.75l.51.33A21.67,21.67,0,0,1,12.49,106.53Z"/><path class="cls-2" d="M109.71,206.05a1.17,1.17,0,0,0-.38-1.27c1.93.22.48,1.15,1.38,2.16.25.19.39-.1.49-.28s.38-.6.78-.31a14.26,14.26,0,0,1,2.72,2.11l-1.88-1.22c-.6-.38-1.19-1.09-1.8,0C110.41,207.92,109.46,206.76,109.71,206.05Z"/><path class="cls-3" d="M134.63,123.16c0,.5-.71.27-.75.73a7.33,7.33,0,0,1-2.63.3C130.71,122.58,133.71,123.3,134.63,123.16Z"/><path class="cls-5" d="M148.63,114.75c.3,0,.42-.19.57-.37a2.6,2.6,0,0,1,.58.66c-1.33,1.62.72,2,.7,2.69-.48.69-1.23-.28-1.39-.76C148.5,116.31,147.87,115.66,148.63,114.75Z"/><path class="cls-3" d="M43,53.94c-.4,0-.24-.55-.61-.55A5.28,5.28,0,0,1,44,50.49C43.89,51.71,43.1,52.73,43,53.94Z"/><path class="cls-3" d="M55.89,127.41c.23-.31.49-.27.77-.06a7.66,7.66,0,0,1-1,3.43l-.48-.62A12.5,12.5,0,0,0,55.89,127.41Z"/><path class="cls-5" d="M83.89,129.56l-.76.69c-.28-.71.42-1.13.4-1.72.31-.38.9-.4,1.12-1,.12-.31.61-.18.85.08C86.12,128.4,84.29,129,83.89,129.56Z"/><path class="cls-3" d="M74.08,49.87l.17-.66,0,0a12.8,12.8,0,0,1,3,1.51l-.7.63-1.15-.67c0-.14-.09-.17-.21-.11Z"/><path class="cls-2" d="M50,101.48c0,.06-.12.12-.13.18.06,1.81-.64,1.12-1.87.33.35-.14.45-.44.56-.77C48.62,100.55,50.54,100.72,50,101.48Z"/><path class="cls-3" d="M39.42,59.52a7.17,7.17,0,0,1,1.9-1.38,25.41,25.41,0,0,1-1.57,3.29A3.47,3.47,0,0,1,39.42,59.52Z"/><path class="cls-3" d="M57.31,121.12l-1.06,1.28c-.21-1,.77-1.71.76-2.67l.74.1C57.9,120.36,57.5,120.71,57.31,121.12Z"/><path class="cls-3" d="M7.34,114l.58.38c0,.73-1.28,1.13-1.5,2C6.28,115.37,7,114.73,7.34,114Z"/><path class="cls-5" d="M138.44,166c.79.49-1.12,2.4-1.67,1.62A4,4,0,0,1,138.44,166Z"/><path class="cls-4" d="M58.77,102.15a2.46,2.46,0,0,1-.07-.29c.84.18,1.76,0,2.47.66C60.3,102.87,59.58,102.21,58.77,102.15Z"/><path class="cls-2" d="M98.57,121.8c.73.49,1.54,0,2.29.18.21,1-.91.18-1.38.48C99,122.52,98.61,122.38,98.57,121.8Z"/><path class="cls-3" d="M113.71,116.44a.47.47,0,1,1,.58-.73c.25.22.08.48,0,.7S113.91,116.52,113.71,116.44Z"/><path class="cls-3" d="M138.42,166a4.15,4.15,0,0,0-1.65,1.62C136.62,166.36,137.57,166.22,138.42,166Z"/><path class="cls-5" d="M40.5,87.09c.43-.79.87-.37,1.32,0l-.62.45A.67.67,0,0,1,40.5,87.09Z"/><path class="cls-3" d="M7,112.71c.55-1.34,1.67.15.62.81C7.73,113,7.6,112.63,7,112.71Z"/><path class="cls-3" d="M57.61,106.78c-.58-.12-1.12-.3-1.29-1Z"/><path class="cls-3" d="M48.45,140.15c-.22-.65.19-1.09.51-1.56A2.52,2.52,0,0,1,48.45,140.15Z"/><path class="cls-3" d="M7.13,111.88c-.14.26-.35.5-.19.83C6,113.22,6.28,111.73,7.13,111.88Z"/><path class="cls-4" d="M61.54,102.46a1.1,1.1,0,0,1,1.26.05C62.36,103,62,102.62,61.54,102.46Z"/><path class="cls-3" d="M16.29,102.66c-.28.31-.31.86-.85.93C15.8,103.35,15.54,102.54,16.29,102.66Z"/><path class="cls-3" d="M67.76,119.85a1,1,0,0,1,.69,1A1.75,1.75,0,0,1,67.76,119.85Z"/><path class="cls-3" d="M99.94,134.46a1.25,1.25,0,0,1-.09,1A.79.79,0,0,1,99.94,134.46Z"/><path class="cls-3" d="M10.72,108c.18.45,0,.69-.44.82A1.06,1.06,0,0,1,10.72,108Z"/><path class="cls-4" d="M51.78,48.12c-.21.29-.3.73-.81.64C51.16,48.45,51.33,48.11,51.78,48.12Z"/><path class="cls-4" d="M139.72,121.73a1.08,1.08,0,0,1-.86,1C139.14,122.37,139.43,122.05,139.72,121.73Z"/><path class="cls-4" d="M14.41,150.67c.56,0,.89.45,1.33.67Z"/><path class="cls-3" d="M99.58,169.91a.62.62,0,0,1,.2,1A.86.86,0,0,1,99.58,169.91Z"/><path class="cls-4" d="M96.07,188.3c.36.11.37.36.24.65C96.06,188.79,96.15,188.52,96.07,188.3Z"/><path class="cls-4" d="M39.34,59.8l.09.54C38.93,60.24,39.27,60,39.34,59.8Z"/><path class="cls-4" d="M16.06,151.41c.22-.13.4-.15.45.18Z"/><path class="cls-3" d="M66.87,119.49c.19-.15.37-.21.46.1A.42.42,0,0,1,66.87,119.49Z"/><path class="cls-4" d="M36.21,81.81a.41.41,0,0,1,.42.46A.48.48,0,0,1,36.21,81.81Z"/><path class="cls-2" d="M51.86,102.14c-.32.07-.52-.15-.75-.32C51.44,101.75,51.63,102,51.86,102.14Z"/><path class="cls-4" d="M142,119.32c.3.3-.08.54-.24.16Z"/><path class="cls-3" d="M98.63,173.6a.33.33,0,0,1,.17.42Z"/><path class="cls-5" d="M94.77,145.65c.26-.05.32.08.3.3Z"/><path class="cls-4" d="M95.7,187.74l.14.2Z"/><path class="cls-4" d="M96.42,189.27s.11.1,0,.08Z"/><path class="cls-4" d="M97.06,190s0,0,0,.06Z"/><path class="cls-3" d="M49.27,137.85c0-.06,0-.1.08-.11v.08Z"/><path class="cls-4" d="M54,106l.27.19Z"/><path class="cls-3" d="M99.83,135.89l0,0Z"/><path class="cls-3" d="M58.59,107.68a.17.17,0,0,1-.13-.1h.1Z"/><path class="cls-2" d="M50.76,101.69l-.34-.06Z"/><path class="cls-4" d="M35.94,81.44s0,0-.06.06Z"/><path class="cls-4" d="M129.66,136.82s0,0,0,0Z"/><path class="cls-4" d="M130.17,136.45a.14.14,0,0,1,.1-.08v.08Z"/><path class="cls-4" d="M125.32,123.72a.19.19,0,0,1-.18,0A.11.11,0,0,1,125.32,123.72Z"/><path class="cls-4" d="M96.61,188.11h0S96.74,188,96.61,188.11Z"/><path class="cls-4" d="M149.66,114.88l-.16-.23Z"/><path class="cls-4" d="M50.82,48.82l0,0Z"/><path class="cls-4" d="M158.2,108a.14.14,0,0,1-.13-.07h.09Z"/><path class="cls-4" d="M74.45,49.3a.26.26,0,0,1-.17-.07C74.38,49.17,74.44,49.19,74.45,49.3Z"/><path class="cls-3" d="M53.9,79.43c.71-3.22,3.44-4.52,6-6l.36.22c-.19.3-.73.33-.65.85.47.28,2.19-.38,1.65.72-1.11-.3-.82.73-1.1,1.35-.93-1.51-1.08.18-1.64.25s-.22.42,0,.53c.5.25.76,1.38,1.59.47l.82.64-.53,1.32c.4.3.71,0,1,.06.55.69-.39.67-.5,1-.4-.27-1.17.17-1.18-1,0-.68-1.46.39-2.23-.2-1.11-.2.33,2.71-2.23.69,0-.33.69-.53.27-.91a.55.55,0,0,0-.92.22c-.46.1-.57.54-.83.83C53.26,80.08,53.87,79.79,53.9,79.43Zm1.69-1.25c2.24-1.15,1.95-.83,3.14-3.09L59,75l0-.1-.25.21c-.78-.27-2.78,2.35-3.13,3.1C54.74,78.26,55.91,79.52,55.59,78.18ZM58,79c.31.16.69.57,1,.22s-.16-.7-.45-1-.54-.45-.83,0S57.67,78.78,58,79Z"/><path class="cls-5" d="M60.07,77.81c-.83.91-1.09-.22-1.59-.47-.2-.11-.47-.47,0-.53s.71-1.76,1.64-.25c.28-.62,0-1.65,1.1-1.35.53-1.1-1.18-.44-1.65-.72-.08-.52.46-.55.65-.85,1.16.37,2,1.19,1.87-.55a1.5,1.5,0,0,0,.63-1.37c.4-.22.94-.43.83-1,1.12-.23,1-1.7,2-2,.12.38-.1.72-.16,1.09-1.47.54.64,1.49-.47,2.27-.26.18-.47.4-.35.74.2.5.84.09,1.27.48,0,.45-.84.78-.27,1.19a.22.22,0,0,1-.11.18c-1.08.19-.59-1-1.2-1.43-.13.57-.47,1-.4,1.47-.35.38-.41,1.18-1.12,1s-.8,0-.73.64c-.48,2.28-1-.69-2,1.35h-.12A.28.28,0,0,1,60.07,77.81ZM64.25,72c-.15,0-.37.14-.32.31A.23.23,0,0,0,64.25,72Z"/><path class="cls-4" d="M42.87,60.46a60.93,60.93,0,0,1-.35,9.2c-.46-1.2.47-5.77-.43-5.8-.81.43-.81,2.81-1.21,3.74-1.23.92-.69,3.09-2.38,3.52l.12-.44c1.32-1.07.27-3.14,1.09-4.72A11.06,11.06,0,0,1,42.87,60.46Z"/><path class="cls-4" d="M48.85,83.34c0-2.59,1.11-5,1.32-7.62.14-.91.57-1.21,1.49-1-.64.24-1.17,2.14-1,3.62a14.38,14.38,0,0,1,1.68-2.58c.35.4-.24.8,0,1.23.28-.07.37-.59.74-.24C53,78,52.27,79,52,80.18c-.55-.19-.6.48-1,.57.14-.4,1.54-1.89.63-1.91-.69.42-1.75.42-1.78,1.62a14.05,14.05,0,0,1-.28,1.9C49,82.44,49.28,83.15,48.85,83.34Z"/><path class="cls-4" d="M60.05,77.7c.94-2,1.51.93,2-1.35-.08-1.59,1,.23,1.62-1.29.28,1.14-.36,2.37.32,3.48-.79.89-1.29,2.27-2.5,2.82.05-.47-.3-.44-.59-.49h0c.11-.37,1-.35.5-1,.56-.61,1.14-1.22.32-2-.32.17-.39.65-.82.67l-.82-.64S60,77.74,60.05,77.7Z"/><path class="cls-3" d="M42.87,60.46A11.11,11.11,0,0,0,39.37,69l-.33.11a1.67,1.67,0,0,1-.52-1.84c.48-1.46.46-3,1.15-4.45A3.37,3.37,0,0,1,40,63l-.14.42c.43,0,1-.39.51-.8.41-1.66,1.9-2.79,2.11-4.53.16-.21.3-.47.64-.43.32.36-.36.88.2,1.2Z"/><path class="cls-3" d="M65.87,73.29c-.43-.39-1.06,0-1.27-.48-.12-.34.09-.56.35-.74,1.1-.78-1-1.74.47-2.27,1.12.08,1.51-1.13,2.42-1.33-.43.92-1.72,1.22-2.17,2.15-.65,2.07,3,1.24,3.66-1,0,.86,0,.88-.24,1.24-1.15,1.12.68,2.07-.68,2.71C67.33,71.78,67.32,71.76,65.87,73.29Z"/><path class="cls-3" d="M53.06,76.76c-.37-.35-.46.17-.74.24-.19-.43.4-.83,0-1.23a26.2,26.2,0,0,0,4.4-6.09c.29-.39.89-1.38,1.43-.8.38.26.17,1.12-.35.81a.35.35,0,0,0-.58.28c0,1.62-1.49,2.33-2.2,3.5C54.42,74.46,53.73,75.7,53.06,76.76Z"/><path class="cls-3" d="M51,80.75c.38-.09.43-.76,1-.57-1.07,3.63-3.61,3-2.84,6.45.08.45.31,1-.36,1.07-1.48-.16,0-3.43.05-4.36.43-.19.17-.9.74-1C50.61,82.31,50.63,81.36,51,80.75Z"/><path class="cls-4" d="M60.61,85.53c-1.8,2.28-4.55,3.44-7.1,4.68-.31.18-.83.62-1.07.1s.41-.59.75-.78C55.79,88.37,58.4,87.39,60.61,85.53Z"/><path class="cls-3" d="M36.08,74c.69-.3.61-.94.68-1.51h0c.54.28.23.94.52,1.37.78-.46.76-1.3,1.18-1.88a.38.38,0,0,1,.15.09c.16,1.4.36,2.79.53,4.19-.34,0-.48-.3-.7-.49s.17-1-.52-.86-1.28.49-1.23,1.35h0C35.87,75.72,36.56,74.71,36.08,74Z"/><path class="cls-4" d="M55.62,80.64c2.06,1.45.83-1.21,1.86-1,.77.59,2.22-.48,2.23.2,0,1.17.78.73,1.18,1-.49.56-1,.87-1.7.27-.49-.43-1,0-1.28.27-.39.38.41.34.46.66A4.31,4.31,0,0,1,55.62,80.64Z"/><path class="cls-4" d="M53.9,79.43c0,.36-.64.65-.13,1.07-.61,1.63-1.75,3-2.47,4.55a5,5,0,0,1-1.18,2,1.26,1.26,0,0,1,.11-1.41C51.72,83.72,52.24,81.15,53.9,79.43Z"/><path class="cls-4" d="M55.93,86.14c-.46-.69-.91-.14-1.19.11-.85.75-1.92,1.17-2.78,1.89-.58.7-1.39-.63-.82-.88,1.47,0,4-2.64,5.12-1.4Z"/><path class="cls-4" d="M44.74,83.8c-1.17-1.72-2.49-3.14-2.37-5.25-.09-1,.91-1,.65,0C42.9,80.57,45,82,44.74,83.8Z"/><path class="cls-5" d="M47.9,96.69l.36.31c-1.42.78-1.65,3.68-2.72,3.06-.57-.28-.13-.66,0-.93C46,98.67,47.22,95.64,47.9,96.69Z"/><path class="cls-3" d="M58.37,82.07c0-.32-.85-.28-.46-.66.24-.23.79-.7,1.28-.27.7.6,1.21.29,1.7-.27.29,0,.64,0,.59.49a6.57,6.57,0,0,1-2.37,1.13A4.15,4.15,0,0,0,58.37,82.07Z"/><path class="cls-4" d="M85.68,80.41c.15.07.45.06.31.33-.79,1.14-2.16,5.49-3.55,5.43l.38-.59c.28,0,.35-.09.22-.34.16-.95,1-1.56,1.29-2.43.61-.19.4-.94.85-1.25-.11-.24,0-.36.23-.35A1.38,1.38,0,0,1,85.68,80.41Z"/><path class="cls-5" d="M38.63,72.1a8.3,8.3,0,0,1-.7-.51l.57-.47c1.69-.43,1.15-2.6,2.38-3.52l-.07,1.64c-1,.41-1.22,1.8-1.53,2.76Z"/><path class="cls-4" d="M57.38,85.36c1.07-.4,1.75-1.35,2.69-1.94a4.55,4.55,0,0,1-2.62,2.49C57.42,85.73,57.4,85.55,57.38,85.36Z"/><path class="cls-4" d="M68,73.05l.4.54a28.7,28.7,0,0,0-3,3A13.32,13.32,0,0,1,68,73.05Z"/><path class="cls-4" d="M40,70a1.06,1.06,0,0,1,.79-.79,4.61,4.61,0,0,1-.16,3.42C40.56,72,41.17,70,40,70Z"/><path class="cls-5" d="M43.31,58.88c-.56-.32.12-.84-.2-1.2.5-1,.53-1.53,1.5-.66C44.67,58,43.48,58.08,43.31,58.88Z"/><path class="cls-3" d="M57.38,85.36c.25.7-.24,1.08-.72,1.45a.53.53,0,0,1-.72.09c-.41-.23-.12-.5,0-.76.3-.35.79-.34,1.12-.65Z"/><path class="cls-4" d="M47.67,53.38a1,1,0,0,1,.14-1.79c.61-.29.35.52.68.64Z"/><path class="cls-4" d="M40,77.92c-.39-.33-.58-.7-.28-1.18.48-.17,1.1.16,1.4-.23C41,77.05,40.18,77.26,40,77.92Z"/><path class="cls-3" d="M63.89,74.7c-.07-.51.27-.9.4-1.47.61.39.12,1.62,1.2,1.43C65.16,75.61,64.58,74.34,63.89,74.7Z"/><path class="cls-4" d="M61.1,74a4.9,4.9,0,0,1-1.22-.53c.07-.09.12-.22.21-.27.32-.16.52-.74.9-.56C61.61,73,60.51,73.29,61.1,74Z"/><path class="cls-4" d="M38.63,72.1l.65-.1c.43.68.29,1-.55,1Z"/><path class="cls-4" d="M62.74,71.72a1.5,1.5,0,0,1-.63,1.37C62.13,72.54,61.7,71.8,62.74,71.72Z"/><path class="cls-4" d="M54.6,79.67a.55.55,0,0,1,.92-.22c.42.38-.24.58-.27.91C54.88,80.27,54.78,79.94,54.6,79.67Z"/><path class="cls-3" d="M85.18,81.56c-.45.31-.24,1.06-.85,1.25A1.41,1.41,0,0,1,85.18,81.56Z"/><path class="cls-3" d="M63.57,70.74a.7.7,0,0,1-.23.64C63.32,71.13,63.2,70.85,63.57,70.74Z"/><path class="cls-3" d="M65.6,74.48a.38.38,0,0,1-.08-.6C65.7,74.06,65.89,74.24,65.6,74.48Z"/><path class="cls-3" d="M83,85.24c.13.25.06.36-.22.34Z"/><path class="cls-4" d="M56.59,85.77a.2.2,0,0,1-.14.06l0-.08Z"/><path class="cls-4" d="M57.05,85.49a.13.13,0,0,1-.11.08l0-.08Z"/><path class="cls-4" d="M39.65,70.65l.14-.22C39.76,70.52,39.77,70.63,39.65,70.65Z"/><path class="cls-4" d="M58.78,82.26l.33.23C58.94,82.51,58.85,82.4,58.78,82.26Z"/><path class="cls-4" d="M54.94,73.67c0-.09,0-.21.13-.2Z"/><path class="cls-4" d="M48.59,84.43l-.07.28C48.49,84.6,48.45,84.49,48.59,84.43Z"/><path class="cls-3" d="M85.44,80.83l0,.38C85.23,81.07,85.37,81,85.44,80.83Z"/><path class="cls-4" d="M75.22,50.59c.12-.06.2,0,.21.11Z"/><path class="cls-2" d="M149.09,117c.55,1.32-.39,2.45-.87,3.54a24.27,24.27,0,0,1-9,10.71c-4.79,3.26-10.58,4.57-15.3,8-2,1.37-4.41,1.48-6.57,2.33-2.67,1.14-6.07,1.55-7.91,4-.48,1.26-2.24,2.1-2,3.54s0,2.72.21,4.06a25.4,25.4,0,0,0-1.83,6.59c-1.8,5.19,1.77,8.25-4.22,12.09-.39-.42,0-.94-.16-1.38.06-.53.57-1,.16-1.48,1.15-4.67.15-9.51.1-14.27-.16-4.41-3.8-9.68,2.78-11.13,3.28-.05-.06-6.06,2.2-7.35a24.53,24.53,0,0,1,10.21-2.66,9.43,9.43,0,0,0,2.9-.42c1.86-.64,3.74-.12,5.6-.32a25.91,25.91,0,0,0,6.87-1.7c3.09-1.24,4.26-4.86,6.66-7,1.12-.85,2.78-.58,4-1.4.32-.19.65-.49.93.06a7.08,7.08,0,0,1-1.42,1.85c-.26.22-.43.6-.12.87.95.44,2.15-2.14,2-3a1.64,1.64,0,0,1,.77-.79C147.46,120.79,147.82,116.59,149.09,117Z"/><path class="cls-2" d="M131.25,124.19a7.33,7.33,0,0,0,2.63-.3,7.1,7.1,0,0,0,2.83,0c.35,0,.73-.29,1,.19-2.37,2.35-3.71,6.14-7.41,6.68-2.09.46-4.09,1.34-6.29,1.22s-4.54.65-6.79.69c-4,.12-7.64,1.4-11.32,2.72-1.38.15-.69,4.73-.83,5.94,0,.66-.12,1.19-1,1.25-1.28.08-2.06,1.16-3,1.82-2.48,1.65-1.65,4-1,6.05a30,30,0,0,1,1,8.11,42.41,42.41,0,0,1-.06,10.44c-.08.13-.16.26-.23.39a.66.66,0,0,1-.58-.26,4,4,0,0,0-.36-1.63,18.43,18.43,0,0,1-.76-7.45,12.37,12.37,0,0,0-1.29-6c-.91-2-.92-4.09-1.44-6.12-1-2.71,1.06-5.58,2.75-7.59,2.86-1.11.83-4.1,1.86-6.15,2.34-2.9,4.87-6.28,8.83-6.74,5.25-.91,10.34-2.7,15.69-3C127.16,124.3,129.73,124.92,131.25,124.19Z"/><path class="cls-6" d="M142.53,119.86c.8-.94,1.58-1.91,2.43-2.8.64-.67,0-1-.57-1.42,1.16,0,4.2-.31,3.1,1.37-.46,2.13-2.15,3.36-3.89,4.46-1-.3-2.15,1.55-2.74.47A7.47,7.47,0,0,0,142.53,119.86Z"/><path class="cls-4" d="M140.86,121.94c.58,1.08,1.75-.77,2.74-.47a1,1,0,0,1,.54.93v0l-.28.4c-.28-.55-.61-.25-.93-.06a8.89,8.89,0,0,1-2.76.87C139.83,122.8,140.79,122.55,140.86,121.94Z"/><path class="cls-2" d="M7.63,114.93c.2-.14.37-.29.29-.57,1.53-2.6,3.07-5.2,4.57-7.83a21.67,21.67,0,0,0,3-2.37c.26,0,.37-.18.49-.36l.07,0,0,0c.7-.87,1.81-.51,2.68-.88.52.16.79,1.17,1.59.46,0,0,.3.16.46.26,0,.12,0,.25-.07.38a5,5,0,0,0-2.14,1.37c-1.11-.84-1.1-.83-1.91.43a17.86,17.86,0,0,0-2.43,4.43,5.35,5.35,0,0,0-3.08,2.86c1.59.2,2.09-1.54,3.15-2.36.4.07.64-.57,1.15-.25-.29,2.16-2.48,2.41-4,3.81,2.73-.21,4.81-2.5,7-4,1.72-1.51,3.6-3.09,2.87-5.87a1.78,1.78,0,0,1,1.53-1.09,5.15,5.15,0,0,0,5.19.12c.92-.06,5.32-1.71,3.4-2.94-.5-.36-.09-.66.35-.69,7-.49,15.31.53,20.08,6.25.11.79.84,1.12,1.28,1.64,1.54,1.81,1.86,4.13,2.85,6.16s.71,3.9,1.06,5.85c0,1-1,1.65-.76,2.67-1.07,2.5.24,5.23-1.07,7.76-.82,1.61-2.4,2.58-3.41,4-.2.3-.44.39-.73.12a36.28,36.28,0,0,1,2-4.18c.19-.35.56-.68.22-1.12-.13-.18-.36-.36-.58-.24-1.25,2.06-1.37,4.81-3.56,6.44-1.27,1.29.12,2.76-1.57,5.09A16.49,16.49,0,0,1,41.65,146c-2.21,1.95-4.66,3.81-7.57,4.51-5.15,1.17-10.75,2.75-15.95,1.08C3,144.78,2.21,135,5.88,120.14c1.48-2.23,4.8-2.43,6.09-5-1.21.93-3.48,3.09-5,3.15.26-2.11,2.45-2.45,3.81-3.5.18,0,.43-.14.34-.34s-.28,0-.42.06h-.51c.3-.38.87-.61.57-1.18a.5.5,0,0,0-.54-.32.85.85,0,0,0-.67.79C9.58,114.44,8,115.73,7.63,114.93Zm15.85,21.22c1.17.51.88-.64,1.22-1.08,1.94-1.12,4.14-2,5.33-4a23.41,23.41,0,0,0,5.1-10.43c.49-1.07.82-2.35,1.26-3.5.36-.26.33-.86,1-1.06-.76,7.66-4.32,14.61-8.55,20.91a9.47,9.47,0,0,1-4,3.14c-.26.12-.82-.17-.74.37,1.57,1.33,5.34-2.46,5.95-4,1.4-2.53,2.9-5,4.3-7.55a1.4,1.4,0,0,0,.34-1.11c.29-.73.57-1.46.9-2.18,1.38-3.38,2.88-7.07,2.51-10.78.14-.64-.7-1.23-.09-1.9s1.31-3.41.36-3.55.05,2.23-2,4.07a38.42,38.42,0,0,1-1.85,6.29c-.42.66-.85.06-1.27,0,.89-.26-.5-2.05-1.14-2.09a2.11,2.11,0,0,0-2.3-.73l0-.43c1.52-1.06,2.68-3.19,4.61-3.42.63.09,2.78-.87,2.3-1.56a.55.55,0,0,0-.88-.09c-2,1.63-2.32-1.11-3.31-.49-1.88,1.51-4,2.79-5.34,4.9a38.7,38.7,0,0,1-5.82,6.6c-1.7.94-2.65,3.54-3.83,5.13-.14.22-.23.55.11.68.6.22.29.52.16.86-.49.76-1.76,7.54.12,6.48a.69.69,0,0,0,0-.72,4.51,4.51,0,0,1-.21-2.65c.16-.81,1.06-6,2.26-5.07-1,2.73.61,5.39.9,8.09,0,.38.3.79.73.67s.15-.56.15-.87-.65-1-.17-1.17c1.46-.48,2-1.95,3.29-2.66a15.15,15.15,0,0,0,5.1-4.16,3.47,3.47,0,0,1,2.43-1.85c.61,0,.52.33.29.74a26.26,26.26,0,0,1-5.47,7.18c-1.35.4-3.33.93-3.65,2.49C23.51,135.79,23.15,135.92,23.48,136.15Zm10.59-25.58c1.28.56.52-1.81-.16-.66A.41.41,0,0,0,34.07,110.57Zm-20.47-1c0-.21.44-.45.07-.61s-.81.16-1.09.5-.57.49-.14.7S13.2,109.79,13.6,109.53Z"/><path class="cls-4" d="M28,103.46a5.15,5.15,0,0,1-5.19-.12c.4-.53,1.08-.81,1.21-1.58s1.68-.26,1.58-1.27c.6.05,1.34-.31,1.71.52-.58.36-.3.93.32.51a1.41,1.41,0,0,0,.91.26c-.17.53-.75.2-1.1.59C28.1,102.5,28.21,102.91,28,103.46Z"/><path class="cls-5" d="M28.53,101.78c-1.68,0-.7-1.72-2.94-1.29h0c.09-.13.08-.24-.06-.32.22-1.38,1.56.17,2.32,0,.25,0,.47.41.77.1,0-.33-.48-.38-.44-.73.53.37,1.7.4,1.69,1.2l-.41.22c-.17-.77-1.43.27-.68.54h0Z"/><path class="cls-2" d="M29.46,100.94l.41-.22c1.85.23.12,2.22-.64.85-.11-.29-.3-.07-.45-.09h0A1.34,1.34,0,0,1,29.46,100.94Z"/><path class="cls-4" d="M29.61,100.17l-1.43-.65-.35,0a1,1,0,0,1-.43-.68c.72,0,1.44.5,2.16.08A.77.77,0,0,1,29.61,100.17Z"/><path class="cls-2" d="M148.63,114.75l-.33.59a59.91,59.91,0,0,0-9.42-1.46c.08-.65.7-.5,1.08-.71C142.87,113.59,145.88,113.43,148.63,114.75Z"/><path class="cls-4" d="M14.22,110.23c.35-.81.7-1.61,1-2.41l.81.51c.19,0-.15.53.32.27,1.2-.7,2.75-1.55,2.17-3.23A5,5,0,0,1,20.7,104l.57.43c.73,2.78-1.15,4.36-2.87,5.87-2.13,1.48-4.24,3.79-6.95,4,1.51-1.4,3.7-1.65,4-3.81-.51-.32-.75.32-1.15.25A.46.46,0,0,1,14.22,110.23ZM20,107c-.67.22-4.78,3.07-4.06,3.68C17.93,110.8,18.87,108.22,20,107Z"/><path class="cls-4" d="M20.77,103.62c-.16-.1-.42-.3-.46-.26-.8.71-1.07-.3-1.59-.46.36-1.55,2,1,2.26-2.08.48.49,1-.1,1.45,0,1.06.75,1.07,1.06.19,1.82-.62.54-1.05.44-1.38-.3C20.84,102.73,21.13,103.3,20.77,103.62Z"/><path class="cls-4" d="M27.85,100.15c-.81.21-1.71-1.18-2.3-.19-.58-.17-1-.91-1.7-.61-.14-.57.22-.58.63-.59,1.21-.12,2.13.75,3.25.92Z"/><path class="cls-2" d="M23.85,99.35c.74-.3,1.12.44,1.7.61a.33.33,0,0,0,0,.22.14.14,0,0,0-.16.11c-.57-.1-1.18.46-1.67,0C23.38,100,23.66,99.66,23.85,99.35Z"/><path class="cls-2" d="M22.43,100.85c-.48-.13-1,.46-1.45,0,.5-.48.92-1.15,1.79-.74l0,.48Z"/><path class="cls-3" d="M27.85,100.15l-.12-.47.1-.12.35,0c0,.35.41.4.44.73C28.32,100.56,28.1,100.16,27.85,100.15Z"/><path class="cls-4" d="M22.73,100.56l0-.48C23.27,100.1,23.24,100.67,22.73,100.56Z"/><path class="cls-4" d="M25.37,100.29c.09-.28.41,0,.22.21Z"/><path class="cls-3" d="M16,103.78l0,0S16,103.81,16,103.78Z"/><path class="cls-2" d="M57,107.51c.57.4,3.41,2.61,2.83,3.22-.65.15-2-2-2.65-2.43C57,108.08,56.76,107.84,57,107.51Z"/><path class="cls-5" d="M59.75,111.25c.44-.07.87-.35,1.18,0s.77.89.44,1.5c-.16.29-.48.07-.53-.08C60.64,112.11,59.72,112.06,59.75,111.25Z"/><path class="cls-3" d="M55.41,106.73l1.16.46C55.84,107.91,55.56,107.49,55.41,106.73Z"/><path class="cls-3" d="M36.71,76.29c.36.29,1.36,0,.84,1.07.11.76.91-.4,1.19-.63-.4.66,0,1.21.12,1.81.3,2.06-3.22.55-2.15-2.25Z"/><path class="cls-4" d="M37.17,81.81c-.37-.23-.66-.48-.5-.85.26-.61,1.41.52,1.1.92S37.33,81.81,37.17,81.81Z"/><path class="cls-4" d="M7,118.24c1.48,0,3.76-2.22,5-3.15-1.13,2-3.16,2.78-5,3.86Z"/><path class="cls-4" d="M10.81,114.74a2.46,2.46,0,0,1-1.35.68c.24-.85.21-1,1.27-1Z"/><path class="cls-2" d="M102,120.3c-.56-.16-1-.27-1.24-1-.39-1.52-2.4-1.31-3.42-2.36,1.75-.77,8,2.09,4.66,3.4Z"/><path class="cls-2" d="M97,117.92c-.53.38-.92,1.1-1.76.72C95.26,117.56,95.57,117.43,97,117.92Z"/><path class="cls-5" d="M102,120.3c.43.4.24.62-.33.81a1.28,1.28,0,0,1,.33-.81Z"/><path class="cls-6" d="M39.67,84.31c-.33-.21-.1-.77.22-.48A.26.26,0,0,1,39.67,84.31Z"/><path class="cls-4" d="M14.27,149.65a6.21,6.21,0,0,1,1.62.83C15.28,150.34,14.6,150.33,14.27,149.65Z"/><path class="cls-4" d="M11.22,147.68l1.53,1.13A3.15,3.15,0,0,1,11.22,147.68Z"/><path class="cls-4" d="M16.67,151a1.15,1.15,0,0,1,.88.34C17.08,151.61,16.84,151.37,16.67,151Z"/><path class="cls-3" d="M97.81,118.39l.06.09-.05-.1Z"/><path class="cls-3" d="M97.82,118.38l0-.12s0,.07,0,.13Z"/><path class="cls-2" d="M42.47,58.11c-.41,1.8-1.62,3.34-2.48,4.91a3.37,3.37,0,0,0-.32-.19c-.12-1.74,1.13-3.09,1.65-4.69C41.69,57.6,42.06,57.07,42.47,58.11Z"/><path class="cls-3" d="M38.5,71.12c-.51.58-1.38.65-1.72,1.4h0a5.16,5.16,0,0,1,1-3.8c.29,1-.78,1.34.86,2Z"/><path class="cls-5" d="M38.62,70.68l-.49-.25L39,69.12l.33-.11A2,2,0,0,1,38.62,70.68Z"/><path class="cls-3" d="M144.08,122.07c0-.32-.27-.44-.48-.6,1.74-1.1,3.43-2.33,3.89-4.46l.7.45c-.7,1.68-1.44,3.33-3.13,4.26a1.64,1.64,0,0,0-.77.79,1,1,0,0,1-.16-.13S144.09,122.17,144.08,122.07Z"/><path class="cls-3" d="M40.83,55.14c.34-.28,1.16.27,1,.66s-.45,0-.65,0S40.8,55.42,40.83,55.14Z"/><path class="cls-2" d="M41,57.31c-.3-.15-.19-.37-.06-.54s.2-.55.54-.31a.41.41,0,0,1,.13.58C41.43,57.27,41.27,57.46,41,57.31Z"/><path class="cls-3" d="M101.63,169c.3.39.11.75-.08,1.12C101.17,169.73,101.3,169.37,101.63,169Z"/><path class="cls-3" d="M100.11,169.15a.66.66,0,0,0,.58.26C100.54,170,100,169.66,100.11,169.15Z"/><path class="cls-4" d="M55.6,78.19c.34-.74,2.35-3.37,3.13-3.1h0c-1.19,2.26-.91,2-3.14,3.09Z"/><path class="cls-5" d="M60.89,78.45c.43,0,.5-.5.82-.67.82.83.24,1.44-.32,2-.32-.09-.63.24-1-.06Z"/><path class="cls-2" d="M58,79c-.3-.18-.6-.36-.31-.77s.56-.21.83,0,.79.54.45,1S58.28,79.13,58,79Z"/><path class="cls-4" d="M55.59,78.18c.32,1.34-.85.08,0,0Z"/><path class="cls-4" d="M58.73,75.09l.25-.21,0,.1-.29.11Z"/><path class="cls-3" d="M64.25,72a.23.23,0,0,1-.32.31C63.88,72.14,64.1,72.05,64.25,72Z"/><path class="cls-3" d="M60.05,77.7l0,0-.09,0Z"/><path class="cls-2" d="M51,80.75c-.39.61-.41,1.56-1.43,1.61a14.05,14.05,0,0,0,.28-1.9c0-1.2,1.09-1.2,1.78-1.62C52.56,78.86,51.16,80.35,51,80.75Z"/><path class="cls-4" d="M40,63l.37-.38c.5.41-.08.81-.51.8Z"/><path class="cls-4" d="M36.78,72.52a2,2,0,0,1,1.15-.93l.55.42c-.42.58-.4,1.42-1.18,1.88C37,73.46,37.32,72.8,36.78,72.52Z"/><path class="cls-5" d="M144.13,122.38a1,1,0,0,0,.16.13c.17.85-1,3.43-2,3-.31-.27-.14-.65.12-.87A11.28,11.28,0,0,0,144.13,122.38Z"/><path class="cls-5" d="M144.08,122.07l.06.33Z"/><path class="cls-5" d="M29.85,116.94a2.11,2.11,0,0,1,2.3.73c-1,2.43-1.58-.27-2,.79.84,2.22-1.35,1.16-1.64,2.27-.37,0-.54.29-.7.57-.47-.17.15-.83-.35-.88s-.64.32-.83.64c-.76.81-.37,1.3.45,1.68-.83,1.3.66,1.42,1.45,2-.25.29.05.83-.43,1-.93-1.25-2.4-1.93-3.29-3.2.18-.5,1.38-.74.31-1.62-.19.54-.37,1.15-1.13.76-.17-.09-.26-.63-.55-.18-.16.26.1.47.33.63l-.15.17c-1.27.06-1.13,1.39-1.74,2.1-.82.19-1,.71-.74,1.45-1.07,1.88-.48,3.87-.4,5.83-.17,1.09,1.14,1.26,1.6.36a4.25,4.25,0,0,1,2-1.64c.85-.36,6.1-3.54,4.48-4.42.08-.83.86-.06.85-.69-.08-.45-.76-.41-1.11-.56,1.15-1.19,2.56.35,3.87-.32.13,0,.24.13.26.29l-.29.46A3.47,3.47,0,0,0,30,127.06a15.15,15.15,0,0,1-5.1,4.16c-1.25.71-1.83,2.18-3.29,2.66-.48.16.18.75.17,1.17s.31.75-.15.87-.7-.29-.73-.67c-.16-1.94-1.09-3.71-1.24-5.66-.25-2.4,1.45-3.26.47-3.9.7-.9,3-3.41,2.71-4.45a55.32,55.32,0,0,0,4.4-5.39c1.32-2.11,3.46-3.39,5.34-4.9.32-.26.54-.13.75.15,1.63,2.15,2.53-.56,3.44.43.25.35,0,.55-.28.72-1.22,1.17-2.85.46-4,1.85-.87.82-1.78,1.61-2.66,2.41-.19.1-.44.18-.34.44S29.72,117,29.85,116.94Zm-1.26-1.69c-.17,0-.24,0-.15.21l-.49.74c-1.08.35-.76,2-1.82,2.27s-1.25,1.4-1.8,2.16c1.5-1.07,3.62-1.78,3.9-3.85A17,17,0,0,0,32,113.2,6.75,6.75,0,0,0,28.59,115.25ZM27.78,119c-.33.33-.44,1,.14,1.06s.31-.43.43-.67c.22-.45,1.16-.87.69-1.24S28.35,118.89,27.78,119Zm4-6.29c.54-.36,1.28-.26,1.42-1C32.66,111.92,31.73,111.56,31.75,112.69Z"/><path class="cls-3" d="M32.39,125.21l.29-.46a2.09,2.09,0,0,0,1.13-1.28c.34-.8-.38-.44-.61-.78.11-.14.48-.23.08-.47.41-.53-.71-.83-.2-1.38.64-.31.27-.52-.07-.74h0l.28-.35c.42,0,.85.65,1.27,0,.27.66-1.33,1.74.23,1.62-.37,3.83-2.57,6.75-4.76,9.68-.53.59-2,3-2.82,2.08C28,132.74,34.32,125.15,32.39,125.21Z"/><path class="cls-5" d="M34.79,121.37c-1.56.12,0-1-.23-1.62a38.42,38.42,0,0,0,1.85-6.29,4.53,4.53,0,0,0,1.39-3.4c0-1,1.24-.8,1,.12a4.84,4.84,0,0,1-.8,2.76c-.61.67.23,1.26.09,1.9-2.11,1-1.94,3.73-2.88,5.63A6.83,6.83,0,0,0,34.79,121.37Z"/><path class="cls-4" d="M33.08,131c-.78,1.94-2.15,3.54-3,5.42-.62,1.57-4.36,5.34-5.95,4-.08-.54.48-.25.74-.37,4-1.55,5.57-5.73,7.7-9.12Z"/><path class="cls-3" d="M19.08,127.51c-.88,2.26-2,5-1.17,7.37.26.39.05,1.08-.45.82-1.15-1.08-.18-5.15.36-6.58.13-.34.44-.64-.16-.86-.34-.13-.25-.46-.11-.68,1.18-1.59,2.13-4.19,3.83-5.13-.15.27-.43.49-.39.85A9.85,9.85,0,0,0,19.27,126a1.92,1.92,0,0,0-1,1.67C18.63,127.62,18.81,127.31,19.08,127.51Z"/><path class="cls-4" d="M33.29,119.76l-.28.35c-2.56-.44-.55,1.11-1.94,2.18-.1.19-.24.15-.4.08-.43.11.29-1.8-.84-.48l-1.29-1.16c.29-1.1,2.48,0,1.64-2.27.39-1.06,1,1.63,2-.79C32.79,117.71,34.18,119.5,33.29,119.76Z"/><path class="cls-3" d="M36.39,117.12c0-1.18.84-1.75,1.71-2.28.37,3.71-1.13,7.4-2.51,10.78-.36.07-.46.37-.6.63l-.35.1a30.43,30.43,0,0,0,2.79-10.29C36.72,116.26,36.75,116.86,36.39,117.12Z"/><path class="cls-3" d="M16.07,108.33l-.81-.51c.47-.67,1-1.34,1.39-2,.81-1.26.8-1.27,1.91-.43l.06.29C17.69,107.67,17,106.73,16.07,108.33Z"/><path class="cls-3" d="M14.22,110.23a.46.46,0,0,0,.07.5c-1.06.82-1.56,2.56-3.15,2.36A5.35,5.35,0,0,1,14.22,110.23Z"/><path class="cls-4" d="M27.21,133.13a.41.41,0,0,0,.44.28l-2.95,1.66c-.13-.2-.06-.53-.4-.6A6.69,6.69,0,0,1,27.21,133.13Z"/><path class="cls-3" d="M33.08,131l-.54,0a23.08,23.08,0,0,0,2.1-4.64l.34-.1.23.24c-.18.43-.35.87-.52,1.31s-.58.63-.34,1.11l-.2.38C33.83,129.78,33.45,130.49,33.08,131Z"/><path class="cls-4" d="M19.08,127.51c-.27-.2-.45.11-.78.13a1.92,1.92,0,0,1,1-1.67c.36.15.49-.37.82-.28.73.56.1,1-.13,1.47C19.43,126.69,19.34,127.3,19.08,127.51Z"/><path class="cls-4" d="M21,123.3a3,3,0,0,1,1.81-2.06c.22.87-.46,1.34-.86,1.94C21.56,122.75,21.32,123.37,21,123.3Z"/><path class="cls-5" d="M24.3,134.47c.34.07.27.4.4.6-.34.44-.05,1.59-1.22,1.08a.44.44,0,0,0,.08-.53A1.34,1.34,0,0,1,24.3,134.47Z"/><path class="cls-3" d="M34.07,110.57a.41.41,0,0,1-.16-.66C34.59,108.76,35.35,111.14,34.07,110.57Z"/><path class="cls-5" d="M13.6,109.53c-.4.26-.65.83-1.16.59s0-.5.14-.7.64-.71,1.09-.5S13.57,109.32,13.6,109.53Z"/><path class="cls-4" d="M35.21,126.49l-.23-.24c.15-.26.25-.56.61-.63Z"/><path class="cls-4" d="M34.35,128.91c-.24-.48.14-.77.34-1.11A1.4,1.4,0,0,1,34.35,128.91Z"/><path class="cls-4" d="M23.56,135.62a.44.44,0,0,1-.08.53C23.15,135.92,23.51,135.79,23.56,135.62Z"/><path class="cls-4" d="M13.16,111.9l.36-.34Z"/><path class="cls-4" d="M10.73,114.46c.44-.46.67.19.08.28Z"/><path class="cls-4" d="M34,129.5c0-.1,0-.21.11-.21Z"/><path class="cls-3" d="M35.13,120.62a.16.16,0,0,1,.09-.15A.11.11,0,0,1,35.13,120.62Z"/><path class="cls-3" d="M27.3,101c.11.17.22.34.32.51C27,101.94,26.72,101.37,27.3,101Z"/><path class="cls-3" d="M29.46,100.94a1.34,1.34,0,0,0-.68.54C28,101.21,29.29,100.17,29.46,100.94Z"/><path class="cls-2" d="M20,107c-1.14,1.22-2.09,3.8-4.06,3.68C15.24,110.07,19.33,107.24,20,107Z"/><path class="cls-2" d="M16.07,108.33c.88-1.61,1.61-.64,2.55-2.67.36,1.59-1.14,2.25-2.23,2.94C15.92,108.86,16.26,108.3,16.07,108.33Z"/><path class="cls-2" d="M24.84,122.59c.89,1.27,2.36,2,3.29,3.2a.6.6,0,0,0,.68.24c1.63.87-3.64,4.07-4.48,4.42a4.25,4.25,0,0,0-2,1.64c-.46.89-1.78.73-1.6-.36-.08-2-.67-3.95.4-5.83.62-.47.63-1.21,1-1.85.84-.37,1.14-1.21,1.67-1.87C24.24,122.06,24.51,122.41,24.84,122.59Z"/><path class="cls-4" d="M33.3,122.81c1.32,0,.05,1.74-.62,1.94,0-.16-.13-.34-.26-.29-1.31.67-2.72-.87-3.87.32h0l-.76-.49c.32-.76-.62-1-.69-1.54-.82-.38-1.21-.87-.45-1.68.45.27.36.75.44,1.19l.65-.41c.35.8,1.2.3,1.71.67l1.16.63C31.07,124.78,32.48,123.25,33.3,122.81Z"/><path class="cls-2" d="M28,116.2a6.34,6.34,0,0,1,4-3,17,17,0,0,1-3.74,3.58C27.94,116.68,28.13,116.35,28,116.2Z"/><path class="cls-4" d="M28,116.2c.18.15,0,.48.28.58-.28,2.07-2.4,2.78-3.9,3.85.55-.76.66-1.82,1.8-2.16S26.87,116.55,28,116.2Z"/><path class="cls-2" d="M29.46,122.51c-.51-.37-1.36.13-1.71-.67,0-.48.21-1.06.79-1.11l1.29,1.16Z"/><path class="cls-2" d="M21,123.3c.33.07.57-.55,1-.12a13.78,13.78,0,0,1-1.85,2.51c-.33-.09-.46.43-.82.28l.6-1.13C20.4,124.45,20.55,123.78,21,123.3Z"/><path class="cls-4" d="M24.84,122.59c-.33-.18-.6-.53-1-.41-.23-.16-.49-.37-.33-.63.29-.45.38.09.55.18.76.39.94-.22,1.13-.76C26.22,121.85,25,122.09,24.84,122.59Z"/><path class="cls-4" d="M27.78,119c.57-.09.64-1.33,1.26-.85s-.47.79-.69,1.24c-.12.24,0,.66-.43.67S27.45,119.31,27.78,119Z"/><path class="cls-3" d="M27.84,121.3l-.09.54-.65.41c-.08-.44,0-.92-.44-1.19.19-.32.45-.68.83-.64S27.37,121.13,27.84,121.3Z"/><path class="cls-4" d="M28.81,126a.6.6,0,0,1-.68-.24c.46-.18.22-.77.42-1,.35.15,1,.11,1.11.56C29.67,126,28.89,125.2,28.81,126Z"/><path class="cls-4" d="M23.65,122.35a3.91,3.91,0,0,1-1.52,1.7C22.61,123.45,22.51,122.35,23.65,122.35Z"/><path class="cls-2" d="M31.75,112.69c0-1.13.91-.77,1.42-1C33,112.43,32.29,112.33,31.75,112.69Z"/><path class="cls-4" d="M21.91,124.45a2.08,2.08,0,0,1-.74,1.45C20.92,125.16,21.09,124.64,21.91,124.45Z"/><path class="cls-2" d="M27.11,122.74c.07.58,1,.78.69,1.54C26.89,124.07,26.65,123.56,27.11,122.74Z"/><path class="cls-2" d="M29.85,116.94c-.54.32-.48-.35,0-.43Z"/><path class="cls-4" d="M28.59,115.25l-.15.21C28.35,115.3,28.42,115.24,28.59,115.25Z"/><path class="cls-5" d="M31.07,122.29c1.39-1.07-.62-2.62,1.94-2.18h0c-.08.26-.44.54.07.74-.51.55.61.85.2,1.38-.37.11-.83,0-1.05.44h0c-.18-.21-.37-.26-.59,0ZM32.28,121s.08-.05,0-.11S32.22,121,32.28,121Z"/><path class="cls-2" d="M31.07,122.29l.55.32c.16.36.37.23.59,0h0l1,0a.2.2,0,0,0,.1.12c-.82.44-2.23,2-2.68.33,0-.26-.17-.53.05-.77C30.83,122.44,31,122.48,31.07,122.29Z"/><path class="cls-4" d="M33.2,122.69l-1,0c.22-.46.68-.33,1.05-.44C33.68,122.46,33.31,122.55,33.2,122.69Z"/><path class="cls-4" d="M33.08,120.84c-.51-.2-.15-.48-.07-.74C33.35,120.32,33.72,120.53,33.08,120.84Z"/><path class="cls-4" d="M20.59,123.86a2.5,2.5,0,0,1-.72,1C20,124.46,20.16,124.05,20.59,123.86Z"/><path class="cls-5" d="M30.67,122.37c-.22.24-.07.51-.06.77l-1.15-.63C31,120.09,30.24,122.39,30.67,122.37Z"/><path class="cls-4" d="M32.21,122.66c-.22.18-.43.31-.59,0C31.84,122.4,32,122.45,32.21,122.66Z"/><path class="cls-4" d="M32.28,121c-.06-.05,0-.07,0-.11S32.33,121,32.28,121Z"/></g></g></svg>